<svg width="44" height="45" viewBox="0 0 44 45" fill="none" xmlns="http://www.w3.org/2000/svg">
<path fill-rule="evenodd" clip-rule="evenodd" d="M28.2698 10.8454C28.017 10.4414 27.6445 10.1263 27.2041 9.94395C26.7638 9.76158 26.2776 9.72102 25.8131 9.82794L22.5168 10.5851C22.179 10.6627 21.828 10.6627 21.4901 10.5851L18.1938 9.82794C17.7294 9.72102 17.2431 9.76158 16.8028 9.94395C16.3625 10.1263 15.99 10.4414 15.7371 10.8454L13.9405 13.7128C13.7571 14.0061 13.5096 14.2536 13.2163 14.4388L10.349 16.2354C9.94567 16.4881 9.63102 16.86 9.44869 17.2995C9.26635 17.7391 9.22539 18.2245 9.33147 18.6884L10.0886 21.9884C10.166 22.3257 10.166 22.676 10.0886 23.0133L9.33147 26.3114C9.22498 26.7756 9.26573 27.2614 9.44809 27.7014C9.63044 28.1413 9.94533 28.5135 10.349 28.7663L13.2163 30.5629C13.5096 30.7463 13.7571 30.9938 13.9423 31.2871L15.739 34.1544C16.256 34.9813 17.2423 35.3901 18.1938 35.1719L21.4901 34.4148C21.828 34.3371 22.179 34.3371 22.5168 34.4148L25.815 35.1719C26.2792 35.2784 26.765 35.2377 27.2049 35.0553C27.6449 34.873 28.0171 34.5581 28.2698 34.1544L30.0665 31.2871C30.2498 30.9938 30.4973 30.7463 30.7906 30.5629L33.6598 28.7663C34.0635 28.5132 34.3782 28.1406 34.5603 27.7003C34.7423 27.26 34.7826 26.7739 34.6755 26.3096L33.9201 23.0133C33.8425 22.6755 33.8425 22.3244 33.9201 21.9866L34.6773 18.6884C34.784 18.2244 34.7435 17.7388 34.5615 17.2988C34.3795 16.8589 34.065 16.4866 33.6616 16.2336L30.7925 14.4369C30.4995 14.2533 30.252 14.0057 30.0683 13.7128L28.2698 10.8454ZM27.3476 18.4116C27.461 18.2031 27.4891 17.9587 27.426 17.7299C27.3629 17.5011 27.2135 17.3057 27.0092 17.1848C26.805 17.0639 26.5618 17.027 26.3309 17.0817C26.0999 17.1365 25.8992 17.2787 25.771 17.4784L20.9768 25.5928L18.082 22.8208C17.9961 22.7326 17.8933 22.6626 17.7798 22.615C17.6663 22.5674 17.5444 22.5431 17.4213 22.5437C17.2982 22.5442 17.1765 22.5695 17.0634 22.6181C16.9503 22.6667 16.8482 22.7376 16.763 22.8265C16.6779 22.9154 16.6116 23.0206 16.568 23.1357C16.5244 23.2508 16.5045 23.3735 16.5093 23.4965C16.5142 23.6195 16.5438 23.7403 16.5963 23.8516C16.6489 23.9629 16.7233 24.0625 16.8151 24.1444L20.5441 27.7176C20.6439 27.813 20.764 27.8847 20.8954 27.9272C21.0268 27.9697 21.1661 27.982 21.3029 27.9631C21.4396 27.9443 21.5704 27.8948 21.6854 27.8183C21.8004 27.7418 21.8966 27.6403 21.9668 27.5214L27.3476 18.4116Z" fill="#0056CC"/>
</svg>
