<svg width="26" height="26" viewBox="0 0 26 26" fill="none" xmlns="http://www.w3.org/2000/svg">
<path fill-rule="evenodd" clip-rule="evenodd" d="M19.4261 1.44309C19.1732 1.03909 18.8007 0.723978 18.3604 0.541606C17.9201 0.359234 17.4338 0.318681 16.9694 0.425592L13.6731 1.18276C13.3352 1.2604 12.9842 1.2604 12.6464 1.18276L9.35006 0.425592C8.88561 0.318681 8.39938 0.359234 7.95906 0.541606C7.51874 0.723978 7.14623 1.03909 6.89339 1.44309L5.09672 4.31043C4.91339 4.60376 4.66589 4.85126 4.37256 5.03643L1.50522 6.83309C1.10192 7.08571 0.787269 7.45761 0.604936 7.89718C0.422603 8.33675 0.381637 8.82218 0.487724 9.28609L1.24489 12.5861C1.32225 12.9233 1.32225 13.2737 1.24489 13.6109L0.487724 16.9091C0.381225 17.3733 0.421985 17.8591 0.604337 18.299C0.78669 18.739 1.10158 19.1112 1.50522 19.3639L4.37256 21.1606C4.66589 21.3439 4.91339 21.5914 5.09856 21.8848L6.89522 24.7521C7.41222 25.5789 8.39856 25.9878 9.35006 25.7696L12.6464 25.0124C12.9842 24.9348 13.3352 24.9348 13.6731 25.0124L16.9712 25.7696C17.4354 25.8761 17.9212 25.8353 18.3612 25.653C18.8011 25.4706 19.1733 25.1557 19.4261 24.7521L21.2227 21.8848C21.4061 21.5914 21.6536 21.3439 21.9469 21.1606L24.8161 19.3639C25.2197 19.1108 25.5345 18.7382 25.7165 18.2979C25.8985 17.8576 25.9388 17.3715 25.8317 16.9073L25.0764 13.6109C24.9987 13.2731 24.9987 12.9221 25.0764 12.5843L25.8336 9.28609C25.9402 8.8221 25.8997 8.33641 25.7177 7.89649C25.5357 7.45656 25.2212 7.08424 24.8179 6.83126L21.9487 5.03459C21.6558 4.85092 21.4082 4.60335 21.2246 4.31043L19.4261 1.44309ZM18.5039 9.00926C18.6173 8.80075 18.6454 8.55638 18.5823 8.32758C18.5191 8.09877 18.3698 7.90336 18.1655 7.78247C17.9612 7.66158 17.7181 7.62463 17.4871 7.67939C17.2562 7.73415 17.0555 7.87636 16.9272 8.07609L12.1331 16.1904L9.23822 13.4184C9.15234 13.3302 9.04958 13.2603 8.93607 13.2127C8.82256 13.1651 8.70063 13.1408 8.57754 13.1413C8.45445 13.1419 8.33273 13.1672 8.21964 13.2158C8.10654 13.2644 8.0044 13.3353 7.91929 13.4242C7.83418 13.5131 7.76786 13.6183 7.72427 13.7334C7.68068 13.8485 7.66072 13.9712 7.66558 14.0942C7.67045 14.2172 7.70003 14.3379 7.75257 14.4493C7.80511 14.5606 7.87953 14.6602 7.97139 14.7421L11.7004 18.3153C11.8002 18.4107 11.9203 18.4823 12.0516 18.5249C12.183 18.5674 12.3223 18.5797 12.4591 18.5608C12.5959 18.5419 12.7267 18.4924 12.8416 18.4159C12.9566 18.3394 13.0528 18.238 13.1231 18.1191L18.5039 9.00926Z" fill="#00B875"/>
</svg>
