<svg width="21" height="27" viewBox="0 0 21 27" fill="none" xmlns="http://www.w3.org/2000/svg">
<path d="M10.5037 0.8125L10.6536 0.821472C10.9397 0.855211 11.2061 0.984351 11.4098 1.18806C11.6135 1.39176 11.7427 1.65815 11.7764 1.94425L11.7854 2.09421V7.22104L11.7918 7.4133C11.8377 8.02361 12.1004 8.59738 12.5324 9.03086C12.9645 9.46433 13.5374 9.72892 14.1476 9.77677L14.3488 9.78446H19.4756L19.6256 9.79343C19.9117 9.82717 20.1781 9.95631 20.3818 10.16C20.5855 10.3637 20.7146 10.6301 20.7484 10.9162L20.7573 11.0662V22.6016C20.7574 23.5823 20.3827 24.5261 19.7098 25.2396C19.037 25.9532 18.1169 26.3827 17.1378 26.4403L16.9122 26.4467H4.09513C3.11435 26.4467 2.17062 26.072 1.45704 25.3992C0.743449 24.7263 0.313948 23.8062 0.256409 22.8271L0.25 22.6016V4.65763C0.249945 3.67685 0.624676 2.73312 1.29752 2.01954C1.97036 1.30595 2.89046 0.876448 3.86955 0.818909L4.09513 0.8125H10.5037Z" fill="#B3B3B3"/>
<path d="M19.4797 7.22089H14.3528L14.3516 2.09277L19.4797 7.22089Z" fill="#B3B3B3"/>
</svg>
