<svg width="20" height="20" viewBox="0 0 20 20" fill="none" xmlns="http://www.w3.org/2000/svg">
<path d="M13.7471 2.83301C16.1299 2.83301 17.9969 4.69266 17.9971 7.08301C17.9971 8.54426 17.341 9.90061 16.1191 11.3955C14.8936 12.8948 13.1337 14.4927 10.9814 16.4443V16.4453L10.4463 16.9326C10.192 17.164 9.80319 17.1639 9.54883 16.9326L9.01367 16.4453L9.0127 16.4443C6.86047 14.4927 5.10049 12.8948 3.875 11.3955C2.65311 9.90061 1.99707 8.54425 1.99707 7.08301C1.99724 4.69277 3.86437 2.83318 6.24707 2.83301C7.59617 2.83301 8.89679 3.46309 9.74414 4.4502L9.99707 4.74512L10.25 4.4502C11.0973 3.463 12.398 2.83311 13.7471 2.83301Z" stroke="#B3B3B3" stroke-width="0.666667"/>
</svg>
