<svg width="414" height="437" viewBox="0 0 414 437" fill="none" xmlns="http://www.w3.org/2000/svg">
<path d="M18.0234 43.5273H92.793C94.3437 43.5274 95.8568 44.008 97.123 44.9033L113.552 56.5205C114.987 57.5352 116.701 58.0801 118.459 58.0801H283.17C284.927 58.08 286.642 57.5352 288.077 56.5205L304.506 44.9033C305.772 44.008 307.285 43.5274 308.836 43.5273H395.023C399.166 43.5274 402.523 46.8852 402.523 51.0273V137.531C402.523 138.043 402.471 138.553 402.367 139.054L393.441 182.083V182.084C393.324 182.652 393.264 183.23 393.264 183.81V386.124C393.264 390.266 389.906 393.624 385.764 393.624H27.1846C23.0424 393.624 19.6846 390.266 19.6846 386.124V173.42C19.6846 172.673 19.5858 171.93 19.3916 171.209L10.7812 139.244C10.6099 138.608 10.5234 137.952 10.5234 137.293V51.0273C10.5234 46.8852 13.8813 43.5273 18.0234 43.5273Z" fill="#EFF3F4" stroke="url(#paint0_linear_3806_26124)"/>
<g filter="url(#filter0_f_3806_26124)">
<path d="M16.1562 50.834H100.345L120.656 64.7392H288.217L308.527 50.834H403.984V141.919L394.847 184.571V386.316H25.1967V174.416L16.1562 141.919V50.834Z" fill="url(#paint1_linear_3806_26124)"/>
<path d="M25.6963 174.348L25.6787 174.281L16.6562 141.852V51.334H100.19L120.373 65.1514L120.501 65.2393H288.372L288.499 65.1514L308.682 51.334H403.484V141.864L394.357 184.466L394.347 184.518V385.815H25.6963V174.348Z" stroke="#001E5B"/>
</g>
<rect x="57.5703" y="81.1309" width="305" height="295" rx="24" fill="#EFF3F4"/>
<path fill-rule="evenodd" clip-rule="evenodd" d="M210.075 117.488C207.73 117.488 205.834 117.559 203.872 117.694C202.867 117.761 201.92 118.192 201.209 118.907C200.497 119.622 200.071 120.571 200.008 121.577C199.862 123.925 199.789 126.278 199.789 128.631C199.789 131.048 199.864 133.407 200.008 135.685C200.071 136.692 200.497 137.641 201.209 138.355C201.92 139.07 202.867 139.501 203.872 139.568C205.834 139.704 207.73 139.774 210.075 139.774C212.422 139.774 214.318 139.704 216.279 139.568C217.285 139.501 218.232 139.07 218.943 138.355C219.654 137.641 220.08 136.692 220.143 135.685C220.35 132.37 220.41 129.046 220.324 125.725C220.306 124.881 220.028 124.063 219.529 123.382C217.981 121.272 216.724 119.935 214.674 118.352C213.983 117.823 213.141 117.529 212.271 117.512C211.539 117.496 210.806 117.488 210.075 117.488Z" fill="#6B4EFF"/>
<path fill-rule="evenodd" clip-rule="evenodd" d="M220.35 127.38C218.879 125.335 216.446 124.999 214.468 125.012C213.047 125.023 211.898 123.975 211.898 122.556V117.504L212.267 117.512C213.131 117.53 213.976 117.818 214.67 118.352C216.721 119.935 217.977 121.272 219.525 123.382C220.028 124.066 220.3 124.886 220.321 125.724C220.334 126.272 220.343 126.824 220.35 127.38Z" fill="#19005C"/>
<path d="M127.838 167.919C126.772 167.919 125.86 167.732 125.102 167.359C124.356 166.986 123.753 166.5 123.294 165.903C122.836 165.306 122.5 164.66 122.286 163.967C122.073 163.263 121.966 162.586 121.966 161.935V161.583C121.966 160.879 122.073 160.175 122.286 159.471C122.51 158.767 122.852 158.127 123.31 157.551C123.769 156.975 124.366 156.511 125.102 156.159C125.838 155.807 126.718 155.631 127.742 155.631C129.3 155.631 130.526 156.031 131.422 156.831C132.329 157.62 132.857 158.676 133.006 159.999H131.406C131.268 159.007 130.857 158.271 130.174 157.791C129.502 157.311 128.692 157.071 127.742 157.071C126.825 157.071 126.052 157.284 125.422 157.711C124.804 158.127 124.34 158.692 124.03 159.407C123.721 160.111 123.566 160.9 123.566 161.775C123.566 162.607 123.721 163.38 124.03 164.095C124.35 164.81 124.825 165.386 125.454 165.823C126.094 166.26 126.889 166.479 127.838 166.479C128.841 166.479 129.684 166.228 130.366 165.727C131.049 165.226 131.465 164.5 131.614 163.551H133.214C133.108 164.351 132.836 165.082 132.398 165.743C131.972 166.404 131.374 166.932 130.606 167.327C129.849 167.722 128.926 167.919 127.838 167.919ZM137.629 167.855C136.658 167.855 135.896 167.615 135.341 167.135C134.797 166.644 134.525 165.956 134.525 165.071C134.525 164.164 134.829 163.482 135.437 163.023C136.045 162.554 136.904 162.319 138.013 162.319H140.173V162.111C140.173 160.927 139.576 160.335 138.381 160.335C137.89 160.335 137.378 160.346 136.845 160.367C136.312 160.388 135.869 160.41 135.517 160.431V159.087C135.858 159.055 136.237 159.034 136.653 159.023C137.08 159.002 137.485 158.991 137.869 158.991C139.181 158.991 140.136 159.231 140.733 159.711C141.341 160.191 141.645 161.028 141.645 162.223V167.631H140.429V165.935C140.045 167.215 139.112 167.855 137.629 167.855ZM137.949 166.639C138.312 166.639 138.658 166.575 138.989 166.447C139.32 166.308 139.592 166.084 139.805 165.775C140.029 165.455 140.152 165.018 140.173 164.463V163.471H137.949C137.33 163.471 136.856 163.62 136.525 163.919C136.194 164.218 136.029 164.602 136.029 165.071C136.029 165.54 136.194 165.919 136.525 166.207C136.856 166.495 137.33 166.639 137.949 166.639ZM144.464 167.631V159.087H145.68V161.055C145.862 160.34 146.182 159.791 146.64 159.407C147.11 159.023 147.718 158.831 148.464 158.831H148.528C149.254 158.831 149.846 159.012 150.304 159.375C150.763 159.738 151.088 160.26 151.28 160.943C151.483 160.26 151.814 159.738 152.272 159.375C152.742 159.012 153.339 158.831 154.064 158.831H154.128C155.142 158.831 155.894 159.178 156.384 159.871C156.886 160.554 157.136 161.514 157.136 162.751V167.631H155.6V162.415C155.6 161.722 155.43 161.188 155.088 160.815C154.747 160.431 154.272 160.239 153.664 160.239C153.035 160.239 152.528 160.442 152.144 160.847C151.76 161.242 151.568 161.796 151.568 162.511V167.631H150.032V162.415C150.032 161.722 149.862 161.188 149.52 160.815C149.179 160.431 148.704 160.239 148.096 160.239C147.467 160.239 146.96 160.442 146.576 160.847C146.192 161.242 146 161.796 146 162.511V167.631H144.464ZM159.949 170.831V159.087H161.165V161.183C161.453 160.362 161.901 159.759 162.509 159.375C163.117 158.991 163.799 158.799 164.557 158.799C165.389 158.799 166.109 159.002 166.717 159.407C167.335 159.812 167.815 160.351 168.157 161.023C168.498 161.684 168.669 162.415 168.669 163.215V163.503C168.669 164.303 168.493 165.039 168.141 165.711C167.789 166.372 167.298 166.906 166.669 167.311C166.05 167.716 165.335 167.919 164.525 167.919C163.938 167.919 163.373 167.796 162.829 167.551C162.285 167.306 161.837 166.906 161.485 166.351V170.831H159.949ZM164.285 166.575C164.861 166.575 165.362 166.442 165.789 166.175C166.215 165.898 166.546 165.519 166.781 165.039C167.015 164.548 167.133 163.988 167.133 163.359C167.133 162.719 167.015 162.159 166.781 161.679C166.546 161.199 166.215 160.826 165.789 160.559C165.362 160.282 164.861 160.143 164.285 160.143C163.773 160.143 163.298 160.26 162.861 160.495C162.423 160.719 162.071 161.05 161.805 161.487C161.549 161.914 161.421 162.431 161.421 163.039V163.775C161.421 164.362 161.554 164.863 161.821 165.279C162.087 165.695 162.439 166.015 162.877 166.239C163.314 166.463 163.783 166.575 164.285 166.575ZM173.348 167.855C172.377 167.855 171.614 167.615 171.06 167.135C170.516 166.644 170.244 165.956 170.244 165.071C170.244 164.164 170.548 163.482 171.156 163.023C171.764 162.554 172.622 162.319 173.732 162.319H175.892V162.111C175.892 160.927 175.294 160.335 174.1 160.335C173.609 160.335 173.097 160.346 172.564 160.367C172.03 160.388 171.588 160.41 171.236 160.431V159.087C171.577 159.055 171.956 159.034 172.372 159.023C172.798 159.002 173.204 158.991 173.588 158.991C174.9 158.991 175.854 159.231 176.452 159.711C177.06 160.191 177.364 161.028 177.364 162.223V167.631H176.148V165.935C175.764 167.215 174.83 167.855 173.348 167.855ZM173.668 166.639C174.03 166.639 174.377 166.575 174.708 166.447C175.038 166.308 175.31 166.084 175.524 165.775C175.748 165.455 175.87 165.018 175.892 164.463V163.471H173.668C173.049 163.471 172.574 163.62 172.244 163.919C171.913 164.218 171.748 164.602 171.748 165.071C171.748 165.54 171.913 165.919 172.244 166.207C172.574 166.495 173.049 166.639 173.668 166.639ZM181.031 157.711C180.69 157.711 180.434 157.62 180.263 157.439C180.103 157.258 180.023 157.028 180.023 156.751C180.023 156.474 180.103 156.244 180.263 156.063C180.434 155.882 180.69 155.791 181.031 155.791C181.372 155.791 181.623 155.882 181.783 156.063C181.954 156.244 182.039 156.474 182.039 156.751C182.039 157.028 181.954 157.258 181.783 157.439C181.623 157.62 181.372 157.711 181.031 157.711ZM180.599 167.631V160.303H179.287V159.087H182.135V167.631H180.599ZM188.337 170.959C187.537 170.959 186.758 170.9 186.001 170.783V169.487C186.385 169.54 186.785 169.583 187.201 169.615C187.627 169.658 188.027 169.679 188.401 169.679C189.574 169.679 190.395 169.439 190.865 168.959C191.345 168.49 191.585 167.732 191.585 166.687V165.919C191.265 166.516 190.833 166.964 190.289 167.263C189.755 167.551 189.163 167.695 188.513 167.695C187.713 167.695 187.009 167.498 186.401 167.103C185.793 166.698 185.318 166.164 184.977 165.503C184.635 164.842 184.465 164.116 184.465 163.327V163.039C184.465 162.239 184.641 161.519 184.993 160.879C185.345 160.239 185.83 159.732 186.449 159.359C187.067 158.986 187.782 158.799 188.593 158.799C189.339 158.799 189.99 158.964 190.545 159.295C191.11 159.626 191.542 160.106 191.841 160.735V159.087H193.057V166.623C193.057 167.647 192.897 168.474 192.577 169.103C192.267 169.743 191.766 170.212 191.073 170.511C190.39 170.81 189.478 170.959 188.337 170.959ZM188.801 166.287C189.313 166.287 189.777 166.175 190.193 165.951C190.619 165.727 190.955 165.407 191.201 164.991C191.457 164.564 191.585 164.058 191.585 163.471V162.735C191.585 162.159 191.451 161.674 191.185 161.279C190.929 160.884 190.593 160.586 190.177 160.383C189.761 160.18 189.307 160.079 188.817 160.079C187.974 160.079 187.291 160.362 186.769 160.927C186.257 161.492 186.001 162.244 186.001 163.183C186.001 164.132 186.262 164.89 186.785 165.455C187.318 166.01 187.99 166.287 188.801 166.287ZM195.902 167.631V159.087H197.118V161.071C197.31 160.346 197.651 159.791 198.142 159.407C198.643 159.023 199.294 158.831 200.094 158.831H200.158C201.235 158.831 202.03 159.167 202.542 159.839C203.064 160.511 203.326 161.482 203.326 162.751V167.631H201.79V162.431C201.79 161.77 201.603 161.242 201.23 160.847C200.856 160.442 200.344 160.239 199.694 160.239C199.022 160.239 198.478 160.447 198.062 160.863C197.646 161.279 197.438 161.834 197.438 162.527V167.631H195.902ZM215.073 167.919C214.006 167.919 213.094 167.732 212.337 167.359C211.59 166.986 210.987 166.5 210.529 165.903C210.07 165.306 209.734 164.66 209.521 163.967C209.307 163.263 209.201 162.586 209.201 161.935V161.583C209.201 160.879 209.307 160.175 209.521 159.471C209.745 158.767 210.086 158.127 210.545 157.551C211.003 156.975 211.601 156.511 212.337 156.159C213.073 155.807 213.953 155.631 214.977 155.631C216.534 155.631 217.761 156.031 218.657 156.831C219.563 157.62 220.091 158.676 220.241 159.999H218.641C218.502 159.007 218.091 158.271 217.409 157.791C216.737 157.311 215.926 157.071 214.977 157.071C214.059 157.071 213.286 157.284 212.657 157.711C212.038 158.127 211.574 158.692 211.265 159.407C210.955 160.111 210.801 160.9 210.801 161.775C210.801 162.607 210.955 163.38 211.265 164.095C211.585 164.81 212.059 165.386 212.689 165.823C213.329 166.26 214.123 166.479 215.073 166.479C216.075 166.479 216.918 166.228 217.601 165.727C218.283 165.226 218.699 164.5 218.849 163.551H220.449C220.342 164.351 220.07 165.082 219.633 165.743C219.206 166.404 218.609 166.932 217.841 167.327C217.083 167.722 216.161 167.919 215.073 167.919ZM224.863 167.855C223.893 167.855 223.13 167.615 222.575 167.135C222.031 166.644 221.759 165.956 221.759 165.071C221.759 164.164 222.063 163.482 222.671 163.023C223.279 162.554 224.138 162.319 225.247 162.319H227.407V162.111C227.407 160.927 226.81 160.335 225.615 160.335C225.125 160.335 224.613 160.346 224.079 160.367C223.546 160.388 223.103 160.41 222.751 160.431V159.087C223.093 159.055 223.471 159.034 223.887 159.023C224.314 159.002 224.719 158.991 225.103 158.991C226.415 158.991 227.37 159.231 227.967 159.711C228.575 160.191 228.879 161.028 228.879 162.223V167.631H227.663V165.935C227.279 167.215 226.346 167.855 224.863 167.855ZM225.183 166.639C225.546 166.639 225.893 166.575 226.223 166.447C226.554 166.308 226.826 166.084 227.039 165.775C227.263 165.455 227.386 165.018 227.407 164.463V163.471H225.183C224.565 163.471 224.09 163.62 223.759 163.919C223.429 164.218 223.263 164.602 223.263 165.071C223.263 165.54 223.429 165.919 223.759 166.207C224.09 166.495 224.565 166.639 225.183 166.639ZM235.027 167.727C234.387 167.727 233.832 167.636 233.363 167.455C232.904 167.274 232.547 166.964 232.291 166.527C232.045 166.079 231.923 165.476 231.923 164.719V160.239H230.451V159.087H231.923V156.495H233.395V159.087H236.339V160.239H233.395V164.911C233.395 165.37 233.517 165.727 233.763 165.983C234.019 166.228 234.376 166.351 234.835 166.351H236.339V167.727H235.027ZM242.081 167.919C241.334 167.919 240.689 167.791 240.145 167.535C239.601 167.279 239.158 166.943 238.817 166.527C238.475 166.1 238.219 165.626 238.049 165.103C237.889 164.58 237.809 164.047 237.809 163.503V163.215C237.809 162.66 237.889 162.122 238.049 161.599C238.219 161.076 238.475 160.607 238.817 160.191C239.158 159.764 239.59 159.428 240.113 159.183C240.646 158.927 241.27 158.799 241.985 158.799C242.913 158.799 243.675 159.002 244.273 159.407C244.881 159.802 245.329 160.314 245.617 160.943C245.915 161.572 246.065 162.244 246.065 162.959V163.647H239.281C239.334 164.49 239.585 165.188 240.033 165.743C240.481 166.298 241.163 166.575 242.081 166.575C242.753 166.575 243.297 166.426 243.713 166.127C244.139 165.828 244.395 165.482 244.481 165.087H245.921C245.739 165.972 245.307 166.666 244.625 167.167C243.942 167.668 243.094 167.919 242.081 167.919ZM241.985 160.143C241.217 160.143 240.614 160.362 240.177 160.799C239.739 161.226 239.462 161.791 239.345 162.495H244.561C244.465 161.77 244.203 161.199 243.777 160.783C243.35 160.356 242.753 160.143 241.985 160.143ZM251.477 170.959C250.677 170.959 249.899 170.9 249.141 170.783V169.487C249.525 169.54 249.925 169.583 250.341 169.615C250.768 169.658 251.168 169.679 251.541 169.679C252.715 169.679 253.536 169.439 254.005 168.959C254.485 168.49 254.725 167.732 254.725 166.687V165.919C254.405 166.516 253.973 166.964 253.429 167.263C252.896 167.551 252.304 167.695 251.653 167.695C250.853 167.695 250.149 167.498 249.541 167.103C248.933 166.698 248.459 166.164 248.117 165.503C247.776 164.842 247.605 164.116 247.605 163.327V163.039C247.605 162.239 247.781 161.519 248.133 160.879C248.485 160.239 248.971 159.732 249.589 159.359C250.208 158.986 250.923 158.799 251.733 158.799C252.48 158.799 253.131 158.964 253.685 159.295C254.251 159.626 254.683 160.106 254.981 160.735V159.087H256.197V166.623C256.197 167.647 256.037 168.474 255.717 169.103C255.408 169.743 254.907 170.212 254.213 170.511C253.531 170.81 252.619 170.959 251.477 170.959ZM251.941 166.287C252.453 166.287 252.917 166.175 253.333 165.951C253.76 165.727 254.096 165.407 254.341 164.991C254.597 164.564 254.725 164.058 254.725 163.471V162.735C254.725 162.159 254.592 161.674 254.325 161.279C254.069 160.884 253.733 160.586 253.317 160.383C252.901 160.18 252.448 160.079 251.957 160.079C251.115 160.079 250.432 160.362 249.909 160.927C249.397 161.492 249.141 162.244 249.141 163.183C249.141 164.132 249.403 164.89 249.925 165.455C250.459 166.01 251.131 166.287 251.941 166.287ZM262.978 167.919C262.232 167.919 261.576 167.791 261.01 167.535C260.445 167.279 259.965 166.943 259.57 166.527C259.186 166.1 258.893 165.626 258.69 165.103C258.498 164.58 258.402 164.047 258.402 163.503V163.215C258.402 162.671 258.504 162.138 258.706 161.615C258.909 161.082 259.208 160.607 259.602 160.191C259.997 159.764 260.477 159.428 261.042 159.183C261.608 158.927 262.253 158.799 262.978 158.799C263.704 158.799 264.349 158.927 264.914 159.183C265.48 159.428 265.96 159.764 266.354 160.191C266.749 160.607 267.048 161.082 267.25 161.615C267.453 162.138 267.554 162.671 267.554 163.215V163.503C267.554 164.047 267.453 164.58 267.25 165.103C267.058 165.626 266.765 166.1 266.37 166.527C265.986 166.943 265.512 167.279 264.946 167.535C264.381 167.791 263.725 167.919 262.978 167.919ZM262.978 166.543C263.618 166.543 264.162 166.404 264.61 166.127C265.069 165.839 265.416 165.455 265.65 164.975C265.896 164.495 266.018 163.956 266.018 163.359C266.018 162.751 265.896 162.207 265.65 161.727C265.405 161.247 265.053 160.868 264.594 160.591C264.146 160.314 263.608 160.175 262.978 160.175C262.36 160.175 261.821 160.314 261.362 160.591C260.904 160.868 260.552 161.247 260.306 161.727C260.061 162.207 259.938 162.751 259.938 163.359C259.938 163.956 260.056 164.495 260.29 164.975C260.536 165.455 260.882 165.839 261.33 166.127C261.789 166.404 262.338 166.543 262.978 166.543ZM269.855 167.631V159.087H271.071V161.647C271.199 160.73 271.535 160.058 272.079 159.631C272.623 159.204 273.364 158.991 274.303 158.991H274.591V160.367H274.047C273.193 160.367 272.537 160.596 272.079 161.055C271.62 161.503 271.391 162.154 271.391 163.007V167.631H269.855ZM277.265 157.711C276.924 157.711 276.668 157.62 276.497 157.439C276.337 157.258 276.257 157.028 276.257 156.751C276.257 156.474 276.337 156.244 276.497 156.063C276.668 155.882 276.924 155.791 277.265 155.791C277.607 155.791 277.857 155.882 278.017 156.063C278.188 156.244 278.273 156.474 278.273 156.751C278.273 157.028 278.188 157.258 278.017 157.439C277.857 157.62 277.607 157.711 277.265 157.711ZM276.833 167.631V160.303H275.521V159.087H278.369V167.631H276.833ZM284.971 167.919C284.225 167.919 283.579 167.791 283.035 167.535C282.491 167.279 282.049 166.943 281.707 166.527C281.366 166.1 281.11 165.626 280.939 165.103C280.779 164.58 280.699 164.047 280.699 163.503V163.215C280.699 162.66 280.779 162.122 280.939 161.599C281.11 161.076 281.366 160.607 281.707 160.191C282.049 159.764 282.481 159.428 283.003 159.183C283.537 158.927 284.161 158.799 284.875 158.799C285.803 158.799 286.566 159.002 287.163 159.407C287.771 159.802 288.219 160.314 288.507 160.943C288.806 161.572 288.955 162.244 288.955 162.959V163.647H282.171C282.225 164.49 282.475 165.188 282.923 165.743C283.371 166.298 284.054 166.575 284.971 166.575C285.643 166.575 286.187 166.426 286.603 166.127C287.03 165.828 287.286 165.482 287.371 165.087H288.811C288.63 165.972 288.198 166.666 287.515 167.167C286.833 167.668 285.985 167.919 284.971 167.919ZM284.875 160.143C284.107 160.143 283.505 160.362 283.067 160.799C282.63 161.226 282.353 161.791 282.235 162.495H287.451C287.355 161.77 287.094 161.199 286.667 160.783C286.241 160.356 285.643 160.143 284.875 160.143ZM293.936 167.887C292.816 167.887 291.947 167.647 291.328 167.167C290.72 166.687 290.405 166.031 290.384 165.199H291.824C291.845 165.53 292.011 165.844 292.32 166.143C292.64 166.431 293.179 166.575 293.936 166.575C294.619 166.575 295.141 166.442 295.504 166.175C295.867 165.898 296.048 165.562 296.048 165.167C296.048 164.815 295.915 164.543 295.648 164.351C295.381 164.148 294.949 164.015 294.352 163.951L293.424 163.855C292.613 163.77 291.952 163.53 291.44 163.135C290.928 162.73 290.672 162.164 290.672 161.439C290.672 160.618 290.976 159.978 291.584 159.519C292.192 159.06 292.976 158.831 293.936 158.831C294.896 158.831 295.675 159.044 296.272 159.471C296.869 159.898 297.179 160.532 297.2 161.375H295.76C295.749 161.034 295.589 160.746 295.28 160.511C294.981 160.266 294.533 160.143 293.936 160.143C293.339 160.143 292.885 160.266 292.576 160.511C292.267 160.756 292.112 161.066 292.112 161.439C292.112 161.759 292.219 162.015 292.432 162.207C292.656 162.399 293.019 162.522 293.52 162.575L294.448 162.671C295.365 162.767 296.101 163.023 296.656 163.439C297.211 163.844 297.488 164.42 297.488 165.167C297.488 165.7 297.333 166.175 297.024 166.591C296.725 166.996 296.309 167.316 295.776 167.551C295.243 167.775 294.629 167.887 293.936 167.887Z" fill="#2A2A2A"/>
<path d="M166.338 207.919C165.272 207.919 164.36 207.732 163.602 207.359C162.856 206.986 162.253 206.5 161.794 205.903C161.336 205.306 161 204.66 160.786 203.967C160.573 203.263 160.466 202.586 160.466 201.935V201.583C160.466 200.879 160.573 200.175 160.786 199.471C161.01 198.767 161.352 198.127 161.81 197.551C162.269 196.975 162.866 196.511 163.602 196.159C164.338 195.807 165.218 195.631 166.242 195.631C167.8 195.631 169.026 196.031 169.922 196.831C170.829 197.62 171.357 198.676 171.506 199.999H169.906C169.768 199.007 169.357 198.271 168.674 197.791C168.002 197.311 167.192 197.071 166.242 197.071C165.325 197.071 164.552 197.284 163.922 197.711C163.304 198.127 162.84 198.692 162.53 199.407C162.221 200.111 162.066 200.9 162.066 201.775C162.066 202.607 162.221 203.38 162.53 204.095C162.85 204.81 163.325 205.386 163.954 205.823C164.594 206.26 165.389 206.479 166.338 206.479C167.341 206.479 168.184 206.228 168.866 205.727C169.549 205.226 169.965 204.5 170.114 203.551H171.714C171.608 204.351 171.336 205.082 170.898 205.743C170.472 206.404 169.874 206.932 169.106 207.327C168.349 207.722 167.426 207.919 166.338 207.919ZM173.761 207.631V199.087H174.977V201.647C175.105 200.73 175.441 200.058 175.985 199.631C176.529 199.204 177.27 198.991 178.209 198.991H178.497V200.367H177.953C177.1 200.367 176.444 200.596 175.985 201.055C175.526 201.503 175.297 202.154 175.297 203.007V207.631H173.761ZM181.172 197.711C180.83 197.711 180.574 197.62 180.404 197.439C180.244 197.258 180.164 197.028 180.164 196.751C180.164 196.474 180.244 196.244 180.404 196.063C180.574 195.882 180.83 195.791 181.172 195.791C181.513 195.791 181.764 195.882 181.924 196.063C182.094 196.244 182.18 196.474 182.18 196.751C182.18 197.028 182.094 197.258 181.924 197.439C181.764 197.62 181.513 197.711 181.172 197.711ZM180.74 207.631V200.303H179.428V199.087H182.276V207.631H180.74ZM188.045 207.887C186.925 207.887 186.056 207.647 185.437 207.167C184.829 206.687 184.515 206.031 184.493 205.199H185.933C185.955 205.53 186.12 205.844 186.429 206.143C186.749 206.431 187.288 206.575 188.045 206.575C188.728 206.575 189.251 206.442 189.613 206.175C189.976 205.898 190.157 205.562 190.157 205.167C190.157 204.815 190.024 204.543 189.757 204.351C189.491 204.148 189.059 204.015 188.461 203.951L187.533 203.855C186.723 203.77 186.061 203.53 185.549 203.135C185.037 202.73 184.781 202.164 184.781 201.439C184.781 200.618 185.085 199.978 185.693 199.519C186.301 199.06 187.085 198.831 188.045 198.831C189.005 198.831 189.784 199.044 190.381 199.471C190.979 199.898 191.288 200.532 191.309 201.375H189.869C189.859 201.034 189.699 200.746 189.389 200.511C189.091 200.266 188.643 200.143 188.045 200.143C187.448 200.143 186.995 200.266 186.685 200.511C186.376 200.756 186.221 201.066 186.221 201.439C186.221 201.759 186.328 202.015 186.541 202.207C186.765 202.399 187.128 202.522 187.629 202.575L188.557 202.671C189.475 202.767 190.211 203.023 190.765 203.439C191.32 203.844 191.597 204.42 191.597 205.167C191.597 205.7 191.443 206.175 191.133 206.591C190.835 206.996 190.419 207.316 189.885 207.551C189.352 207.775 188.739 207.887 188.045 207.887ZM197.456 207.919C196.709 207.919 196.064 207.791 195.52 207.535C194.976 207.279 194.533 206.943 194.192 206.527C193.85 206.1 193.594 205.626 193.424 205.103C193.264 204.58 193.184 204.047 193.184 203.503V203.215C193.184 202.66 193.264 202.122 193.424 201.599C193.594 201.076 193.85 200.607 194.192 200.191C194.533 199.764 194.965 199.428 195.488 199.183C196.021 198.927 196.645 198.799 197.36 198.799C198.288 198.799 199.05 199.002 199.648 199.407C200.256 199.802 200.704 200.314 200.992 200.943C201.29 201.572 201.44 202.244 201.44 202.959V203.647H194.656C194.709 204.49 194.96 205.188 195.408 205.743C195.856 206.298 196.538 206.575 197.456 206.575C198.128 206.575 198.672 206.426 199.088 206.127C199.514 205.828 199.77 205.482 199.856 205.087H201.296C201.114 205.972 200.682 206.666 200 207.167C199.317 207.668 198.469 207.919 197.456 207.919ZM197.36 200.143C196.592 200.143 195.989 200.362 195.552 200.799C195.114 201.226 194.837 201.791 194.72 202.495H199.936C199.84 201.77 199.578 201.199 199.152 200.783C198.725 200.356 198.128 200.143 197.36 200.143ZM206.42 207.887C205.3 207.887 204.431 207.647 203.812 207.167C203.204 206.687 202.89 206.031 202.868 205.199H204.308C204.33 205.53 204.495 205.844 204.804 206.143C205.124 206.431 205.663 206.575 206.42 206.575C207.103 206.575 207.626 206.442 207.988 206.175C208.351 205.898 208.532 205.562 208.532 205.167C208.532 204.815 208.399 204.543 208.132 204.351C207.866 204.148 207.434 204.015 206.836 203.951L205.908 203.855C205.098 203.77 204.436 203.53 203.924 203.135C203.412 202.73 203.156 202.164 203.156 201.439C203.156 200.618 203.46 199.978 204.068 199.519C204.676 199.06 205.46 198.831 206.42 198.831C207.38 198.831 208.159 199.044 208.756 199.471C209.354 199.898 209.663 200.532 209.684 201.375H208.244C208.234 201.034 208.074 200.746 207.764 200.511C207.466 200.266 207.018 200.143 206.42 200.143C205.823 200.143 205.37 200.266 205.06 200.511C204.751 200.756 204.596 201.066 204.596 201.439C204.596 201.759 204.703 202.015 204.916 202.207C205.14 202.399 205.503 202.522 206.004 202.575L206.932 202.671C207.85 202.767 208.586 203.023 209.14 203.439C209.695 203.844 209.972 204.42 209.972 205.167C209.972 205.7 209.818 206.175 209.508 206.591C209.21 206.996 208.794 207.316 208.26 207.551C207.727 207.775 207.114 207.887 206.42 207.887ZM216.063 207.631V195.887H219.887C220.741 195.887 221.487 196.015 222.127 196.271C222.767 196.527 223.263 196.922 223.615 197.455C223.967 197.988 224.143 198.676 224.143 199.519V199.775C224.143 200.692 223.93 201.428 223.503 201.983C223.087 202.527 222.517 202.916 221.791 203.151L225.183 207.631H223.279L220.127 203.407C220.053 203.407 219.973 203.407 219.887 203.407H217.631V207.631H216.063ZM220.175 197.263H217.631V202.015H220.175C220.901 202.015 221.477 201.791 221.903 201.343C222.33 200.895 222.543 200.33 222.543 199.647C222.543 198.954 222.33 198.383 221.903 197.935C221.477 197.487 220.901 197.263 220.175 197.263ZM230.518 207.919C229.771 207.919 229.126 207.791 228.582 207.535C228.038 207.279 227.595 206.943 227.254 206.527C226.913 206.1 226.657 205.626 226.486 205.103C226.326 204.58 226.246 204.047 226.246 203.503V203.215C226.246 202.66 226.326 202.122 226.486 201.599C226.657 201.076 226.913 200.607 227.254 200.191C227.595 199.764 228.027 199.428 228.55 199.183C229.083 198.927 229.707 198.799 230.422 198.799C231.35 198.799 232.113 199.002 232.71 199.407C233.318 199.802 233.766 200.314 234.054 200.943C234.353 201.572 234.502 202.244 234.502 202.959V203.647H227.718C227.771 204.49 228.022 205.188 228.47 205.743C228.918 206.298 229.601 206.575 230.518 206.575C231.19 206.575 231.734 206.426 232.15 206.127C232.577 205.828 232.833 205.482 232.918 205.087H234.358C234.177 205.972 233.745 206.666 233.062 207.167C232.379 207.668 231.531 207.919 230.518 207.919ZM230.422 200.143C229.654 200.143 229.051 200.362 228.614 200.799C228.177 201.226 227.899 201.791 227.782 202.495H232.998C232.902 201.77 232.641 201.199 232.214 200.783C231.787 200.356 231.19 200.143 230.422 200.143ZM236.779 207.631V197.167H235.595V195.951H238.315V207.631H236.779ZM242.109 197.711C241.768 197.711 241.512 197.62 241.341 197.439C241.181 197.258 241.101 197.028 241.101 196.751C241.101 196.474 241.181 196.244 241.341 196.063C241.512 195.882 241.768 195.791 242.109 195.791C242.45 195.791 242.701 195.882 242.861 196.063C243.032 196.244 243.117 196.474 243.117 196.751C243.117 197.028 243.032 197.258 242.861 197.439C242.701 197.62 242.45 197.711 242.109 197.711ZM241.677 207.631V200.303H240.365V199.087H243.213V207.631H241.677ZM249.815 207.919C249.068 207.919 248.423 207.791 247.879 207.535C247.335 207.279 246.892 206.943 246.551 206.527C246.21 206.1 245.954 205.626 245.783 205.103C245.623 204.58 245.543 204.047 245.543 203.503V203.215C245.543 202.66 245.623 202.122 245.783 201.599C245.954 201.076 246.21 200.607 246.551 200.191C246.892 199.764 247.324 199.428 247.847 199.183C248.38 198.927 249.004 198.799 249.719 198.799C250.647 198.799 251.41 199.002 252.007 199.407C252.615 199.802 253.063 200.314 253.351 200.943C253.65 201.572 253.799 202.244 253.799 202.959V203.647H247.015C247.068 204.49 247.319 205.188 247.767 205.743C248.215 206.298 248.898 206.575 249.815 206.575C250.487 206.575 251.031 206.426 251.447 206.127C251.874 205.828 252.13 205.482 252.215 205.087H253.655C253.474 205.972 253.042 206.666 252.359 207.167C251.676 207.668 250.828 207.919 249.815 207.919ZM249.719 200.143C248.951 200.143 248.348 200.362 247.911 200.799C247.474 201.226 247.196 201.791 247.079 202.495H252.295C252.199 201.77 251.938 201.199 251.511 200.783C251.084 200.356 250.487 200.143 249.719 200.143ZM256.204 207.631V200.335H255.02V199.183H256.204V198.655C256.204 197.706 256.454 197.007 256.956 196.559C257.457 196.111 258.193 195.887 259.164 195.887H260.22V197.167H258.908C258.513 197.167 258.209 197.279 257.996 197.503C257.782 197.716 257.676 198.015 257.676 198.399V199.183H260.38V200.335H257.676V207.631H256.204Z" fill="#2A2A2A"/>
<path d="M165.307 239.631L169.515 227.951H172.171L176.507 239.631H174.891L173.611 236.143H168.123L166.875 239.631H165.307ZM168.619 234.735H173.083L171.115 229.359H170.523L168.619 234.735ZM181.995 239.919C181.259 239.919 180.619 239.791 180.075 239.535C179.542 239.279 179.099 238.938 178.747 238.511C178.395 238.074 178.129 237.594 177.947 237.071C177.777 236.548 177.691 236.026 177.691 235.503V235.215C177.691 234.671 177.777 234.138 177.947 233.615C178.129 233.092 178.395 232.623 178.747 232.207C179.11 231.78 179.558 231.439 180.091 231.183C180.625 230.927 181.249 230.799 181.963 230.799C182.678 230.799 183.318 230.932 183.883 231.199C184.459 231.466 184.918 231.844 185.259 232.335C185.611 232.815 185.809 233.386 185.851 234.047H184.379C184.305 233.514 184.059 233.071 183.643 232.719C183.227 232.356 182.667 232.175 181.963 232.175C181.355 232.175 180.849 232.314 180.443 232.591C180.038 232.868 179.734 233.247 179.531 233.727C179.329 234.207 179.227 234.751 179.227 235.359C179.227 235.946 179.329 236.484 179.531 236.975C179.734 237.455 180.038 237.839 180.443 238.127C180.859 238.404 181.377 238.543 181.995 238.543C182.71 238.543 183.286 238.362 183.723 237.999C184.161 237.626 184.411 237.167 184.475 236.623H185.947C185.915 237.295 185.718 237.876 185.355 238.367C185.003 238.858 184.534 239.242 183.947 239.519C183.371 239.786 182.721 239.919 181.995 239.919ZM190.403 239.855C189.432 239.855 188.669 239.615 188.115 239.135C187.571 238.644 187.299 237.956 187.299 237.071C187.299 236.164 187.603 235.482 188.211 235.023C188.819 234.554 189.677 234.319 190.786 234.319H192.947V234.111C192.947 232.927 192.349 232.335 191.155 232.335C190.664 232.335 190.152 232.346 189.619 232.367C189.085 232.388 188.643 232.41 188.291 232.431V231.087C188.632 231.055 189.011 231.034 189.427 231.023C189.853 231.002 190.259 230.991 190.643 230.991C191.955 230.991 192.909 231.231 193.507 231.711C194.115 232.191 194.419 233.028 194.419 234.223V239.631H193.203V237.935C192.819 239.215 191.885 239.855 190.403 239.855ZM190.723 238.639C191.085 238.639 191.432 238.575 191.763 238.447C192.093 238.308 192.365 238.084 192.579 237.775C192.803 237.455 192.925 237.018 192.947 236.463V235.471H190.723C190.104 235.471 189.629 235.62 189.299 235.919C188.968 236.218 188.803 236.602 188.803 237.071C188.803 237.54 188.968 237.919 189.299 238.207C189.629 238.495 190.104 238.639 190.723 238.639ZM200.806 239.919C199.995 239.919 199.27 239.722 198.63 239.327C198 238.932 197.504 238.404 197.142 237.743C196.779 237.071 196.598 236.324 196.598 235.503V235.215C196.598 234.404 196.774 233.668 197.126 233.007C197.478 232.335 197.963 231.802 198.582 231.407C199.211 231.002 199.936 230.799 200.758 230.799C201.387 230.799 201.963 230.927 202.486 231.183C203.019 231.439 203.451 231.839 203.782 232.383V227.951H205.318V239.631H204.102V237.871C203.771 238.596 203.307 239.119 202.71 239.439C202.123 239.759 201.488 239.919 200.806 239.919ZM201.014 238.575C201.536 238.575 202.011 238.458 202.438 238.223C202.864 237.988 203.206 237.652 203.462 237.215C203.718 236.767 203.846 236.244 203.846 235.647V234.911C203.846 234.324 203.712 233.828 203.446 233.423C203.19 233.007 202.843 232.692 202.406 232.479C201.979 232.255 201.51 232.143 200.998 232.143C200.144 232.143 199.451 232.436 198.918 233.023C198.395 233.61 198.134 234.388 198.134 235.359C198.134 236.01 198.256 236.58 198.502 237.071C198.747 237.551 199.088 237.924 199.526 238.191C199.963 238.447 200.459 238.575 201.014 238.575ZM211.901 239.919C211.154 239.919 210.509 239.791 209.965 239.535C209.421 239.279 208.978 238.943 208.637 238.527C208.296 238.1 208.04 237.626 207.869 237.103C207.709 236.58 207.629 236.047 207.629 235.503V235.215C207.629 234.66 207.709 234.122 207.869 233.599C208.04 233.076 208.296 232.607 208.637 232.191C208.978 231.764 209.41 231.428 209.933 231.183C210.466 230.927 211.09 230.799 211.805 230.799C212.733 230.799 213.496 231.002 214.093 231.407C214.701 231.802 215.149 232.314 215.437 232.943C215.736 233.572 215.885 234.244 215.885 234.959V235.647H209.101C209.154 236.49 209.405 237.188 209.853 237.743C210.301 238.298 210.984 238.575 211.901 238.575C212.573 238.575 213.117 238.426 213.533 238.127C213.96 237.828 214.216 237.482 214.301 237.087H215.741C215.56 237.972 215.128 238.666 214.445 239.167C213.762 239.668 212.914 239.919 211.901 239.919ZM211.805 232.143C211.037 232.143 210.434 232.362 209.997 232.799C209.56 233.226 209.282 233.791 209.165 234.495H214.381C214.285 233.77 214.024 233.199 213.597 232.783C213.17 232.356 212.573 232.143 211.805 232.143ZM218.066 239.631V231.087H219.282V233.055C219.463 232.34 219.783 231.791 220.242 231.407C220.711 231.023 221.319 230.831 222.066 230.831H222.13C222.855 230.831 223.447 231.012 223.906 231.375C224.364 231.738 224.69 232.26 224.882 232.943C225.084 232.26 225.415 231.738 225.874 231.375C226.343 231.012 226.94 230.831 227.666 230.831H227.73C228.743 230.831 229.495 231.178 229.986 231.871C230.487 232.554 230.738 233.514 230.738 234.751V239.631H229.202V234.415C229.202 233.722 229.031 233.188 228.69 232.815C228.348 232.431 227.874 232.239 227.266 232.239C226.636 232.239 226.13 232.442 225.746 232.847C225.362 233.242 225.17 233.796 225.17 234.511V239.631H223.634V234.415C223.634 233.722 223.463 233.188 223.122 232.815C222.78 232.431 222.306 232.239 221.698 232.239C221.068 232.239 220.562 232.442 220.178 232.847C219.794 233.242 219.602 233.796 219.602 234.511V239.631H218.066ZM234.398 229.711C234.057 229.711 233.801 229.62 233.63 229.439C233.47 229.258 233.39 229.028 233.39 228.751C233.39 228.474 233.47 228.244 233.63 228.063C233.801 227.882 234.057 227.791 234.398 227.791C234.739 227.791 234.99 227.882 235.15 228.063C235.321 228.244 235.406 228.474 235.406 228.751C235.406 229.028 235.321 229.258 235.15 229.439C234.99 229.62 234.739 229.711 234.398 229.711ZM233.966 239.631V232.303H232.654V231.087H235.502V239.631H233.966ZM242.136 239.919C241.4 239.919 240.76 239.791 240.216 239.535C239.683 239.279 239.24 238.938 238.888 238.511C238.536 238.074 238.269 237.594 238.088 237.071C237.917 236.548 237.832 236.026 237.832 235.503V235.215C237.832 234.671 237.917 234.138 238.088 233.615C238.269 233.092 238.536 232.623 238.888 232.207C239.251 231.78 239.699 231.439 240.232 231.183C240.765 230.927 241.389 230.799 242.104 230.799C242.819 230.799 243.459 230.932 244.024 231.199C244.6 231.466 245.059 231.844 245.4 232.335C245.752 232.815 245.949 233.386 245.992 234.047H244.52C244.445 233.514 244.2 233.071 243.784 232.719C243.368 232.356 242.808 232.175 242.104 232.175C241.496 232.175 240.989 232.314 240.584 232.591C240.179 232.868 239.875 233.247 239.672 233.727C239.469 234.207 239.368 234.751 239.368 235.359C239.368 235.946 239.469 236.484 239.672 236.975C239.875 237.455 240.179 237.839 240.584 238.127C241 238.404 241.517 238.543 242.136 238.543C242.851 238.543 243.427 238.362 243.864 237.999C244.301 237.626 244.552 237.167 244.616 236.623H246.088C246.056 237.295 245.859 237.876 245.496 238.367C245.144 238.858 244.675 239.242 244.088 239.519C243.512 239.786 242.861 239.919 242.136 239.919ZM250.975 239.887C249.855 239.887 248.986 239.647 248.367 239.167C247.759 238.687 247.444 238.031 247.423 237.199H248.863C248.884 237.53 249.05 237.844 249.359 238.143C249.679 238.431 250.218 238.575 250.975 238.575C251.658 238.575 252.18 238.442 252.543 238.175C252.906 237.898 253.087 237.562 253.087 237.167C253.087 236.815 252.954 236.543 252.687 236.351C252.42 236.148 251.988 236.015 251.391 235.951L250.463 235.855C249.652 235.77 248.991 235.53 248.479 235.135C247.967 234.73 247.711 234.164 247.711 233.439C247.711 232.618 248.015 231.978 248.623 231.519C249.231 231.06 250.015 230.831 250.975 230.831C251.935 230.831 252.714 231.044 253.311 231.471C253.908 231.898 254.218 232.532 254.239 233.375H252.799C252.788 233.034 252.628 232.746 252.319 232.511C252.02 232.266 251.572 232.143 250.975 232.143C250.378 232.143 249.924 232.266 249.615 232.511C249.306 232.756 249.151 233.066 249.151 233.439C249.151 233.759 249.258 234.015 249.471 234.207C249.695 234.399 250.058 234.522 250.559 234.575L251.487 234.671C252.404 234.767 253.14 235.023 253.695 235.439C254.25 235.844 254.527 236.42 254.527 237.167C254.527 237.7 254.372 238.175 254.063 238.591C253.764 238.996 253.348 239.316 252.815 239.551C252.282 239.775 251.668 239.887 250.975 239.887Z" fill="#2A2A2A"/>
<path d="M190.101 271.631V261.359H186.549V259.951H195.221V261.359H191.669V271.631H190.101ZM196.62 271.631V263.087H197.836V265.647C197.964 264.73 198.3 264.058 198.844 263.631C199.388 263.204 200.13 262.991 201.068 262.991H201.356V264.367H200.812C199.959 264.367 199.303 264.596 198.844 265.055C198.386 265.503 198.156 266.154 198.156 267.007V271.631H196.62ZM205.52 271.855C204.549 271.855 203.786 271.615 203.232 271.135C202.688 270.644 202.416 269.956 202.416 269.071C202.416 268.164 202.72 267.482 203.328 267.023C203.936 266.554 204.794 266.319 205.904 266.319H208.064V266.111C208.064 264.927 207.466 264.335 206.272 264.335C205.781 264.335 205.269 264.346 204.736 264.367C204.202 264.388 203.76 264.41 203.408 264.431V263.087C203.749 263.055 204.128 263.034 204.544 263.023C204.97 263.002 205.376 262.991 205.76 262.991C207.072 262.991 208.026 263.231 208.624 263.711C209.232 264.191 209.536 265.028 209.536 266.223V271.631H208.32V269.935C207.936 271.215 207.002 271.855 205.52 271.855ZM205.84 270.639C206.202 270.639 206.549 270.575 206.88 270.447C207.21 270.308 207.482 270.084 207.696 269.775C207.92 269.455 208.042 269.018 208.064 268.463V267.471H205.84C205.221 267.471 204.746 267.62 204.416 267.919C204.085 268.218 203.92 268.602 203.92 269.071C203.92 269.54 204.085 269.919 204.416 270.207C204.746 270.495 205.221 270.639 205.84 270.639ZM214.148 271.631L211.236 263.087H212.836L215.284 270.415H215.62L217.748 263.087H219.252L216.724 271.631H214.148ZM224.737 271.919C223.99 271.919 223.345 271.791 222.801 271.535C222.257 271.279 221.814 270.943 221.473 270.527C221.131 270.1 220.875 269.626 220.705 269.103C220.545 268.58 220.465 268.047 220.465 267.503V267.215C220.465 266.66 220.545 266.122 220.705 265.599C220.875 265.076 221.131 264.607 221.473 264.191C221.814 263.764 222.246 263.428 222.769 263.183C223.302 262.927 223.926 262.799 224.641 262.799C225.569 262.799 226.331 263.002 226.929 263.407C227.537 263.802 227.985 264.314 228.273 264.943C228.571 265.572 228.721 266.244 228.721 266.959V267.647H221.937C221.99 268.49 222.241 269.188 222.689 269.743C223.137 270.298 223.819 270.575 224.737 270.575C225.409 270.575 225.953 270.426 226.369 270.127C226.795 269.828 227.051 269.482 227.137 269.087H228.577C228.395 269.972 227.963 270.666 227.281 271.167C226.598 271.668 225.75 271.919 224.737 271.919ZM224.641 264.143C223.873 264.143 223.27 264.362 222.833 264.799C222.395 265.226 222.118 265.791 222.001 266.495H227.217C227.121 265.77 226.859 265.199 226.433 264.783C226.006 264.356 225.409 264.143 224.641 264.143ZM230.998 271.631V261.167H229.814V259.951H232.534V271.631H230.998Z" fill="#2A2A2A"/>
<path d="M185.024 303.631V291.951H186.592V297.119H192.928V291.951H194.496V303.631H192.928V298.527H186.592V303.631H185.024ZM201.292 303.919C200.545 303.919 199.9 303.791 199.356 303.535C198.812 303.279 198.369 302.943 198.028 302.527C197.686 302.1 197.43 301.626 197.26 301.103C197.1 300.58 197.02 300.047 197.02 299.503V299.215C197.02 298.66 197.1 298.122 197.26 297.599C197.43 297.076 197.686 296.607 198.028 296.191C198.369 295.764 198.801 295.428 199.324 295.183C199.857 294.927 200.481 294.799 201.196 294.799C202.124 294.799 202.886 295.002 203.484 295.407C204.092 295.802 204.54 296.314 204.828 296.943C205.126 297.572 205.276 298.244 205.276 298.959V299.647H198.492C198.545 300.49 198.796 301.188 199.244 301.743C199.692 302.298 200.374 302.575 201.292 302.575C201.964 302.575 202.508 302.426 202.924 302.127C203.35 301.828 203.606 301.482 203.692 301.087H205.132C204.95 301.972 204.518 302.666 203.836 303.167C203.153 303.668 202.305 303.919 201.292 303.919ZM201.196 296.143C200.428 296.143 199.825 296.362 199.388 296.799C198.95 297.226 198.673 297.791 198.556 298.495H203.772C203.676 297.77 203.414 297.199 202.988 296.783C202.561 296.356 201.964 296.143 201.196 296.143ZM209.824 303.855C208.854 303.855 208.091 303.615 207.536 303.135C206.992 302.644 206.72 301.956 206.72 301.071C206.72 300.164 207.024 299.482 207.632 299.023C208.24 298.554 209.099 298.319 210.208 298.319H212.368V298.111C212.368 296.927 211.771 296.335 210.576 296.335C210.086 296.335 209.574 296.346 209.04 296.367C208.507 296.388 208.064 296.41 207.712 296.431V295.087C208.054 295.055 208.432 295.034 208.848 295.023C209.275 295.002 209.68 294.991 210.064 294.991C211.376 294.991 212.331 295.231 212.928 295.711C213.536 296.191 213.84 297.028 213.84 298.223V303.631H212.624V301.935C212.24 303.215 211.307 303.855 209.824 303.855ZM210.144 302.639C210.507 302.639 210.854 302.575 211.184 302.447C211.515 302.308 211.787 302.084 212 301.775C212.224 301.455 212.347 301.018 212.368 300.463V299.471H210.144C209.526 299.471 209.051 299.62 208.72 299.919C208.39 300.218 208.224 300.602 208.224 301.071C208.224 301.54 208.39 301.919 208.72 302.207C209.051 302.495 209.526 302.639 210.144 302.639ZM216.756 303.631V293.167H215.572V291.951H218.292V303.631H216.756ZM224.566 303.727C223.926 303.727 223.371 303.636 222.902 303.455C222.443 303.274 222.086 302.964 221.83 302.527C221.584 302.079 221.462 301.476 221.462 300.719V296.239H219.99V295.087H221.462V292.495H222.934V295.087H225.878V296.239H222.934V300.911C222.934 301.37 223.056 301.727 223.302 301.983C223.558 302.228 223.915 302.351 224.374 302.351H225.878V303.727H224.566ZM228.05 303.631V291.951H229.586V296.591C229.821 296.026 230.157 295.594 230.594 295.295C231.042 294.986 231.613 294.831 232.306 294.831H232.37C233.394 294.831 234.167 295.172 234.69 295.855C235.213 296.527 235.474 297.492 235.474 298.751V303.631H233.938V298.431C233.938 297.738 233.741 297.199 233.346 296.815C232.962 296.431 232.461 296.239 231.842 296.239C231.159 296.239 230.61 296.468 230.194 296.927C229.789 297.375 229.586 297.967 229.586 298.703V303.631H228.05Z" fill="#2A2A2A"/>
<path d="M198.743 335.631V323.951H205.495V325.359H200.311V328.991H205.159V330.399H200.311V334.223H205.655V335.631H198.743ZM211.441 335.727C210.801 335.727 210.246 335.636 209.777 335.455C209.318 335.274 208.961 334.964 208.705 334.527C208.459 334.079 208.337 333.476 208.337 332.719V328.239H206.865V327.087H208.337V324.495H209.809V327.087H212.753V328.239H209.809V332.911C209.809 333.37 209.931 333.727 210.177 333.983C210.433 334.228 210.79 334.351 211.249 334.351H212.753V335.727H211.441ZM218.527 335.919C217.791 335.919 217.151 335.791 216.607 335.535C216.073 335.279 215.631 334.938 215.279 334.511C214.927 334.074 214.66 333.594 214.479 333.071C214.308 332.548 214.223 332.026 214.223 331.503V331.215C214.223 330.671 214.308 330.138 214.479 329.615C214.66 329.092 214.927 328.623 215.279 328.207C215.641 327.78 216.089 327.439 216.623 327.183C217.156 326.927 217.78 326.799 218.495 326.799C219.209 326.799 219.849 326.932 220.415 327.199C220.991 327.466 221.449 327.844 221.791 328.335C222.143 328.815 222.34 329.386 222.383 330.047H220.911C220.836 329.514 220.591 329.071 220.175 328.719C219.759 328.356 219.199 328.175 218.495 328.175C217.887 328.175 217.38 328.314 216.975 328.591C216.569 328.868 216.265 329.247 216.063 329.727C215.86 330.207 215.759 330.751 215.759 331.359C215.759 331.946 215.86 332.484 216.063 332.975C216.265 333.455 216.569 333.839 216.975 334.127C217.391 334.404 217.908 334.543 218.527 334.543C219.241 334.543 219.817 334.362 220.255 333.999C220.692 333.626 220.943 333.167 221.007 332.623H222.479C222.447 333.295 222.249 333.876 221.887 334.367C221.535 334.858 221.065 335.242 220.479 335.519C219.903 335.786 219.252 335.919 218.527 335.919Z" fill="#2A2A2A"/>
<defs>
<filter id="filter0_f_3806_26124" x="-33.8438" y="0.833984" width="487.828" height="435.482" filterUnits="userSpaceOnUse" color-interpolation-filters="sRGB">
<feFlood flood-opacity="0" result="BackgroundImageFix"/>
<feBlend mode="normal" in="SourceGraphic" in2="BackgroundImageFix" result="shape"/>
<feGaussianBlur stdDeviation="25" result="effect1_foregroundBlur_3806_26124"/>
</filter>
<linearGradient id="paint0_linear_3806_26124" x1="275.508" y1="394.124" x2="7.80695" y2="51.3348" gradientUnits="userSpaceOnUse">
<stop stop-color="#D7D7D7"/>
<stop offset="1" stop-color="#A3A3A3"/>
</linearGradient>
<linearGradient id="paint1_linear_3806_26124" x1="210.07" y1="50.834" x2="210.07" y2="386.316" gradientUnits="userSpaceOnUse">
<stop stop-color="white"/>
<stop offset="1" stop-color="#EFF3F4"/>
</linearGradient>
</defs>
</svg>
