<svg width="414" height="437" viewBox="0 0 414 437" fill="none" xmlns="http://www.w3.org/2000/svg">
<path d="M18.5 43.625H93.2695C94.8203 43.6251 96.3334 44.1057 97.5996 45.001L114.028 56.6182C115.463 57.6328 117.178 58.1777 118.936 58.1777H283.646C285.404 58.1776 287.119 57.6329 288.554 56.6182L304.982 45.001C306.249 44.1056 307.762 43.625 309.312 43.625H395.5C399.642 43.625 403 46.9829 403 51.125V137.629C403 138.14 402.948 138.651 402.844 139.151L393.918 182.181V182.182C393.8 182.749 393.74 183.327 393.74 183.907V386.222C393.74 390.364 390.382 393.722 386.24 393.722H27.6611C23.519 393.722 20.1611 390.364 20.1611 386.222V173.518C20.1611 172.771 20.0623 172.028 19.8682 171.307L11.2578 139.342C11.0865 138.706 11 138.049 11 137.391V51.125C11 46.9829 14.3579 43.625 18.5 43.625Z" fill="#EFF3F4" stroke="url(#paint0_linear_3806_26141)"/>
<g filter="url(#filter0_f_3806_26141)">
<path d="M19.2344 50.9316H100.752L120.418 64.8369H282.662L302.328 50.9316H394.756V142.017L385.908 184.668V386.413H27.988V174.513L19.2344 142.017V50.9316Z" fill="url(#paint1_linear_3806_26141)"/>
<path d="M28.4883 174.447L28.4707 174.383L19.7344 141.951V51.4316H100.593L120.129 65.2451L120.259 65.3369H282.82L282.95 65.2451L302.486 51.4316H394.256V141.962L385.418 184.567L385.408 184.617V385.913H28.4883V174.447Z" stroke="#001E5B"/>
</g>
<rect x="59.3516" y="92.2207" width="295.322" height="295" rx="24" fill="#EFF3F4"/>
<path d="M216.852 132.721L220.852 136.721" stroke="#E63946" stroke-width="2" stroke-linecap="round" stroke-linejoin="round"/>
<path d="M220.852 132.721L216.852 136.721" stroke="#E63946" stroke-width="2" stroke-linecap="round" stroke-linejoin="round"/>
<path d="M221.852 142.721L218.352 146.721L216.352 144.721" stroke="#10A274" stroke-width="2" stroke-linecap="round" stroke-linejoin="round"/>
<path d="M212.852 132.721H201.852V136.721H212.852V132.721Z" fill="#F4B400"/>
<path d="M212.852 142.721H201.852V146.721H212.852V142.721Z" fill="#F4B400"/>
<path d="M156.571 178.721V166.977H160.395C161.248 166.977 161.995 167.105 162.635 167.361C163.275 167.617 163.771 168.011 164.123 168.545C164.475 169.078 164.651 169.766 164.651 170.609V170.865C164.651 171.782 164.438 172.518 164.011 173.073C163.595 173.617 163.024 174.006 162.299 174.241L165.691 178.721H163.787L160.635 174.497C160.56 174.497 160.48 174.497 160.395 174.497H158.139V178.721H156.571ZM160.683 168.353H158.139V173.105H160.683C161.408 173.105 161.984 172.881 162.411 172.433C162.838 171.985 163.051 171.419 163.051 170.737C163.051 170.043 162.838 169.473 162.411 169.025C161.984 168.577 161.408 168.353 160.683 168.353ZM171.026 179.009C170.279 179.009 169.634 178.881 169.09 178.625C168.546 178.369 168.103 178.033 167.762 177.617C167.421 177.19 167.165 176.715 166.994 176.193C166.834 175.67 166.754 175.137 166.754 174.593V174.305C166.754 173.75 166.834 173.211 166.994 172.689C167.165 172.166 167.421 171.697 167.762 171.281C168.103 170.854 168.535 170.518 169.058 170.273C169.591 170.017 170.215 169.889 170.93 169.889C171.858 169.889 172.621 170.091 173.218 170.497C173.826 170.891 174.274 171.403 174.562 172.033C174.861 172.662 175.01 173.334 175.01 174.049V174.737H168.226C168.279 175.579 168.53 176.278 168.978 176.833C169.426 177.387 170.109 177.665 171.026 177.665C171.698 177.665 172.242 177.515 172.658 177.217C173.085 176.918 173.341 176.571 173.426 176.177H174.866C174.685 177.062 174.253 177.755 173.57 178.257C172.887 178.758 172.039 179.009 171.026 179.009ZM170.93 171.233C170.162 171.233 169.559 171.451 169.122 171.889C168.685 172.315 168.407 172.881 168.29 173.585H173.506C173.41 172.859 173.149 172.289 172.722 171.873C172.295 171.446 171.698 171.233 170.93 171.233ZM183.735 181.921V177.313C183.404 177.889 182.972 178.315 182.439 178.593C181.905 178.87 181.324 179.009 180.695 179.009C179.884 179.009 179.164 178.806 178.535 178.401C177.916 177.985 177.431 177.441 177.079 176.769C176.727 176.086 176.551 175.339 176.551 174.529V174.241C176.551 173.43 176.727 172.699 177.079 172.049C177.431 171.387 177.921 170.865 178.551 170.481C179.191 170.086 179.927 169.889 180.759 169.889C181.516 169.889 182.177 170.059 182.743 170.401C183.308 170.731 183.745 171.217 184.055 171.857V170.177H185.271V181.921H183.735ZM180.967 177.601C181.489 177.601 181.964 177.483 182.391 177.249C182.817 177.014 183.159 176.678 183.415 176.241C183.671 175.793 183.799 175.27 183.799 174.673V173.937C183.799 173.35 183.665 172.854 183.399 172.449C183.143 172.033 182.796 171.718 182.359 171.505C181.932 171.281 181.468 171.169 180.967 171.169C180.391 171.169 179.884 171.302 179.447 171.569C179.02 171.835 178.684 172.214 178.439 172.705C178.204 173.185 178.087 173.745 178.087 174.385C178.087 175.025 178.209 175.59 178.455 176.081C178.7 176.561 179.041 176.934 179.479 177.201C179.916 177.467 180.412 177.601 180.967 177.601ZM191.182 178.977C190.169 178.977 189.39 178.646 188.846 177.985C188.302 177.323 188.03 176.369 188.03 175.121V170.161H189.566V175.425C189.566 176.097 189.747 176.625 190.11 177.009C190.473 177.382 190.963 177.569 191.582 177.569C192.222 177.569 192.745 177.366 193.15 176.961C193.555 176.545 193.758 175.979 193.758 175.265V170.161H195.294V178.721H194.078V176.753C193.886 177.478 193.555 178.033 193.086 178.417C192.617 178.79 192.003 178.977 191.246 178.977H191.182ZM199.117 168.801C198.776 168.801 198.52 168.71 198.349 168.529C198.189 168.347 198.109 168.118 198.109 167.841C198.109 167.563 198.189 167.334 198.349 167.153C198.52 166.971 198.776 166.881 199.117 166.881C199.458 166.881 199.709 166.971 199.869 167.153C200.04 167.334 200.125 167.563 200.125 167.841C200.125 168.118 200.04 168.347 199.869 168.529C199.709 168.71 199.458 168.801 199.117 168.801ZM198.685 178.721V171.393H197.373V170.177H200.221V178.721H198.685ZM203.191 178.721V170.177H204.407V172.737C204.535 171.819 204.871 171.147 205.415 170.721C205.959 170.294 206.7 170.081 207.639 170.081H207.927V171.457H207.383C206.529 171.457 205.873 171.686 205.415 172.145C204.956 172.593 204.727 173.243 204.727 174.097V178.721H203.191ZM213.292 179.009C212.545 179.009 211.9 178.881 211.356 178.625C210.812 178.369 210.369 178.033 210.028 177.617C209.686 177.19 209.43 176.715 209.26 176.193C209.1 175.67 209.02 175.137 209.02 174.593V174.305C209.02 173.75 209.1 173.211 209.26 172.689C209.43 172.166 209.686 171.697 210.028 171.281C210.369 170.854 210.801 170.518 211.324 170.273C211.857 170.017 212.481 169.889 213.196 169.889C214.124 169.889 214.886 170.091 215.484 170.497C216.092 170.891 216.54 171.403 216.828 172.033C217.126 172.662 217.276 173.334 217.276 174.049V174.737H210.492C210.545 175.579 210.796 176.278 211.244 176.833C211.692 177.387 212.374 177.665 213.292 177.665C213.964 177.665 214.508 177.515 214.924 177.217C215.35 176.918 215.606 176.571 215.692 176.177H217.132C216.95 177.062 216.518 177.755 215.836 178.257C215.153 178.758 214.305 179.009 213.292 179.009ZM213.196 171.233C212.428 171.233 211.825 171.451 211.388 171.889C210.95 172.315 210.673 172.881 210.556 173.585H215.772C215.676 172.859 215.414 172.289 214.988 171.873C214.561 171.446 213.964 171.233 213.196 171.233ZM219.456 178.721V170.177H220.672V172.145C220.854 171.43 221.174 170.881 221.632 170.497C222.102 170.113 222.71 169.921 223.456 169.921H223.52C224.246 169.921 224.838 170.102 225.296 170.465C225.755 170.827 226.08 171.35 226.272 172.033C226.475 171.35 226.806 170.827 227.264 170.465C227.734 170.102 228.331 169.921 229.056 169.921H229.12C230.134 169.921 230.886 170.267 231.376 170.961C231.878 171.643 232.128 172.603 232.128 173.841V178.721H230.592V173.505C230.592 172.811 230.422 172.278 230.08 171.905C229.739 171.521 229.264 171.329 228.656 171.329C228.027 171.329 227.52 171.531 227.136 171.937C226.752 172.331 226.56 172.886 226.56 173.601V178.721H225.024V173.505C225.024 172.811 224.854 172.278 224.512 171.905C224.171 171.521 223.696 171.329 223.088 171.329C222.459 171.329 221.952 171.531 221.568 171.937C221.184 172.331 220.992 172.886 220.992 173.601V178.721H219.456ZM238.573 179.009C237.826 179.009 237.181 178.881 236.637 178.625C236.093 178.369 235.65 178.033 235.309 177.617C234.967 177.19 234.711 176.715 234.541 176.193C234.381 175.67 234.301 175.137 234.301 174.593V174.305C234.301 173.75 234.381 173.211 234.541 172.689C234.711 172.166 234.967 171.697 235.309 171.281C235.65 170.854 236.082 170.518 236.605 170.273C237.138 170.017 237.762 169.889 238.477 169.889C239.405 169.889 240.167 170.091 240.765 170.497C241.373 170.891 241.821 171.403 242.109 172.033C242.407 172.662 242.557 173.334 242.557 174.049V174.737H235.773C235.826 175.579 236.077 176.278 236.525 176.833C236.973 177.387 237.655 177.665 238.573 177.665C239.245 177.665 239.789 177.515 240.205 177.217C240.631 176.918 240.887 176.571 240.973 176.177H242.413C242.231 177.062 241.799 177.755 241.117 178.257C240.434 178.758 239.586 179.009 238.573 179.009ZM238.477 171.233C237.709 171.233 237.106 171.451 236.669 171.889C236.231 172.315 235.954 172.881 235.837 173.585H241.053C240.957 172.859 240.695 172.289 240.269 171.873C239.842 171.446 239.245 171.233 238.477 171.233ZM244.738 178.721V170.177H245.954V172.161C246.146 171.435 246.487 170.881 246.978 170.497C247.479 170.113 248.13 169.921 248.93 169.921H248.994C250.071 169.921 250.866 170.257 251.378 170.929C251.9 171.601 252.162 172.571 252.162 173.841V178.721H250.626V173.521C250.626 172.859 250.439 172.331 250.066 171.937C249.692 171.531 249.18 171.329 248.53 171.329C247.858 171.329 247.314 171.537 246.898 171.953C246.482 172.369 246.274 172.923 246.274 173.617V178.721H244.738ZM258.3 178.817C257.66 178.817 257.105 178.726 256.636 178.545C256.177 178.363 255.82 178.054 255.564 177.617C255.319 177.169 255.196 176.566 255.196 175.809V171.329H253.724V170.177H255.196V167.585H256.668V170.177H259.612V171.329H256.668V176.001C256.668 176.459 256.791 176.817 257.036 177.073C257.292 177.318 257.649 177.441 258.108 177.441H259.612V178.817H258.3ZM264.522 178.977C263.402 178.977 262.533 178.737 261.914 178.257C261.306 177.777 260.991 177.121 260.97 176.289H262.41C262.431 176.619 262.597 176.934 262.906 177.233C263.226 177.521 263.765 177.665 264.522 177.665C265.205 177.665 265.727 177.531 266.09 177.265C266.453 176.987 266.634 176.651 266.634 176.257C266.634 175.905 266.501 175.633 266.234 175.441C265.967 175.238 265.535 175.105 264.938 175.041L264.01 174.945C263.199 174.859 262.538 174.619 262.026 174.225C261.514 173.819 261.258 173.254 261.258 172.529C261.258 171.707 261.562 171.067 262.17 170.609C262.778 170.15 263.562 169.921 264.522 169.921C265.482 169.921 266.261 170.134 266.858 170.561C267.455 170.987 267.765 171.622 267.786 172.465H266.346C266.335 172.123 266.175 171.835 265.866 171.601C265.567 171.355 265.119 171.233 264.522 171.233C263.925 171.233 263.471 171.355 263.162 171.601C262.853 171.846 262.698 172.155 262.698 172.529C262.698 172.849 262.805 173.105 263.018 173.297C263.242 173.489 263.605 173.611 264.106 173.665L265.034 173.761C265.951 173.857 266.687 174.113 267.242 174.529C267.797 174.934 268.074 175.51 268.074 176.257C268.074 176.79 267.919 177.265 267.61 177.681C267.311 178.086 266.895 178.406 266.362 178.641C265.829 178.865 265.215 178.977 264.522 178.977Z" fill="#2A2A2A"/>
<path d="M145.903 218.785V206.977H149.711C150.991 206.977 151.946 207.249 152.575 207.793C153.204 208.326 153.519 209.099 153.519 210.113V210.337C153.519 210.945 153.402 211.446 153.167 211.841C152.932 212.225 152.607 212.523 152.191 212.737C152.746 212.929 153.183 213.238 153.503 213.665C153.834 214.081 153.999 214.646 153.999 215.361V215.585C153.999 216.609 153.684 217.398 153.055 217.953C152.426 218.507 151.471 218.785 150.191 218.785H145.903ZM149.983 208.353H147.471V212.177H149.983C150.644 212.177 151.13 212.001 151.439 211.649C151.759 211.286 151.919 210.827 151.919 210.273C151.919 209.707 151.759 209.249 151.439 208.897C151.13 208.534 150.644 208.353 149.983 208.353ZM150.415 213.489H147.471V217.409H150.415C151.044 217.409 151.53 217.233 151.871 216.881C152.223 216.518 152.399 216.038 152.399 215.441C152.399 214.833 152.228 214.358 151.887 214.017C151.546 213.665 151.055 213.489 150.415 213.489ZM160.124 219.009C159.377 219.009 158.732 218.881 158.188 218.625C157.644 218.369 157.201 218.033 156.86 217.617C156.518 217.19 156.262 216.715 156.092 216.193C155.932 215.67 155.852 215.137 155.852 214.593V214.305C155.852 213.75 155.932 213.211 156.092 212.689C156.262 212.166 156.518 211.697 156.86 211.281C157.201 210.854 157.633 210.518 158.156 210.273C158.689 210.017 159.313 209.889 160.028 209.889C160.956 209.889 161.718 210.091 162.316 210.497C162.924 210.891 163.372 211.403 163.66 212.033C163.958 212.662 164.108 213.334 164.108 214.049V214.737H157.324C157.377 215.579 157.628 216.278 158.076 216.833C158.524 217.387 159.206 217.665 160.124 217.665C160.796 217.665 161.34 217.515 161.756 217.217C162.182 216.918 162.438 216.571 162.524 216.177H163.964C163.782 217.062 163.35 217.755 162.668 218.257C161.985 218.758 161.137 219.009 160.124 219.009ZM160.028 211.233C159.26 211.233 158.657 211.451 158.22 211.889C157.782 212.315 157.505 212.881 157.388 213.585H162.604C162.508 212.859 162.246 212.289 161.82 211.873C161.393 211.446 160.796 211.233 160.028 211.233ZM169.929 218.721V207.041H171.465V211.681C171.7 211.115 172.036 210.683 172.473 210.385C172.921 210.075 173.492 209.921 174.185 209.921H174.249C175.273 209.921 176.046 210.262 176.569 210.945C177.092 211.617 177.353 212.582 177.353 213.841V218.721H175.817V213.521C175.817 212.827 175.62 212.289 175.225 211.905C174.841 211.521 174.34 211.329 173.721 211.329C173.038 211.329 172.489 211.558 172.073 212.017C171.668 212.465 171.465 213.057 171.465 213.793V218.721H169.929ZM184.099 219.009C183.353 219.009 182.697 218.881 182.131 218.625C181.566 218.369 181.086 218.033 180.691 217.617C180.307 217.19 180.014 216.715 179.811 216.193C179.619 215.67 179.523 215.137 179.523 214.593V214.305C179.523 213.761 179.625 213.227 179.827 212.705C180.03 212.171 180.329 211.697 180.723 211.281C181.118 210.854 181.598 210.518 182.163 210.273C182.729 210.017 183.374 209.889 184.099 209.889C184.825 209.889 185.47 210.017 186.035 210.273C186.601 210.518 187.081 210.854 187.475 211.281C187.87 211.697 188.169 212.171 188.371 212.705C188.574 213.227 188.675 213.761 188.675 214.305V214.593C188.675 215.137 188.574 215.67 188.371 216.193C188.179 216.715 187.886 217.19 187.491 217.617C187.107 218.033 186.633 218.369 186.067 218.625C185.502 218.881 184.846 219.009 184.099 219.009ZM184.099 217.633C184.739 217.633 185.283 217.494 185.731 217.217C186.19 216.929 186.537 216.545 186.771 216.065C187.017 215.585 187.139 215.046 187.139 214.449C187.139 213.841 187.017 213.297 186.771 212.817C186.526 212.337 186.174 211.958 185.715 211.681C185.267 211.403 184.729 211.265 184.099 211.265C183.481 211.265 182.942 211.403 182.483 211.681C182.025 211.958 181.673 212.337 181.427 212.817C181.182 213.297 181.059 213.841 181.059 214.449C181.059 215.046 181.177 215.585 181.411 216.065C181.657 216.545 182.003 216.929 182.451 217.217C182.91 217.494 183.459 217.633 184.099 217.633ZM190.976 218.721V210.177H192.192V212.161C192.384 211.435 192.725 210.881 193.216 210.497C193.717 210.113 194.368 209.921 195.168 209.921H195.232C196.309 209.921 197.104 210.257 197.616 210.929C198.139 211.601 198.4 212.571 198.4 213.841V218.721H196.864V213.521C196.864 212.859 196.677 212.331 196.304 211.937C195.931 211.531 195.419 211.329 194.768 211.329C194.096 211.329 193.552 211.537 193.136 211.953C192.72 212.369 192.512 212.923 192.512 213.617V218.721H190.976ZM204.842 219.009C204.096 219.009 203.45 218.881 202.906 218.625C202.362 218.369 201.92 218.033 201.578 217.617C201.237 217.19 200.981 216.715 200.81 216.193C200.65 215.67 200.57 215.137 200.57 214.593V214.305C200.57 213.75 200.65 213.211 200.81 212.689C200.981 212.166 201.237 211.697 201.578 211.281C201.92 210.854 202.352 210.518 202.874 210.273C203.408 210.017 204.032 209.889 204.746 209.889C205.674 209.889 206.437 210.091 207.034 210.497C207.642 210.891 208.09 211.403 208.378 212.033C208.677 212.662 208.826 213.334 208.826 214.049V214.737H202.042C202.096 215.579 202.346 216.278 202.794 216.833C203.242 217.387 203.925 217.665 204.842 217.665C205.514 217.665 206.058 217.515 206.474 217.217C206.901 216.918 207.157 216.571 207.242 216.177H208.682C208.501 217.062 208.069 217.755 207.386 218.257C206.704 218.758 205.856 219.009 204.842 219.009ZM204.746 211.233C203.978 211.233 203.376 211.451 202.938 211.889C202.501 212.315 202.224 212.881 202.106 213.585H207.322C207.226 212.859 206.965 212.289 206.538 211.873C206.112 211.446 205.514 211.233 204.746 211.233ZM213.807 218.977C212.687 218.977 211.818 218.737 211.199 218.257C210.591 217.777 210.276 217.121 210.255 216.289H211.695C211.716 216.619 211.882 216.934 212.191 217.233C212.511 217.521 213.05 217.665 213.807 217.665C214.49 217.665 215.012 217.531 215.375 217.265C215.738 216.987 215.919 216.651 215.919 216.257C215.919 215.905 215.786 215.633 215.519 215.441C215.252 215.238 214.82 215.105 214.223 215.041L213.295 214.945C212.484 214.859 211.823 214.619 211.311 214.225C210.799 213.819 210.543 213.254 210.543 212.529C210.543 211.707 210.847 211.067 211.455 210.609C212.063 210.15 212.847 209.921 213.807 209.921C214.767 209.921 215.546 210.134 216.143 210.561C216.74 210.987 217.05 211.622 217.071 212.465H215.631C215.62 212.123 215.46 211.835 215.151 211.601C214.852 211.355 214.404 211.233 213.807 211.233C213.21 211.233 212.756 211.355 212.447 211.601C212.138 211.846 211.983 212.155 211.983 212.529C211.983 212.849 212.09 213.105 212.303 213.297C212.527 213.489 212.89 213.611 213.391 213.665L214.319 213.761C215.236 213.857 215.972 214.113 216.527 214.529C217.082 214.934 217.359 215.51 217.359 216.257C217.359 216.79 217.204 217.265 216.895 217.681C216.596 218.086 216.18 218.406 215.647 218.641C215.114 218.865 214.5 218.977 213.807 218.977ZM222.913 218.817C222.273 218.817 221.719 218.726 221.249 218.545C220.791 218.363 220.433 218.054 220.177 217.617C219.932 217.169 219.809 216.566 219.809 215.809V211.329H218.337V210.177H219.809V207.585H221.281V210.177H224.225V211.329H221.281V216.001C221.281 216.459 221.404 216.817 221.649 217.073C221.905 217.318 222.263 217.441 222.721 217.441H224.225V218.817H222.913ZM226.094 218.721V216.769H227.95V218.721H226.094ZM238.242 219.009C237.271 219.009 236.445 218.849 235.762 218.529C235.079 218.209 234.557 217.766 234.194 217.201C233.831 216.635 233.65 215.995 233.65 215.281H235.218C235.218 215.633 235.309 215.985 235.49 216.337C235.682 216.689 235.997 216.982 236.434 217.217C236.882 217.451 237.485 217.569 238.242 217.569C238.946 217.569 239.522 217.467 239.97 217.265C240.418 217.051 240.749 216.779 240.962 216.449C241.175 216.107 241.282 215.739 241.282 215.345C241.282 214.865 241.074 214.47 240.658 214.161C240.242 213.841 239.634 213.643 238.834 213.569L237.538 213.457C236.503 213.371 235.677 213.051 235.058 212.497C234.439 211.942 234.13 211.211 234.13 210.305C234.13 209.59 234.301 208.966 234.642 208.433C234.994 207.899 235.479 207.483 236.098 207.185C236.717 206.875 237.437 206.721 238.258 206.721C239.069 206.721 239.783 206.87 240.402 207.169C241.021 207.467 241.501 207.889 241.842 208.433C242.194 208.966 242.37 209.606 242.37 210.353H240.802C240.802 209.979 240.711 209.627 240.53 209.297C240.359 208.966 240.087 208.694 239.714 208.481C239.341 208.267 238.855 208.161 238.258 208.161C237.682 208.161 237.202 208.262 236.818 208.465C236.445 208.667 236.162 208.934 235.97 209.265C235.789 209.585 235.698 209.931 235.698 210.305C235.698 210.731 235.863 211.11 236.194 211.441C236.525 211.771 237.015 211.963 237.666 212.017L238.962 212.129C240.157 212.235 241.101 212.566 241.794 213.121C242.498 213.665 242.85 214.406 242.85 215.345C242.85 216.059 242.658 216.694 242.274 217.249C241.89 217.803 241.351 218.235 240.658 218.545C239.965 218.854 239.159 219.009 238.242 219.009ZM245.257 218.721V207.041H246.793V211.681C247.028 211.115 247.364 210.683 247.801 210.385C248.249 210.075 248.82 209.921 249.513 209.921H249.577C250.601 209.921 251.374 210.262 251.897 210.945C252.42 211.617 252.681 212.582 252.681 213.841V218.721H251.145V213.521C251.145 212.827 250.948 212.289 250.553 211.905C250.169 211.521 249.668 211.329 249.049 211.329C248.366 211.329 247.817 211.558 247.401 212.017C246.996 212.465 246.793 213.057 246.793 213.793V218.721H245.257ZM257.86 218.945C256.889 218.945 256.126 218.705 255.572 218.225C255.028 217.734 254.756 217.046 254.756 216.161C254.756 215.254 255.06 214.571 255.668 214.113C256.276 213.643 257.134 213.409 258.244 213.409H260.404V213.201C260.404 212.017 259.806 211.425 258.612 211.425C258.121 211.425 257.609 211.435 257.076 211.457C256.542 211.478 256.1 211.499 255.748 211.521V210.177C256.089 210.145 256.468 210.123 256.884 210.113C257.31 210.091 257.716 210.081 258.1 210.081C259.412 210.081 260.366 210.321 260.964 210.801C261.572 211.281 261.876 212.118 261.876 213.313V218.721H260.66V217.025C260.276 218.305 259.342 218.945 257.86 218.945ZM258.18 217.729C258.542 217.729 258.889 217.665 259.22 217.537C259.55 217.398 259.822 217.174 260.036 216.865C260.26 216.545 260.382 216.107 260.404 215.553V214.561H258.18C257.561 214.561 257.086 214.71 256.756 215.009C256.425 215.307 256.26 215.691 256.26 216.161C256.26 216.63 256.425 217.009 256.756 217.297C257.086 217.585 257.561 217.729 258.18 217.729ZM264.695 218.721V210.177H265.911V212.737C266.039 211.819 266.375 211.147 266.919 210.721C267.463 210.294 268.204 210.081 269.143 210.081H269.431V211.457H268.887C268.033 211.457 267.377 211.686 266.919 212.145C266.46 212.593 266.231 213.243 266.231 214.097V218.721H264.695ZM274.795 219.009C274.049 219.009 273.403 218.881 272.859 218.625C272.315 218.369 271.873 218.033 271.531 217.617C271.19 217.19 270.934 216.715 270.763 216.193C270.603 215.67 270.523 215.137 270.523 214.593V214.305C270.523 213.75 270.603 213.211 270.763 212.689C270.934 212.166 271.19 211.697 271.531 211.281C271.873 210.854 272.305 210.518 272.827 210.273C273.361 210.017 273.985 209.889 274.699 209.889C275.627 209.889 276.39 210.091 276.987 210.497C277.595 210.891 278.043 211.403 278.331 212.033C278.63 212.662 278.779 213.334 278.779 214.049V214.737H271.995C272.049 215.579 272.299 216.278 272.747 216.833C273.195 217.387 273.878 217.665 274.795 217.665C275.467 217.665 276.011 217.515 276.427 217.217C276.854 216.918 277.11 216.571 277.195 216.177H278.635C278.454 217.062 278.022 217.755 277.339 218.257C276.657 218.758 275.809 219.009 274.795 219.009ZM274.699 211.233C273.931 211.233 273.329 211.451 272.891 211.889C272.454 212.315 272.177 212.881 272.059 213.585H277.275C277.179 212.859 276.918 212.289 276.491 211.873C276.065 211.446 275.467 211.233 274.699 211.233ZM157.442 238.529L154.386 230.177H155.954L158.434 237.249H158.77L160.866 230.177H162.37L159.522 239.633C159.266 240.475 158.855 241.089 158.29 241.473C157.724 241.857 157.004 242.049 156.13 242.049H154.994V240.673H156.226C156.759 240.673 157.175 240.566 157.474 240.353C157.783 240.139 158.018 239.766 158.178 239.233L158.386 238.529H157.442ZM168.099 239.009C167.353 239.009 166.697 238.881 166.131 238.625C165.566 238.369 165.086 238.033 164.691 237.617C164.307 237.19 164.014 236.715 163.811 236.193C163.619 235.67 163.523 235.137 163.523 234.593V234.305C163.523 233.761 163.625 233.227 163.827 232.705C164.03 232.171 164.329 231.697 164.723 231.281C165.118 230.854 165.598 230.518 166.163 230.273C166.729 230.017 167.374 229.889 168.099 229.889C168.825 229.889 169.47 230.017 170.035 230.273C170.601 230.518 171.081 230.854 171.475 231.281C171.87 231.697 172.169 232.171 172.371 232.705C172.574 233.227 172.675 233.761 172.675 234.305V234.593C172.675 235.137 172.574 235.67 172.371 236.193C172.179 236.715 171.886 237.19 171.491 237.617C171.107 238.033 170.633 238.369 170.067 238.625C169.502 238.881 168.846 239.009 168.099 239.009ZM168.099 237.633C168.739 237.633 169.283 237.494 169.731 237.217C170.19 236.929 170.537 236.545 170.771 236.065C171.017 235.585 171.139 235.046 171.139 234.449C171.139 233.841 171.017 233.297 170.771 232.817C170.526 232.337 170.174 231.958 169.715 231.681C169.267 231.403 168.729 231.265 168.099 231.265C167.481 231.265 166.942 231.403 166.483 231.681C166.025 231.958 165.673 232.337 165.427 232.817C165.182 233.297 165.059 233.841 165.059 234.449C165.059 235.046 165.177 235.585 165.411 236.065C165.657 236.545 166.003 236.929 166.451 237.217C166.91 237.494 167.459 237.633 168.099 237.633ZM177.936 238.977C176.923 238.977 176.144 238.646 175.6 237.985C175.056 237.323 174.784 236.369 174.784 235.121V230.161H176.32V235.425C176.32 236.097 176.501 236.625 176.864 237.009C177.227 237.382 177.717 237.569 178.336 237.569C178.976 237.569 179.499 237.366 179.904 236.961C180.309 236.545 180.512 235.979 180.512 235.265V230.161H182.048V238.721H180.832V236.753C180.64 237.478 180.309 238.033 179.84 238.417C179.371 238.79 178.757 238.977 178 238.977H177.936ZM185.023 238.721V230.177H186.239V232.737C186.367 231.819 186.703 231.147 187.247 230.721C187.791 230.294 188.532 230.081 189.471 230.081H189.759V231.457H189.215C188.361 231.457 187.705 231.686 187.247 232.145C186.788 232.593 186.559 233.243 186.559 234.097V238.721H185.023ZM198.026 238.977C196.906 238.977 196.037 238.737 195.418 238.257C194.81 237.777 194.495 237.121 194.474 236.289H195.914C195.935 236.619 196.101 236.934 196.41 237.233C196.73 237.521 197.269 237.665 198.026 237.665C198.709 237.665 199.231 237.531 199.594 237.265C199.957 236.987 200.138 236.651 200.138 236.257C200.138 235.905 200.005 235.633 199.738 235.441C199.471 235.238 199.039 235.105 198.442 235.041L197.514 234.945C196.703 234.859 196.042 234.619 195.53 234.225C195.018 233.819 194.762 233.254 194.762 232.529C194.762 231.707 195.066 231.067 195.674 230.609C196.282 230.15 197.066 229.921 198.026 229.921C198.986 229.921 199.765 230.134 200.362 230.561C200.959 230.987 201.269 231.622 201.29 232.465H199.85C199.839 232.123 199.679 231.835 199.37 231.601C199.071 231.355 198.623 231.233 198.026 231.233C197.429 231.233 196.975 231.355 196.666 231.601C196.357 231.846 196.202 232.155 196.202 232.529C196.202 232.849 196.309 233.105 196.522 233.297C196.746 233.489 197.109 233.611 197.61 233.665L198.538 233.761C199.455 233.857 200.191 234.113 200.746 234.529C201.301 234.934 201.578 235.51 201.578 236.257C201.578 236.79 201.423 237.265 201.114 237.681C200.815 238.086 200.399 238.406 199.866 238.641C199.333 238.865 198.719 238.977 198.026 238.977ZM207.132 238.817C206.492 238.817 205.937 238.726 205.468 238.545C205.009 238.363 204.652 238.054 204.396 237.617C204.151 237.169 204.028 236.566 204.028 235.809V231.329H202.556V230.177H204.028V227.585H205.5V230.177H208.444V231.329H205.5V236.001C205.5 236.459 205.623 236.817 205.868 237.073C206.124 237.318 206.481 237.441 206.94 237.441H208.444V238.817H207.132ZM214.49 239.009C213.743 239.009 213.087 238.881 212.522 238.625C211.957 238.369 211.477 238.033 211.082 237.617C210.698 237.19 210.405 236.715 210.202 236.193C210.01 235.67 209.914 235.137 209.914 234.593V234.305C209.914 233.761 210.015 233.227 210.218 232.705C210.421 232.171 210.719 231.697 211.114 231.281C211.509 230.854 211.989 230.518 212.554 230.273C213.119 230.017 213.765 229.889 214.49 229.889C215.215 229.889 215.861 230.017 216.426 230.273C216.991 230.518 217.471 230.854 217.866 231.281C218.261 231.697 218.559 232.171 218.762 232.705C218.965 233.227 219.066 233.761 219.066 234.305V234.593C219.066 235.137 218.965 235.67 218.762 236.193C218.57 236.715 218.277 237.19 217.882 237.617C217.498 238.033 217.023 238.369 216.458 238.625C215.893 238.881 215.237 239.009 214.49 239.009ZM214.49 237.633C215.13 237.633 215.674 237.494 216.122 237.217C216.581 236.929 216.927 236.545 217.162 236.065C217.407 235.585 217.53 235.046 217.53 234.449C217.53 233.841 217.407 233.297 217.162 232.817C216.917 232.337 216.565 231.958 216.106 231.681C215.658 231.403 215.119 231.265 214.49 231.265C213.871 231.265 213.333 231.403 212.874 231.681C212.415 231.958 212.063 232.337 211.818 232.817C211.573 233.297 211.45 233.841 211.45 234.449C211.45 235.046 211.567 235.585 211.802 236.065C212.047 236.545 212.394 236.929 212.842 237.217C213.301 237.494 213.85 237.633 214.49 237.633ZM221.367 238.721V230.177H222.583V232.737C222.711 231.819 223.047 231.147 223.591 230.721C224.135 230.294 224.876 230.081 225.815 230.081H226.103V231.457H225.559C224.705 231.457 224.049 231.686 223.591 232.145C223.132 232.593 222.903 233.243 222.903 234.097V238.721H221.367ZM230.082 238.529L227.026 230.177H228.594L231.074 237.249H231.41L233.506 230.177H235.01L232.162 239.633C231.906 240.475 231.496 241.089 230.93 241.473C230.365 241.857 229.645 242.049 228.77 242.049H227.634V240.673H228.866C229.4 240.673 229.816 240.566 230.114 240.353C230.424 240.139 230.658 239.766 230.818 239.233L231.026 238.529H230.082ZM242.969 238.945C241.998 238.945 241.236 238.705 240.681 238.225C240.137 237.734 239.865 237.046 239.865 236.161C239.865 235.254 240.169 234.571 240.777 234.113C241.385 233.643 242.244 233.409 243.353 233.409H245.513V233.201C245.513 232.017 244.916 231.425 243.721 231.425C243.23 231.425 242.718 231.435 242.185 231.457C241.652 231.478 241.209 231.499 240.857 231.521V230.177C241.198 230.145 241.577 230.123 241.993 230.113C242.42 230.091 242.825 230.081 243.209 230.081C244.521 230.081 245.476 230.321 246.073 230.801C246.681 231.281 246.985 232.118 246.985 233.313V238.721H245.769V237.025C245.385 238.305 244.452 238.945 242.969 238.945ZM243.289 237.729C243.652 237.729 243.998 237.665 244.329 237.537C244.66 237.398 244.932 237.174 245.145 236.865C245.369 236.545 245.492 236.107 245.513 235.553V234.561H243.289C242.67 234.561 242.196 234.71 241.865 235.009C241.534 235.307 241.369 235.691 241.369 236.161C241.369 236.63 241.534 237.009 241.865 237.297C242.196 237.585 242.67 237.729 243.289 237.729ZM249.804 238.721V230.177H251.02V232.161C251.212 231.435 251.553 230.881 252.044 230.497C252.545 230.113 253.196 229.921 253.996 229.921H254.06C255.137 229.921 255.932 230.257 256.444 230.929C256.967 231.601 257.228 232.571 257.228 233.841V238.721H255.692V233.521C255.692 232.859 255.505 232.331 255.132 231.937C254.759 231.531 254.247 231.329 253.596 231.329C252.924 231.329 252.38 231.537 251.964 231.953C251.548 232.369 251.34 232.923 251.34 233.617V238.721H249.804ZM263.606 239.009C262.796 239.009 262.07 238.811 261.43 238.417C260.801 238.022 260.305 237.494 259.942 236.833C259.58 236.161 259.398 235.414 259.398 234.593V234.305C259.398 233.494 259.574 232.758 259.926 232.097C260.278 231.425 260.764 230.891 261.382 230.497C262.012 230.091 262.737 229.889 263.558 229.889C264.188 229.889 264.764 230.017 265.286 230.273C265.82 230.529 266.252 230.929 266.582 231.473V227.041H268.118V238.721H266.902V236.961C266.572 237.686 266.108 238.209 265.51 238.529C264.924 238.849 264.289 239.009 263.606 239.009ZM263.814 237.665C264.337 237.665 264.812 237.547 265.238 237.313C265.665 237.078 266.006 236.742 266.262 236.305C266.518 235.857 266.646 235.334 266.646 234.737V234.001C266.646 233.414 266.513 232.918 266.246 232.513C265.99 232.097 265.644 231.782 265.206 231.569C264.78 231.345 264.31 231.233 263.798 231.233C262.945 231.233 262.252 231.526 261.718 232.113C261.196 232.699 260.934 233.478 260.934 234.449C260.934 235.099 261.057 235.67 261.302 236.161C261.548 236.641 261.889 237.014 262.326 237.281C262.764 237.537 263.26 237.665 263.814 237.665ZM141.523 261.921V250.177H142.739V252.273C143.027 251.451 143.475 250.849 144.083 250.465C144.691 250.081 145.373 249.889 146.131 249.889C146.963 249.889 147.683 250.091 148.291 250.497C148.909 250.902 149.389 251.441 149.731 252.113C150.072 252.774 150.243 253.505 150.243 254.305V254.593C150.243 255.393 150.067 256.129 149.715 256.801C149.363 257.462 148.872 257.995 148.243 258.401C147.624 258.806 146.909 259.009 146.099 259.009C145.512 259.009 144.947 258.886 144.403 258.641C143.859 258.395 143.411 257.995 143.059 257.441V261.921H141.523ZM145.859 257.665C146.435 257.665 146.936 257.531 147.363 257.265C147.789 256.987 148.12 256.609 148.355 256.129C148.589 255.638 148.707 255.078 148.707 254.449C148.707 253.809 148.589 253.249 148.355 252.769C148.12 252.289 147.789 251.915 147.363 251.649C146.936 251.371 146.435 251.233 145.859 251.233C145.347 251.233 144.872 251.35 144.435 251.585C143.997 251.809 143.645 252.139 143.379 252.577C143.123 253.003 142.995 253.521 142.995 254.129V254.865C142.995 255.451 143.128 255.953 143.395 256.369C143.661 256.785 144.013 257.105 144.451 257.329C144.888 257.553 145.357 257.665 145.859 257.665ZM152.554 258.721V250.177H153.77V252.737C153.898 251.819 154.234 251.147 154.778 250.721C155.322 250.294 156.063 250.081 157.002 250.081H157.29V251.457H156.746C155.893 251.457 155.237 251.686 154.778 252.145C154.319 252.593 154.09 253.243 154.09 254.097V258.721H152.554ZM162.959 259.009C162.212 259.009 161.556 258.881 160.991 258.625C160.425 258.369 159.945 258.033 159.551 257.617C159.167 257.19 158.873 256.715 158.671 256.193C158.479 255.67 158.383 255.137 158.383 254.593V254.305C158.383 253.761 158.484 253.227 158.687 252.705C158.889 252.171 159.188 251.697 159.583 251.281C159.977 250.854 160.457 250.518 161.023 250.273C161.588 250.017 162.233 249.889 162.959 249.889C163.684 249.889 164.329 250.017 164.895 250.273C165.46 250.518 165.94 250.854 166.335 251.281C166.729 251.697 167.028 252.171 167.231 252.705C167.433 253.227 167.535 253.761 167.535 254.305V254.593C167.535 255.137 167.433 255.67 167.231 256.193C167.039 256.715 166.745 257.19 166.351 257.617C165.967 258.033 165.492 258.369 164.927 258.625C164.361 258.881 163.705 259.009 162.959 259.009ZM162.959 257.633C163.599 257.633 164.143 257.494 164.591 257.217C165.049 256.929 165.396 256.545 165.631 256.065C165.876 255.585 165.999 255.046 165.999 254.449C165.999 253.841 165.876 253.297 165.631 252.817C165.385 252.337 165.033 251.958 164.575 251.681C164.127 251.403 163.588 251.265 162.959 251.265C162.34 251.265 161.801 251.403 161.343 251.681C160.884 251.958 160.532 252.337 160.287 252.817C160.041 253.297 159.919 253.841 159.919 254.449C159.919 255.046 160.036 255.585 160.271 256.065C160.516 256.545 160.863 256.929 161.311 257.217C161.769 257.494 162.319 257.633 162.959 257.633ZM171.503 258.721L168.591 250.177H170.191L172.639 257.505H172.975L175.103 250.177H176.607L174.079 258.721H171.503ZM179.465 248.801C179.123 248.801 178.867 248.71 178.697 248.529C178.537 248.347 178.457 248.118 178.457 247.841C178.457 247.563 178.537 247.334 178.697 247.153C178.867 246.971 179.123 246.881 179.465 246.881C179.806 246.881 180.057 246.971 180.217 247.153C180.387 247.334 180.473 247.563 180.473 247.841C180.473 248.118 180.387 248.347 180.217 248.529C180.057 248.71 179.806 248.801 179.465 248.801ZM179.033 258.721V251.393H177.721V250.177H180.569V258.721H179.033ZM187.106 259.009C186.296 259.009 185.57 258.811 184.93 258.417C184.301 258.022 183.805 257.494 183.442 256.833C183.08 256.161 182.898 255.414 182.898 254.593V254.305C182.898 253.494 183.074 252.758 183.426 252.097C183.778 251.425 184.264 250.891 184.882 250.497C185.512 250.091 186.237 249.889 187.058 249.889C187.688 249.889 188.264 250.017 188.786 250.273C189.32 250.529 189.752 250.929 190.082 251.473V247.041H191.618V258.721H190.402V256.961C190.072 257.686 189.608 258.209 189.01 258.529C188.424 258.849 187.789 259.009 187.106 259.009ZM187.314 257.665C187.837 257.665 188.312 257.547 188.738 257.313C189.165 257.078 189.506 256.742 189.762 256.305C190.018 255.857 190.146 255.334 190.146 254.737V254.001C190.146 253.414 190.013 252.918 189.746 252.513C189.49 252.097 189.144 251.782 188.706 251.569C188.28 251.345 187.81 251.233 187.298 251.233C186.445 251.233 185.752 251.526 185.218 252.113C184.696 252.699 184.434 253.478 184.434 254.449C184.434 255.099 184.557 255.67 184.802 256.161C185.048 256.641 185.389 257.014 185.826 257.281C186.264 257.537 186.76 257.665 187.314 257.665ZM198.202 259.009C197.455 259.009 196.81 258.881 196.266 258.625C195.722 258.369 195.279 258.033 194.938 257.617C194.596 257.19 194.34 256.715 194.17 256.193C194.01 255.67 193.93 255.137 193.93 254.593V254.305C193.93 253.75 194.01 253.211 194.17 252.689C194.34 252.166 194.596 251.697 194.938 251.281C195.279 250.854 195.711 250.518 196.234 250.273C196.767 250.017 197.391 249.889 198.106 249.889C199.034 249.889 199.796 250.091 200.394 250.497C201.002 250.891 201.45 251.403 201.738 252.033C202.036 252.662 202.186 253.334 202.186 254.049V254.737H195.402C195.455 255.579 195.706 256.278 196.154 256.833C196.602 257.387 197.284 257.665 198.202 257.665C198.874 257.665 199.418 257.515 199.834 257.217C200.26 256.918 200.516 256.571 200.602 256.177H202.042C201.86 257.062 201.428 257.755 200.746 258.257C200.063 258.758 199.215 259.009 198.202 259.009ZM198.106 251.233C197.338 251.233 196.735 251.451 196.298 251.889C195.86 252.315 195.583 252.881 195.466 253.585H200.682C200.586 252.859 200.324 252.289 199.898 251.873C199.471 251.446 198.874 251.233 198.106 251.233ZM208.007 261.921V250.177H209.223V252.273C209.511 251.451 209.959 250.849 210.567 250.465C211.175 250.081 211.858 249.889 212.615 249.889C213.447 249.889 214.167 250.091 214.775 250.497C215.394 250.902 215.874 251.441 216.215 252.113C216.556 252.774 216.727 253.505 216.727 254.305V254.593C216.727 255.393 216.551 256.129 216.199 256.801C215.847 257.462 215.356 257.995 214.727 258.401C214.108 258.806 213.394 259.009 212.583 259.009C211.996 259.009 211.431 258.886 210.887 258.641C210.343 258.395 209.895 257.995 209.543 257.441V261.921H208.007ZM212.343 257.665C212.919 257.665 213.42 257.531 213.847 257.265C214.274 256.987 214.604 256.609 214.839 256.129C215.074 255.638 215.191 255.078 215.191 254.449C215.191 253.809 215.074 253.249 214.839 252.769C214.604 252.289 214.274 251.915 213.847 251.649C213.42 251.371 212.919 251.233 212.343 251.233C211.831 251.233 211.356 251.35 210.919 251.585C210.482 251.809 210.13 252.139 209.863 252.577C209.607 253.003 209.479 253.521 209.479 254.129V254.865C209.479 255.451 209.612 255.953 209.879 256.369C210.146 256.785 210.498 257.105 210.935 257.329C211.372 257.553 211.842 257.665 212.343 257.665ZM219.038 258.721V250.177H220.254V252.737C220.382 251.819 220.718 251.147 221.262 250.721C221.806 250.294 222.548 250.081 223.486 250.081H223.774V251.457H223.23C222.377 251.457 221.721 251.686 221.262 252.145C220.804 252.593 220.574 253.243 220.574 254.097V258.721H219.038ZM229.443 259.009C228.696 259.009 228.04 258.881 227.475 258.625C226.91 258.369 226.43 258.033 226.035 257.617C225.651 257.19 225.358 256.715 225.155 256.193C224.963 255.67 224.867 255.137 224.867 254.593V254.305C224.867 253.761 224.968 253.227 225.171 252.705C225.374 252.171 225.672 251.697 226.067 251.281C226.462 250.854 226.942 250.518 227.507 250.273C228.072 250.017 228.718 249.889 229.443 249.889C230.168 249.889 230.814 250.017 231.379 250.273C231.944 250.518 232.424 250.854 232.819 251.281C233.214 251.697 233.512 252.171 233.715 252.705C233.918 253.227 234.019 253.761 234.019 254.305V254.593C234.019 255.137 233.918 255.67 233.715 256.193C233.523 256.715 233.23 257.19 232.835 257.617C232.451 258.033 231.976 258.369 231.411 258.625C230.846 258.881 230.19 259.009 229.443 259.009ZM229.443 257.633C230.083 257.633 230.627 257.494 231.075 257.217C231.534 256.929 231.88 256.545 232.115 256.065C232.36 255.585 232.483 255.046 232.483 254.449C232.483 253.841 232.36 253.297 232.115 252.817C231.87 252.337 231.518 251.958 231.059 251.681C230.611 251.403 230.072 251.265 229.443 251.265C228.824 251.265 228.286 251.403 227.827 251.681C227.368 251.958 227.016 252.337 226.771 252.817C226.526 253.297 226.403 253.841 226.403 254.449C226.403 255.046 226.52 255.585 226.755 256.065C227 256.545 227.347 256.929 227.795 257.217C228.254 257.494 228.803 257.633 229.443 257.633ZM240.256 259.009C239.509 259.009 238.853 258.881 238.288 258.625C237.722 258.369 237.242 258.033 236.848 257.617C236.464 257.19 236.17 256.715 235.968 256.193C235.776 255.67 235.68 255.137 235.68 254.593V254.305C235.68 253.761 235.781 253.227 235.984 252.705C236.186 252.171 236.485 251.697 236.88 251.281C237.274 250.854 237.754 250.518 238.32 250.273C238.885 250.017 239.53 249.889 240.256 249.889C240.981 249.889 241.626 250.017 242.192 250.273C242.757 250.518 243.237 250.854 243.632 251.281C244.026 251.697 244.325 252.171 244.528 252.705C244.73 253.227 244.832 253.761 244.832 254.305V254.593C244.832 255.137 244.73 255.67 244.528 256.193C244.336 256.715 244.042 257.19 243.648 257.617C243.264 258.033 242.789 258.369 242.224 258.625C241.658 258.881 241.002 259.009 240.256 259.009ZM240.256 257.633C240.896 257.633 241.44 257.494 241.888 257.217C242.346 256.929 242.693 256.545 242.928 256.065C243.173 255.585 243.296 255.046 243.296 254.449C243.296 253.841 243.173 253.297 242.928 252.817C242.682 252.337 242.33 251.958 241.872 251.681C241.424 251.403 240.885 251.265 240.256 251.265C239.637 251.265 239.098 251.403 238.64 251.681C238.181 251.958 237.829 252.337 237.584 252.817C237.338 253.297 237.216 253.841 237.216 254.449C237.216 255.046 237.333 255.585 237.568 256.065C237.813 256.545 238.16 256.929 238.608 257.217C239.066 257.494 239.616 257.633 240.256 257.633ZM247.356 258.721V251.425H246.172V250.273H247.356V249.745C247.356 248.795 247.607 248.097 248.108 247.649C248.609 247.201 249.345 246.977 250.316 246.977H251.372V248.257H250.06C249.665 248.257 249.361 248.369 249.148 248.593C248.935 248.806 248.828 249.105 248.828 249.489V250.273H251.532V251.425H248.828V258.721H247.356ZM256.931 258.721V248.257H255.747V247.041H258.467V258.721H256.931ZM262.261 248.801C261.92 248.801 261.664 248.71 261.493 248.529C261.333 248.347 261.253 248.118 261.253 247.841C261.253 247.563 261.333 247.334 261.493 247.153C261.664 246.971 261.92 246.881 262.261 246.881C262.603 246.881 262.853 246.971 263.013 247.153C263.184 247.334 263.269 247.563 263.269 247.841C263.269 248.118 263.184 248.347 263.013 248.529C262.853 248.71 262.603 248.801 262.261 248.801ZM261.829 258.721V251.393H260.517V250.177H263.365V258.721H261.829ZM266.335 258.721V247.041H267.871V254.417L271.519 250.177H273.135L269.983 253.825L273.999 258.721H272.223L269.007 254.737H267.871V258.721H266.335ZM278.952 259.009C278.205 259.009 277.56 258.881 277.016 258.625C276.472 258.369 276.029 258.033 275.688 257.617C275.346 257.19 275.09 256.715 274.92 256.193C274.76 255.67 274.68 255.137 274.68 254.593V254.305C274.68 253.75 274.76 253.211 274.92 252.689C275.09 252.166 275.346 251.697 275.688 251.281C276.029 250.854 276.461 250.518 276.984 250.273C277.517 250.017 278.141 249.889 278.856 249.889C279.784 249.889 280.546 250.091 281.144 250.497C281.752 250.891 282.2 251.403 282.488 252.033C282.786 252.662 282.936 253.334 282.936 254.049V254.737H276.152C276.205 255.579 276.456 256.278 276.904 256.833C277.352 257.387 278.034 257.665 278.952 257.665C279.624 257.665 280.168 257.515 280.584 257.217C281.01 256.918 281.266 256.571 281.352 256.177H282.792C282.61 257.062 282.178 257.755 281.496 258.257C280.813 258.758 279.965 259.009 278.952 259.009ZM278.856 251.233C278.088 251.233 277.485 251.451 277.048 251.889C276.61 252.315 276.333 252.881 276.216 253.585H281.432C281.336 252.859 281.074 252.289 280.648 251.873C280.221 251.446 279.624 251.233 278.856 251.233ZM147.71 278.721V270.177H148.926V272.145C149.108 271.43 149.428 270.881 149.886 270.497C150.356 270.113 150.964 269.921 151.71 269.921H151.774C152.5 269.921 153.092 270.102 153.55 270.465C154.009 270.827 154.334 271.35 154.526 272.033C154.729 271.35 155.06 270.827 155.518 270.465C155.988 270.102 156.585 269.921 157.31 269.921H157.374C158.388 269.921 159.14 270.267 159.63 270.961C160.132 271.643 160.382 272.603 160.382 273.841V278.721H158.846V273.505C158.846 272.811 158.676 272.278 158.334 271.905C157.993 271.521 157.518 271.329 156.91 271.329C156.281 271.329 155.774 271.531 155.39 271.937C155.006 272.331 154.814 272.886 154.814 273.601V278.721H153.278V273.505C153.278 272.811 153.108 272.278 152.766 271.905C152.425 271.521 151.95 271.329 151.342 271.329C150.713 271.329 150.206 271.531 149.822 271.937C149.438 272.331 149.246 272.886 149.246 273.601V278.721H147.71ZM166.827 279.009C166.08 279.009 165.435 278.881 164.891 278.625C164.347 278.369 163.904 278.033 163.563 277.617C163.221 277.19 162.965 276.715 162.795 276.193C162.635 275.67 162.555 275.137 162.555 274.593V274.305C162.555 273.75 162.635 273.211 162.795 272.689C162.965 272.166 163.221 271.697 163.563 271.281C163.904 270.854 164.336 270.518 164.859 270.273C165.392 270.017 166.016 269.889 166.731 269.889C167.659 269.889 168.421 270.091 169.019 270.497C169.627 270.891 170.075 271.403 170.363 272.033C170.661 272.662 170.811 273.334 170.811 274.049V274.737H164.027C164.08 275.579 164.331 276.278 164.779 276.833C165.227 277.387 165.909 277.665 166.827 277.665C167.499 277.665 168.043 277.515 168.459 277.217C168.885 276.918 169.141 276.571 169.227 276.177H170.667C170.485 277.062 170.053 277.755 169.371 278.257C168.688 278.758 167.84 279.009 166.827 279.009ZM166.731 271.233C165.963 271.233 165.36 271.451 164.923 271.889C164.485 272.315 164.208 272.881 164.091 273.585H169.307C169.211 272.859 168.949 272.289 168.523 271.873C168.096 271.446 167.499 271.233 166.731 271.233ZM176.56 279.009C175.749 279.009 175.024 278.811 174.384 278.417C173.754 278.022 173.258 277.494 172.896 276.833C172.533 276.161 172.352 275.414 172.352 274.593V274.305C172.352 273.494 172.528 272.758 172.88 272.097C173.232 271.425 173.717 270.891 174.336 270.497C174.965 270.091 175.69 269.889 176.512 269.889C177.141 269.889 177.717 270.017 178.24 270.273C178.773 270.529 179.205 270.929 179.536 271.473V267.041H181.072V278.721H179.856V276.961C179.525 277.686 179.061 278.209 178.464 278.529C177.877 278.849 177.242 279.009 176.56 279.009ZM176.768 277.665C177.29 277.665 177.765 277.547 178.192 277.313C178.618 277.078 178.96 276.742 179.216 276.305C179.472 275.857 179.6 275.334 179.6 274.737V274.001C179.6 273.414 179.466 272.918 179.2 272.513C178.944 272.097 178.597 271.782 178.16 271.569C177.733 271.345 177.264 271.233 176.752 271.233C175.898 271.233 175.205 271.526 174.672 272.113C174.149 272.699 173.888 273.478 173.888 274.449C173.888 275.099 174.01 275.67 174.256 276.161C174.501 276.641 174.842 277.014 175.28 277.281C175.717 277.537 176.213 277.665 176.768 277.665ZM184.871 268.801C184.529 268.801 184.273 268.71 184.103 268.529C183.943 268.347 183.863 268.118 183.863 267.841C183.863 267.563 183.943 267.334 184.103 267.153C184.273 266.971 184.529 266.881 184.871 266.881C185.212 266.881 185.463 266.971 185.623 267.153C185.793 267.334 185.879 267.563 185.879 267.841C185.879 268.118 185.793 268.347 185.623 268.529C185.463 268.71 185.212 268.801 184.871 268.801ZM184.439 278.721V271.393H183.127V270.177H185.975V278.721H184.439ZM192.609 279.009C191.873 279.009 191.233 278.881 190.689 278.625C190.155 278.369 189.713 278.027 189.361 277.601C189.009 277.163 188.742 276.683 188.561 276.161C188.39 275.638 188.305 275.115 188.305 274.593V274.305C188.305 273.761 188.39 273.227 188.561 272.705C188.742 272.182 189.009 271.713 189.361 271.297C189.723 270.87 190.171 270.529 190.705 270.273C191.238 270.017 191.862 269.889 192.577 269.889C193.291 269.889 193.931 270.022 194.497 270.289C195.073 270.555 195.531 270.934 195.873 271.425C196.225 271.905 196.422 272.475 196.465 273.137H194.993C194.918 272.603 194.673 272.161 194.257 271.809C193.841 271.446 193.281 271.265 192.577 271.265C191.969 271.265 191.462 271.403 191.057 271.681C190.651 271.958 190.347 272.337 190.145 272.817C189.942 273.297 189.841 273.841 189.841 274.449C189.841 275.035 189.942 275.574 190.145 276.065C190.347 276.545 190.651 276.929 191.057 277.217C191.473 277.494 191.99 277.633 192.609 277.633C193.323 277.633 193.899 277.451 194.337 277.089C194.774 276.715 195.025 276.257 195.089 275.713H196.561C196.529 276.385 196.331 276.966 195.969 277.457C195.617 277.947 195.147 278.331 194.561 278.609C193.985 278.875 193.334 279.009 192.609 279.009ZM201.016 278.945C200.045 278.945 199.282 278.705 198.728 278.225C198.184 277.734 197.912 277.046 197.912 276.161C197.912 275.254 198.216 274.571 198.824 274.113C199.432 273.643 200.29 273.409 201.4 273.409H203.56V273.201C203.56 272.017 202.962 271.425 201.768 271.425C201.277 271.425 200.765 271.435 200.232 271.457C199.698 271.478 199.256 271.499 198.904 271.521V270.177C199.245 270.145 199.624 270.123 200.04 270.113C200.466 270.091 200.872 270.081 201.256 270.081C202.568 270.081 203.522 270.321 204.12 270.801C204.728 271.281 205.032 272.118 205.032 273.313V278.721H203.816V277.025C203.432 278.305 202.498 278.945 201.016 278.945ZM201.336 277.729C201.698 277.729 202.045 277.665 202.376 277.537C202.706 277.398 202.978 277.174 203.192 276.865C203.416 276.545 203.538 276.107 203.56 275.553V274.561H201.336C200.717 274.561 200.242 274.71 199.912 275.009C199.581 275.307 199.416 275.691 199.416 276.161C199.416 276.63 199.581 277.009 199.912 277.297C200.242 277.585 200.717 277.729 201.336 277.729ZM207.947 278.721V268.257H206.763V267.041H209.483V278.721H207.947ZM216.07 278.721V270.177H217.286V272.737C217.414 271.819 217.75 271.147 218.294 270.721C218.838 270.294 219.579 270.081 220.518 270.081H220.806V271.457H220.262C219.408 271.457 218.752 271.686 218.294 272.145C217.835 272.593 217.606 273.243 217.606 274.097V278.721H216.07ZM226.17 279.009C225.424 279.009 224.778 278.881 224.234 278.625C223.69 278.369 223.248 278.033 222.906 277.617C222.565 277.19 222.309 276.715 222.138 276.193C221.978 275.67 221.898 275.137 221.898 274.593V274.305C221.898 273.75 221.978 273.211 222.138 272.689C222.309 272.166 222.565 271.697 222.906 271.281C223.248 270.854 223.68 270.518 224.202 270.273C224.736 270.017 225.36 269.889 226.074 269.889C227.002 269.889 227.765 270.091 228.362 270.497C228.97 270.891 229.418 271.403 229.706 272.033C230.005 272.662 230.154 273.334 230.154 274.049V274.737H223.37C223.424 275.579 223.674 276.278 224.122 276.833C224.57 277.387 225.253 277.665 226.17 277.665C226.842 277.665 227.386 277.515 227.802 277.217C228.229 276.918 228.485 276.571 228.57 276.177H230.01C229.829 277.062 229.397 277.755 228.714 278.257C228.032 278.758 227.184 279.009 226.17 279.009ZM226.074 271.233C225.306 271.233 224.704 271.451 224.266 271.889C223.829 272.315 223.552 272.881 223.434 273.585H228.65C228.554 272.859 228.293 272.289 227.866 271.873C227.44 271.446 226.842 271.233 226.074 271.233ZM235.999 279.009C235.263 279.009 234.623 278.881 234.079 278.625C233.546 278.369 233.103 278.027 232.751 277.601C232.399 277.163 232.133 276.683 231.951 276.161C231.781 275.638 231.695 275.115 231.695 274.593V274.305C231.695 273.761 231.781 273.227 231.951 272.705C232.133 272.182 232.399 271.713 232.751 271.297C233.114 270.87 233.562 270.529 234.095 270.273C234.629 270.017 235.253 269.889 235.967 269.889C236.682 269.889 237.322 270.022 237.887 270.289C238.463 270.555 238.922 270.934 239.263 271.425C239.615 271.905 239.813 272.475 239.855 273.137H238.383C238.309 272.603 238.063 272.161 237.647 271.809C237.231 271.446 236.671 271.265 235.967 271.265C235.359 271.265 234.853 271.403 234.447 271.681C234.042 271.958 233.738 272.337 233.535 272.817C233.333 273.297 233.231 273.841 233.231 274.449C233.231 275.035 233.333 275.574 233.535 276.065C233.738 276.545 234.042 276.929 234.447 277.217C234.863 277.494 235.381 277.633 235.999 277.633C236.714 277.633 237.29 277.451 237.727 277.089C238.165 276.715 238.415 276.257 238.479 275.713H239.951C239.919 276.385 239.722 276.966 239.359 277.457C239.007 277.947 238.538 278.331 237.951 278.609C237.375 278.875 236.725 279.009 235.999 279.009ZM245.974 279.009C245.228 279.009 244.572 278.881 244.006 278.625C243.441 278.369 242.961 278.033 242.566 277.617C242.182 277.19 241.889 276.715 241.686 276.193C241.494 275.67 241.398 275.137 241.398 274.593V274.305C241.398 273.761 241.5 273.227 241.702 272.705C241.905 272.171 242.204 271.697 242.598 271.281C242.993 270.854 243.473 270.518 244.038 270.273C244.604 270.017 245.249 269.889 245.974 269.889C246.7 269.889 247.345 270.017 247.91 270.273C248.476 270.518 248.956 270.854 249.35 271.281C249.745 271.697 250.044 272.171 250.246 272.705C250.449 273.227 250.55 273.761 250.55 274.305V274.593C250.55 275.137 250.449 275.67 250.246 276.193C250.054 276.715 249.761 277.19 249.366 277.617C248.982 278.033 248.508 278.369 247.942 278.625C247.377 278.881 246.721 279.009 245.974 279.009ZM245.974 277.633C246.614 277.633 247.158 277.494 247.606 277.217C248.065 276.929 248.412 276.545 248.646 276.065C248.892 275.585 249.014 275.046 249.014 274.449C249.014 273.841 248.892 273.297 248.646 272.817C248.401 272.337 248.049 271.958 247.59 271.681C247.142 271.403 246.604 271.265 245.974 271.265C245.356 271.265 244.817 271.403 244.358 271.681C243.9 271.958 243.548 272.337 243.302 272.817C243.057 273.297 242.934 273.841 242.934 274.449C242.934 275.046 243.052 275.585 243.286 276.065C243.532 276.545 243.878 276.929 244.326 277.217C244.785 277.494 245.334 277.633 245.974 277.633ZM252.851 278.721V270.177H254.067V272.737C254.195 271.819 254.531 271.147 255.075 270.721C255.619 270.294 256.36 270.081 257.299 270.081H257.587V271.457H257.043C256.19 271.457 255.534 271.686 255.075 272.145C254.616 272.593 254.387 273.243 254.387 274.097V278.721H252.851ZM262.888 279.009C262.077 279.009 261.352 278.811 260.712 278.417C260.082 278.022 259.586 277.494 259.224 276.833C258.861 276.161 258.68 275.414 258.68 274.593V274.305C258.68 273.494 258.856 272.758 259.208 272.097C259.56 271.425 260.045 270.891 260.664 270.497C261.293 270.091 262.018 269.889 262.84 269.889C263.469 269.889 264.045 270.017 264.568 270.273C265.101 270.529 265.533 270.929 265.864 271.473V267.041H267.4V278.721H266.184V276.961C265.853 277.686 265.389 278.209 264.792 278.529C264.205 278.849 263.57 279.009 262.888 279.009ZM263.096 277.665C263.618 277.665 264.093 277.547 264.52 277.313C264.946 277.078 265.288 276.742 265.544 276.305C265.8 275.857 265.928 275.334 265.928 274.737V274.001C265.928 273.414 265.794 272.918 265.528 272.513C265.272 272.097 264.925 271.782 264.488 271.569C264.061 271.345 263.592 271.233 263.08 271.233C262.226 271.233 261.533 271.526 261 272.113C260.477 272.699 260.216 273.478 260.216 274.449C260.216 275.099 260.338 275.67 260.584 276.161C260.829 276.641 261.17 277.014 261.608 277.281C262.045 277.537 262.541 277.665 263.096 277.665ZM273.151 278.977C272.031 278.977 271.162 278.737 270.543 278.257C269.935 277.777 269.62 277.121 269.599 276.289H271.039C271.06 276.619 271.226 276.934 271.535 277.233C271.855 277.521 272.394 277.665 273.151 277.665C273.834 277.665 274.356 277.531 274.719 277.265C275.082 276.987 275.263 276.651 275.263 276.257C275.263 275.905 275.13 275.633 274.863 275.441C274.596 275.238 274.164 275.105 273.567 275.041L272.639 274.945C271.828 274.859 271.167 274.619 270.655 274.225C270.143 273.819 269.887 273.254 269.887 272.529C269.887 271.707 270.191 271.067 270.799 270.609C271.407 270.15 272.191 269.921 273.151 269.921C274.111 269.921 274.89 270.134 275.487 270.561C276.084 270.987 276.394 271.622 276.415 272.465H274.975C274.964 272.123 274.804 271.835 274.495 271.601C274.196 271.355 273.748 271.233 273.151 271.233C272.554 271.233 272.1 271.355 271.791 271.601C271.482 271.846 271.327 272.155 271.327 272.529C271.327 272.849 271.434 273.105 271.647 273.297C271.871 273.489 272.234 273.611 272.735 273.665L273.663 273.761C274.58 273.857 275.316 274.113 275.871 274.529C276.426 274.934 276.703 275.51 276.703 276.257C276.703 276.79 276.548 277.265 276.239 277.681C275.94 278.086 275.524 278.406 274.991 278.641C274.458 278.865 273.844 278.977 273.151 278.977ZM165.563 298.945C164.592 298.945 163.829 298.705 163.275 298.225C162.731 297.734 162.459 297.046 162.459 296.161C162.459 295.254 162.763 294.571 163.371 294.113C163.979 293.643 164.837 293.409 165.947 293.409H168.107V293.201C168.107 292.017 167.509 291.425 166.315 291.425C165.824 291.425 165.312 291.435 164.779 291.457C164.245 291.478 163.803 291.499 163.451 291.521V290.177C163.792 290.145 164.171 290.123 164.587 290.113C165.013 290.091 165.419 290.081 165.803 290.081C167.115 290.081 168.069 290.321 168.667 290.801C169.275 291.281 169.579 292.118 169.579 293.313V298.721H168.363V297.025C167.979 298.305 167.045 298.945 165.563 298.945ZM165.883 297.729C166.245 297.729 166.592 297.665 166.923 297.537C167.253 297.398 167.525 297.174 167.739 296.865C167.963 296.545 168.085 296.107 168.107 295.553V294.561H165.883C165.264 294.561 164.789 294.71 164.459 295.009C164.128 295.307 163.963 295.691 163.963 296.161C163.963 296.63 164.128 297.009 164.459 297.297C164.789 297.585 165.264 297.729 165.883 297.729ZM172.398 298.721V290.177H173.614V292.161C173.806 291.435 174.147 290.881 174.638 290.497C175.139 290.113 175.79 289.921 176.59 289.921H176.654C177.731 289.921 178.526 290.257 179.038 290.929C179.56 291.601 179.822 292.571 179.822 293.841V298.721H178.286V293.521C178.286 292.859 178.099 292.331 177.726 291.937C177.352 291.531 176.84 291.329 176.19 291.329C175.518 291.329 174.974 291.537 174.558 291.953C174.142 292.369 173.934 292.923 173.934 293.617V298.721H172.398ZM186.2 299.009C185.389 299.009 184.664 298.811 184.024 298.417C183.395 298.022 182.899 297.494 182.536 296.833C182.173 296.161 181.992 295.414 181.992 294.593V294.305C181.992 293.494 182.168 292.758 182.52 292.097C182.872 291.425 183.357 290.891 183.976 290.497C184.605 290.091 185.331 289.889 186.152 289.889C186.781 289.889 187.357 290.017 187.88 290.273C188.413 290.529 188.845 290.929 189.176 291.473V287.041H190.712V298.721H189.496V296.961C189.165 297.686 188.701 298.209 188.104 298.529C187.517 298.849 186.883 299.009 186.2 299.009ZM186.408 297.665C186.931 297.665 187.405 297.547 187.832 297.313C188.259 297.078 188.6 296.742 188.856 296.305C189.112 295.857 189.24 295.334 189.24 294.737V294.001C189.24 293.414 189.107 292.918 188.84 292.513C188.584 292.097 188.237 291.782 187.8 291.569C187.373 291.345 186.904 291.233 186.392 291.233C185.539 291.233 184.845 291.526 184.312 292.113C183.789 292.699 183.528 293.478 183.528 294.449C183.528 295.099 183.651 295.67 183.896 296.161C184.141 296.641 184.483 297.014 184.92 297.281C185.357 297.537 185.853 297.665 186.408 297.665ZM197.304 298.721V287.041H198.84V291.681C199.075 291.115 199.411 290.683 199.848 290.385C200.296 290.075 200.867 289.921 201.56 289.921H201.624C202.648 289.921 203.421 290.262 203.944 290.945C204.467 291.617 204.728 292.582 204.728 293.841V298.721H203.192V293.521C203.192 292.827 202.995 292.289 202.6 291.905C202.216 291.521 201.715 291.329 201.096 291.329C200.413 291.329 199.864 291.558 199.448 292.017C199.043 292.465 198.84 293.057 198.84 293.793V298.721H197.304ZM211.474 299.009C210.728 299.009 210.072 298.881 209.506 298.625C208.941 298.369 208.461 298.033 208.066 297.617C207.682 297.19 207.389 296.715 207.186 296.193C206.994 295.67 206.898 295.137 206.898 294.593V294.305C206.898 293.761 207 293.227 207.202 292.705C207.405 292.171 207.704 291.697 208.098 291.281C208.493 290.854 208.973 290.518 209.538 290.273C210.104 290.017 210.749 289.889 211.474 289.889C212.2 289.889 212.845 290.017 213.41 290.273C213.976 290.518 214.456 290.854 214.85 291.281C215.245 291.697 215.544 292.171 215.746 292.705C215.949 293.227 216.05 293.761 216.05 294.305V294.593C216.05 295.137 215.949 295.67 215.746 296.193C215.554 296.715 215.261 297.19 214.866 297.617C214.482 298.033 214.008 298.369 213.442 298.625C212.877 298.881 212.221 299.009 211.474 299.009ZM211.474 297.633C212.114 297.633 212.658 297.494 213.106 297.217C213.565 296.929 213.912 296.545 214.146 296.065C214.392 295.585 214.514 295.046 214.514 294.449C214.514 293.841 214.392 293.297 214.146 292.817C213.901 292.337 213.549 291.958 213.09 291.681C212.642 291.403 212.104 291.265 211.474 291.265C210.856 291.265 210.317 291.403 209.858 291.681C209.4 291.958 209.048 292.337 208.802 292.817C208.557 293.297 208.434 293.841 208.434 294.449C208.434 295.046 208.552 295.585 208.786 296.065C209.032 296.545 209.378 296.929 209.826 297.217C210.285 297.494 210.834 297.633 211.474 297.633ZM221.151 298.977C220.031 298.977 219.162 298.737 218.543 298.257C217.935 297.777 217.62 297.121 217.599 296.289H219.039C219.06 296.619 219.226 296.934 219.535 297.233C219.855 297.521 220.394 297.665 221.151 297.665C221.834 297.665 222.356 297.531 222.719 297.265C223.082 296.987 223.263 296.651 223.263 296.257C223.263 295.905 223.13 295.633 222.863 295.441C222.596 295.238 222.164 295.105 221.567 295.041L220.639 294.945C219.828 294.859 219.167 294.619 218.655 294.225C218.143 293.819 217.887 293.254 217.887 292.529C217.887 291.707 218.191 291.067 218.799 290.609C219.407 290.15 220.191 289.921 221.151 289.921C222.111 289.921 222.89 290.134 223.487 290.561C224.084 290.987 224.394 291.622 224.415 292.465H222.975C222.964 292.123 222.804 291.835 222.495 291.601C222.196 291.355 221.748 291.233 221.151 291.233C220.554 291.233 220.1 291.355 219.791 291.601C219.482 291.846 219.327 292.155 219.327 292.529C219.327 292.849 219.434 293.105 219.647 293.297C219.871 293.489 220.234 293.611 220.735 293.665L221.663 293.761C222.58 293.857 223.316 294.113 223.871 294.529C224.426 294.934 224.703 295.51 224.703 296.257C224.703 296.79 224.548 297.265 224.239 297.681C223.94 298.086 223.524 298.406 222.991 298.641C222.458 298.865 221.844 298.977 221.151 298.977ZM226.929 301.921V290.177H228.145V292.273C228.433 291.451 228.881 290.849 229.489 290.465C230.097 290.081 230.78 289.889 231.537 289.889C232.369 289.889 233.089 290.091 233.697 290.497C234.316 290.902 234.796 291.441 235.137 292.113C235.478 292.774 235.649 293.505 235.649 294.305V294.593C235.649 295.393 235.473 296.129 235.121 296.801C234.769 297.462 234.278 297.995 233.649 298.401C233.03 298.806 232.316 299.009 231.505 299.009C230.918 299.009 230.353 298.886 229.809 298.641C229.265 298.395 228.817 297.995 228.465 297.441V301.921H226.929ZM231.265 297.665C231.841 297.665 232.342 297.531 232.769 297.265C233.196 296.987 233.526 296.609 233.761 296.129C233.996 295.638 234.113 295.078 234.113 294.449C234.113 293.809 233.996 293.249 233.761 292.769C233.526 292.289 233.196 291.915 232.769 291.649C232.342 291.371 231.841 291.233 231.265 291.233C230.753 291.233 230.278 291.35 229.841 291.585C229.404 291.809 229.052 292.139 228.785 292.577C228.529 293.003 228.401 293.521 228.401 294.129V294.865C228.401 295.451 228.534 295.953 228.801 296.369C229.068 296.785 229.42 297.105 229.857 297.329C230.294 297.553 230.764 297.665 231.265 297.665ZM238.808 288.801C238.467 288.801 238.211 288.71 238.04 288.529C237.88 288.347 237.8 288.118 237.8 287.841C237.8 287.563 237.88 287.334 238.04 287.153C238.211 286.971 238.467 286.881 238.808 286.881C239.15 286.881 239.4 286.971 239.56 287.153C239.731 287.334 239.816 287.563 239.816 287.841C239.816 288.118 239.731 288.347 239.56 288.529C239.4 288.71 239.15 288.801 238.808 288.801ZM238.376 298.721V291.393H237.064V290.177H239.912V298.721H238.376ZM246.21 298.817C245.57 298.817 245.015 298.726 244.546 298.545C244.087 298.363 243.73 298.054 243.474 297.617C243.229 297.169 243.106 296.566 243.106 295.809V291.329H241.634V290.177H243.106V287.585H244.578V290.177H247.522V291.329H244.578V296.001C244.578 296.459 244.701 296.817 244.946 297.073C245.202 297.318 245.559 297.441 246.018 297.441H247.522V298.817H246.21ZM252.031 298.945C251.061 298.945 250.298 298.705 249.743 298.225C249.199 297.734 248.927 297.046 248.927 296.161C248.927 295.254 249.231 294.571 249.839 294.113C250.447 293.643 251.306 293.409 252.415 293.409H254.575V293.201C254.575 292.017 253.978 291.425 252.783 291.425C252.293 291.425 251.781 291.435 251.247 291.457C250.714 291.478 250.271 291.499 249.919 291.521V290.177C250.261 290.145 250.639 290.123 251.055 290.113C251.482 290.091 251.887 290.081 252.271 290.081C253.583 290.081 254.538 290.321 255.135 290.801C255.743 291.281 256.047 292.118 256.047 293.313V298.721H254.831V297.025C254.447 298.305 253.514 298.945 252.031 298.945ZM252.351 297.729C252.714 297.729 253.061 297.665 253.391 297.537C253.722 297.398 253.994 297.174 254.207 296.865C254.431 296.545 254.554 296.107 254.575 295.553V294.561H252.351C251.733 294.561 251.258 294.71 250.927 295.009C250.597 295.307 250.431 295.691 250.431 296.161C250.431 296.63 250.597 297.009 250.927 297.297C251.258 297.585 251.733 297.729 252.351 297.729ZM258.963 298.721V288.257H257.779V287.041H260.499V298.721H258.963ZM179.796 318.721V310.177H181.012V312.737C181.14 311.819 181.476 311.147 182.02 310.721C182.564 310.294 183.306 310.081 184.244 310.081H184.532V311.457H183.988C183.135 311.457 182.479 311.686 182.02 312.145C181.562 312.593 181.332 313.243 181.332 314.097V318.721H179.796ZM189.897 319.009C189.15 319.009 188.505 318.881 187.961 318.625C187.417 318.369 186.974 318.033 186.633 317.617C186.292 317.19 186.036 316.715 185.865 316.193C185.705 315.67 185.625 315.137 185.625 314.593V314.305C185.625 313.75 185.705 313.211 185.865 312.689C186.036 312.166 186.292 311.697 186.633 311.281C186.974 310.854 187.406 310.518 187.929 310.273C188.462 310.017 189.086 309.889 189.801 309.889C190.729 309.889 191.492 310.091 192.089 310.497C192.697 310.891 193.145 311.403 193.433 312.033C193.732 312.662 193.881 313.334 193.881 314.049V314.737H187.097C187.15 315.579 187.401 316.278 187.849 316.833C188.297 317.387 188.98 317.665 189.897 317.665C190.569 317.665 191.113 317.515 191.529 317.217C191.956 316.918 192.212 316.571 192.297 316.177H193.737C193.556 317.062 193.124 317.755 192.441 318.257C191.758 318.758 190.91 319.009 189.897 319.009ZM189.801 311.233C189.033 311.233 188.43 311.451 187.993 311.889C187.556 312.315 187.278 312.881 187.161 313.585H192.377C192.281 312.859 192.02 312.289 191.593 311.873C191.166 311.446 190.569 311.233 189.801 311.233ZM199.726 319.009C198.99 319.009 198.35 318.881 197.806 318.625C197.273 318.369 196.83 318.027 196.478 317.601C196.126 317.163 195.859 316.683 195.678 316.161C195.507 315.638 195.422 315.115 195.422 314.593V314.305C195.422 313.761 195.507 313.227 195.678 312.705C195.859 312.182 196.126 311.713 196.478 311.297C196.841 310.87 197.289 310.529 197.822 310.273C198.355 310.017 198.979 309.889 199.694 309.889C200.409 309.889 201.049 310.022 201.614 310.289C202.19 310.555 202.649 310.934 202.99 311.425C203.342 311.905 203.539 312.475 203.582 313.137H202.11C202.035 312.603 201.79 312.161 201.374 311.809C200.958 311.446 200.398 311.265 199.694 311.265C199.086 311.265 198.579 311.403 198.174 311.681C197.769 311.958 197.465 312.337 197.262 312.817C197.059 313.297 196.958 313.841 196.958 314.449C196.958 315.035 197.059 315.574 197.262 316.065C197.465 316.545 197.769 316.929 198.174 317.217C198.59 317.494 199.107 317.633 199.726 317.633C200.441 317.633 201.017 317.451 201.454 317.089C201.891 316.715 202.142 316.257 202.206 315.713H203.678C203.646 316.385 203.449 316.966 203.086 317.457C202.734 317.947 202.265 318.331 201.678 318.609C201.102 318.875 200.451 319.009 199.726 319.009ZM209.397 319.009C208.65 319.009 208.005 318.881 207.461 318.625C206.917 318.369 206.474 318.033 206.133 317.617C205.792 317.19 205.536 316.715 205.365 316.193C205.205 315.67 205.125 315.137 205.125 314.593V314.305C205.125 313.75 205.205 313.211 205.365 312.689C205.536 312.166 205.792 311.697 206.133 311.281C206.474 310.854 206.906 310.518 207.429 310.273C207.962 310.017 208.586 309.889 209.301 309.889C210.229 309.889 210.992 310.091 211.589 310.497C212.197 310.891 212.645 311.403 212.933 312.033C213.232 312.662 213.381 313.334 213.381 314.049V314.737H206.597C206.65 315.579 206.901 316.278 207.349 316.833C207.797 317.387 208.48 317.665 209.397 317.665C210.069 317.665 210.613 317.515 211.029 317.217C211.456 316.918 211.712 316.571 211.797 316.177H213.237C213.056 317.062 212.624 317.755 211.941 318.257C211.258 318.758 210.41 319.009 209.397 319.009ZM209.301 311.233C208.533 311.233 207.93 311.451 207.493 311.889C207.056 312.315 206.778 312.881 206.661 313.585H211.877C211.781 312.859 211.52 312.289 211.093 311.873C210.666 311.446 210.069 311.233 209.301 311.233ZM216.41 308.801C216.069 308.801 215.813 308.71 215.642 308.529C215.482 308.347 215.402 308.118 215.402 307.841C215.402 307.563 215.482 307.334 215.642 307.153C215.813 306.971 216.069 306.881 216.41 306.881C216.751 306.881 217.002 306.971 217.162 307.153C217.333 307.334 217.418 307.563 217.418 307.841C217.418 308.118 217.333 308.347 217.162 308.529C217.002 308.71 216.751 308.801 216.41 308.801ZM215.978 318.721V311.393H214.666V310.177H217.514V318.721H215.978ZM220.484 321.921V310.177H221.7V312.273C221.988 311.451 222.436 310.849 223.044 310.465C223.652 310.081 224.334 309.889 225.092 309.889C225.924 309.889 226.644 310.091 227.252 310.497C227.87 310.902 228.35 311.441 228.692 312.113C229.033 312.774 229.204 313.505 229.204 314.305V314.593C229.204 315.393 229.028 316.129 228.676 316.801C228.324 317.462 227.833 317.995 227.204 318.401C226.585 318.806 225.87 319.009 225.06 319.009C224.473 319.009 223.908 318.886 223.364 318.641C222.82 318.395 222.372 317.995 222.02 317.441V321.921H220.484ZM224.82 317.665C225.396 317.665 225.897 317.531 226.324 317.265C226.75 316.987 227.081 316.609 227.316 316.129C227.55 315.638 227.668 315.078 227.668 314.449C227.668 313.809 227.55 313.249 227.316 312.769C227.081 312.289 226.75 311.915 226.324 311.649C225.897 311.371 225.396 311.233 224.82 311.233C224.308 311.233 223.833 311.35 223.396 311.585C222.958 311.809 222.606 312.139 222.34 312.577C222.084 313.003 221.956 313.521 221.956 314.129V314.865C221.956 315.451 222.089 315.953 222.356 316.369C222.622 316.785 222.974 317.105 223.412 317.329C223.849 317.553 224.318 317.665 224.82 317.665ZM234.843 318.817C234.203 318.817 233.648 318.726 233.179 318.545C232.72 318.363 232.363 318.054 232.107 317.617C231.862 317.169 231.739 316.566 231.739 315.809V311.329H230.267V310.177H231.739V307.585H233.211V310.177H236.155V311.329H233.211V316.001C233.211 316.459 233.334 316.817 233.579 317.073C233.835 317.318 234.192 317.441 234.651 317.441H236.155V318.817H234.843ZM241.065 318.977C239.945 318.977 239.076 318.737 238.457 318.257C237.849 317.777 237.534 317.121 237.513 316.289H238.953C238.974 316.619 239.14 316.934 239.449 317.233C239.769 317.521 240.308 317.665 241.065 317.665C241.748 317.665 242.27 317.531 242.633 317.265C242.996 316.987 243.177 316.651 243.177 316.257C243.177 315.905 243.044 315.633 242.777 315.441C242.51 315.238 242.078 315.105 241.481 315.041L240.553 314.945C239.742 314.859 239.081 314.619 238.569 314.225C238.057 313.819 237.801 313.254 237.801 312.529C237.801 311.707 238.105 311.067 238.713 310.609C239.321 310.15 240.105 309.921 241.065 309.921C242.025 309.921 242.804 310.134 243.401 310.561C243.998 310.987 244.308 311.622 244.329 312.465H242.889C242.878 312.123 242.718 311.835 242.409 311.601C242.11 311.355 241.662 311.233 241.065 311.233C240.468 311.233 240.014 311.355 239.705 311.601C239.396 311.846 239.241 312.155 239.241 312.529C239.241 312.849 239.348 313.105 239.561 313.297C239.785 313.489 240.148 313.611 240.649 313.665L241.577 313.761C242.494 313.857 243.23 314.113 243.785 314.529C244.34 314.934 244.617 315.51 244.617 316.257C244.617 316.79 244.462 317.265 244.153 317.681C243.854 318.086 243.438 318.406 242.905 318.641C242.372 318.865 241.758 318.977 241.065 318.977Z" fill="#2A2A2A"/>
<defs>
<filter id="filter0_f_3806_26141" x="-30.7656" y="0.931641" width="475.523" height="435.482" filterUnits="userSpaceOnUse" color-interpolation-filters="sRGB">
<feFlood flood-opacity="0" result="BackgroundImageFix"/>
<feBlend mode="normal" in="SourceGraphic" in2="BackgroundImageFix" result="shape"/>
<feGaussianBlur stdDeviation="25" result="effect1_foregroundBlur_3806_26141"/>
</filter>
<linearGradient id="paint0_linear_3806_26141" x1="275.984" y1="394.222" x2="8.28351" y2="51.4325" gradientUnits="userSpaceOnUse">
<stop stop-color="#D7D7D7"/>
<stop offset="1" stop-color="#A3A3A3"/>
</linearGradient>
<linearGradient id="paint1_linear_3806_26141" x1="206.995" y1="50.9316" x2="206.995" y2="386.413" gradientUnits="userSpaceOnUse">
<stop stop-color="white"/>
<stop offset="1" stop-color="#EFF3F4"/>
</linearGradient>
</defs>
</svg>
