<svg width="415" height="436" viewBox="0 0 415 436" fill="none" xmlns="http://www.w3.org/2000/svg">
<path d="M30.2188 42.8594H99.7197C101.346 42.8594 102.93 43.3882 104.229 44.3662L119.299 55.7041C120.772 56.8124 122.566 57.4121 124.409 57.4121H278.634C280.477 57.4121 282.271 56.8125 283.744 55.7041L298.813 44.3662C300.113 43.3883 301.696 42.8594 303.322 42.8594H383.555C387.697 42.8594 391.055 46.2172 391.055 50.3594V136.911C391.055 137.393 391.008 137.874 390.916 138.347L382.51 181.467C382.405 182.003 382.353 182.548 382.353 183.094V385.456C382.353 389.598 378.995 392.956 374.853 392.956H38.8281C34.686 392.956 31.3281 389.598 31.3281 385.456V172.69C31.3281 171.987 31.2409 171.286 31.0684 170.604L22.9482 138.527C22.796 137.926 22.7188 137.307 22.7188 136.687V50.3594C22.7188 46.2172 26.0766 42.8594 30.2188 42.8594Z" fill="#000E29" stroke="url(#paint0_linear_3670_26571)"/>
<g filter="url(#filter0_f_3670_26571)">
<path d="M30.4297 50.167H107.039L125.521 64.0723H277.995L296.477 50.167H383.339V141.252L375.024 183.904V385.649H38.6562V173.749L30.4297 141.252V50.167Z" fill="url(#paint1_linear_3670_26571)" fill-opacity="0.7"/>
<path d="M39.1562 173.687L39.1406 173.626L30.9297 141.19V50.667H106.872L125.22 64.4717L125.354 64.5723H278.162L278.296 64.4717L296.644 50.667H382.84V141.201L374.533 183.809L374.524 183.855V385.148H39.1562V173.687Z" stroke="#001E5B"/>
</g>
<rect x="68.3906" y="92.4082" width="277" height="295" rx="24" fill="#000E29"/>
<path d="M211.891 132.908L215.891 136.908" stroke="#E63946" stroke-width="2" stroke-linecap="round" stroke-linejoin="round"/>
<path d="M215.891 132.908L211.891 136.908" stroke="#E63946" stroke-width="2" stroke-linecap="round" stroke-linejoin="round"/>
<path d="M216.891 142.908L213.391 146.908L211.391 144.908" stroke="#10A274" stroke-width="2" stroke-linecap="round" stroke-linejoin="round"/>
<path d="M207.891 132.908H196.891V136.908H207.891V132.908Z" fill="#F4B400"/>
<path d="M207.891 142.908H196.891V146.908H207.891V142.908Z" fill="#F4B400"/>
<path d="M151.61 178.908V167.164H155.434C156.287 167.164 157.034 167.292 157.674 167.548C158.314 167.804 158.81 168.199 159.162 168.732C159.514 169.266 159.69 169.954 159.69 170.796V171.052C159.69 171.97 159.477 172.706 159.05 173.26C158.634 173.804 158.063 174.194 157.338 174.428L160.73 178.908H158.826L155.674 174.684C155.599 174.684 155.519 174.684 155.434 174.684H153.178V178.908H151.61ZM155.722 168.54H153.178V173.292H155.722C156.447 173.292 157.023 173.068 157.45 172.62C157.877 172.172 158.09 171.607 158.09 170.924C158.09 170.231 157.877 169.66 157.45 169.212C157.023 168.764 156.447 168.54 155.722 168.54ZM166.065 179.196C165.318 179.196 164.673 179.068 164.129 178.812C163.585 178.556 163.142 178.22 162.801 177.804C162.46 177.378 162.204 176.903 162.033 176.38C161.873 175.858 161.793 175.324 161.793 174.78V174.492C161.793 173.938 161.873 173.399 162.033 172.876C162.204 172.354 162.46 171.884 162.801 171.468C163.142 171.042 163.574 170.706 164.097 170.46C164.63 170.204 165.254 170.076 165.969 170.076C166.897 170.076 167.66 170.279 168.257 170.684C168.865 171.079 169.313 171.591 169.601 172.22C169.9 172.85 170.049 173.522 170.049 174.236V174.924H163.265C163.318 175.767 163.569 176.466 164.017 177.02C164.465 177.575 165.148 177.852 166.065 177.852C166.737 177.852 167.281 177.703 167.697 177.404C168.124 177.106 168.38 176.759 168.465 176.364H169.905C169.724 177.25 169.292 177.943 168.609 178.444C167.926 178.946 167.078 179.196 166.065 179.196ZM165.969 171.42C165.201 171.42 164.598 171.639 164.161 172.076C163.724 172.503 163.446 173.068 163.329 173.772H168.545C168.449 173.047 168.188 172.476 167.761 172.06C167.334 171.634 166.737 171.42 165.969 171.42ZM178.774 182.108V177.5C178.443 178.076 178.011 178.503 177.478 178.78C176.944 179.058 176.363 179.196 175.734 179.196C174.923 179.196 174.203 178.994 173.574 178.588C172.955 178.172 172.47 177.628 172.118 176.956C171.766 176.274 171.59 175.527 171.59 174.716V174.428C171.59 173.618 171.766 172.887 172.118 172.236C172.47 171.575 172.96 171.052 173.59 170.668C174.23 170.274 174.966 170.076 175.798 170.076C176.555 170.076 177.216 170.247 177.782 170.588C178.347 170.919 178.784 171.404 179.094 172.044V170.364H180.31V182.108H178.774ZM176.006 177.788C176.528 177.788 177.003 177.671 177.43 177.436C177.856 177.202 178.198 176.866 178.454 176.428C178.71 175.98 178.838 175.458 178.838 174.86V174.124C178.838 173.538 178.704 173.042 178.438 172.636C178.182 172.22 177.835 171.906 177.398 171.692C176.971 171.468 176.507 171.356 176.006 171.356C175.43 171.356 174.923 171.49 174.486 171.756C174.059 172.023 173.723 172.402 173.478 172.892C173.243 173.372 173.126 173.932 173.126 174.572C173.126 175.212 173.248 175.778 173.494 176.268C173.739 176.748 174.08 177.122 174.518 177.388C174.955 177.655 175.451 177.788 176.006 177.788ZM186.221 179.164C185.208 179.164 184.429 178.834 183.885 178.172C183.341 177.511 183.069 176.556 183.069 175.308V170.348H184.605V175.612C184.605 176.284 184.786 176.812 185.149 177.196C185.512 177.57 186.002 177.756 186.621 177.756C187.261 177.756 187.784 177.554 188.189 177.148C188.594 176.732 188.797 176.167 188.797 175.452V170.348H190.333V178.908H189.117V176.94C188.925 177.666 188.594 178.22 188.125 178.604C187.656 178.978 187.042 179.164 186.285 179.164H186.221ZM194.156 168.988C193.815 168.988 193.559 168.898 193.388 168.716C193.228 168.535 193.148 168.306 193.148 168.028C193.148 167.751 193.228 167.522 193.388 167.34C193.559 167.159 193.815 167.068 194.156 167.068C194.497 167.068 194.748 167.159 194.908 167.34C195.079 167.522 195.164 167.751 195.164 168.028C195.164 168.306 195.079 168.535 194.908 168.716C194.748 168.898 194.497 168.988 194.156 168.988ZM193.724 178.908V171.58H192.412V170.364H195.26V178.908H193.724ZM198.23 178.908V170.364H199.446V172.924C199.574 172.007 199.91 171.335 200.454 170.908C200.998 170.482 201.739 170.268 202.678 170.268H202.966V171.644H202.422C201.568 171.644 200.912 171.874 200.454 172.332C199.995 172.78 199.766 173.431 199.766 174.284V178.908H198.23ZM208.331 179.196C207.584 179.196 206.939 179.068 206.395 178.812C205.851 178.556 205.408 178.22 205.067 177.804C204.725 177.378 204.469 176.903 204.299 176.38C204.139 175.858 204.059 175.324 204.059 174.78V174.492C204.059 173.938 204.139 173.399 204.299 172.876C204.469 172.354 204.725 171.884 205.067 171.468C205.408 171.042 205.84 170.706 206.363 170.46C206.896 170.204 207.52 170.076 208.235 170.076C209.163 170.076 209.925 170.279 210.523 170.684C211.131 171.079 211.579 171.591 211.867 172.22C212.165 172.85 212.315 173.522 212.315 174.236V174.924H205.531C205.584 175.767 205.835 176.466 206.283 177.02C206.731 177.575 207.413 177.852 208.331 177.852C209.003 177.852 209.547 177.703 209.963 177.404C210.389 177.106 210.645 176.759 210.731 176.364H212.171C211.989 177.25 211.557 177.943 210.875 178.444C210.192 178.946 209.344 179.196 208.331 179.196ZM208.235 171.42C207.467 171.42 206.864 171.639 206.427 172.076C205.989 172.503 205.712 173.068 205.595 173.772H210.811C210.715 173.047 210.453 172.476 210.027 172.06C209.6 171.634 209.003 171.42 208.235 171.42ZM214.495 178.908V170.364H215.711V172.332C215.893 171.618 216.213 171.068 216.671 170.684C217.141 170.3 217.749 170.108 218.495 170.108H218.559C219.285 170.108 219.877 170.29 220.335 170.652C220.794 171.015 221.119 171.538 221.311 172.22C221.514 171.538 221.845 171.015 222.303 170.652C222.773 170.29 223.37 170.108 224.095 170.108H224.159C225.173 170.108 225.925 170.455 226.415 171.148C226.917 171.831 227.167 172.791 227.167 174.028V178.908H225.631V173.692C225.631 172.999 225.461 172.466 225.119 172.092C224.778 171.708 224.303 171.516 223.695 171.516C223.066 171.516 222.559 171.719 222.175 172.124C221.791 172.519 221.599 173.074 221.599 173.788V178.908H220.063V173.692C220.063 172.999 219.893 172.466 219.551 172.092C219.21 171.708 218.735 171.516 218.127 171.516C217.498 171.516 216.991 171.719 216.607 172.124C216.223 172.519 216.031 173.074 216.031 173.788V178.908H214.495ZM233.612 179.196C232.865 179.196 232.22 179.068 231.676 178.812C231.132 178.556 230.689 178.22 230.348 177.804C230.006 177.378 229.75 176.903 229.58 176.38C229.42 175.858 229.34 175.324 229.34 174.78V174.492C229.34 173.938 229.42 173.399 229.58 172.876C229.75 172.354 230.006 171.884 230.348 171.468C230.689 171.042 231.121 170.706 231.644 170.46C232.177 170.204 232.801 170.076 233.516 170.076C234.444 170.076 235.206 170.279 235.804 170.684C236.412 171.079 236.86 171.591 237.148 172.22C237.446 172.85 237.596 173.522 237.596 174.236V174.924H230.812C230.865 175.767 231.116 176.466 231.564 177.02C232.012 177.575 232.694 177.852 233.612 177.852C234.284 177.852 234.828 177.703 235.244 177.404C235.67 177.106 235.926 176.759 236.012 176.364H237.452C237.27 177.25 236.838 177.943 236.156 178.444C235.473 178.946 234.625 179.196 233.612 179.196ZM233.516 171.42C232.748 171.42 232.145 171.639 231.708 172.076C231.27 172.503 230.993 173.068 230.876 173.772H236.092C235.996 173.047 235.734 172.476 235.308 172.06C234.881 171.634 234.284 171.42 233.516 171.42ZM239.777 178.908V170.364H240.993V172.348C241.185 171.623 241.526 171.068 242.017 170.684C242.518 170.3 243.169 170.108 243.969 170.108H244.033C245.11 170.108 245.905 170.444 246.417 171.116C246.939 171.788 247.201 172.759 247.201 174.028V178.908H245.665V173.708C245.665 173.047 245.478 172.519 245.105 172.124C244.731 171.719 244.219 171.516 243.569 171.516C242.897 171.516 242.353 171.724 241.937 172.14C241.521 172.556 241.313 173.111 241.313 173.804V178.908H239.777ZM253.339 179.004C252.699 179.004 252.144 178.914 251.675 178.732C251.216 178.551 250.859 178.242 250.603 177.804C250.358 177.356 250.235 176.754 250.235 175.996V171.516H248.763V170.364H250.235V167.772H251.707V170.364H254.651V171.516H251.707V176.188C251.707 176.647 251.83 177.004 252.075 177.26C252.331 177.506 252.688 177.628 253.147 177.628H254.651V179.004H253.339ZM259.561 179.164C258.441 179.164 257.572 178.924 256.953 178.444C256.345 177.964 256.03 177.308 256.009 176.476H257.449C257.47 176.807 257.636 177.122 257.945 177.42C258.265 177.708 258.804 177.852 259.561 177.852C260.244 177.852 260.766 177.719 261.129 177.452C261.492 177.175 261.673 176.839 261.673 176.444C261.673 176.092 261.54 175.82 261.273 175.628C261.006 175.426 260.574 175.292 259.977 175.228L259.049 175.132C258.238 175.047 257.577 174.807 257.065 174.412C256.553 174.007 256.297 173.442 256.297 172.716C256.297 171.895 256.601 171.255 257.209 170.796C257.817 170.338 258.601 170.108 259.561 170.108C260.521 170.108 261.3 170.322 261.897 170.748C262.494 171.175 262.804 171.81 262.825 172.652H261.385C261.374 172.311 261.214 172.023 260.905 171.788C260.606 171.543 260.158 171.42 259.561 171.42C258.964 171.42 258.51 171.543 258.201 171.788C257.892 172.034 257.737 172.343 257.737 172.716C257.737 173.036 257.844 173.292 258.057 173.484C258.281 173.676 258.644 173.799 259.145 173.852L260.073 173.948C260.99 174.044 261.726 174.3 262.281 174.716C262.836 175.122 263.113 175.698 263.113 176.444C263.113 176.978 262.958 177.452 262.649 177.868C262.35 178.274 261.934 178.594 261.401 178.828C260.868 179.052 260.254 179.164 259.561 179.164Z" fill="white"/>
<path d="M140.95 218.972V207.164H144.758C146.038 207.164 146.993 207.436 147.622 207.98C148.251 208.514 148.566 209.287 148.566 210.3V210.524C148.566 211.132 148.449 211.634 148.214 212.028C147.979 212.412 147.654 212.711 147.238 212.924C147.793 213.116 148.23 213.426 148.55 213.852C148.881 214.268 149.046 214.834 149.046 215.548V215.772C149.046 216.796 148.731 217.586 148.102 218.14C147.473 218.695 146.518 218.972 145.238 218.972H140.95ZM145.03 208.54H142.518V212.364H145.03C145.691 212.364 146.177 212.188 146.486 211.836C146.806 211.474 146.966 211.015 146.966 210.46C146.966 209.895 146.806 209.436 146.486 209.084C146.177 208.722 145.691 208.54 145.03 208.54ZM145.462 213.676H142.518V217.596H145.462C146.091 217.596 146.577 217.42 146.918 217.068C147.27 216.706 147.446 216.226 147.446 215.628C147.446 215.02 147.275 214.546 146.934 214.204C146.593 213.852 146.102 213.676 145.462 213.676ZM155.17 219.196C154.424 219.196 153.778 219.068 153.234 218.812C152.69 218.556 152.248 218.22 151.906 217.804C151.565 217.378 151.309 216.903 151.138 216.38C150.978 215.858 150.898 215.324 150.898 214.78V214.492C150.898 213.938 150.978 213.399 151.138 212.876C151.309 212.354 151.565 211.884 151.906 211.468C152.248 211.042 152.68 210.706 153.202 210.46C153.736 210.204 154.36 210.076 155.074 210.076C156.002 210.076 156.765 210.279 157.362 210.684C157.97 211.079 158.418 211.591 158.706 212.22C159.005 212.85 159.154 213.522 159.154 214.236V214.924H152.37C152.424 215.767 152.674 216.466 153.122 217.02C153.57 217.575 154.253 217.852 155.17 217.852C155.842 217.852 156.386 217.703 156.802 217.404C157.229 217.106 157.485 216.759 157.57 216.364H159.01C158.829 217.25 158.397 217.943 157.714 218.444C157.032 218.946 156.184 219.196 155.17 219.196ZM155.074 211.42C154.306 211.42 153.704 211.639 153.266 212.076C152.829 212.503 152.552 213.068 152.434 213.772H157.65C157.554 213.047 157.293 212.476 156.866 212.06C156.44 211.634 155.842 211.42 155.074 211.42ZM164.976 218.908V207.228H166.512V211.868C166.747 211.303 167.083 210.871 167.52 210.572C167.968 210.263 168.539 210.108 169.232 210.108H169.296C170.32 210.108 171.093 210.45 171.616 211.132C172.139 211.804 172.4 212.77 172.4 214.028V218.908H170.864V213.708C170.864 213.015 170.667 212.476 170.272 212.092C169.888 211.708 169.387 211.516 168.768 211.516C168.085 211.516 167.536 211.746 167.12 212.204C166.715 212.652 166.512 213.244 166.512 213.98V218.908H164.976ZM179.146 219.196C178.4 219.196 177.744 219.068 177.178 218.812C176.613 218.556 176.133 218.22 175.738 217.804C175.354 217.378 175.061 216.903 174.858 216.38C174.666 215.858 174.57 215.324 174.57 214.78V214.492C174.57 213.948 174.672 213.415 174.874 212.892C175.077 212.359 175.376 211.884 175.77 211.468C176.165 211.042 176.645 210.706 177.21 210.46C177.776 210.204 178.421 210.076 179.146 210.076C179.872 210.076 180.517 210.204 181.082 210.46C181.648 210.706 182.128 211.042 182.522 211.468C182.917 211.884 183.216 212.359 183.418 212.892C183.621 213.415 183.722 213.948 183.722 214.492V214.78C183.722 215.324 183.621 215.858 183.418 216.38C183.226 216.903 182.933 217.378 182.538 217.804C182.154 218.22 181.68 218.556 181.114 218.812C180.549 219.068 179.893 219.196 179.146 219.196ZM179.146 217.82C179.786 217.82 180.33 217.682 180.778 217.404C181.237 217.116 181.584 216.732 181.818 216.252C182.064 215.772 182.186 215.234 182.186 214.636C182.186 214.028 182.064 213.484 181.818 213.004C181.573 212.524 181.221 212.146 180.762 211.868C180.314 211.591 179.776 211.452 179.146 211.452C178.528 211.452 177.989 211.591 177.53 211.868C177.072 212.146 176.72 212.524 176.474 213.004C176.229 213.484 176.106 214.028 176.106 214.636C176.106 215.234 176.224 215.772 176.458 216.252C176.704 216.732 177.05 217.116 177.498 217.404C177.957 217.682 178.506 217.82 179.146 217.82ZM186.023 218.908V210.364H187.239V212.348C187.431 211.623 187.772 211.068 188.263 210.684C188.764 210.3 189.415 210.108 190.215 210.108H190.279C191.356 210.108 192.151 210.444 192.663 211.116C193.185 211.788 193.447 212.759 193.447 214.028V218.908H191.911V213.708C191.911 213.047 191.724 212.519 191.351 212.124C190.977 211.719 190.465 211.516 189.815 211.516C189.143 211.516 188.599 211.724 188.183 212.14C187.767 212.556 187.559 213.111 187.559 213.804V218.908H186.023ZM199.889 219.196C199.142 219.196 198.497 219.068 197.953 218.812C197.409 218.556 196.966 218.22 196.625 217.804C196.284 217.378 196.028 216.903 195.857 216.38C195.697 215.858 195.617 215.324 195.617 214.78V214.492C195.617 213.938 195.697 213.399 195.857 212.876C196.028 212.354 196.284 211.884 196.625 211.468C196.966 211.042 197.398 210.706 197.921 210.46C198.454 210.204 199.078 210.076 199.793 210.076C200.721 210.076 201.484 210.279 202.081 210.684C202.689 211.079 203.137 211.591 203.425 212.22C203.724 212.85 203.873 213.522 203.873 214.236V214.924H197.089C197.142 215.767 197.393 216.466 197.841 217.02C198.289 217.575 198.972 217.852 199.889 217.852C200.561 217.852 201.105 217.703 201.521 217.404C201.948 217.106 202.204 216.759 202.289 216.364H203.729C203.548 217.25 203.116 217.943 202.433 218.444C201.75 218.946 200.902 219.196 199.889 219.196ZM199.793 211.42C199.025 211.42 198.422 211.639 197.985 212.076C197.548 212.503 197.27 213.068 197.153 213.772H202.369C202.273 213.047 202.012 212.476 201.585 212.06C201.158 211.634 200.561 211.42 199.793 211.42ZM208.854 219.164C207.734 219.164 206.865 218.924 206.246 218.444C205.638 217.964 205.323 217.308 205.302 216.476H206.742C206.763 216.807 206.929 217.122 207.238 217.42C207.558 217.708 208.097 217.852 208.854 217.852C209.537 217.852 210.059 217.719 210.422 217.452C210.785 217.175 210.966 216.839 210.966 216.444C210.966 216.092 210.833 215.82 210.566 215.628C210.299 215.426 209.867 215.292 209.27 215.228L208.342 215.132C207.531 215.047 206.87 214.807 206.358 214.412C205.846 214.007 205.59 213.442 205.59 212.716C205.59 211.895 205.894 211.255 206.502 210.796C207.11 210.338 207.894 210.108 208.854 210.108C209.814 210.108 210.593 210.322 211.19 210.748C211.787 211.175 212.097 211.81 212.118 212.652H210.678C210.667 212.311 210.507 212.023 210.198 211.788C209.899 211.543 209.451 211.42 208.854 211.42C208.257 211.42 207.803 211.543 207.494 211.788C207.185 212.034 207.03 212.343 207.03 212.716C207.03 213.036 207.137 213.292 207.35 213.484C207.574 213.676 207.937 213.799 208.438 213.852L209.366 213.948C210.283 214.044 211.019 214.3 211.574 214.716C212.129 215.122 212.406 215.698 212.406 216.444C212.406 216.978 212.251 217.452 211.942 217.868C211.643 218.274 211.227 218.594 210.694 218.828C210.161 219.052 209.547 219.164 208.854 219.164ZM217.96 219.004C217.32 219.004 216.765 218.914 216.296 218.732C215.837 218.551 215.48 218.242 215.224 217.804C214.979 217.356 214.856 216.754 214.856 215.996V211.516H213.384V210.364H214.856V207.772H216.328V210.364H219.272V211.516H216.328V216.188C216.328 216.647 216.451 217.004 216.696 217.26C216.952 217.506 217.309 217.628 217.768 217.628H219.272V219.004H217.96ZM221.141 218.908V216.956H222.997V218.908H221.141ZM233.289 219.196C232.318 219.196 231.491 219.036 230.809 218.716C230.126 218.396 229.603 217.954 229.241 217.388C228.878 216.823 228.697 216.183 228.697 215.468H230.265C230.265 215.82 230.355 216.172 230.537 216.524C230.729 216.876 231.043 217.17 231.481 217.404C231.929 217.639 232.531 217.756 233.289 217.756C233.993 217.756 234.569 217.655 235.017 217.452C235.465 217.239 235.795 216.967 236.009 216.636C236.222 216.295 236.329 215.927 236.329 215.532C236.329 215.052 236.121 214.658 235.705 214.348C235.289 214.028 234.681 213.831 233.881 213.756L232.585 213.644C231.55 213.559 230.723 213.239 230.105 212.684C229.486 212.13 229.177 211.399 229.177 210.492C229.177 209.778 229.347 209.154 229.689 208.62C230.041 208.087 230.526 207.671 231.145 207.372C231.763 207.063 232.483 206.908 233.305 206.908C234.115 206.908 234.83 207.058 235.449 207.356C236.067 207.655 236.547 208.076 236.889 208.62C237.241 209.154 237.417 209.794 237.417 210.54H235.849C235.849 210.167 235.758 209.815 235.577 209.484C235.406 209.154 235.134 208.882 234.761 208.668C234.387 208.455 233.902 208.348 233.305 208.348C232.729 208.348 232.249 208.45 231.865 208.652C231.491 208.855 231.209 209.122 231.017 209.452C230.835 209.772 230.745 210.119 230.745 210.492C230.745 210.919 230.91 211.298 231.241 211.628C231.571 211.959 232.062 212.151 232.713 212.204L234.009 212.316C235.203 212.423 236.147 212.754 236.841 213.308C237.545 213.852 237.897 214.594 237.897 215.532C237.897 216.247 237.705 216.882 237.321 217.436C236.937 217.991 236.398 218.423 235.705 218.732C235.011 219.042 234.206 219.196 233.289 219.196ZM240.304 218.908V207.228H241.84V211.868C242.075 211.303 242.411 210.871 242.848 210.572C243.296 210.263 243.867 210.108 244.56 210.108H244.624C245.648 210.108 246.421 210.45 246.944 211.132C247.467 211.804 247.728 212.77 247.728 214.028V218.908H246.192V213.708C246.192 213.015 245.995 212.476 245.6 212.092C245.216 211.708 244.715 211.516 244.096 211.516C243.413 211.516 242.864 211.746 242.448 212.204C242.043 212.652 241.84 213.244 241.84 213.98V218.908H240.304ZM252.906 219.132C251.936 219.132 251.173 218.892 250.618 218.412C250.074 217.922 249.802 217.234 249.802 216.348C249.802 215.442 250.106 214.759 250.714 214.3C251.322 213.831 252.181 213.596 253.29 213.596H255.45V213.388C255.45 212.204 254.853 211.612 253.658 211.612C253.168 211.612 252.656 211.623 252.122 211.644C251.589 211.666 251.146 211.687 250.794 211.708V210.364C251.136 210.332 251.514 210.311 251.93 210.3C252.357 210.279 252.762 210.268 253.146 210.268C254.458 210.268 255.413 210.508 256.01 210.988C256.618 211.468 256.922 212.306 256.922 213.5V218.908H255.706V217.212C255.322 218.492 254.389 219.132 252.906 219.132ZM253.226 217.916C253.589 217.916 253.936 217.852 254.266 217.724C254.597 217.586 254.869 217.362 255.082 217.052C255.306 216.732 255.429 216.295 255.45 215.74V214.748H253.226C252.608 214.748 252.133 214.898 251.802 215.196C251.472 215.495 251.306 215.879 251.306 216.348C251.306 216.818 251.472 217.196 251.802 217.484C252.133 217.772 252.608 217.916 253.226 217.916ZM259.742 218.908V210.364H260.958V212.924C261.086 212.007 261.422 211.335 261.966 210.908C262.51 210.482 263.251 210.268 264.19 210.268H264.478V211.644H263.934C263.08 211.644 262.424 211.874 261.966 212.332C261.507 212.78 261.278 213.431 261.278 214.284V218.908H259.742ZM269.842 219.196C269.096 219.196 268.45 219.068 267.906 218.812C267.362 218.556 266.92 218.22 266.578 217.804C266.237 217.378 265.981 216.903 265.81 216.38C265.65 215.858 265.57 215.324 265.57 214.78V214.492C265.57 213.938 265.65 213.399 265.81 212.876C265.981 212.354 266.237 211.884 266.578 211.468C266.92 211.042 267.352 210.706 267.874 210.46C268.408 210.204 269.032 210.076 269.746 210.076C270.674 210.076 271.437 210.279 272.034 210.684C272.642 211.079 273.09 211.591 273.378 212.22C273.677 212.85 273.826 213.522 273.826 214.236V214.924H267.042C267.096 215.767 267.346 216.466 267.794 217.02C268.242 217.575 268.925 217.852 269.842 217.852C270.514 217.852 271.058 217.703 271.474 217.404C271.901 217.106 272.157 216.759 272.242 216.364H273.682C273.501 217.25 273.069 217.943 272.386 218.444C271.704 218.946 270.856 219.196 269.842 219.196ZM269.746 211.42C268.978 211.42 268.376 211.639 267.938 212.076C267.501 212.503 267.224 213.068 267.106 213.772H272.322C272.226 213.047 271.965 212.476 271.538 212.06C271.112 211.634 270.514 211.42 269.746 211.42ZM152.489 238.716L149.433 230.364H151.001L153.481 237.436H153.817L155.913 230.364H157.417L154.569 239.82C154.313 240.663 153.902 241.276 153.337 241.66C152.771 242.044 152.051 242.236 151.177 242.236H150.041V240.86H151.273C151.806 240.86 152.222 240.754 152.521 240.54C152.83 240.327 153.065 239.954 153.225 239.42L153.433 238.716H152.489ZM163.146 239.196C162.4 239.196 161.744 239.068 161.178 238.812C160.613 238.556 160.133 238.22 159.738 237.804C159.354 237.378 159.061 236.903 158.858 236.38C158.666 235.858 158.57 235.324 158.57 234.78V234.492C158.57 233.948 158.672 233.415 158.874 232.892C159.077 232.359 159.376 231.884 159.77 231.468C160.165 231.042 160.645 230.706 161.21 230.46C161.776 230.204 162.421 230.076 163.146 230.076C163.872 230.076 164.517 230.204 165.082 230.46C165.648 230.706 166.128 231.042 166.522 231.468C166.917 231.884 167.216 232.359 167.418 232.892C167.621 233.415 167.722 233.948 167.722 234.492V234.78C167.722 235.324 167.621 235.858 167.418 236.38C167.226 236.903 166.933 237.378 166.538 237.804C166.154 238.22 165.68 238.556 165.114 238.812C164.549 239.068 163.893 239.196 163.146 239.196ZM163.146 237.82C163.786 237.82 164.33 237.682 164.778 237.404C165.237 237.116 165.584 236.732 165.818 236.252C166.064 235.772 166.186 235.234 166.186 234.636C166.186 234.028 166.064 233.484 165.818 233.004C165.573 232.524 165.221 232.146 164.762 231.868C164.314 231.591 163.776 231.452 163.146 231.452C162.528 231.452 161.989 231.591 161.53 231.868C161.072 232.146 160.72 232.524 160.474 233.004C160.229 233.484 160.106 234.028 160.106 234.636C160.106 235.234 160.224 235.772 160.458 236.252C160.704 236.732 161.05 237.116 161.498 237.404C161.957 237.682 162.506 237.82 163.146 237.82ZM172.983 239.164C171.969 239.164 171.191 238.834 170.647 238.172C170.103 237.511 169.831 236.556 169.831 235.308V230.348H171.367V235.612C171.367 236.284 171.548 236.812 171.911 237.196C172.273 237.57 172.764 237.756 173.383 237.756C174.023 237.756 174.545 237.554 174.951 237.148C175.356 236.732 175.559 236.167 175.559 235.452V230.348H177.095V238.908H175.879V236.94C175.687 237.666 175.356 238.22 174.887 238.604C174.417 238.978 173.804 239.164 173.047 239.164H172.983ZM180.07 238.908V230.364H181.286V232.924C181.414 232.007 181.75 231.335 182.294 230.908C182.838 230.482 183.579 230.268 184.518 230.268H184.806V231.644H184.262C183.408 231.644 182.752 231.874 182.294 232.332C181.835 232.78 181.606 233.431 181.606 234.284V238.908H180.07ZM193.073 239.164C191.953 239.164 191.083 238.924 190.465 238.444C189.857 237.964 189.542 237.308 189.521 236.476H190.961C190.982 236.807 191.147 237.122 191.457 237.42C191.777 237.708 192.315 237.852 193.073 237.852C193.755 237.852 194.278 237.719 194.641 237.452C195.003 237.175 195.185 236.839 195.185 236.444C195.185 236.092 195.051 235.82 194.785 235.628C194.518 235.426 194.086 235.292 193.489 235.228L192.561 235.132C191.75 235.047 191.089 234.807 190.577 234.412C190.065 234.007 189.809 233.442 189.809 232.716C189.809 231.895 190.113 231.255 190.721 230.796C191.329 230.338 192.113 230.108 193.073 230.108C194.033 230.108 194.811 230.322 195.409 230.748C196.006 231.175 196.315 231.81 196.337 232.652H194.897C194.886 232.311 194.726 232.023 194.417 231.788C194.118 231.543 193.67 231.42 193.073 231.42C192.475 231.42 192.022 231.543 191.713 231.788C191.403 232.034 191.249 232.343 191.249 232.716C191.249 233.036 191.355 233.292 191.569 233.484C191.793 233.676 192.155 233.799 192.657 233.852L193.585 233.948C194.502 234.044 195.238 234.3 195.793 234.716C196.347 235.122 196.625 235.698 196.625 236.444C196.625 236.978 196.47 237.452 196.161 237.868C195.862 238.274 195.446 238.594 194.913 238.828C194.379 239.052 193.766 239.164 193.073 239.164ZM202.179 239.004C201.539 239.004 200.984 238.914 200.515 238.732C200.056 238.551 199.699 238.242 199.443 237.804C199.198 237.356 199.075 236.754 199.075 235.996V231.516H197.603V230.364H199.075V227.772H200.547V230.364H203.491V231.516H200.547V236.188C200.547 236.647 200.67 237.004 200.915 237.26C201.171 237.506 201.528 237.628 201.987 237.628H203.491V239.004H202.179ZM209.537 239.196C208.79 239.196 208.134 239.068 207.569 238.812C207.004 238.556 206.524 238.22 206.129 237.804C205.745 237.378 205.452 236.903 205.249 236.38C205.057 235.858 204.961 235.324 204.961 234.78V234.492C204.961 233.948 205.062 233.415 205.265 232.892C205.468 232.359 205.766 231.884 206.161 231.468C206.556 231.042 207.036 230.706 207.601 230.46C208.166 230.204 208.812 230.076 209.537 230.076C210.262 230.076 210.908 230.204 211.473 230.46C212.038 230.706 212.518 231.042 212.913 231.468C213.308 231.884 213.606 232.359 213.809 232.892C214.012 233.415 214.113 233.948 214.113 234.492V234.78C214.113 235.324 214.012 235.858 213.809 236.38C213.617 236.903 213.324 237.378 212.929 237.804C212.545 238.22 212.07 238.556 211.505 238.812C210.94 239.068 210.284 239.196 209.537 239.196ZM209.537 237.82C210.177 237.82 210.721 237.682 211.169 237.404C211.628 237.116 211.974 236.732 212.209 236.252C212.454 235.772 212.577 235.234 212.577 234.636C212.577 234.028 212.454 233.484 212.209 233.004C211.964 232.524 211.612 232.146 211.153 231.868C210.705 231.591 210.166 231.452 209.537 231.452C208.918 231.452 208.38 231.591 207.921 231.868C207.462 232.146 207.11 232.524 206.865 233.004C206.62 233.484 206.497 234.028 206.497 234.636C206.497 235.234 206.614 235.772 206.849 236.252C207.094 236.732 207.441 237.116 207.889 237.404C208.348 237.682 208.897 237.82 209.537 237.82ZM216.413 238.908V230.364H217.629V232.924C217.757 232.007 218.093 231.335 218.637 230.908C219.181 230.482 219.923 230.268 220.861 230.268H221.149V231.644H220.605C219.752 231.644 219.096 231.874 218.637 232.332C218.179 232.78 217.949 233.431 217.949 234.284V238.908H216.413ZM225.129 238.716L222.073 230.364H223.641L226.121 237.436H226.457L228.553 230.364H230.057L227.209 239.82C226.953 240.663 226.542 241.276 225.977 241.66C225.412 242.044 224.692 242.236 223.817 242.236H222.681V240.86H223.913C224.446 240.86 224.862 240.754 225.161 240.54C225.47 240.327 225.705 239.954 225.865 239.42L226.073 238.716H225.129ZM238.016 239.132C237.045 239.132 236.282 238.892 235.728 238.412C235.184 237.922 234.912 237.234 234.912 236.348C234.912 235.442 235.216 234.759 235.824 234.3C236.432 233.831 237.29 233.596 238.4 233.596H240.56V233.388C240.56 232.204 239.962 231.612 238.768 231.612C238.277 231.612 237.765 231.623 237.232 231.644C236.698 231.666 236.256 231.687 235.904 231.708V230.364C236.245 230.332 236.624 230.311 237.04 230.3C237.466 230.279 237.872 230.268 238.256 230.268C239.568 230.268 240.522 230.508 241.12 230.988C241.728 231.468 242.032 232.306 242.032 233.5V238.908H240.816V237.212C240.432 238.492 239.498 239.132 238.016 239.132ZM238.336 237.916C238.698 237.916 239.045 237.852 239.376 237.724C239.706 237.586 239.978 237.362 240.192 237.052C240.416 236.732 240.538 236.295 240.56 235.74V234.748H238.336C237.717 234.748 237.242 234.898 236.912 235.196C236.581 235.495 236.416 235.879 236.416 236.348C236.416 236.818 236.581 237.196 236.912 237.484C237.242 237.772 237.717 237.916 238.336 237.916ZM244.851 238.908V230.364H246.067V232.348C246.259 231.623 246.6 231.068 247.091 230.684C247.592 230.3 248.243 230.108 249.043 230.108H249.107C250.184 230.108 250.979 230.444 251.491 231.116C252.014 231.788 252.275 232.759 252.275 234.028V238.908H250.739V233.708C250.739 233.047 250.552 232.519 250.179 232.124C249.806 231.719 249.294 231.516 248.643 231.516C247.971 231.516 247.427 231.724 247.011 232.14C246.595 232.556 246.387 233.111 246.387 233.804V238.908H244.851ZM258.653 239.196C257.843 239.196 257.117 238.999 256.477 238.604C255.848 238.21 255.352 237.682 254.989 237.02C254.627 236.348 254.445 235.602 254.445 234.78V234.492C254.445 233.682 254.621 232.946 254.973 232.284C255.325 231.612 255.811 231.079 256.429 230.684C257.059 230.279 257.784 230.076 258.605 230.076C259.235 230.076 259.811 230.204 260.333 230.46C260.867 230.716 261.299 231.116 261.629 231.66V227.228H263.165V238.908H261.949V237.148C261.619 237.874 261.155 238.396 260.557 238.716C259.971 239.036 259.336 239.196 258.653 239.196ZM258.861 237.852C259.384 237.852 259.859 237.735 260.285 237.5C260.712 237.266 261.053 236.93 261.309 236.492C261.565 236.044 261.693 235.522 261.693 234.924V234.188C261.693 233.602 261.56 233.106 261.293 232.7C261.037 232.284 260.691 231.97 260.253 231.756C259.827 231.532 259.357 231.42 258.845 231.42C257.992 231.42 257.299 231.714 256.765 232.3C256.243 232.887 255.981 233.666 255.981 234.636C255.981 235.287 256.104 235.858 256.349 236.348C256.595 236.828 256.936 237.202 257.373 237.468C257.811 237.724 258.307 237.852 258.861 237.852ZM136.57 262.108V250.364H137.786V252.46C138.074 251.639 138.522 251.036 139.13 250.652C139.738 250.268 140.42 250.076 141.178 250.076C142.01 250.076 142.73 250.279 143.338 250.684C143.956 251.09 144.436 251.628 144.778 252.3C145.119 252.962 145.29 253.692 145.29 254.492V254.78C145.29 255.58 145.114 256.316 144.762 256.988C144.41 257.65 143.919 258.183 143.29 258.588C142.671 258.994 141.956 259.196 141.146 259.196C140.559 259.196 139.994 259.074 139.45 258.828C138.906 258.583 138.458 258.183 138.106 257.628V262.108H136.57ZM140.906 257.852C141.482 257.852 141.983 257.719 142.41 257.452C142.836 257.175 143.167 256.796 143.402 256.316C143.636 255.826 143.754 255.266 143.754 254.636C143.754 253.996 143.636 253.436 143.402 252.956C143.167 252.476 142.836 252.103 142.41 251.836C141.983 251.559 141.482 251.42 140.906 251.42C140.394 251.42 139.919 251.538 139.482 251.772C139.044 251.996 138.692 252.327 138.426 252.764C138.17 253.191 138.042 253.708 138.042 254.316V255.052C138.042 255.639 138.175 256.14 138.442 256.556C138.708 256.972 139.06 257.292 139.498 257.516C139.935 257.74 140.404 257.852 140.906 257.852ZM147.601 258.908V250.364H148.817V252.924C148.945 252.007 149.281 251.335 149.825 250.908C150.369 250.482 151.11 250.268 152.049 250.268H152.337V251.644H151.793C150.94 251.644 150.284 251.874 149.825 252.332C149.366 252.78 149.137 253.431 149.137 254.284V258.908H147.601ZM158.006 259.196C157.259 259.196 156.603 259.068 156.038 258.812C155.472 258.556 154.992 258.22 154.598 257.804C154.214 257.378 153.92 256.903 153.718 256.38C153.526 255.858 153.43 255.324 153.43 254.78V254.492C153.43 253.948 153.531 253.415 153.734 252.892C153.936 252.359 154.235 251.884 154.63 251.468C155.024 251.042 155.504 250.706 156.07 250.46C156.635 250.204 157.28 250.076 158.006 250.076C158.731 250.076 159.376 250.204 159.942 250.46C160.507 250.706 160.987 251.042 161.382 251.468C161.776 251.884 162.075 252.359 162.278 252.892C162.48 253.415 162.582 253.948 162.582 254.492V254.78C162.582 255.324 162.48 255.858 162.278 256.38C162.086 256.903 161.792 257.378 161.398 257.804C161.014 258.22 160.539 258.556 159.974 258.812C159.408 259.068 158.752 259.196 158.006 259.196ZM158.006 257.82C158.646 257.82 159.19 257.682 159.638 257.404C160.096 257.116 160.443 256.732 160.678 256.252C160.923 255.772 161.046 255.234 161.046 254.636C161.046 254.028 160.923 253.484 160.678 253.004C160.432 252.524 160.08 252.146 159.622 251.868C159.174 251.591 158.635 251.452 158.006 251.452C157.387 251.452 156.848 251.591 156.39 251.868C155.931 252.146 155.579 252.524 155.334 253.004C155.088 253.484 154.966 254.028 154.966 254.636C154.966 255.234 155.083 255.772 155.318 256.252C155.563 256.732 155.91 257.116 156.358 257.404C156.816 257.682 157.366 257.82 158.006 257.82ZM166.55 258.908L163.638 250.364H165.238L167.686 257.692H168.022L170.15 250.364H171.654L169.126 258.908H166.55ZM174.511 248.988C174.17 248.988 173.914 248.898 173.743 248.716C173.583 248.535 173.503 248.306 173.503 248.028C173.503 247.751 173.583 247.522 173.743 247.34C173.914 247.159 174.17 247.068 174.511 247.068C174.853 247.068 175.103 247.159 175.263 247.34C175.434 247.522 175.519 247.751 175.519 248.028C175.519 248.306 175.434 248.535 175.263 248.716C175.103 248.898 174.853 248.988 174.511 248.988ZM174.079 258.908V251.58H172.767V250.364H175.615V258.908H174.079ZM182.153 259.196C181.343 259.196 180.617 258.999 179.977 258.604C179.348 258.21 178.852 257.682 178.489 257.02C178.127 256.348 177.945 255.602 177.945 254.78V254.492C177.945 253.682 178.121 252.946 178.473 252.284C178.825 251.612 179.311 251.079 179.929 250.684C180.559 250.279 181.284 250.076 182.105 250.076C182.735 250.076 183.311 250.204 183.833 250.46C184.367 250.716 184.799 251.116 185.129 251.66V247.228H186.665V258.908H185.449V257.148C185.119 257.874 184.655 258.396 184.057 258.716C183.471 259.036 182.836 259.196 182.153 259.196ZM182.361 257.852C182.884 257.852 183.359 257.735 183.785 257.5C184.212 257.266 184.553 256.93 184.809 256.492C185.065 256.044 185.193 255.522 185.193 254.924V254.188C185.193 253.602 185.06 253.106 184.793 252.7C184.537 252.284 184.191 251.97 183.753 251.756C183.327 251.532 182.857 251.42 182.345 251.42C181.492 251.42 180.799 251.714 180.265 252.3C179.743 252.887 179.481 253.666 179.481 254.636C179.481 255.287 179.604 255.858 179.849 256.348C180.095 256.828 180.436 257.202 180.873 257.468C181.311 257.724 181.807 257.852 182.361 257.852ZM193.249 259.196C192.502 259.196 191.857 259.068 191.313 258.812C190.769 258.556 190.326 258.22 189.985 257.804C189.643 257.378 189.387 256.903 189.217 256.38C189.057 255.858 188.977 255.324 188.977 254.78V254.492C188.977 253.938 189.057 253.399 189.217 252.876C189.387 252.354 189.643 251.884 189.985 251.468C190.326 251.042 190.758 250.706 191.281 250.46C191.814 250.204 192.438 250.076 193.153 250.076C194.081 250.076 194.843 250.279 195.441 250.684C196.049 251.079 196.497 251.591 196.785 252.22C197.083 252.85 197.233 253.522 197.233 254.236V254.924H190.449C190.502 255.767 190.753 256.466 191.201 257.02C191.649 257.575 192.331 257.852 193.249 257.852C193.921 257.852 194.465 257.703 194.881 257.404C195.307 257.106 195.563 256.759 195.649 256.364H197.089C196.907 257.25 196.475 257.943 195.793 258.444C195.11 258.946 194.262 259.196 193.249 259.196ZM193.153 251.42C192.385 251.42 191.782 251.639 191.345 252.076C190.907 252.503 190.63 253.068 190.513 253.772H195.729C195.633 253.047 195.371 252.476 194.945 252.06C194.518 251.634 193.921 251.42 193.153 251.42ZM203.054 262.108V250.364H204.27V252.46C204.558 251.639 205.006 251.036 205.614 250.652C206.222 250.268 206.905 250.076 207.662 250.076C208.494 250.076 209.214 250.279 209.822 250.684C210.441 251.09 210.921 251.628 211.262 252.3C211.603 252.962 211.774 253.692 211.774 254.492V254.78C211.774 255.58 211.598 256.316 211.246 256.988C210.894 257.65 210.403 258.183 209.774 258.588C209.155 258.994 208.441 259.196 207.63 259.196C207.043 259.196 206.478 259.074 205.934 258.828C205.39 258.583 204.942 258.183 204.59 257.628V262.108H203.054ZM207.39 257.852C207.966 257.852 208.467 257.719 208.894 257.452C209.321 257.175 209.651 256.796 209.886 256.316C210.121 255.826 210.238 255.266 210.238 254.636C210.238 253.996 210.121 253.436 209.886 252.956C209.651 252.476 209.321 252.103 208.894 251.836C208.467 251.559 207.966 251.42 207.39 251.42C206.878 251.42 206.403 251.538 205.966 251.772C205.529 251.996 205.177 252.327 204.91 252.764C204.654 253.191 204.526 253.708 204.526 254.316V255.052C204.526 255.639 204.659 256.14 204.926 256.556C205.193 256.972 205.545 257.292 205.982 257.516C206.419 257.74 206.889 257.852 207.39 257.852ZM214.085 258.908V250.364H215.301V252.924C215.429 252.007 215.765 251.335 216.309 250.908C216.853 250.482 217.595 250.268 218.533 250.268H218.821V251.644H218.277C217.424 251.644 216.768 251.874 216.309 252.332C215.851 252.78 215.621 253.431 215.621 254.284V258.908H214.085ZM224.49 259.196C223.743 259.196 223.087 259.068 222.522 258.812C221.957 258.556 221.477 258.22 221.082 257.804C220.698 257.378 220.405 256.903 220.202 256.38C220.01 255.858 219.914 255.324 219.914 254.78V254.492C219.914 253.948 220.015 253.415 220.218 252.892C220.421 252.359 220.719 251.884 221.114 251.468C221.509 251.042 221.989 250.706 222.554 250.46C223.119 250.204 223.765 250.076 224.49 250.076C225.215 250.076 225.861 250.204 226.426 250.46C226.991 250.706 227.471 251.042 227.866 251.468C228.261 251.884 228.559 252.359 228.762 252.892C228.965 253.415 229.066 253.948 229.066 254.492V254.78C229.066 255.324 228.965 255.858 228.762 256.38C228.57 256.903 228.277 257.378 227.882 257.804C227.498 258.22 227.023 258.556 226.458 258.812C225.893 259.068 225.237 259.196 224.49 259.196ZM224.49 257.82C225.13 257.82 225.674 257.682 226.122 257.404C226.581 257.116 226.927 256.732 227.162 256.252C227.407 255.772 227.53 255.234 227.53 254.636C227.53 254.028 227.407 253.484 227.162 253.004C226.917 252.524 226.565 252.146 226.106 251.868C225.658 251.591 225.119 251.452 224.49 251.452C223.871 251.452 223.333 251.591 222.874 251.868C222.415 252.146 222.063 252.524 221.818 253.004C221.573 253.484 221.45 254.028 221.45 254.636C221.45 255.234 221.567 255.772 221.802 256.252C222.047 256.732 222.394 257.116 222.842 257.404C223.301 257.682 223.85 257.82 224.49 257.82ZM235.303 259.196C234.556 259.196 233.9 259.068 233.335 258.812C232.769 258.556 232.289 258.22 231.895 257.804C231.511 257.378 231.217 256.903 231.015 256.38C230.823 255.858 230.727 255.324 230.727 254.78V254.492C230.727 253.948 230.828 253.415 231.031 252.892C231.233 252.359 231.532 251.884 231.927 251.468C232.321 251.042 232.801 250.706 233.367 250.46C233.932 250.204 234.577 250.076 235.303 250.076C236.028 250.076 236.673 250.204 237.239 250.46C237.804 250.706 238.284 251.042 238.679 251.468C239.073 251.884 239.372 252.359 239.575 252.892C239.777 253.415 239.879 253.948 239.879 254.492V254.78C239.879 255.324 239.777 255.858 239.575 256.38C239.383 256.903 239.089 257.378 238.695 257.804C238.311 258.22 237.836 258.556 237.271 258.812C236.705 259.068 236.049 259.196 235.303 259.196ZM235.303 257.82C235.943 257.82 236.487 257.682 236.935 257.404C237.393 257.116 237.74 256.732 237.975 256.252C238.22 255.772 238.343 255.234 238.343 254.636C238.343 254.028 238.22 253.484 237.975 253.004C237.729 252.524 237.377 252.146 236.919 251.868C236.471 251.591 235.932 251.452 235.303 251.452C234.684 251.452 234.145 251.591 233.687 251.868C233.228 252.146 232.876 252.524 232.631 253.004C232.385 253.484 232.263 254.028 232.263 254.636C232.263 255.234 232.38 255.772 232.615 256.252C232.86 256.732 233.207 257.116 233.655 257.404C234.113 257.682 234.663 257.82 235.303 257.82ZM242.403 258.908V251.612H241.219V250.46H242.403V249.932C242.403 248.983 242.654 248.284 243.155 247.836C243.656 247.388 244.392 247.164 245.363 247.164H246.419V248.444H245.107C244.712 248.444 244.408 248.556 244.195 248.78C243.982 248.994 243.875 249.292 243.875 249.676V250.46H246.579V251.612H243.875V258.908H242.403ZM251.978 258.908V248.444H250.794V247.228H253.514V258.908H251.978ZM257.308 248.988C256.967 248.988 256.711 248.898 256.54 248.716C256.38 248.535 256.3 248.306 256.3 248.028C256.3 247.751 256.38 247.522 256.54 247.34C256.711 247.159 256.967 247.068 257.308 247.068C257.65 247.068 257.9 247.159 258.06 247.34C258.231 247.522 258.316 247.751 258.316 248.028C258.316 248.306 258.231 248.535 258.06 248.716C257.9 248.898 257.65 248.988 257.308 248.988ZM256.876 258.908V251.58H255.564V250.364H258.412V258.908H256.876ZM261.382 258.908V247.228H262.918V254.604L266.566 250.364H268.182L265.03 254.012L269.046 258.908H267.27L264.054 254.924H262.918V258.908H261.382ZM273.999 259.196C273.252 259.196 272.607 259.068 272.063 258.812C271.519 258.556 271.076 258.22 270.735 257.804C270.393 257.378 270.137 256.903 269.967 256.38C269.807 255.858 269.727 255.324 269.727 254.78V254.492C269.727 253.938 269.807 253.399 269.967 252.876C270.137 252.354 270.393 251.884 270.735 251.468C271.076 251.042 271.508 250.706 272.031 250.46C272.564 250.204 273.188 250.076 273.903 250.076C274.831 250.076 275.593 250.279 276.191 250.684C276.799 251.079 277.247 251.591 277.535 252.22C277.833 252.85 277.983 253.522 277.983 254.236V254.924H271.199C271.252 255.767 271.503 256.466 271.951 257.02C272.399 257.575 273.081 257.852 273.999 257.852C274.671 257.852 275.215 257.703 275.631 257.404C276.057 257.106 276.313 256.759 276.399 256.364H277.839C277.657 257.25 277.225 257.943 276.543 258.444C275.86 258.946 275.012 259.196 273.999 259.196ZM273.903 251.42C273.135 251.42 272.532 251.639 272.095 252.076C271.657 252.503 271.38 253.068 271.263 253.772H276.479C276.383 253.047 276.121 252.476 275.695 252.06C275.268 251.634 274.671 251.42 273.903 251.42ZM142.757 278.908V270.364H143.973V272.332C144.154 271.618 144.474 271.068 144.933 270.684C145.402 270.3 146.01 270.108 146.757 270.108H146.821C147.546 270.108 148.138 270.29 148.597 270.652C149.056 271.015 149.381 271.538 149.573 272.22C149.776 271.538 150.106 271.015 150.565 270.652C151.034 270.29 151.632 270.108 152.357 270.108H152.421C153.434 270.108 154.186 270.455 154.677 271.148C155.178 271.831 155.429 272.791 155.429 274.028V278.908H153.893V273.692C153.893 272.999 153.722 272.466 153.381 272.092C153.04 271.708 152.565 271.516 151.957 271.516C151.328 271.516 150.821 271.719 150.437 272.124C150.053 272.519 149.861 273.074 149.861 273.788V278.908H148.325V273.692C148.325 272.999 148.154 272.466 147.813 272.092C147.472 271.708 146.997 271.516 146.389 271.516C145.76 271.516 145.253 271.719 144.869 272.124C144.485 272.519 144.293 273.074 144.293 273.788V278.908H142.757ZM161.874 279.196C161.127 279.196 160.482 279.068 159.938 278.812C159.394 278.556 158.951 278.22 158.61 277.804C158.268 277.378 158.012 276.903 157.842 276.38C157.682 275.858 157.602 275.324 157.602 274.78V274.492C157.602 273.938 157.682 273.399 157.842 272.876C158.012 272.354 158.268 271.884 158.61 271.468C158.951 271.042 159.383 270.706 159.906 270.46C160.439 270.204 161.063 270.076 161.778 270.076C162.706 270.076 163.468 270.279 164.066 270.684C164.674 271.079 165.122 271.591 165.41 272.22C165.708 272.85 165.858 273.522 165.858 274.236V274.924H159.074C159.127 275.767 159.378 276.466 159.826 277.02C160.274 277.575 160.956 277.852 161.874 277.852C162.546 277.852 163.09 277.703 163.506 277.404C163.932 277.106 164.188 276.759 164.274 276.364H165.714C165.532 277.25 165.1 277.943 164.418 278.444C163.735 278.946 162.887 279.196 161.874 279.196ZM161.778 271.42C161.01 271.42 160.407 271.639 159.97 272.076C159.532 272.503 159.255 273.068 159.138 273.772H164.354C164.258 273.047 163.996 272.476 163.57 272.06C163.143 271.634 162.546 271.42 161.778 271.42ZM171.606 279.196C170.796 279.196 170.07 278.999 169.43 278.604C168.801 278.21 168.305 277.682 167.942 277.02C167.58 276.348 167.398 275.602 167.398 274.78V274.492C167.398 273.682 167.574 272.946 167.926 272.284C168.278 271.612 168.764 271.079 169.382 270.684C170.012 270.279 170.737 270.076 171.558 270.076C172.188 270.076 172.764 270.204 173.286 270.46C173.82 270.716 174.252 271.116 174.582 271.66V267.228H176.118V278.908H174.902V277.148C174.572 277.874 174.108 278.396 173.51 278.716C172.924 279.036 172.289 279.196 171.606 279.196ZM171.814 277.852C172.337 277.852 172.812 277.735 173.238 277.5C173.665 277.266 174.006 276.93 174.262 276.492C174.518 276.044 174.646 275.522 174.646 274.924V274.188C174.646 273.602 174.513 273.106 174.246 272.7C173.99 272.284 173.644 271.97 173.206 271.756C172.78 271.532 172.31 271.42 171.798 271.42C170.945 271.42 170.252 271.714 169.718 272.3C169.196 272.887 168.934 273.666 168.934 274.636C168.934 275.287 169.057 275.858 169.302 276.348C169.548 276.828 169.889 277.202 170.326 277.468C170.764 277.724 171.26 277.852 171.814 277.852ZM179.918 268.988C179.576 268.988 179.32 268.898 179.15 268.716C178.99 268.535 178.91 268.306 178.91 268.028C178.91 267.751 178.99 267.522 179.15 267.34C179.32 267.159 179.576 267.068 179.918 267.068C180.259 267.068 180.51 267.159 180.67 267.34C180.84 267.522 180.926 267.751 180.926 268.028C180.926 268.306 180.84 268.535 180.67 268.716C180.51 268.898 180.259 268.988 179.918 268.988ZM179.486 278.908V271.58H178.174V270.364H181.022V278.908H179.486ZM187.656 279.196C186.92 279.196 186.28 279.068 185.736 278.812C185.202 278.556 184.76 278.215 184.408 277.788C184.056 277.351 183.789 276.871 183.608 276.348C183.437 275.826 183.352 275.303 183.352 274.78V274.492C183.352 273.948 183.437 273.415 183.608 272.892C183.789 272.37 184.056 271.9 184.408 271.484C184.77 271.058 185.218 270.716 185.752 270.46C186.285 270.204 186.909 270.076 187.624 270.076C188.338 270.076 188.978 270.21 189.544 270.476C190.12 270.743 190.578 271.122 190.92 271.612C191.272 272.092 191.469 272.663 191.512 273.324H190.04C189.965 272.791 189.72 272.348 189.304 271.996C188.888 271.634 188.328 271.452 187.624 271.452C187.016 271.452 186.509 271.591 186.104 271.868C185.698 272.146 185.394 272.524 185.192 273.004C184.989 273.484 184.888 274.028 184.888 274.636C184.888 275.223 184.989 275.762 185.192 276.252C185.394 276.732 185.698 277.116 186.104 277.404C186.52 277.682 187.037 277.82 187.656 277.82C188.37 277.82 188.946 277.639 189.384 277.276C189.821 276.903 190.072 276.444 190.136 275.9H191.608C191.576 276.572 191.378 277.154 191.016 277.644C190.664 278.135 190.194 278.519 189.608 278.796C189.032 279.063 188.381 279.196 187.656 279.196ZM196.063 279.132C195.092 279.132 194.329 278.892 193.775 278.412C193.231 277.922 192.959 277.234 192.959 276.348C192.959 275.442 193.263 274.759 193.871 274.3C194.479 273.831 195.337 273.596 196.447 273.596H198.607V273.388C198.607 272.204 198.009 271.612 196.815 271.612C196.324 271.612 195.812 271.623 195.279 271.644C194.745 271.666 194.303 271.687 193.951 271.708V270.364C194.292 270.332 194.671 270.311 195.087 270.3C195.513 270.279 195.919 270.268 196.303 270.268C197.615 270.268 198.569 270.508 199.167 270.988C199.775 271.468 200.079 272.306 200.079 273.5V278.908H198.863V277.212C198.479 278.492 197.545 279.132 196.063 279.132ZM196.383 277.916C196.745 277.916 197.092 277.852 197.423 277.724C197.753 277.586 198.025 277.362 198.239 277.052C198.463 276.732 198.585 276.295 198.607 275.74V274.748H196.383C195.764 274.748 195.289 274.898 194.959 275.196C194.628 275.495 194.463 275.879 194.463 276.348C194.463 276.818 194.628 277.196 194.959 277.484C195.289 277.772 195.764 277.916 196.383 277.916ZM202.994 278.908V268.444H201.81V267.228H204.53V278.908H202.994ZM211.117 278.908V270.364H212.333V272.924C212.461 272.007 212.797 271.335 213.341 270.908C213.885 270.482 214.626 270.268 215.565 270.268H215.853V271.644H215.309C214.455 271.644 213.799 271.874 213.341 272.332C212.882 272.78 212.653 273.431 212.653 274.284V278.908H211.117ZM221.217 279.196C220.471 279.196 219.825 279.068 219.281 278.812C218.737 278.556 218.295 278.22 217.953 277.804C217.612 277.378 217.356 276.903 217.185 276.38C217.025 275.858 216.945 275.324 216.945 274.78V274.492C216.945 273.938 217.025 273.399 217.185 272.876C217.356 272.354 217.612 271.884 217.953 271.468C218.295 271.042 218.727 270.706 219.249 270.46C219.783 270.204 220.407 270.076 221.121 270.076C222.049 270.076 222.812 270.279 223.409 270.684C224.017 271.079 224.465 271.591 224.753 272.22C225.052 272.85 225.201 273.522 225.201 274.236V274.924H218.417C218.471 275.767 218.721 276.466 219.169 277.02C219.617 277.575 220.3 277.852 221.217 277.852C221.889 277.852 222.433 277.703 222.849 277.404C223.276 277.106 223.532 276.759 223.617 276.364H225.057C224.876 277.25 224.444 277.943 223.761 278.444C223.079 278.946 222.231 279.196 221.217 279.196ZM221.121 271.42C220.353 271.42 219.751 271.639 219.313 272.076C218.876 272.503 218.599 273.068 218.481 273.772H223.697C223.601 273.047 223.34 272.476 222.913 272.06C222.487 271.634 221.889 271.42 221.121 271.42ZM231.046 279.196C230.31 279.196 229.67 279.068 229.126 278.812C228.593 278.556 228.15 278.215 227.798 277.788C227.446 277.351 227.179 276.871 226.998 276.348C226.827 275.826 226.742 275.303 226.742 274.78V274.492C226.742 273.948 226.827 273.415 226.998 272.892C227.179 272.37 227.446 271.9 227.798 271.484C228.161 271.058 228.609 270.716 229.142 270.46C229.675 270.204 230.299 270.076 231.014 270.076C231.729 270.076 232.369 270.21 232.934 270.476C233.51 270.743 233.969 271.122 234.31 271.612C234.662 272.092 234.859 272.663 234.902 273.324H233.43C233.355 272.791 233.11 272.348 232.694 271.996C232.278 271.634 231.718 271.452 231.014 271.452C230.406 271.452 229.899 271.591 229.494 271.868C229.089 272.146 228.785 272.524 228.582 273.004C228.379 273.484 228.278 274.028 228.278 274.636C228.278 275.223 228.379 275.762 228.582 276.252C228.785 276.732 229.089 277.116 229.494 277.404C229.91 277.682 230.427 277.82 231.046 277.82C231.761 277.82 232.337 277.639 232.774 277.276C233.211 276.903 233.462 276.444 233.526 275.9H234.998C234.966 276.572 234.769 277.154 234.406 277.644C234.054 278.135 233.585 278.519 232.998 278.796C232.422 279.063 231.771 279.196 231.046 279.196ZM241.021 279.196C240.275 279.196 239.619 279.068 239.053 278.812C238.488 278.556 238.008 278.22 237.613 277.804C237.229 277.378 236.936 276.903 236.733 276.38C236.541 275.858 236.445 275.324 236.445 274.78V274.492C236.445 273.948 236.547 273.415 236.749 272.892C236.952 272.359 237.251 271.884 237.645 271.468C238.04 271.042 238.52 270.706 239.085 270.46C239.651 270.204 240.296 270.076 241.021 270.076C241.747 270.076 242.392 270.204 242.957 270.46C243.523 270.706 244.003 271.042 244.397 271.468C244.792 271.884 245.091 272.359 245.293 272.892C245.496 273.415 245.597 273.948 245.597 274.492V274.78C245.597 275.324 245.496 275.858 245.293 276.38C245.101 276.903 244.808 277.378 244.413 277.804C244.029 278.22 243.555 278.556 242.989 278.812C242.424 279.068 241.768 279.196 241.021 279.196ZM241.021 277.82C241.661 277.82 242.205 277.682 242.653 277.404C243.112 277.116 243.459 276.732 243.693 276.252C243.939 275.772 244.061 275.234 244.061 274.636C244.061 274.028 243.939 273.484 243.693 273.004C243.448 272.524 243.096 272.146 242.637 271.868C242.189 271.591 241.651 271.452 241.021 271.452C240.403 271.452 239.864 271.591 239.405 271.868C238.947 272.146 238.595 272.524 238.349 273.004C238.104 273.484 237.981 274.028 237.981 274.636C237.981 275.234 238.099 275.772 238.333 276.252C238.579 276.732 238.925 277.116 239.373 277.404C239.832 277.682 240.381 277.82 241.021 277.82ZM247.898 278.908V270.364H249.114V272.924C249.242 272.007 249.578 271.335 250.122 270.908C250.666 270.482 251.407 270.268 252.346 270.268H252.634V271.644H252.09C251.236 271.644 250.58 271.874 250.122 272.332C249.663 272.78 249.434 273.431 249.434 274.284V278.908H247.898ZM257.935 279.196C257.124 279.196 256.399 278.999 255.759 278.604C255.129 278.21 254.633 277.682 254.271 277.02C253.908 276.348 253.727 275.602 253.727 274.78V274.492C253.727 273.682 253.903 272.946 254.255 272.284C254.607 271.612 255.092 271.079 255.711 270.684C256.34 270.279 257.065 270.076 257.887 270.076C258.516 270.076 259.092 270.204 259.615 270.46C260.148 270.716 260.58 271.116 260.911 271.66V267.228H262.447V278.908H261.231V277.148C260.9 277.874 260.436 278.396 259.839 278.716C259.252 279.036 258.617 279.196 257.935 279.196ZM258.143 277.852C258.665 277.852 259.14 277.735 259.567 277.5C259.993 277.266 260.335 276.93 260.591 276.492C260.847 276.044 260.975 275.522 260.975 274.924V274.188C260.975 273.602 260.841 273.106 260.575 272.7C260.319 272.284 259.972 271.97 259.535 271.756C259.108 271.532 258.639 271.42 258.127 271.42C257.273 271.42 256.58 271.714 256.047 272.3C255.524 272.887 255.263 273.666 255.263 274.636C255.263 275.287 255.385 275.858 255.631 276.348C255.876 276.828 256.217 277.202 256.655 277.468C257.092 277.724 257.588 277.852 258.143 277.852ZM268.198 279.164C267.078 279.164 266.208 278.924 265.59 278.444C264.982 277.964 264.667 277.308 264.646 276.476H266.086C266.107 276.807 266.272 277.122 266.582 277.42C266.902 277.708 267.44 277.852 268.198 277.852C268.88 277.852 269.403 277.719 269.766 277.452C270.128 277.175 270.31 276.839 270.31 276.444C270.31 276.092 270.176 275.82 269.91 275.628C269.643 275.426 269.211 275.292 268.614 275.228L267.686 275.132C266.875 275.047 266.214 274.807 265.702 274.412C265.19 274.007 264.934 273.442 264.934 272.716C264.934 271.895 265.238 271.255 265.846 270.796C266.454 270.338 267.238 270.108 268.198 270.108C269.158 270.108 269.936 270.322 270.534 270.748C271.131 271.175 271.44 271.81 271.462 272.652H270.022C270.011 272.311 269.851 272.023 269.542 271.788C269.243 271.543 268.795 271.42 268.198 271.42C267.6 271.42 267.147 271.543 266.838 271.788C266.528 272.034 266.374 272.343 266.374 272.716C266.374 273.036 266.48 273.292 266.694 273.484C266.918 273.676 267.28 273.799 267.782 273.852L268.71 273.948C269.627 274.044 270.363 274.3 270.918 274.716C271.472 275.122 271.75 275.698 271.75 276.444C271.75 276.978 271.595 277.452 271.286 277.868C270.987 278.274 270.571 278.594 270.038 278.828C269.504 279.052 268.891 279.164 268.198 279.164ZM160.61 299.132C159.639 299.132 158.876 298.892 158.322 298.412C157.778 297.922 157.506 297.234 157.506 296.348C157.506 295.442 157.81 294.759 158.418 294.3C159.026 293.831 159.884 293.596 160.994 293.596H163.154V293.388C163.154 292.204 162.556 291.612 161.362 291.612C160.871 291.612 160.359 291.623 159.826 291.644C159.292 291.666 158.85 291.687 158.498 291.708V290.364C158.839 290.332 159.218 290.311 159.634 290.3C160.06 290.279 160.466 290.268 160.85 290.268C162.162 290.268 163.116 290.508 163.714 290.988C164.322 291.468 164.626 292.306 164.626 293.5V298.908H163.41V297.212C163.026 298.492 162.092 299.132 160.61 299.132ZM160.93 297.916C161.292 297.916 161.639 297.852 161.97 297.724C162.3 297.586 162.572 297.362 162.786 297.052C163.01 296.732 163.132 296.295 163.154 295.74V294.748H160.93C160.311 294.748 159.836 294.898 159.506 295.196C159.175 295.495 159.01 295.879 159.01 296.348C159.01 296.818 159.175 297.196 159.506 297.484C159.836 297.772 160.311 297.916 160.93 297.916ZM167.445 298.908V290.364H168.661V292.348C168.853 291.623 169.194 291.068 169.685 290.684C170.186 290.3 170.837 290.108 171.637 290.108H171.701C172.778 290.108 173.573 290.444 174.085 291.116C174.607 291.788 174.869 292.759 174.869 294.028V298.908H173.333V293.708C173.333 293.047 173.146 292.519 172.773 292.124C172.399 291.719 171.887 291.516 171.237 291.516C170.565 291.516 170.021 291.724 169.605 292.14C169.189 292.556 168.981 293.111 168.981 293.804V298.908H167.445ZM181.247 299.196C180.436 299.196 179.711 298.999 179.071 298.604C178.442 298.21 177.946 297.682 177.583 297.02C177.22 296.348 177.039 295.602 177.039 294.78V294.492C177.039 293.682 177.215 292.946 177.567 292.284C177.919 291.612 178.404 291.079 179.023 290.684C179.652 290.279 180.378 290.076 181.199 290.076C181.828 290.076 182.404 290.204 182.927 290.46C183.46 290.716 183.892 291.116 184.223 291.66V287.228H185.759V298.908H184.543V297.148C184.212 297.874 183.748 298.396 183.151 298.716C182.564 299.036 181.93 299.196 181.247 299.196ZM181.455 297.852C181.978 297.852 182.452 297.735 182.879 297.5C183.306 297.266 183.647 296.93 183.903 296.492C184.159 296.044 184.287 295.522 184.287 294.924V294.188C184.287 293.602 184.154 293.106 183.887 292.7C183.631 292.284 183.284 291.97 182.847 291.756C182.42 291.532 181.951 291.42 181.439 291.42C180.586 291.42 179.892 291.714 179.359 292.3C178.836 292.887 178.575 293.666 178.575 294.636C178.575 295.287 178.698 295.858 178.943 296.348C179.188 296.828 179.53 297.202 179.967 297.468C180.404 297.724 180.9 297.852 181.455 297.852ZM192.351 298.908V287.228H193.887V291.868C194.122 291.303 194.458 290.871 194.895 290.572C195.343 290.263 195.914 290.108 196.607 290.108H196.671C197.695 290.108 198.468 290.45 198.991 291.132C199.514 291.804 199.775 292.77 199.775 294.028V298.908H198.239V293.708C198.239 293.015 198.042 292.476 197.647 292.092C197.263 291.708 196.762 291.516 196.143 291.516C195.46 291.516 194.911 291.746 194.495 292.204C194.09 292.652 193.887 293.244 193.887 293.98V298.908H192.351ZM206.521 299.196C205.775 299.196 205.119 299.068 204.553 298.812C203.988 298.556 203.508 298.22 203.113 297.804C202.729 297.378 202.436 296.903 202.233 296.38C202.041 295.858 201.945 295.324 201.945 294.78V294.492C201.945 293.948 202.047 293.415 202.249 292.892C202.452 292.359 202.751 291.884 203.145 291.468C203.54 291.042 204.02 290.706 204.585 290.46C205.151 290.204 205.796 290.076 206.521 290.076C207.247 290.076 207.892 290.204 208.457 290.46C209.023 290.706 209.503 291.042 209.897 291.468C210.292 291.884 210.591 292.359 210.793 292.892C210.996 293.415 211.097 293.948 211.097 294.492V294.78C211.097 295.324 210.996 295.858 210.793 296.38C210.601 296.903 210.308 297.378 209.913 297.804C209.529 298.22 209.055 298.556 208.489 298.812C207.924 299.068 207.268 299.196 206.521 299.196ZM206.521 297.82C207.161 297.82 207.705 297.682 208.153 297.404C208.612 297.116 208.959 296.732 209.193 296.252C209.439 295.772 209.561 295.234 209.561 294.636C209.561 294.028 209.439 293.484 209.193 293.004C208.948 292.524 208.596 292.146 208.137 291.868C207.689 291.591 207.151 291.452 206.521 291.452C205.903 291.452 205.364 291.591 204.905 291.868C204.447 292.146 204.095 292.524 203.849 293.004C203.604 293.484 203.481 294.028 203.481 294.636C203.481 295.234 203.599 295.772 203.833 296.252C204.079 296.732 204.425 297.116 204.873 297.404C205.332 297.682 205.881 297.82 206.521 297.82ZM216.198 299.164C215.078 299.164 214.208 298.924 213.59 298.444C212.982 297.964 212.667 297.308 212.646 296.476H214.086C214.107 296.807 214.272 297.122 214.582 297.42C214.902 297.708 215.44 297.852 216.198 297.852C216.88 297.852 217.403 297.719 217.766 297.452C218.128 297.175 218.31 296.839 218.31 296.444C218.31 296.092 218.176 295.82 217.91 295.628C217.643 295.426 217.211 295.292 216.614 295.228L215.686 295.132C214.875 295.047 214.214 294.807 213.702 294.412C213.19 294.007 212.934 293.442 212.934 292.716C212.934 291.895 213.238 291.255 213.846 290.796C214.454 290.338 215.238 290.108 216.198 290.108C217.158 290.108 217.936 290.322 218.534 290.748C219.131 291.175 219.44 291.81 219.462 292.652H218.022C218.011 292.311 217.851 292.023 217.542 291.788C217.243 291.543 216.795 291.42 216.198 291.42C215.6 291.42 215.147 291.543 214.838 291.788C214.528 292.034 214.374 292.343 214.374 292.716C214.374 293.036 214.48 293.292 214.694 293.484C214.918 293.676 215.28 293.799 215.782 293.852L216.71 293.948C217.627 294.044 218.363 294.3 218.918 294.716C219.472 295.122 219.75 295.698 219.75 296.444C219.75 296.978 219.595 297.452 219.286 297.868C218.987 298.274 218.571 298.594 218.038 298.828C217.504 299.052 216.891 299.164 216.198 299.164ZM221.976 302.108V290.364H223.192V292.46C223.48 291.639 223.928 291.036 224.536 290.652C225.144 290.268 225.827 290.076 226.584 290.076C227.416 290.076 228.136 290.279 228.744 290.684C229.363 291.09 229.843 291.628 230.184 292.3C230.525 292.962 230.696 293.692 230.696 294.492V294.78C230.696 295.58 230.52 296.316 230.168 296.988C229.816 297.65 229.325 298.183 228.696 298.588C228.077 298.994 227.363 299.196 226.552 299.196C225.965 299.196 225.4 299.074 224.856 298.828C224.312 298.583 223.864 298.183 223.512 297.628V302.108H221.976ZM226.312 297.852C226.888 297.852 227.389 297.719 227.816 297.452C228.243 297.175 228.573 296.796 228.808 296.316C229.043 295.826 229.16 295.266 229.16 294.636C229.16 293.996 229.043 293.436 228.808 292.956C228.573 292.476 228.243 292.103 227.816 291.836C227.389 291.559 226.888 291.42 226.312 291.42C225.8 291.42 225.325 291.538 224.888 291.772C224.451 291.996 224.099 292.327 223.832 292.764C223.576 293.191 223.448 293.708 223.448 294.316V295.052C223.448 295.639 223.581 296.14 223.848 296.556C224.115 296.972 224.467 297.292 224.904 297.516C225.341 297.74 225.811 297.852 226.312 297.852ZM233.855 288.988C233.514 288.988 233.258 288.898 233.087 288.716C232.927 288.535 232.847 288.306 232.847 288.028C232.847 287.751 232.927 287.522 233.087 287.34C233.258 287.159 233.514 287.068 233.855 287.068C234.196 287.068 234.447 287.159 234.607 287.34C234.778 287.522 234.863 287.751 234.863 288.028C234.863 288.306 234.778 288.535 234.607 288.716C234.447 288.898 234.196 288.988 233.855 288.988ZM233.423 298.908V291.58H232.111V290.364H234.959V298.908H233.423ZM241.257 299.004C240.617 299.004 240.062 298.914 239.593 298.732C239.134 298.551 238.777 298.242 238.521 297.804C238.276 297.356 238.153 296.754 238.153 295.996V291.516H236.681V290.364H238.153V287.772H239.625V290.364H242.569V291.516H239.625V296.188C239.625 296.647 239.748 297.004 239.993 297.26C240.249 297.506 240.606 297.628 241.065 297.628H242.569V299.004H241.257ZM247.078 299.132C246.108 299.132 245.345 298.892 244.79 298.412C244.246 297.922 243.974 297.234 243.974 296.348C243.974 295.442 244.278 294.759 244.886 294.3C245.494 293.831 246.353 293.596 247.462 293.596H249.622V293.388C249.622 292.204 249.025 291.612 247.83 291.612C247.34 291.612 246.828 291.623 246.294 291.644C245.761 291.666 245.318 291.687 244.966 291.708V290.364C245.308 290.332 245.686 290.311 246.102 290.3C246.529 290.279 246.934 290.268 247.318 290.268C248.63 290.268 249.585 290.508 250.182 290.988C250.79 291.468 251.094 292.306 251.094 293.5V298.908H249.878V297.212C249.494 298.492 248.561 299.132 247.078 299.132ZM247.398 297.916C247.761 297.916 248.108 297.852 248.438 297.724C248.769 297.586 249.041 297.362 249.254 297.052C249.478 296.732 249.601 296.295 249.622 295.74V294.748H247.398C246.78 294.748 246.305 294.898 245.974 295.196C245.644 295.495 245.478 295.879 245.478 296.348C245.478 296.818 245.644 297.196 245.974 297.484C246.305 297.772 246.78 297.916 247.398 297.916ZM254.009 298.908V288.444H252.825V287.228H255.545V298.908H254.009ZM174.843 318.908V310.364H176.059V312.924C176.187 312.007 176.523 311.335 177.067 310.908C177.611 310.482 178.352 310.268 179.291 310.268H179.579V311.644H179.035C178.182 311.644 177.526 311.874 177.067 312.332C176.608 312.78 176.379 313.431 176.379 314.284V318.908H174.843ZM184.944 319.196C184.197 319.196 183.552 319.068 183.008 318.812C182.464 318.556 182.021 318.22 181.68 317.804C181.339 317.378 181.083 316.903 180.912 316.38C180.752 315.858 180.672 315.324 180.672 314.78V314.492C180.672 313.938 180.752 313.399 180.912 312.876C181.083 312.354 181.339 311.884 181.68 311.468C182.021 311.042 182.453 310.706 182.976 310.46C183.509 310.204 184.133 310.076 184.848 310.076C185.776 310.076 186.539 310.279 187.136 310.684C187.744 311.079 188.192 311.591 188.48 312.22C188.779 312.85 188.928 313.522 188.928 314.236V314.924H182.144C182.197 315.767 182.448 316.466 182.896 317.02C183.344 317.575 184.027 317.852 184.944 317.852C185.616 317.852 186.16 317.703 186.576 317.404C187.003 317.106 187.259 316.759 187.344 316.364H188.784C188.603 317.25 188.171 317.943 187.488 318.444C186.805 318.946 185.957 319.196 184.944 319.196ZM184.848 311.42C184.08 311.42 183.477 311.639 183.04 312.076C182.603 312.503 182.325 313.068 182.208 313.772H187.424C187.328 313.047 187.067 312.476 186.64 312.06C186.213 311.634 185.616 311.42 184.848 311.42ZM194.773 319.196C194.037 319.196 193.397 319.068 192.853 318.812C192.319 318.556 191.877 318.215 191.525 317.788C191.173 317.351 190.906 316.871 190.725 316.348C190.554 315.826 190.469 315.303 190.469 314.78V314.492C190.469 313.948 190.554 313.415 190.725 312.892C190.906 312.37 191.173 311.9 191.525 311.484C191.887 311.058 192.335 310.716 192.869 310.46C193.402 310.204 194.026 310.076 194.741 310.076C195.455 310.076 196.095 310.21 196.661 310.476C197.237 310.743 197.695 311.122 198.037 311.612C198.389 312.092 198.586 312.663 198.629 313.324H197.157C197.082 312.791 196.837 312.348 196.421 311.996C196.005 311.634 195.445 311.452 194.741 311.452C194.133 311.452 193.626 311.591 193.221 311.868C192.815 312.146 192.511 312.524 192.309 313.004C192.106 313.484 192.005 314.028 192.005 314.636C192.005 315.223 192.106 315.762 192.309 316.252C192.511 316.732 192.815 317.116 193.221 317.404C193.637 317.682 194.154 317.82 194.773 317.82C195.487 317.82 196.063 317.639 196.501 317.276C196.938 316.903 197.189 316.444 197.253 315.9H198.725C198.693 316.572 198.495 317.154 198.133 317.644C197.781 318.135 197.311 318.519 196.725 318.796C196.149 319.063 195.498 319.196 194.773 319.196ZM204.444 319.196C203.697 319.196 203.052 319.068 202.508 318.812C201.964 318.556 201.521 318.22 201.18 317.804C200.839 317.378 200.583 316.903 200.412 316.38C200.252 315.858 200.172 315.324 200.172 314.78V314.492C200.172 313.938 200.252 313.399 200.412 312.876C200.583 312.354 200.839 311.884 201.18 311.468C201.521 311.042 201.953 310.706 202.476 310.46C203.009 310.204 203.633 310.076 204.348 310.076C205.276 310.076 206.039 310.279 206.636 310.684C207.244 311.079 207.692 311.591 207.98 312.22C208.279 312.85 208.428 313.522 208.428 314.236V314.924H201.644C201.697 315.767 201.948 316.466 202.396 317.02C202.844 317.575 203.527 317.852 204.444 317.852C205.116 317.852 205.66 317.703 206.076 317.404C206.503 317.106 206.759 316.759 206.844 316.364H208.284C208.103 317.25 207.671 317.943 206.988 318.444C206.305 318.946 205.457 319.196 204.444 319.196ZM204.348 311.42C203.58 311.42 202.977 311.639 202.54 312.076C202.103 312.503 201.825 313.068 201.708 313.772H206.924C206.828 313.047 206.567 312.476 206.14 312.06C205.713 311.634 205.116 311.42 204.348 311.42ZM211.457 308.988C211.115 308.988 210.859 308.898 210.689 308.716C210.529 308.535 210.449 308.306 210.449 308.028C210.449 307.751 210.529 307.522 210.689 307.34C210.859 307.159 211.115 307.068 211.457 307.068C211.798 307.068 212.049 307.159 212.209 307.34C212.379 307.522 212.465 307.751 212.465 308.028C212.465 308.306 212.379 308.535 212.209 308.716C212.049 308.898 211.798 308.988 211.457 308.988ZM211.025 318.908V311.58H209.713V310.364H212.561V318.908H211.025ZM215.531 322.108V310.364H216.747V312.46C217.035 311.639 217.483 311.036 218.091 310.652C218.699 310.268 219.381 310.076 220.139 310.076C220.971 310.076 221.691 310.279 222.299 310.684C222.917 311.09 223.397 311.628 223.739 312.3C224.08 312.962 224.251 313.692 224.251 314.492V314.78C224.251 315.58 224.075 316.316 223.723 316.988C223.371 317.65 222.88 318.183 222.251 318.588C221.632 318.994 220.917 319.196 220.107 319.196C219.52 319.196 218.955 319.074 218.411 318.828C217.867 318.583 217.419 318.183 217.067 317.628V322.108H215.531ZM219.867 317.852C220.443 317.852 220.944 317.719 221.371 317.452C221.797 317.175 222.128 316.796 222.363 316.316C222.597 315.826 222.715 315.266 222.715 314.636C222.715 313.996 222.597 313.436 222.363 312.956C222.128 312.476 221.797 312.103 221.371 311.836C220.944 311.559 220.443 311.42 219.867 311.42C219.355 311.42 218.88 311.538 218.443 311.772C218.005 311.996 217.653 312.327 217.387 312.764C217.131 313.191 217.003 313.708 217.003 314.316V315.052C217.003 315.639 217.136 316.14 217.403 316.556C217.669 316.972 218.021 317.292 218.459 317.516C218.896 317.74 219.365 317.852 219.867 317.852ZM229.89 319.004C229.25 319.004 228.695 318.914 228.226 318.732C227.767 318.551 227.41 318.242 227.154 317.804C226.909 317.356 226.786 316.754 226.786 315.996V311.516H225.314V310.364H226.786V307.772H228.258V310.364H231.202V311.516H228.258V316.188C228.258 316.647 228.381 317.004 228.626 317.26C228.882 317.506 229.239 317.628 229.698 317.628H231.202V319.004H229.89ZM236.112 319.164C234.992 319.164 234.123 318.924 233.504 318.444C232.896 317.964 232.581 317.308 232.56 316.476H234C234.021 316.807 234.187 317.122 234.496 317.42C234.816 317.708 235.355 317.852 236.112 317.852C236.795 317.852 237.317 317.719 237.68 317.452C238.043 317.175 238.224 316.839 238.224 316.444C238.224 316.092 238.091 315.82 237.824 315.628C237.557 315.426 237.125 315.292 236.528 315.228L235.6 315.132C234.789 315.047 234.128 314.807 233.616 314.412C233.104 314.007 232.848 313.442 232.848 312.716C232.848 311.895 233.152 311.255 233.76 310.796C234.368 310.338 235.152 310.108 236.112 310.108C237.072 310.108 237.851 310.322 238.448 310.748C239.045 311.175 239.355 311.81 239.376 312.652H237.936C237.925 312.311 237.765 312.023 237.456 311.788C237.157 311.543 236.709 311.42 236.112 311.42C235.515 311.42 235.061 311.543 234.752 311.788C234.443 312.034 234.288 312.343 234.288 312.716C234.288 313.036 234.395 313.292 234.608 313.484C234.832 313.676 235.195 313.799 235.696 313.852L236.624 313.948C237.541 314.044 238.277 314.3 238.832 314.716C239.387 315.122 239.664 315.698 239.664 316.444C239.664 316.978 239.509 317.452 239.2 317.868C238.901 318.274 238.485 318.594 237.952 318.828C237.419 319.052 236.805 319.164 236.112 319.164Z" fill="#B3B3B3"/>
<defs>
<filter id="filter0_f_3670_26571" x="-19.5703" y="0.166992" width="452.906" height="435.481" filterUnits="userSpaceOnUse" color-interpolation-filters="sRGB">
<feFlood flood-opacity="0" result="BackgroundImageFix"/>
<feBlend mode="normal" in="SourceGraphic" in2="BackgroundImageFix" result="shape"/>
<feGaussianBlur stdDeviation="25" result="effect1_foregroundBlur_3670_26571"/>
</filter>
<linearGradient id="paint0_linear_3670_26571" x1="22.2188" y1="53.6005" x2="396.272" y2="335.471" gradientUnits="userSpaceOnUse">
<stop stop-color="#1256E2"/>
<stop offset="1" stop-color="#06286C"/>
</linearGradient>
<linearGradient id="paint1_linear_3670_26571" x1="286.594" y1="364.595" x2="6.32798" y2="109.523" gradientUnits="userSpaceOnUse">
<stop stop-color="#000E29"/>
<stop offset="0.853292" stop-color="#00308F"/>
</linearGradient>
</defs>
</svg>
