<svg width="488" height="436" viewBox="0 0 488 436" fill="none" xmlns="http://www.w3.org/2000/svg">
<path d="M49.1562 42.7988H126.788C128.3 42.7989 129.777 43.2562 131.024 44.1104L148.194 55.8652C149.608 56.8333 151.282 57.3516 152.996 57.3516H323.403C325.117 57.3516 326.792 56.8334 328.206 55.8652L345.375 44.1104C346.545 43.3094 347.916 42.857 349.329 42.8037L349.612 42.7988H439.036C443.178 42.799 446.536 46.1568 446.536 50.2988V136.776C446.536 137.304 446.48 137.831 446.369 138.347L437.161 181.327C437.036 181.912 436.973 182.509 436.973 183.107V385.396C436.973 389.538 433.615 392.896 429.473 392.896H58.6172C54.4752 392.895 51.1172 389.538 51.1172 385.396V172.725C51.1172 171.955 51.013 171.188 50.8066 170.446L41.9307 138.541C41.7486 137.887 41.6563 137.211 41.6562 136.531V50.2988C41.6562 46.1567 45.0141 42.7988 49.1562 42.7988Z" fill="#000E29" stroke="url(#paint0_linear_3666_26478)"/>
<g filter="url(#filter0_f_3666_26478)">
<path d="M50.1797 50.1064H134.369L154.679 64.0117H322.24L342.551 50.1064H438.008V141.191L428.87 183.843V385.588H59.2201V173.688L50.1797 141.191V50.1064Z" fill="url(#paint1_linear_3666_26478)" fill-opacity="0.7"/>
<path d="M59.7197 173.62L59.7021 173.554L50.6797 141.124V50.6064H134.214L154.396 64.4238L154.524 64.5117H322.396L322.522 64.4238L342.705 50.6064H437.508V141.137L428.381 183.738L428.37 183.79V385.088H59.7197V173.62Z" stroke="url(#paint2_linear_3666_26478)"/>
</g>
<rect x="91.5938" y="86.5879" width="305" height="295" rx="24" fill="#000E29"/>
<path d="M249.094 127.088L253.094 131.088" stroke="#E63946" stroke-width="2" stroke-linecap="round" stroke-linejoin="round"/>
<path d="M253.094 127.088L249.094 131.088" stroke="#E63946" stroke-width="2" stroke-linecap="round" stroke-linejoin="round"/>
<path d="M254.094 137.088L250.594 141.088L248.594 139.088" stroke="#10A274" stroke-width="2" stroke-linecap="round" stroke-linejoin="round"/>
<path d="M245.094 127.088H234.094V131.088H245.094V127.088Z" fill="#F4B400"/>
<path d="M245.094 137.088H234.094V141.088H245.094V137.088Z" fill="#F4B400"/>
<path d="M188.813 173.088V161.344H192.637C193.491 161.344 194.237 161.472 194.877 161.728C195.517 161.984 196.013 162.379 196.365 162.912C196.717 163.445 196.893 164.133 196.893 164.976V165.232C196.893 166.149 196.68 166.885 196.253 167.44C195.837 167.984 195.267 168.373 194.541 168.608L197.933 173.088H196.029L192.877 168.864C192.803 168.864 192.723 168.864 192.637 168.864H190.381V173.088H188.813ZM192.925 162.72H190.381V167.472H192.925C193.651 167.472 194.227 167.248 194.653 166.8C195.08 166.352 195.293 165.787 195.293 165.104C195.293 164.411 195.08 163.84 194.653 163.392C194.227 162.944 193.651 162.72 192.925 162.72ZM203.268 173.376C202.521 173.376 201.876 173.248 201.332 172.992C200.788 172.736 200.345 172.4 200.004 171.984C199.663 171.557 199.407 171.083 199.236 170.56C199.076 170.037 198.996 169.504 198.996 168.96V168.672C198.996 168.117 199.076 167.579 199.236 167.056C199.407 166.533 199.663 166.064 200.004 165.648C200.345 165.221 200.777 164.885 201.3 164.64C201.833 164.384 202.457 164.256 203.172 164.256C204.1 164.256 204.863 164.459 205.46 164.864C206.068 165.259 206.516 165.771 206.804 166.4C207.103 167.029 207.252 167.701 207.252 168.416V169.104H200.468C200.521 169.947 200.772 170.645 201.22 171.2C201.668 171.755 202.351 172.032 203.268 172.032C203.94 172.032 204.484 171.883 204.9 171.584C205.327 171.285 205.583 170.939 205.668 170.544H207.108C206.927 171.429 206.495 172.123 205.812 172.624C205.129 173.125 204.281 173.376 203.268 173.376ZM203.172 165.6C202.404 165.6 201.801 165.819 201.364 166.256C200.927 166.683 200.649 167.248 200.532 167.952H205.748C205.652 167.227 205.391 166.656 204.964 166.24C204.537 165.813 203.94 165.6 203.172 165.6ZM215.977 176.288V171.68C215.646 172.256 215.214 172.683 214.681 172.96C214.148 173.237 213.566 173.376 212.937 173.376C212.126 173.376 211.406 173.173 210.777 172.768C210.158 172.352 209.673 171.808 209.321 171.136C208.969 170.453 208.793 169.707 208.793 168.896V168.608C208.793 167.797 208.969 167.067 209.321 166.416C209.673 165.755 210.164 165.232 210.793 164.848C211.433 164.453 212.169 164.256 213.001 164.256C213.758 164.256 214.42 164.427 214.985 164.768C215.55 165.099 215.988 165.584 216.297 166.224V164.544H217.513V176.288H215.977ZM213.209 171.968C213.732 171.968 214.206 171.851 214.633 171.616C215.06 171.381 215.401 171.045 215.657 170.608C215.913 170.16 216.041 169.637 216.041 169.04V168.304C216.041 167.717 215.908 167.221 215.641 166.816C215.385 166.4 215.038 166.085 214.601 165.872C214.174 165.648 213.71 165.536 213.209 165.536C212.633 165.536 212.126 165.669 211.689 165.936C211.262 166.203 210.926 166.581 210.681 167.072C210.446 167.552 210.329 168.112 210.329 168.752C210.329 169.392 210.452 169.957 210.697 170.448C210.942 170.928 211.284 171.301 211.721 171.568C212.158 171.835 212.654 171.968 213.209 171.968ZM223.424 173.344C222.411 173.344 221.632 173.013 221.088 172.352C220.544 171.691 220.272 170.736 220.272 169.488V164.528H221.808V169.792C221.808 170.464 221.99 170.992 222.352 171.376C222.715 171.749 223.206 171.936 223.824 171.936C224.464 171.936 224.987 171.733 225.392 171.328C225.798 170.912 226 170.347 226 169.632V164.528H227.536V173.088H226.32V171.12C226.128 171.845 225.798 172.4 225.328 172.784C224.859 173.157 224.246 173.344 223.488 173.344H223.424ZM231.359 163.168C231.018 163.168 230.762 163.077 230.591 162.896C230.431 162.715 230.351 162.485 230.351 162.208C230.351 161.931 230.431 161.701 230.591 161.52C230.762 161.339 231.018 161.248 231.359 161.248C231.7 161.248 231.951 161.339 232.111 161.52C232.282 161.701 232.367 161.931 232.367 162.208C232.367 162.485 232.282 162.715 232.111 162.896C231.951 163.077 231.7 163.168 231.359 163.168ZM230.927 173.088V165.76H229.615V164.544H232.463V173.088H230.927ZM235.433 173.088V164.544H236.649V167.104C236.777 166.187 237.113 165.515 237.657 165.088C238.201 164.661 238.942 164.448 239.881 164.448H240.169V165.824H239.625C238.772 165.824 238.116 166.053 237.657 166.512C237.198 166.96 236.969 167.611 236.969 168.464V173.088H235.433ZM245.534 173.376C244.787 173.376 244.142 173.248 243.598 172.992C243.054 172.736 242.611 172.4 242.27 171.984C241.928 171.557 241.672 171.083 241.502 170.56C241.342 170.037 241.262 169.504 241.262 168.96V168.672C241.262 168.117 241.342 167.579 241.502 167.056C241.672 166.533 241.928 166.064 242.27 165.648C242.611 165.221 243.043 164.885 243.566 164.64C244.099 164.384 244.723 164.256 245.438 164.256C246.366 164.256 247.128 164.459 247.726 164.864C248.334 165.259 248.782 165.771 249.07 166.4C249.368 167.029 249.518 167.701 249.518 168.416V169.104H242.734C242.787 169.947 243.038 170.645 243.486 171.2C243.934 171.755 244.616 172.032 245.534 172.032C246.206 172.032 246.75 171.883 247.166 171.584C247.592 171.285 247.848 170.939 247.934 170.544H249.374C249.192 171.429 248.76 172.123 248.078 172.624C247.395 173.125 246.547 173.376 245.534 173.376ZM245.438 165.6C244.67 165.6 244.067 165.819 243.63 166.256C243.192 166.683 242.915 167.248 242.798 167.952H248.014C247.918 167.227 247.656 166.656 247.23 166.24C246.803 165.813 246.206 165.6 245.438 165.6ZM251.699 173.088V164.544H252.915V166.512C253.096 165.797 253.416 165.248 253.875 164.864C254.344 164.48 254.952 164.288 255.699 164.288H255.763C256.488 164.288 257.08 164.469 257.539 164.832C257.997 165.195 258.323 165.717 258.515 166.4C258.717 165.717 259.048 165.195 259.507 164.832C259.976 164.469 260.573 164.288 261.299 164.288H261.363C262.376 164.288 263.128 164.635 263.619 165.328C264.12 166.011 264.371 166.971 264.371 168.208V173.088H262.835V167.872C262.835 167.179 262.664 166.645 262.323 166.272C261.981 165.888 261.507 165.696 260.899 165.696C260.269 165.696 259.763 165.899 259.379 166.304C258.995 166.699 258.803 167.253 258.803 167.968V173.088H257.267V167.872C257.267 167.179 257.096 166.645 256.755 166.272C256.413 165.888 255.939 165.696 255.331 165.696C254.701 165.696 254.195 165.899 253.811 166.304C253.427 166.699 253.235 167.253 253.235 167.968V173.088H251.699ZM270.815 173.376C270.068 173.376 269.423 173.248 268.879 172.992C268.335 172.736 267.892 172.4 267.551 171.984C267.21 171.557 266.954 171.083 266.783 170.56C266.623 170.037 266.543 169.504 266.543 168.96V168.672C266.543 168.117 266.623 167.579 266.783 167.056C266.954 166.533 267.21 166.064 267.551 165.648C267.892 165.221 268.324 164.885 268.847 164.64C269.38 164.384 270.004 164.256 270.719 164.256C271.647 164.256 272.41 164.459 273.007 164.864C273.615 165.259 274.063 165.771 274.351 166.4C274.65 167.029 274.799 167.701 274.799 168.416V169.104H268.015C268.068 169.947 268.319 170.645 268.767 171.2C269.215 171.755 269.898 172.032 270.815 172.032C271.487 172.032 272.031 171.883 272.447 171.584C272.874 171.285 273.13 170.939 273.215 170.544H274.655C274.474 171.429 274.042 172.123 273.359 172.624C272.676 173.125 271.828 173.376 270.815 173.376ZM270.719 165.6C269.951 165.6 269.348 165.819 268.911 166.256C268.474 166.683 268.196 167.248 268.079 167.952H273.295C273.199 167.227 272.938 166.656 272.511 166.24C272.084 165.813 271.487 165.6 270.719 165.6ZM276.98 173.088V164.544H278.196V166.528C278.388 165.803 278.729 165.248 279.22 164.864C279.721 164.48 280.372 164.288 281.172 164.288H281.236C282.313 164.288 283.108 164.624 283.62 165.296C284.142 165.968 284.404 166.939 284.404 168.208V173.088H282.868V167.888C282.868 167.227 282.681 166.699 282.308 166.304C281.934 165.899 281.422 165.696 280.772 165.696C280.1 165.696 279.556 165.904 279.14 166.32C278.724 166.736 278.516 167.291 278.516 167.984V173.088H276.98ZM290.542 173.184C289.902 173.184 289.348 173.093 288.878 172.912C288.42 172.731 288.062 172.421 287.806 171.984C287.561 171.536 287.438 170.933 287.438 170.176V165.696H285.966V164.544H287.438V161.952H288.91V164.544H291.854V165.696H288.91V170.368C288.91 170.827 289.033 171.184 289.278 171.44C289.534 171.685 289.892 171.808 290.35 171.808H291.854V173.184H290.542ZM296.764 173.344C295.644 173.344 294.775 173.104 294.156 172.624C293.548 172.144 293.234 171.488 293.212 170.656H294.652C294.674 170.987 294.839 171.301 295.148 171.6C295.468 171.888 296.007 172.032 296.764 172.032C297.447 172.032 297.97 171.899 298.332 171.632C298.695 171.355 298.876 171.019 298.876 170.624C298.876 170.272 298.743 170 298.476 169.808C298.21 169.605 297.778 169.472 297.18 169.408L296.252 169.312C295.442 169.227 294.78 168.987 294.268 168.592C293.756 168.187 293.5 167.621 293.5 166.896C293.5 166.075 293.804 165.435 294.412 164.976C295.02 164.517 295.804 164.288 296.764 164.288C297.724 164.288 298.503 164.501 299.1 164.928C299.698 165.355 300.007 165.989 300.028 166.832H298.588C298.578 166.491 298.418 166.203 298.108 165.968C297.81 165.723 297.362 165.6 296.764 165.6C296.167 165.6 295.714 165.723 295.404 165.968C295.095 166.213 294.94 166.523 294.94 166.896C294.94 167.216 295.047 167.472 295.26 167.664C295.484 167.856 295.847 167.979 296.348 168.032L297.276 168.128C298.194 168.224 298.93 168.48 299.484 168.896C300.039 169.301 300.316 169.877 300.316 170.624C300.316 171.157 300.162 171.632 299.852 172.048C299.554 172.453 299.138 172.773 298.604 173.008C298.071 173.232 297.458 173.344 296.764 173.344Z" fill="white"/>
<path d="M178.153 213.152V201.344H181.961C183.241 201.344 184.196 201.616 184.825 202.16C185.454 202.693 185.769 203.467 185.769 204.48V204.704C185.769 205.312 185.652 205.813 185.417 206.208C185.182 206.592 184.857 206.891 184.441 207.104C184.996 207.296 185.433 207.605 185.753 208.032C186.084 208.448 186.249 209.013 186.249 209.728V209.952C186.249 210.976 185.934 211.765 185.305 212.32C184.676 212.875 183.721 213.152 182.441 213.152H178.153ZM182.233 202.72H179.721V206.544H182.233C182.894 206.544 183.38 206.368 183.689 206.016C184.009 205.653 184.169 205.195 184.169 204.64C184.169 204.075 184.009 203.616 183.689 203.264C183.38 202.901 182.894 202.72 182.233 202.72ZM182.665 207.856H179.721V211.776H182.665C183.294 211.776 183.78 211.6 184.121 211.248C184.473 210.885 184.649 210.405 184.649 209.808C184.649 209.2 184.478 208.725 184.137 208.384C183.796 208.032 183.305 207.856 182.665 207.856ZM192.374 213.376C191.627 213.376 190.982 213.248 190.438 212.992C189.894 212.736 189.451 212.4 189.11 211.984C188.768 211.557 188.512 211.083 188.342 210.56C188.182 210.037 188.102 209.504 188.102 208.96V208.672C188.102 208.117 188.182 207.579 188.342 207.056C188.512 206.533 188.768 206.064 189.11 205.648C189.451 205.221 189.883 204.885 190.406 204.64C190.939 204.384 191.563 204.256 192.278 204.256C193.206 204.256 193.968 204.459 194.566 204.864C195.174 205.259 195.622 205.771 195.91 206.4C196.208 207.029 196.358 207.701 196.358 208.416V209.104H189.574C189.627 209.947 189.878 210.645 190.326 211.2C190.774 211.755 191.456 212.032 192.374 212.032C193.046 212.032 193.59 211.883 194.006 211.584C194.432 211.285 194.688 210.939 194.774 210.544H196.214C196.032 211.429 195.6 212.123 194.918 212.624C194.235 213.125 193.387 213.376 192.374 213.376ZM192.278 205.6C191.51 205.6 190.907 205.819 190.47 206.256C190.032 206.683 189.755 207.248 189.638 207.952H194.854C194.758 207.227 194.496 206.656 194.07 206.24C193.643 205.813 193.046 205.6 192.278 205.6ZM202.179 213.088V201.408H203.715V206.048C203.95 205.483 204.286 205.051 204.723 204.752C205.171 204.443 205.742 204.288 206.435 204.288H206.499C207.523 204.288 208.296 204.629 208.819 205.312C209.342 205.984 209.603 206.949 209.603 208.208V213.088H208.067V207.888C208.067 207.195 207.87 206.656 207.475 206.272C207.091 205.888 206.59 205.696 205.971 205.696C205.288 205.696 204.739 205.925 204.323 206.384C203.918 206.832 203.715 207.424 203.715 208.16V213.088H202.179ZM216.349 213.376C215.603 213.376 214.947 213.248 214.381 212.992C213.816 212.736 213.336 212.4 212.941 211.984C212.557 211.557 212.264 211.083 212.061 210.56C211.869 210.037 211.773 209.504 211.773 208.96V208.672C211.773 208.128 211.875 207.595 212.077 207.072C212.28 206.539 212.579 206.064 212.973 205.648C213.368 205.221 213.848 204.885 214.413 204.64C214.979 204.384 215.624 204.256 216.349 204.256C217.075 204.256 217.72 204.384 218.285 204.64C218.851 204.885 219.331 205.221 219.725 205.648C220.12 206.064 220.419 206.539 220.621 207.072C220.824 207.595 220.925 208.128 220.925 208.672V208.96C220.925 209.504 220.824 210.037 220.621 210.56C220.429 211.083 220.136 211.557 219.741 211.984C219.357 212.4 218.883 212.736 218.317 212.992C217.752 213.248 217.096 213.376 216.349 213.376ZM216.349 212C216.989 212 217.533 211.861 217.981 211.584C218.44 211.296 218.787 210.912 219.021 210.432C219.267 209.952 219.389 209.413 219.389 208.816C219.389 208.208 219.267 207.664 219.021 207.184C218.776 206.704 218.424 206.325 217.965 206.048C217.517 205.771 216.979 205.632 216.349 205.632C215.731 205.632 215.192 205.771 214.733 206.048C214.275 206.325 213.923 206.704 213.677 207.184C213.432 207.664 213.309 208.208 213.309 208.816C213.309 209.413 213.427 209.952 213.661 210.432C213.907 210.912 214.253 211.296 214.701 211.584C215.16 211.861 215.709 212 216.349 212ZM223.226 213.088V204.544H224.442V206.528C224.634 205.803 224.975 205.248 225.466 204.864C225.967 204.48 226.618 204.288 227.418 204.288H227.482C228.559 204.288 229.354 204.624 229.866 205.296C230.389 205.968 230.65 206.939 230.65 208.208V213.088H229.114V207.888C229.114 207.227 228.927 206.699 228.554 206.304C228.181 205.899 227.669 205.696 227.018 205.696C226.346 205.696 225.802 205.904 225.386 206.32C224.97 206.736 224.762 207.291 224.762 207.984V213.088H223.226ZM237.092 213.376C236.346 213.376 235.7 213.248 235.156 212.992C234.612 212.736 234.17 212.4 233.828 211.984C233.487 211.557 233.231 211.083 233.06 210.56C232.9 210.037 232.82 209.504 232.82 208.96V208.672C232.82 208.117 232.9 207.579 233.06 207.056C233.231 206.533 233.487 206.064 233.828 205.648C234.17 205.221 234.602 204.885 235.124 204.64C235.658 204.384 236.282 204.256 236.996 204.256C237.924 204.256 238.687 204.459 239.284 204.864C239.892 205.259 240.34 205.771 240.628 206.4C240.927 207.029 241.076 207.701 241.076 208.416V209.104H234.292C234.346 209.947 234.596 210.645 235.044 211.2C235.492 211.755 236.175 212.032 237.092 212.032C237.764 212.032 238.308 211.883 238.724 211.584C239.151 211.285 239.407 210.939 239.492 210.544H240.932C240.751 211.429 240.319 212.123 239.636 212.624C238.954 213.125 238.106 213.376 237.092 213.376ZM236.996 205.6C236.228 205.6 235.626 205.819 235.188 206.256C234.751 206.683 234.474 207.248 234.356 207.952H239.572C239.476 207.227 239.215 206.656 238.788 206.24C238.362 205.813 237.764 205.6 236.996 205.6ZM246.057 213.344C244.937 213.344 244.068 213.104 243.449 212.624C242.841 212.144 242.526 211.488 242.505 210.656H243.945C243.966 210.987 244.132 211.301 244.441 211.6C244.761 211.888 245.3 212.032 246.057 212.032C246.74 212.032 247.262 211.899 247.625 211.632C247.988 211.355 248.169 211.019 248.169 210.624C248.169 210.272 248.036 210 247.769 209.808C247.502 209.605 247.07 209.472 246.473 209.408L245.545 209.312C244.734 209.227 244.073 208.987 243.561 208.592C243.049 208.187 242.793 207.621 242.793 206.896C242.793 206.075 243.097 205.435 243.705 204.976C244.313 204.517 245.097 204.288 246.057 204.288C247.017 204.288 247.796 204.501 248.393 204.928C248.99 205.355 249.3 205.989 249.321 206.832H247.881C247.87 206.491 247.71 206.203 247.401 205.968C247.102 205.723 246.654 205.6 246.057 205.6C245.46 205.6 245.006 205.723 244.697 205.968C244.388 206.213 244.233 206.523 244.233 206.896C244.233 207.216 244.34 207.472 244.553 207.664C244.777 207.856 245.14 207.979 245.641 208.032L246.569 208.128C247.486 208.224 248.222 208.48 248.777 208.896C249.332 209.301 249.609 209.877 249.609 210.624C249.609 211.157 249.454 211.632 249.145 212.048C248.846 212.453 248.43 212.773 247.897 213.008C247.364 213.232 246.75 213.344 246.057 213.344ZM255.163 213.184C254.523 213.184 253.969 213.093 253.499 212.912C253.041 212.731 252.683 212.421 252.427 211.984C252.182 211.536 252.059 210.933 252.059 210.176V205.696H250.587V204.544H252.059V201.952H253.531V204.544H256.475V205.696H253.531V210.368C253.531 210.827 253.654 211.184 253.899 211.44C254.155 211.685 254.513 211.808 254.971 211.808H256.475V213.184H255.163ZM258.344 213.088V211.136H260.2V213.088H258.344ZM270.492 213.376C269.521 213.376 268.695 213.216 268.012 212.896C267.329 212.576 266.807 212.133 266.444 211.568C266.081 211.003 265.9 210.363 265.9 209.648H267.468C267.468 210 267.559 210.352 267.74 210.704C267.932 211.056 268.247 211.349 268.684 211.584C269.132 211.819 269.735 211.936 270.492 211.936C271.196 211.936 271.772 211.835 272.22 211.632C272.668 211.419 272.999 211.147 273.212 210.816C273.425 210.475 273.532 210.107 273.532 209.712C273.532 209.232 273.324 208.837 272.908 208.528C272.492 208.208 271.884 208.011 271.084 207.936L269.788 207.824C268.753 207.739 267.927 207.419 267.308 206.864C266.689 206.309 266.38 205.579 266.38 204.672C266.38 203.957 266.551 203.333 266.892 202.8C267.244 202.267 267.729 201.851 268.348 201.552C268.967 201.243 269.687 201.088 270.508 201.088C271.319 201.088 272.033 201.237 272.652 201.536C273.271 201.835 273.751 202.256 274.092 202.8C274.444 203.333 274.62 203.973 274.62 204.72H273.052C273.052 204.347 272.961 203.995 272.78 203.664C272.609 203.333 272.337 203.061 271.964 202.848C271.591 202.635 271.105 202.528 270.508 202.528C269.932 202.528 269.452 202.629 269.068 202.832C268.695 203.035 268.412 203.301 268.22 203.632C268.039 203.952 267.948 204.299 267.948 204.672C267.948 205.099 268.113 205.477 268.444 205.808C268.775 206.139 269.265 206.331 269.916 206.384L271.212 206.496C272.407 206.603 273.351 206.933 274.044 207.488C274.748 208.032 275.1 208.773 275.1 209.712C275.1 210.427 274.908 211.061 274.524 211.616C274.14 212.171 273.601 212.603 272.908 212.912C272.215 213.221 271.409 213.376 270.492 213.376ZM277.507 213.088V201.408H279.043V206.048C279.278 205.483 279.614 205.051 280.051 204.752C280.499 204.443 281.07 204.288 281.763 204.288H281.827C282.851 204.288 283.624 204.629 284.147 205.312C284.67 205.984 284.931 206.949 284.931 208.208V213.088H283.395V207.888C283.395 207.195 283.198 206.656 282.803 206.272C282.419 205.888 281.918 205.696 281.299 205.696C280.616 205.696 280.067 205.925 279.651 206.384C279.246 206.832 279.043 207.424 279.043 208.16V213.088H277.507ZM290.11 213.312C289.139 213.312 288.376 213.072 287.822 212.592C287.278 212.101 287.006 211.413 287.006 210.528C287.006 209.621 287.31 208.939 287.918 208.48C288.526 208.011 289.384 207.776 290.494 207.776H292.654V207.568C292.654 206.384 292.056 205.792 290.862 205.792C290.371 205.792 289.859 205.803 289.326 205.824C288.792 205.845 288.35 205.867 287.998 205.888V204.544C288.339 204.512 288.718 204.491 289.134 204.48C289.56 204.459 289.966 204.448 290.35 204.448C291.662 204.448 292.616 204.688 293.214 205.168C293.822 205.648 294.126 206.485 294.126 207.68V213.088H292.91V211.392C292.526 212.672 291.592 213.312 290.11 213.312ZM290.43 212.096C290.792 212.096 291.139 212.032 291.47 211.904C291.8 211.765 292.072 211.541 292.286 211.232C292.51 210.912 292.632 210.475 292.654 209.92V208.928H290.43C289.811 208.928 289.336 209.077 289.006 209.376C288.675 209.675 288.51 210.059 288.51 210.528C288.51 210.997 288.675 211.376 289.006 211.664C289.336 211.952 289.811 212.096 290.43 212.096ZM296.945 213.088V204.544H298.161V207.104C298.289 206.187 298.625 205.515 299.169 205.088C299.713 204.661 300.454 204.448 301.393 204.448H301.681V205.824H301.137C300.283 205.824 299.627 206.053 299.169 206.512C298.71 206.96 298.481 207.611 298.481 208.464V213.088H296.945ZM307.045 213.376C306.299 213.376 305.653 213.248 305.109 212.992C304.565 212.736 304.123 212.4 303.781 211.984C303.44 211.557 303.184 211.083 303.013 210.56C302.853 210.037 302.773 209.504 302.773 208.96V208.672C302.773 208.117 302.853 207.579 303.013 207.056C303.184 206.533 303.44 206.064 303.781 205.648C304.123 205.221 304.555 204.885 305.077 204.64C305.611 204.384 306.235 204.256 306.949 204.256C307.877 204.256 308.64 204.459 309.237 204.864C309.845 205.259 310.293 205.771 310.581 206.4C310.88 207.029 311.029 207.701 311.029 208.416V209.104H304.245C304.299 209.947 304.549 210.645 304.997 211.2C305.445 211.755 306.128 212.032 307.045 212.032C307.717 212.032 308.261 211.883 308.677 211.584C309.104 211.285 309.36 210.939 309.445 210.544H310.885C310.704 211.429 310.272 212.123 309.589 212.624C308.907 213.125 308.059 213.376 307.045 213.376ZM306.949 205.6C306.181 205.6 305.579 205.819 305.141 206.256C304.704 206.683 304.427 207.248 304.309 207.952H309.525C309.429 207.227 309.168 206.656 308.741 206.24C308.315 205.813 307.717 205.6 306.949 205.6ZM189.692 232.896L186.636 224.544H188.204L190.684 231.616H191.02L193.116 224.544H194.62L191.772 234C191.516 234.843 191.105 235.456 190.54 235.84C189.974 236.224 189.254 236.416 188.38 236.416H187.244V235.04H188.476C189.009 235.04 189.425 234.933 189.724 234.72C190.033 234.507 190.268 234.133 190.428 233.6L190.636 232.896H189.692ZM200.349 233.376C199.603 233.376 198.947 233.248 198.381 232.992C197.816 232.736 197.336 232.4 196.941 231.984C196.557 231.557 196.264 231.083 196.061 230.56C195.869 230.037 195.773 229.504 195.773 228.96V228.672C195.773 228.128 195.875 227.595 196.077 227.072C196.28 226.539 196.579 226.064 196.973 225.648C197.368 225.221 197.848 224.885 198.413 224.64C198.979 224.384 199.624 224.256 200.349 224.256C201.075 224.256 201.72 224.384 202.285 224.64C202.851 224.885 203.331 225.221 203.725 225.648C204.12 226.064 204.419 226.539 204.621 227.072C204.824 227.595 204.925 228.128 204.925 228.672V228.96C204.925 229.504 204.824 230.037 204.621 230.56C204.429 231.083 204.136 231.557 203.741 231.984C203.357 232.4 202.883 232.736 202.317 232.992C201.752 233.248 201.096 233.376 200.349 233.376ZM200.349 232C200.989 232 201.533 231.861 201.981 231.584C202.44 231.296 202.787 230.912 203.021 230.432C203.267 229.952 203.389 229.413 203.389 228.816C203.389 228.208 203.267 227.664 203.021 227.184C202.776 226.704 202.424 226.325 201.965 226.048C201.517 225.771 200.979 225.632 200.349 225.632C199.731 225.632 199.192 225.771 198.733 226.048C198.275 226.325 197.923 226.704 197.677 227.184C197.432 227.664 197.309 228.208 197.309 228.816C197.309 229.413 197.427 229.952 197.661 230.432C197.907 230.912 198.253 231.296 198.701 231.584C199.16 231.861 199.709 232 200.349 232ZM210.186 233.344C209.173 233.344 208.394 233.013 207.85 232.352C207.306 231.691 207.034 230.736 207.034 229.488V224.528H208.57V229.792C208.57 230.464 208.751 230.992 209.114 231.376C209.477 231.749 209.967 231.936 210.586 231.936C211.226 231.936 211.749 231.733 212.154 231.328C212.559 230.912 212.762 230.347 212.762 229.632V224.528H214.298V233.088H213.082V231.12C212.89 231.845 212.559 232.4 212.09 232.784C211.621 233.157 211.007 233.344 210.25 233.344H210.186ZM217.273 233.088V224.544H218.489V227.104C218.617 226.187 218.953 225.515 219.497 225.088C220.041 224.661 220.782 224.448 221.721 224.448H222.009V225.824H221.465C220.611 225.824 219.955 226.053 219.497 226.512C219.038 226.96 218.809 227.611 218.809 228.464V233.088H217.273ZM230.276 233.344C229.156 233.344 228.287 233.104 227.668 232.624C227.06 232.144 226.745 231.488 226.724 230.656H228.164C228.185 230.987 228.351 231.301 228.66 231.6C228.98 231.888 229.519 232.032 230.276 232.032C230.959 232.032 231.481 231.899 231.844 231.632C232.207 231.355 232.388 231.019 232.388 230.624C232.388 230.272 232.255 230 231.988 229.808C231.721 229.605 231.289 229.472 230.692 229.408L229.764 229.312C228.953 229.227 228.292 228.987 227.78 228.592C227.268 228.187 227.012 227.621 227.012 226.896C227.012 226.075 227.316 225.435 227.924 224.976C228.532 224.517 229.316 224.288 230.276 224.288C231.236 224.288 232.015 224.501 232.612 224.928C233.209 225.355 233.519 225.989 233.54 226.832H232.1C232.089 226.491 231.929 226.203 231.62 225.968C231.321 225.723 230.873 225.6 230.276 225.6C229.679 225.6 229.225 225.723 228.916 225.968C228.607 226.213 228.452 226.523 228.452 226.896C228.452 227.216 228.559 227.472 228.772 227.664C228.996 227.856 229.359 227.979 229.86 228.032L230.788 228.128C231.705 228.224 232.441 228.48 232.996 228.896C233.551 229.301 233.828 229.877 233.828 230.624C233.828 231.157 233.673 231.632 233.364 232.048C233.065 232.453 232.649 232.773 232.116 233.008C231.583 233.232 230.969 233.344 230.276 233.344ZM239.382 233.184C238.742 233.184 238.187 233.093 237.718 232.912C237.259 232.731 236.902 232.421 236.646 231.984C236.401 231.536 236.278 230.933 236.278 230.176V225.696H234.806V224.544H236.278V221.952H237.75V224.544H240.694V225.696H237.75V230.368C237.75 230.827 237.873 231.184 238.118 231.44C238.374 231.685 238.731 231.808 239.19 231.808H240.694V233.184H239.382ZM246.74 233.376C245.993 233.376 245.337 233.248 244.772 232.992C244.207 232.736 243.727 232.4 243.332 231.984C242.948 231.557 242.655 231.083 242.452 230.56C242.26 230.037 242.164 229.504 242.164 228.96V228.672C242.164 228.128 242.265 227.595 242.468 227.072C242.671 226.539 242.969 226.064 243.364 225.648C243.759 225.221 244.239 224.885 244.804 224.64C245.369 224.384 246.015 224.256 246.74 224.256C247.465 224.256 248.111 224.384 248.676 224.64C249.241 224.885 249.721 225.221 250.116 225.648C250.511 226.064 250.809 226.539 251.012 227.072C251.215 227.595 251.316 228.128 251.316 228.672V228.96C251.316 229.504 251.215 230.037 251.012 230.56C250.82 231.083 250.527 231.557 250.132 231.984C249.748 232.4 249.273 232.736 248.708 232.992C248.143 233.248 247.487 233.376 246.74 233.376ZM246.74 232C247.38 232 247.924 231.861 248.372 231.584C248.831 231.296 249.177 230.912 249.412 230.432C249.657 229.952 249.78 229.413 249.78 228.816C249.78 228.208 249.657 227.664 249.412 227.184C249.167 226.704 248.815 226.325 248.356 226.048C247.908 225.771 247.369 225.632 246.74 225.632C246.121 225.632 245.583 225.771 245.124 226.048C244.665 226.325 244.313 226.704 244.068 227.184C243.823 227.664 243.7 228.208 243.7 228.816C243.7 229.413 243.817 229.952 244.052 230.432C244.297 230.912 244.644 231.296 245.092 231.584C245.551 231.861 246.1 232 246.74 232ZM253.617 233.088V224.544H254.833V227.104C254.961 226.187 255.297 225.515 255.841 225.088C256.385 224.661 257.126 224.448 258.065 224.448H258.353V225.824H257.809C256.955 225.824 256.299 226.053 255.841 226.512C255.382 226.96 255.153 227.611 255.153 228.464V233.088H253.617ZM262.332 232.896L259.276 224.544H260.844L263.324 231.616H263.66L265.756 224.544H267.26L264.412 234C264.156 234.843 263.746 235.456 263.18 235.84C262.615 236.224 261.895 236.416 261.02 236.416H259.884V235.04H261.116C261.65 235.04 262.066 234.933 262.364 234.72C262.674 234.507 262.908 234.133 263.068 233.6L263.276 232.896H262.332ZM275.219 233.312C274.248 233.312 273.486 233.072 272.931 232.592C272.387 232.101 272.115 231.413 272.115 230.528C272.115 229.621 272.419 228.939 273.027 228.48C273.635 228.011 274.494 227.776 275.603 227.776H277.763V227.568C277.763 226.384 277.166 225.792 275.971 225.792C275.48 225.792 274.968 225.803 274.435 225.824C273.902 225.845 273.459 225.867 273.107 225.888V224.544C273.448 224.512 273.827 224.491 274.243 224.48C274.67 224.459 275.075 224.448 275.459 224.448C276.771 224.448 277.726 224.688 278.323 225.168C278.931 225.648 279.235 226.485 279.235 227.68V233.088H278.019V231.392C277.635 232.672 276.702 233.312 275.219 233.312ZM275.539 232.096C275.902 232.096 276.248 232.032 276.579 231.904C276.91 231.765 277.182 231.541 277.395 231.232C277.619 230.912 277.742 230.475 277.763 229.92V228.928H275.539C274.92 228.928 274.446 229.077 274.115 229.376C273.784 229.675 273.619 230.059 273.619 230.528C273.619 230.997 273.784 231.376 274.115 231.664C274.446 231.952 274.92 232.096 275.539 232.096ZM282.054 233.088V224.544H283.27V226.528C283.462 225.803 283.803 225.248 284.294 224.864C284.795 224.48 285.446 224.288 286.246 224.288H286.31C287.387 224.288 288.182 224.624 288.694 225.296C289.217 225.968 289.478 226.939 289.478 228.208V233.088H287.942V227.888C287.942 227.227 287.755 226.699 287.382 226.304C287.009 225.899 286.497 225.696 285.846 225.696C285.174 225.696 284.63 225.904 284.214 226.32C283.798 226.736 283.59 227.291 283.59 227.984V233.088H282.054ZM295.856 233.376C295.046 233.376 294.32 233.179 293.68 232.784C293.051 232.389 292.555 231.861 292.192 231.2C291.83 230.528 291.648 229.781 291.648 228.96V228.672C291.648 227.861 291.824 227.125 292.176 226.464C292.528 225.792 293.014 225.259 293.632 224.864C294.262 224.459 294.987 224.256 295.808 224.256C296.438 224.256 297.014 224.384 297.536 224.64C298.07 224.896 298.502 225.296 298.832 225.84V221.408H300.368V233.088H299.152V231.328C298.822 232.053 298.358 232.576 297.76 232.896C297.174 233.216 296.539 233.376 295.856 233.376ZM296.064 232.032C296.587 232.032 297.062 231.915 297.488 231.68C297.915 231.445 298.256 231.109 298.512 230.672C298.768 230.224 298.896 229.701 298.896 229.104V228.368C298.896 227.781 298.763 227.285 298.496 226.88C298.24 226.464 297.894 226.149 297.456 225.936C297.03 225.712 296.56 225.6 296.048 225.6C295.195 225.6 294.502 225.893 293.968 226.48C293.446 227.067 293.184 227.845 293.184 228.816C293.184 229.467 293.307 230.037 293.552 230.528C293.798 231.008 294.139 231.381 294.576 231.648C295.014 231.904 295.51 232.032 296.064 232.032ZM173.773 256.288V244.544H174.989V246.64C175.277 245.819 175.725 245.216 176.333 244.832C176.941 244.448 177.623 244.256 178.381 244.256C179.213 244.256 179.933 244.459 180.541 244.864C181.159 245.269 181.639 245.808 181.981 246.48C182.322 247.141 182.493 247.872 182.493 248.672V248.96C182.493 249.76 182.317 250.496 181.965 251.168C181.613 251.829 181.122 252.363 180.493 252.768C179.874 253.173 179.159 253.376 178.349 253.376C177.762 253.376 177.197 253.253 176.653 253.008C176.109 252.763 175.661 252.363 175.309 251.808V256.288H173.773ZM178.109 252.032C178.685 252.032 179.186 251.899 179.613 251.632C180.039 251.355 180.37 250.976 180.605 250.496C180.839 250.005 180.957 249.445 180.957 248.816C180.957 248.176 180.839 247.616 180.605 247.136C180.37 246.656 180.039 246.283 179.613 246.016C179.186 245.739 178.685 245.6 178.109 245.6C177.597 245.6 177.122 245.717 176.685 245.952C176.247 246.176 175.895 246.507 175.629 246.944C175.373 247.371 175.245 247.888 175.245 248.496V249.232C175.245 249.819 175.378 250.32 175.645 250.736C175.911 251.152 176.263 251.472 176.701 251.696C177.138 251.92 177.607 252.032 178.109 252.032ZM184.804 253.088V244.544H186.02V247.104C186.148 246.187 186.484 245.515 187.028 245.088C187.572 244.661 188.313 244.448 189.252 244.448H189.54V245.824H188.996C188.143 245.824 187.487 246.053 187.028 246.512C186.569 246.96 186.34 247.611 186.34 248.464V253.088H184.804ZM195.209 253.376C194.462 253.376 193.806 253.248 193.241 252.992C192.675 252.736 192.195 252.4 191.801 251.984C191.417 251.557 191.123 251.083 190.921 250.56C190.729 250.037 190.633 249.504 190.633 248.96V248.672C190.633 248.128 190.734 247.595 190.937 247.072C191.139 246.539 191.438 246.064 191.833 245.648C192.227 245.221 192.707 244.885 193.273 244.64C193.838 244.384 194.483 244.256 195.209 244.256C195.934 244.256 196.579 244.384 197.145 244.64C197.71 244.885 198.19 245.221 198.585 245.648C198.979 246.064 199.278 246.539 199.481 247.072C199.683 247.595 199.785 248.128 199.785 248.672V248.96C199.785 249.504 199.683 250.037 199.481 250.56C199.289 251.083 198.995 251.557 198.601 251.984C198.217 252.4 197.742 252.736 197.177 252.992C196.611 253.248 195.955 253.376 195.209 253.376ZM195.209 252C195.849 252 196.393 251.861 196.841 251.584C197.299 251.296 197.646 250.912 197.881 250.432C198.126 249.952 198.249 249.413 198.249 248.816C198.249 248.208 198.126 247.664 197.881 247.184C197.635 246.704 197.283 246.325 196.825 246.048C196.377 245.771 195.838 245.632 195.209 245.632C194.59 245.632 194.051 245.771 193.593 246.048C193.134 246.325 192.782 246.704 192.537 247.184C192.291 247.664 192.169 248.208 192.169 248.816C192.169 249.413 192.286 249.952 192.521 250.432C192.766 250.912 193.113 251.296 193.561 251.584C194.019 251.861 194.569 252 195.209 252ZM203.753 253.088L200.841 244.544H202.441L204.889 251.872H205.225L207.353 244.544H208.857L206.329 253.088H203.753ZM211.715 243.168C211.373 243.168 211.117 243.077 210.947 242.896C210.787 242.715 210.707 242.485 210.707 242.208C210.707 241.931 210.787 241.701 210.947 241.52C211.117 241.339 211.373 241.248 211.715 241.248C212.056 241.248 212.307 241.339 212.467 241.52C212.637 241.701 212.723 241.931 212.723 242.208C212.723 242.485 212.637 242.715 212.467 242.896C212.307 243.077 212.056 243.168 211.715 243.168ZM211.283 253.088V245.76H209.971V244.544H212.819V253.088H211.283ZM219.356 253.376C218.546 253.376 217.82 253.179 217.18 252.784C216.551 252.389 216.055 251.861 215.692 251.2C215.33 250.528 215.148 249.781 215.148 248.96V248.672C215.148 247.861 215.324 247.125 215.676 246.464C216.028 245.792 216.514 245.259 217.132 244.864C217.762 244.459 218.487 244.256 219.308 244.256C219.938 244.256 220.514 244.384 221.036 244.64C221.57 244.896 222.002 245.296 222.332 245.84V241.408H223.868V253.088H222.652V251.328C222.322 252.053 221.858 252.576 221.26 252.896C220.674 253.216 220.039 253.376 219.356 253.376ZM219.564 252.032C220.087 252.032 220.562 251.915 220.988 251.68C221.415 251.445 221.756 251.109 222.012 250.672C222.268 250.224 222.396 249.701 222.396 249.104V248.368C222.396 247.781 222.263 247.285 221.996 246.88C221.74 246.464 221.394 246.149 220.956 245.936C220.53 245.712 220.06 245.6 219.548 245.6C218.695 245.6 218.002 245.893 217.468 246.48C216.946 247.067 216.684 247.845 216.684 248.816C216.684 249.467 216.807 250.037 217.052 250.528C217.298 251.008 217.639 251.381 218.076 251.648C218.514 251.904 219.01 252.032 219.564 252.032ZM230.452 253.376C229.705 253.376 229.06 253.248 228.516 252.992C227.972 252.736 227.529 252.4 227.188 251.984C226.846 251.557 226.59 251.083 226.42 250.56C226.26 250.037 226.18 249.504 226.18 248.96V248.672C226.18 248.117 226.26 247.579 226.42 247.056C226.59 246.533 226.846 246.064 227.188 245.648C227.529 245.221 227.961 244.885 228.484 244.64C229.017 244.384 229.641 244.256 230.356 244.256C231.284 244.256 232.046 244.459 232.644 244.864C233.252 245.259 233.7 245.771 233.988 246.4C234.286 247.029 234.436 247.701 234.436 248.416V249.104H227.652C227.705 249.947 227.956 250.645 228.404 251.2C228.852 251.755 229.534 252.032 230.452 252.032C231.124 252.032 231.668 251.883 232.084 251.584C232.51 251.285 232.766 250.939 232.852 250.544H234.292C234.11 251.429 233.678 252.123 232.996 252.624C232.313 253.125 231.465 253.376 230.452 253.376ZM230.356 245.6C229.588 245.6 228.985 245.819 228.548 246.256C228.11 246.683 227.833 247.248 227.716 247.952H232.932C232.836 247.227 232.574 246.656 232.148 246.24C231.721 245.813 231.124 245.6 230.356 245.6ZM240.257 256.288V244.544H241.473V246.64C241.761 245.819 242.209 245.216 242.817 244.832C243.425 244.448 244.108 244.256 244.865 244.256C245.697 244.256 246.417 244.459 247.025 244.864C247.644 245.269 248.124 245.808 248.465 246.48C248.806 247.141 248.977 247.872 248.977 248.672V248.96C248.977 249.76 248.801 250.496 248.449 251.168C248.097 251.829 247.606 252.363 246.977 252.768C246.358 253.173 245.644 253.376 244.833 253.376C244.246 253.376 243.681 253.253 243.137 253.008C242.593 252.763 242.145 252.363 241.793 251.808V256.288H240.257ZM244.593 252.032C245.169 252.032 245.67 251.899 246.097 251.632C246.524 251.355 246.854 250.976 247.089 250.496C247.324 250.005 247.441 249.445 247.441 248.816C247.441 248.176 247.324 247.616 247.089 247.136C246.854 246.656 246.524 246.283 246.097 246.016C245.67 245.739 245.169 245.6 244.593 245.6C244.081 245.6 243.606 245.717 243.169 245.952C242.732 246.176 242.38 246.507 242.113 246.944C241.857 247.371 241.729 247.888 241.729 248.496V249.232C241.729 249.819 241.862 250.32 242.129 250.736C242.396 251.152 242.748 251.472 243.185 251.696C243.622 251.92 244.092 252.032 244.593 252.032ZM251.288 253.088V244.544H252.504V247.104C252.632 246.187 252.968 245.515 253.512 245.088C254.056 244.661 254.798 244.448 255.736 244.448H256.024V245.824H255.48C254.627 245.824 253.971 246.053 253.512 246.512C253.054 246.96 252.824 247.611 252.824 248.464V253.088H251.288ZM261.693 253.376C260.946 253.376 260.29 253.248 259.725 252.992C259.16 252.736 258.68 252.4 258.285 251.984C257.901 251.557 257.608 251.083 257.405 250.56C257.213 250.037 257.117 249.504 257.117 248.96V248.672C257.117 248.128 257.218 247.595 257.421 247.072C257.624 246.539 257.922 246.064 258.317 245.648C258.712 245.221 259.192 244.885 259.757 244.64C260.322 244.384 260.968 244.256 261.693 244.256C262.418 244.256 263.064 244.384 263.629 244.64C264.194 244.885 264.674 245.221 265.069 245.648C265.464 246.064 265.762 246.539 265.965 247.072C266.168 247.595 266.269 248.128 266.269 248.672V248.96C266.269 249.504 266.168 250.037 265.965 250.56C265.773 251.083 265.48 251.557 265.085 251.984C264.701 252.4 264.226 252.736 263.661 252.992C263.096 253.248 262.44 253.376 261.693 253.376ZM261.693 252C262.333 252 262.877 251.861 263.325 251.584C263.784 251.296 264.13 250.912 264.365 250.432C264.61 249.952 264.733 249.413 264.733 248.816C264.733 248.208 264.61 247.664 264.365 247.184C264.12 246.704 263.768 246.325 263.309 246.048C262.861 245.771 262.322 245.632 261.693 245.632C261.074 245.632 260.536 245.771 260.077 246.048C259.618 246.325 259.266 246.704 259.021 247.184C258.776 247.664 258.653 248.208 258.653 248.816C258.653 249.413 258.77 249.952 259.005 250.432C259.25 250.912 259.597 251.296 260.045 251.584C260.504 251.861 261.053 252 261.693 252ZM272.506 253.376C271.759 253.376 271.103 253.248 270.538 252.992C269.972 252.736 269.492 252.4 269.098 251.984C268.714 251.557 268.42 251.083 268.218 250.56C268.026 250.037 267.93 249.504 267.93 248.96V248.672C267.93 248.128 268.031 247.595 268.234 247.072C268.436 246.539 268.735 246.064 269.13 245.648C269.524 245.221 270.004 244.885 270.57 244.64C271.135 244.384 271.78 244.256 272.506 244.256C273.231 244.256 273.876 244.384 274.442 244.64C275.007 244.885 275.487 245.221 275.882 245.648C276.276 246.064 276.575 246.539 276.778 247.072C276.98 247.595 277.082 248.128 277.082 248.672V248.96C277.082 249.504 276.98 250.037 276.778 250.56C276.586 251.083 276.292 251.557 275.898 251.984C275.514 252.4 275.039 252.736 274.474 252.992C273.908 253.248 273.252 253.376 272.506 253.376ZM272.506 252C273.146 252 273.69 251.861 274.138 251.584C274.596 251.296 274.943 250.912 275.178 250.432C275.423 249.952 275.546 249.413 275.546 248.816C275.546 248.208 275.423 247.664 275.178 247.184C274.932 246.704 274.58 246.325 274.122 246.048C273.674 245.771 273.135 245.632 272.506 245.632C271.887 245.632 271.348 245.771 270.89 246.048C270.431 246.325 270.079 246.704 269.834 247.184C269.588 247.664 269.466 248.208 269.466 248.816C269.466 249.413 269.583 249.952 269.818 250.432C270.063 250.912 270.41 251.296 270.858 251.584C271.316 251.861 271.866 252 272.506 252ZM279.606 253.088V245.792H278.422V244.64H279.606V244.112C279.606 243.163 279.857 242.464 280.358 242.016C280.859 241.568 281.595 241.344 282.566 241.344H283.622V242.624H282.31C281.915 242.624 281.611 242.736 281.398 242.96C281.185 243.173 281.078 243.472 281.078 243.856V244.64H283.782V245.792H281.078V253.088H279.606ZM289.181 253.088V242.624H287.997V241.408H290.717V253.088H289.181ZM294.511 243.168C294.17 243.168 293.914 243.077 293.743 242.896C293.583 242.715 293.503 242.485 293.503 242.208C293.503 241.931 293.583 241.701 293.743 241.52C293.914 241.339 294.17 241.248 294.511 241.248C294.853 241.248 295.103 241.339 295.263 241.52C295.434 241.701 295.519 241.931 295.519 242.208C295.519 242.485 295.434 242.715 295.263 242.896C295.103 243.077 294.853 243.168 294.511 243.168ZM294.079 253.088V245.76H292.767V244.544H295.615V253.088H294.079ZM298.585 253.088V241.408H300.121V248.784L303.769 244.544H305.385L302.233 248.192L306.249 253.088H304.473L301.257 249.104H300.121V253.088H298.585ZM311.202 253.376C310.455 253.376 309.81 253.248 309.266 252.992C308.722 252.736 308.279 252.4 307.938 251.984C307.596 251.557 307.34 251.083 307.17 250.56C307.01 250.037 306.93 249.504 306.93 248.96V248.672C306.93 248.117 307.01 247.579 307.17 247.056C307.34 246.533 307.596 246.064 307.938 245.648C308.279 245.221 308.711 244.885 309.234 244.64C309.767 244.384 310.391 244.256 311.106 244.256C312.034 244.256 312.796 244.459 313.394 244.864C314.002 245.259 314.45 245.771 314.738 246.4C315.036 247.029 315.186 247.701 315.186 248.416V249.104H308.402C308.455 249.947 308.706 250.645 309.154 251.2C309.602 251.755 310.284 252.032 311.202 252.032C311.874 252.032 312.418 251.883 312.834 251.584C313.26 251.285 313.516 250.939 313.602 250.544H315.042C314.86 251.429 314.428 252.123 313.746 252.624C313.063 253.125 312.215 253.376 311.202 253.376ZM311.106 245.6C310.338 245.6 309.735 245.819 309.298 246.256C308.86 246.683 308.583 247.248 308.466 247.952H313.682C313.586 247.227 313.324 246.656 312.898 246.24C312.471 245.813 311.874 245.6 311.106 245.6ZM179.96 273.088V264.544H181.176V266.512C181.358 265.797 181.678 265.248 182.136 264.864C182.606 264.48 183.214 264.288 183.96 264.288H184.024C184.75 264.288 185.342 264.469 185.8 264.832C186.259 265.195 186.584 265.717 186.776 266.4C186.979 265.717 187.31 265.195 187.768 264.832C188.238 264.469 188.835 264.288 189.56 264.288H189.624C190.638 264.288 191.39 264.635 191.88 265.328C192.382 266.011 192.632 266.971 192.632 268.208V273.088H191.096V267.872C191.096 267.179 190.926 266.645 190.584 266.272C190.243 265.888 189.768 265.696 189.16 265.696C188.531 265.696 188.024 265.899 187.64 266.304C187.256 266.699 187.064 267.253 187.064 267.968V273.088H185.528V267.872C185.528 267.179 185.358 266.645 185.016 266.272C184.675 265.888 184.2 265.696 183.592 265.696C182.963 265.696 182.456 265.899 182.072 266.304C181.688 266.699 181.496 267.253 181.496 267.968V273.088H179.96ZM199.077 273.376C198.33 273.376 197.685 273.248 197.141 272.992C196.597 272.736 196.154 272.4 195.813 271.984C195.471 271.557 195.215 271.083 195.045 270.56C194.885 270.037 194.805 269.504 194.805 268.96V268.672C194.805 268.117 194.885 267.579 195.045 267.056C195.215 266.533 195.471 266.064 195.813 265.648C196.154 265.221 196.586 264.885 197.109 264.64C197.642 264.384 198.266 264.256 198.981 264.256C199.909 264.256 200.671 264.459 201.269 264.864C201.877 265.259 202.325 265.771 202.613 266.4C202.911 267.029 203.061 267.701 203.061 268.416V269.104H196.277C196.33 269.947 196.581 270.645 197.029 271.2C197.477 271.755 198.159 272.032 199.077 272.032C199.749 272.032 200.293 271.883 200.709 271.584C201.135 271.285 201.391 270.939 201.477 270.544H202.917C202.735 271.429 202.303 272.123 201.621 272.624C200.938 273.125 200.09 273.376 199.077 273.376ZM198.981 265.6C198.213 265.6 197.61 265.819 197.173 266.256C196.735 266.683 196.458 267.248 196.341 267.952H201.557C201.461 267.227 201.199 266.656 200.773 266.24C200.346 265.813 199.749 265.6 198.981 265.6ZM208.81 273.376C207.999 273.376 207.274 273.179 206.634 272.784C206.004 272.389 205.508 271.861 205.146 271.2C204.783 270.528 204.602 269.781 204.602 268.96V268.672C204.602 267.861 204.778 267.125 205.13 266.464C205.482 265.792 205.967 265.259 206.586 264.864C207.215 264.459 207.94 264.256 208.762 264.256C209.391 264.256 209.967 264.384 210.49 264.64C211.023 264.896 211.455 265.296 211.786 265.84V261.408H213.322V273.088H212.106V271.328C211.775 272.053 211.311 272.576 210.714 272.896C210.127 273.216 209.492 273.376 208.81 273.376ZM209.018 272.032C209.54 272.032 210.015 271.915 210.442 271.68C210.868 271.445 211.21 271.109 211.466 270.672C211.722 270.224 211.85 269.701 211.85 269.104V268.368C211.85 267.781 211.716 267.285 211.45 266.88C211.194 266.464 210.847 266.149 210.41 265.936C209.983 265.712 209.514 265.6 209.002 265.6C208.148 265.6 207.455 265.893 206.922 266.48C206.399 267.067 206.138 267.845 206.138 268.816C206.138 269.467 206.26 270.037 206.506 270.528C206.751 271.008 207.092 271.381 207.53 271.648C207.967 271.904 208.463 272.032 209.018 272.032ZM217.121 263.168C216.779 263.168 216.523 263.077 216.353 262.896C216.193 262.715 216.113 262.485 216.113 262.208C216.113 261.931 216.193 261.701 216.353 261.52C216.523 261.339 216.779 261.248 217.121 261.248C217.462 261.248 217.713 261.339 217.873 261.52C218.043 261.701 218.129 261.931 218.129 262.208C218.129 262.485 218.043 262.715 217.873 262.896C217.713 263.077 217.462 263.168 217.121 263.168ZM216.689 273.088V265.76H215.377V264.544H218.225V273.088H216.689ZM224.859 273.376C224.123 273.376 223.483 273.248 222.939 272.992C222.405 272.736 221.963 272.395 221.611 271.968C221.259 271.531 220.992 271.051 220.811 270.528C220.64 270.005 220.555 269.483 220.555 268.96V268.672C220.555 268.128 220.64 267.595 220.811 267.072C220.992 266.549 221.259 266.08 221.611 265.664C221.973 265.237 222.421 264.896 222.955 264.64C223.488 264.384 224.112 264.256 224.827 264.256C225.541 264.256 226.181 264.389 226.747 264.656C227.323 264.923 227.781 265.301 228.123 265.792C228.475 266.272 228.672 266.843 228.715 267.504H227.243C227.168 266.971 226.923 266.528 226.507 266.176C226.091 265.813 225.531 265.632 224.827 265.632C224.219 265.632 223.712 265.771 223.307 266.048C222.901 266.325 222.597 266.704 222.395 267.184C222.192 267.664 222.091 268.208 222.091 268.816C222.091 269.403 222.192 269.941 222.395 270.432C222.597 270.912 222.901 271.296 223.307 271.584C223.723 271.861 224.24 272 224.859 272C225.573 272 226.149 271.819 226.587 271.456C227.024 271.083 227.275 270.624 227.339 270.08H228.811C228.779 270.752 228.581 271.333 228.219 271.824C227.867 272.315 227.397 272.699 226.811 272.976C226.235 273.243 225.584 273.376 224.859 273.376ZM233.266 273.312C232.295 273.312 231.532 273.072 230.978 272.592C230.434 272.101 230.162 271.413 230.162 270.528C230.162 269.621 230.466 268.939 231.074 268.48C231.682 268.011 232.54 267.776 233.65 267.776H235.81V267.568C235.81 266.384 235.212 265.792 234.018 265.792C233.527 265.792 233.015 265.803 232.482 265.824C231.948 265.845 231.506 265.867 231.154 265.888V264.544C231.495 264.512 231.874 264.491 232.29 264.48C232.716 264.459 233.122 264.448 233.506 264.448C234.818 264.448 235.772 264.688 236.37 265.168C236.978 265.648 237.282 266.485 237.282 267.68V273.088H236.066V271.392C235.682 272.672 234.748 273.312 233.266 273.312ZM233.586 272.096C233.948 272.096 234.295 272.032 234.626 271.904C234.956 271.765 235.228 271.541 235.442 271.232C235.666 270.912 235.788 270.475 235.81 269.92V268.928H233.586C232.967 268.928 232.492 269.077 232.162 269.376C231.831 269.675 231.666 270.059 231.666 270.528C231.666 270.997 231.831 271.376 232.162 271.664C232.492 271.952 232.967 272.096 233.586 272.096ZM240.197 273.088V262.624H239.013V261.408H241.733V273.088H240.197ZM248.32 273.088V264.544H249.536V267.104C249.664 266.187 250 265.515 250.544 265.088C251.088 264.661 251.829 264.448 252.768 264.448H253.056V265.824H252.512C251.658 265.824 251.002 266.053 250.544 266.512C250.085 266.96 249.856 267.611 249.856 268.464V273.088H248.32ZM258.42 273.376C257.674 273.376 257.028 273.248 256.484 272.992C255.94 272.736 255.498 272.4 255.156 271.984C254.815 271.557 254.559 271.083 254.388 270.56C254.228 270.037 254.148 269.504 254.148 268.96V268.672C254.148 268.117 254.228 267.579 254.388 267.056C254.559 266.533 254.815 266.064 255.156 265.648C255.498 265.221 255.93 264.885 256.452 264.64C256.986 264.384 257.61 264.256 258.324 264.256C259.252 264.256 260.015 264.459 260.612 264.864C261.22 265.259 261.668 265.771 261.956 266.4C262.255 267.029 262.404 267.701 262.404 268.416V269.104H255.62C255.674 269.947 255.924 270.645 256.372 271.2C256.82 271.755 257.503 272.032 258.42 272.032C259.092 272.032 259.636 271.883 260.052 271.584C260.479 271.285 260.735 270.939 260.82 270.544H262.26C262.079 271.429 261.647 272.123 260.964 272.624C260.282 273.125 259.434 273.376 258.42 273.376ZM258.324 265.6C257.556 265.6 256.954 265.819 256.516 266.256C256.079 266.683 255.802 267.248 255.684 267.952H260.9C260.804 267.227 260.543 266.656 260.116 266.24C259.69 265.813 259.092 265.6 258.324 265.6ZM268.249 273.376C267.513 273.376 266.873 273.248 266.329 272.992C265.796 272.736 265.353 272.395 265.001 271.968C264.649 271.531 264.383 271.051 264.201 270.528C264.031 270.005 263.945 269.483 263.945 268.96V268.672C263.945 268.128 264.031 267.595 264.201 267.072C264.383 266.549 264.649 266.08 265.001 265.664C265.364 265.237 265.812 264.896 266.345 264.64C266.879 264.384 267.503 264.256 268.217 264.256C268.932 264.256 269.572 264.389 270.137 264.656C270.713 264.923 271.172 265.301 271.513 265.792C271.865 266.272 272.063 266.843 272.105 267.504H270.633C270.559 266.971 270.313 266.528 269.897 266.176C269.481 265.813 268.921 265.632 268.217 265.632C267.609 265.632 267.103 265.771 266.697 266.048C266.292 266.325 265.988 266.704 265.785 267.184C265.583 267.664 265.481 268.208 265.481 268.816C265.481 269.403 265.583 269.941 265.785 270.432C265.988 270.912 266.292 271.296 266.697 271.584C267.113 271.861 267.631 272 268.249 272C268.964 272 269.54 271.819 269.977 271.456C270.415 271.083 270.665 270.624 270.729 270.08H272.201C272.169 270.752 271.972 271.333 271.609 271.824C271.257 272.315 270.788 272.699 270.201 272.976C269.625 273.243 268.975 273.376 268.249 273.376ZM278.224 273.376C277.478 273.376 276.822 273.248 276.256 272.992C275.691 272.736 275.211 272.4 274.816 271.984C274.432 271.557 274.139 271.083 273.936 270.56C273.744 270.037 273.648 269.504 273.648 268.96V268.672C273.648 268.128 273.75 267.595 273.952 267.072C274.155 266.539 274.454 266.064 274.848 265.648C275.243 265.221 275.723 264.885 276.288 264.64C276.854 264.384 277.499 264.256 278.224 264.256C278.95 264.256 279.595 264.384 280.16 264.64C280.726 264.885 281.206 265.221 281.6 265.648C281.995 266.064 282.294 266.539 282.496 267.072C282.699 267.595 282.8 268.128 282.8 268.672V268.96C282.8 269.504 282.699 270.037 282.496 270.56C282.304 271.083 282.011 271.557 281.616 271.984C281.232 272.4 280.758 272.736 280.192 272.992C279.627 273.248 278.971 273.376 278.224 273.376ZM278.224 272C278.864 272 279.408 271.861 279.856 271.584C280.315 271.296 280.662 270.912 280.896 270.432C281.142 269.952 281.264 269.413 281.264 268.816C281.264 268.208 281.142 267.664 280.896 267.184C280.651 266.704 280.299 266.325 279.84 266.048C279.392 265.771 278.854 265.632 278.224 265.632C277.606 265.632 277.067 265.771 276.608 266.048C276.15 266.325 275.798 266.704 275.552 267.184C275.307 267.664 275.184 268.208 275.184 268.816C275.184 269.413 275.302 269.952 275.536 270.432C275.782 270.912 276.128 271.296 276.576 271.584C277.035 271.861 277.584 272 278.224 272ZM285.101 273.088V264.544H286.317V267.104C286.445 266.187 286.781 265.515 287.325 265.088C287.869 264.661 288.61 264.448 289.549 264.448H289.837V265.824H289.293C288.44 265.824 287.784 266.053 287.325 266.512C286.866 266.96 286.637 267.611 286.637 268.464V273.088H285.101ZM295.138 273.376C294.327 273.376 293.602 273.179 292.962 272.784C292.332 272.389 291.836 271.861 291.474 271.2C291.111 270.528 290.93 269.781 290.93 268.96V268.672C290.93 267.861 291.106 267.125 291.458 266.464C291.81 265.792 292.295 265.259 292.914 264.864C293.543 264.459 294.268 264.256 295.09 264.256C295.719 264.256 296.295 264.384 296.818 264.64C297.351 264.896 297.783 265.296 298.114 265.84V261.408H299.65V273.088H298.434V271.328C298.103 272.053 297.639 272.576 297.042 272.896C296.455 273.216 295.82 273.376 295.138 273.376ZM295.346 272.032C295.868 272.032 296.343 271.915 296.77 271.68C297.196 271.445 297.538 271.109 297.794 270.672C298.05 270.224 298.178 269.701 298.178 269.104V268.368C298.178 267.781 298.044 267.285 297.778 266.88C297.522 266.464 297.175 266.149 296.738 265.936C296.311 265.712 295.842 265.6 295.33 265.6C294.476 265.6 293.783 265.893 293.25 266.48C292.727 267.067 292.466 267.845 292.466 268.816C292.466 269.467 292.588 270.037 292.834 270.528C293.079 271.008 293.42 271.381 293.858 271.648C294.295 271.904 294.791 272.032 295.346 272.032ZM305.401 273.344C304.281 273.344 303.412 273.104 302.793 272.624C302.185 272.144 301.87 271.488 301.849 270.656H303.289C303.31 270.987 303.476 271.301 303.785 271.6C304.105 271.888 304.644 272.032 305.401 272.032C306.084 272.032 306.606 271.899 306.969 271.632C307.332 271.355 307.513 271.019 307.513 270.624C307.513 270.272 307.38 270 307.113 269.808C306.846 269.605 306.414 269.472 305.817 269.408L304.889 269.312C304.078 269.227 303.417 268.987 302.905 268.592C302.393 268.187 302.137 267.621 302.137 266.896C302.137 266.075 302.441 265.435 303.049 264.976C303.657 264.517 304.441 264.288 305.401 264.288C306.361 264.288 307.14 264.501 307.737 264.928C308.334 265.355 308.644 265.989 308.665 266.832H307.225C307.214 266.491 307.054 266.203 306.745 265.968C306.446 265.723 305.998 265.6 305.401 265.6C304.804 265.6 304.35 265.723 304.041 265.968C303.732 266.213 303.577 266.523 303.577 266.896C303.577 267.216 303.684 267.472 303.897 267.664C304.121 267.856 304.484 267.979 304.985 268.032L305.913 268.128C306.83 268.224 307.566 268.48 308.121 268.896C308.676 269.301 308.953 269.877 308.953 270.624C308.953 271.157 308.798 271.632 308.489 272.048C308.19 272.453 307.774 272.773 307.241 273.008C306.708 273.232 306.094 273.344 305.401 273.344ZM197.813 293.312C196.842 293.312 196.079 293.072 195.525 292.592C194.981 292.101 194.709 291.413 194.709 290.528C194.709 289.621 195.013 288.939 195.621 288.48C196.229 288.011 197.087 287.776 198.197 287.776H200.357V287.568C200.357 286.384 199.759 285.792 198.565 285.792C198.074 285.792 197.562 285.803 197.029 285.824C196.495 285.845 196.053 285.867 195.701 285.888V284.544C196.042 284.512 196.421 284.491 196.837 284.48C197.263 284.459 197.669 284.448 198.053 284.448C199.365 284.448 200.319 284.688 200.917 285.168C201.525 285.648 201.829 286.485 201.829 287.68V293.088H200.613V291.392C200.229 292.672 199.295 293.312 197.813 293.312ZM198.133 292.096C198.495 292.096 198.842 292.032 199.173 291.904C199.503 291.765 199.775 291.541 199.989 291.232C200.213 290.912 200.335 290.475 200.357 289.92V288.928H198.133C197.514 288.928 197.039 289.077 196.709 289.376C196.378 289.675 196.213 290.059 196.213 290.528C196.213 290.997 196.378 291.376 196.709 291.664C197.039 291.952 197.514 292.096 198.133 292.096ZM204.648 293.088V284.544H205.864V286.528C206.056 285.803 206.397 285.248 206.888 284.864C207.389 284.48 208.04 284.288 208.84 284.288H208.904C209.981 284.288 210.776 284.624 211.288 285.296C211.81 285.968 212.072 286.939 212.072 288.208V293.088H210.536V287.888C210.536 287.227 210.349 286.699 209.976 286.304C209.602 285.899 209.09 285.696 208.44 285.696C207.768 285.696 207.224 285.904 206.808 286.32C206.392 286.736 206.184 287.291 206.184 287.984V293.088H204.648ZM218.45 293.376C217.639 293.376 216.914 293.179 216.274 292.784C215.645 292.389 215.149 291.861 214.786 291.2C214.423 290.528 214.242 289.781 214.242 288.96V288.672C214.242 287.861 214.418 287.125 214.77 286.464C215.122 285.792 215.607 285.259 216.226 284.864C216.855 284.459 217.581 284.256 218.402 284.256C219.031 284.256 219.607 284.384 220.13 284.64C220.663 284.896 221.095 285.296 221.426 285.84V281.408H222.962V293.088H221.746V291.328C221.415 292.053 220.951 292.576 220.354 292.896C219.767 293.216 219.133 293.376 218.45 293.376ZM218.658 292.032C219.181 292.032 219.655 291.915 220.082 291.68C220.509 291.445 220.85 291.109 221.106 290.672C221.362 290.224 221.49 289.701 221.49 289.104V288.368C221.49 287.781 221.357 287.285 221.09 286.88C220.834 286.464 220.487 286.149 220.05 285.936C219.623 285.712 219.154 285.6 218.642 285.6C217.789 285.6 217.095 285.893 216.562 286.48C216.039 287.067 215.778 287.845 215.778 288.816C215.778 289.467 215.901 290.037 216.146 290.528C216.391 291.008 216.733 291.381 217.17 291.648C217.607 291.904 218.103 292.032 218.658 292.032ZM229.554 293.088V281.408H231.09V286.048C231.325 285.483 231.661 285.051 232.098 284.752C232.546 284.443 233.117 284.288 233.81 284.288H233.874C234.898 284.288 235.671 284.629 236.194 285.312C236.717 285.984 236.978 286.949 236.978 288.208V293.088H235.442V287.888C235.442 287.195 235.245 286.656 234.85 286.272C234.466 285.888 233.965 285.696 233.346 285.696C232.663 285.696 232.114 285.925 231.698 286.384C231.293 286.832 231.09 287.424 231.09 288.16V293.088H229.554ZM243.724 293.376C242.978 293.376 242.322 293.248 241.756 292.992C241.191 292.736 240.711 292.4 240.316 291.984C239.932 291.557 239.639 291.083 239.436 290.56C239.244 290.037 239.148 289.504 239.148 288.96V288.672C239.148 288.128 239.25 287.595 239.452 287.072C239.655 286.539 239.954 286.064 240.348 285.648C240.743 285.221 241.223 284.885 241.788 284.64C242.354 284.384 242.999 284.256 243.724 284.256C244.45 284.256 245.095 284.384 245.66 284.64C246.226 284.885 246.706 285.221 247.1 285.648C247.495 286.064 247.794 286.539 247.996 287.072C248.199 287.595 248.3 288.128 248.3 288.672V288.96C248.3 289.504 248.199 290.037 247.996 290.56C247.804 291.083 247.511 291.557 247.116 291.984C246.732 292.4 246.258 292.736 245.692 292.992C245.127 293.248 244.471 293.376 243.724 293.376ZM243.724 292C244.364 292 244.908 291.861 245.356 291.584C245.815 291.296 246.162 290.912 246.396 290.432C246.642 289.952 246.764 289.413 246.764 288.816C246.764 288.208 246.642 287.664 246.396 287.184C246.151 286.704 245.799 286.325 245.34 286.048C244.892 285.771 244.354 285.632 243.724 285.632C243.106 285.632 242.567 285.771 242.108 286.048C241.65 286.325 241.298 286.704 241.052 287.184C240.807 287.664 240.684 288.208 240.684 288.816C240.684 289.413 240.802 289.952 241.036 290.432C241.282 290.912 241.628 291.296 242.076 291.584C242.535 291.861 243.084 292 243.724 292ZM253.401 293.344C252.281 293.344 251.412 293.104 250.793 292.624C250.185 292.144 249.87 291.488 249.849 290.656H251.289C251.31 290.987 251.476 291.301 251.785 291.6C252.105 291.888 252.644 292.032 253.401 292.032C254.084 292.032 254.606 291.899 254.969 291.632C255.332 291.355 255.513 291.019 255.513 290.624C255.513 290.272 255.38 290 255.113 289.808C254.846 289.605 254.414 289.472 253.817 289.408L252.889 289.312C252.078 289.227 251.417 288.987 250.905 288.592C250.393 288.187 250.137 287.621 250.137 286.896C250.137 286.075 250.441 285.435 251.049 284.976C251.657 284.517 252.441 284.288 253.401 284.288C254.361 284.288 255.14 284.501 255.737 284.928C256.334 285.355 256.644 285.989 256.665 286.832H255.225C255.214 286.491 255.054 286.203 254.745 285.968C254.446 285.723 253.998 285.6 253.401 285.6C252.804 285.6 252.35 285.723 252.041 285.968C251.732 286.213 251.577 286.523 251.577 286.896C251.577 287.216 251.684 287.472 251.897 287.664C252.121 287.856 252.484 287.979 252.985 288.032L253.913 288.128C254.83 288.224 255.566 288.48 256.121 288.896C256.676 289.301 256.953 289.877 256.953 290.624C256.953 291.157 256.798 291.632 256.489 292.048C256.19 292.453 255.774 292.773 255.241 293.008C254.708 293.232 254.094 293.344 253.401 293.344ZM259.179 296.288V284.544H260.395V286.64C260.683 285.819 261.131 285.216 261.739 284.832C262.347 284.448 263.03 284.256 263.787 284.256C264.619 284.256 265.339 284.459 265.947 284.864C266.566 285.269 267.046 285.808 267.387 286.48C267.728 287.141 267.899 287.872 267.899 288.672V288.96C267.899 289.76 267.723 290.496 267.371 291.168C267.019 291.829 266.528 292.363 265.899 292.768C265.28 293.173 264.566 293.376 263.755 293.376C263.168 293.376 262.603 293.253 262.059 293.008C261.515 292.763 261.067 292.363 260.715 291.808V296.288H259.179ZM263.515 292.032C264.091 292.032 264.592 291.899 265.019 291.632C265.446 291.355 265.776 290.976 266.011 290.496C266.246 290.005 266.363 289.445 266.363 288.816C266.363 288.176 266.246 287.616 266.011 287.136C265.776 286.656 265.446 286.283 265.019 286.016C264.592 285.739 264.091 285.6 263.515 285.6C263.003 285.6 262.528 285.717 262.091 285.952C261.654 286.176 261.302 286.507 261.035 286.944C260.779 287.371 260.651 287.888 260.651 288.496V289.232C260.651 289.819 260.784 290.32 261.051 290.736C261.318 291.152 261.67 291.472 262.107 291.696C262.544 291.92 263.014 292.032 263.515 292.032ZM271.058 283.168C270.717 283.168 270.461 283.077 270.29 282.896C270.13 282.715 270.05 282.485 270.05 282.208C270.05 281.931 270.13 281.701 270.29 281.52C270.461 281.339 270.717 281.248 271.058 281.248C271.4 281.248 271.65 281.339 271.81 281.52C271.981 281.701 272.066 281.931 272.066 282.208C272.066 282.485 271.981 282.715 271.81 282.896C271.65 283.077 271.4 283.168 271.058 283.168ZM270.626 293.088V285.76H269.314V284.544H272.162V293.088H270.626ZM278.46 293.184C277.82 293.184 277.265 293.093 276.796 292.912C276.337 292.731 275.98 292.421 275.724 291.984C275.479 291.536 275.356 290.933 275.356 290.176V285.696H273.884V284.544H275.356V281.952H276.828V284.544H279.772V285.696H276.828V290.368C276.828 290.827 276.951 291.184 277.196 291.44C277.452 291.685 277.809 291.808 278.268 291.808H279.772V293.184H278.46ZM284.281 293.312C283.311 293.312 282.548 293.072 281.993 292.592C281.449 292.101 281.177 291.413 281.177 290.528C281.177 289.621 281.481 288.939 282.089 288.48C282.697 288.011 283.556 287.776 284.665 287.776H286.825V287.568C286.825 286.384 286.228 285.792 285.033 285.792C284.543 285.792 284.031 285.803 283.497 285.824C282.964 285.845 282.521 285.867 282.169 285.888V284.544C282.511 284.512 282.889 284.491 283.305 284.48C283.732 284.459 284.137 284.448 284.521 284.448C285.833 284.448 286.788 284.688 287.385 285.168C287.993 285.648 288.297 286.485 288.297 287.68V293.088H287.081V291.392C286.697 292.672 285.764 293.312 284.281 293.312ZM284.601 292.096C284.964 292.096 285.311 292.032 285.641 291.904C285.972 291.765 286.244 291.541 286.457 291.232C286.681 290.912 286.804 290.475 286.825 289.92V288.928H284.601C283.983 288.928 283.508 289.077 283.177 289.376C282.847 289.675 282.681 290.059 282.681 290.528C282.681 290.997 282.847 291.376 283.177 291.664C283.508 291.952 283.983 292.096 284.601 292.096ZM291.213 293.088V282.624H290.029V281.408H292.749V293.088H291.213ZM212.046 313.088V304.544H213.262V307.104C213.39 306.187 213.726 305.515 214.27 305.088C214.814 304.661 215.556 304.448 216.494 304.448H216.782V305.824H216.238C215.385 305.824 214.729 306.053 214.27 306.512C213.812 306.96 213.582 307.611 213.582 308.464V313.088H212.046ZM222.147 313.376C221.4 313.376 220.755 313.248 220.211 312.992C219.667 312.736 219.224 312.4 218.883 311.984C218.542 311.557 218.286 311.083 218.115 310.56C217.955 310.037 217.875 309.504 217.875 308.96V308.672C217.875 308.117 217.955 307.579 218.115 307.056C218.286 306.533 218.542 306.064 218.883 305.648C219.224 305.221 219.656 304.885 220.179 304.64C220.712 304.384 221.336 304.256 222.051 304.256C222.979 304.256 223.742 304.459 224.339 304.864C224.947 305.259 225.395 305.771 225.683 306.4C225.982 307.029 226.131 307.701 226.131 308.416V309.104H219.347C219.4 309.947 219.651 310.645 220.099 311.2C220.547 311.755 221.23 312.032 222.147 312.032C222.819 312.032 223.363 311.883 223.779 311.584C224.206 311.285 224.462 310.939 224.547 310.544H225.987C225.806 311.429 225.374 312.123 224.691 312.624C224.008 313.125 223.16 313.376 222.147 313.376ZM222.051 305.6C221.283 305.6 220.68 305.819 220.243 306.256C219.806 306.683 219.528 307.248 219.411 307.952H224.627C224.531 307.227 224.27 306.656 223.843 306.24C223.416 305.813 222.819 305.6 222.051 305.6ZM231.976 313.376C231.24 313.376 230.6 313.248 230.056 312.992C229.523 312.736 229.08 312.395 228.728 311.968C228.376 311.531 228.109 311.051 227.928 310.528C227.757 310.005 227.672 309.483 227.672 308.96V308.672C227.672 308.128 227.757 307.595 227.928 307.072C228.109 306.549 228.376 306.08 228.728 305.664C229.091 305.237 229.539 304.896 230.072 304.64C230.605 304.384 231.229 304.256 231.944 304.256C232.659 304.256 233.299 304.389 233.864 304.656C234.44 304.923 234.899 305.301 235.24 305.792C235.592 306.272 235.789 306.843 235.832 307.504H234.36C234.285 306.971 234.04 306.528 233.624 306.176C233.208 305.813 232.648 305.632 231.944 305.632C231.336 305.632 230.829 305.771 230.424 306.048C230.019 306.325 229.715 306.704 229.512 307.184C229.309 307.664 229.208 308.208 229.208 308.816C229.208 309.403 229.309 309.941 229.512 310.432C229.715 310.912 230.019 311.296 230.424 311.584C230.84 311.861 231.357 312 231.976 312C232.691 312 233.267 311.819 233.704 311.456C234.141 311.083 234.392 310.624 234.456 310.08H235.928C235.896 310.752 235.699 311.333 235.336 311.824C234.984 312.315 234.515 312.699 233.928 312.976C233.352 313.243 232.701 313.376 231.976 313.376ZM241.647 313.376C240.9 313.376 240.255 313.248 239.711 312.992C239.167 312.736 238.724 312.4 238.383 311.984C238.042 311.557 237.786 311.083 237.615 310.56C237.455 310.037 237.375 309.504 237.375 308.96V308.672C237.375 308.117 237.455 307.579 237.615 307.056C237.786 306.533 238.042 306.064 238.383 305.648C238.724 305.221 239.156 304.885 239.679 304.64C240.212 304.384 240.836 304.256 241.551 304.256C242.479 304.256 243.242 304.459 243.839 304.864C244.447 305.259 244.895 305.771 245.183 306.4C245.482 307.029 245.631 307.701 245.631 308.416V309.104H238.847C238.9 309.947 239.151 310.645 239.599 311.2C240.047 311.755 240.73 312.032 241.647 312.032C242.319 312.032 242.863 311.883 243.279 311.584C243.706 311.285 243.962 310.939 244.047 310.544H245.487C245.306 311.429 244.874 312.123 244.191 312.624C243.508 313.125 242.66 313.376 241.647 313.376ZM241.551 305.6C240.783 305.6 240.18 305.819 239.743 306.256C239.306 306.683 239.028 307.248 238.911 307.952H244.127C244.031 307.227 243.77 306.656 243.343 306.24C242.916 305.813 242.319 305.6 241.551 305.6ZM248.66 303.168C248.319 303.168 248.063 303.077 247.892 302.896C247.732 302.715 247.652 302.485 247.652 302.208C247.652 301.931 247.732 301.701 247.892 301.52C248.063 301.339 248.319 301.248 248.66 301.248C249.001 301.248 249.252 301.339 249.412 301.52C249.583 301.701 249.668 301.931 249.668 302.208C249.668 302.485 249.583 302.715 249.412 302.896C249.252 303.077 249.001 303.168 248.66 303.168ZM248.228 313.088V305.76H246.916V304.544H249.764V313.088H248.228ZM252.734 316.288V304.544H253.95V306.64C254.238 305.819 254.686 305.216 255.294 304.832C255.902 304.448 256.584 304.256 257.342 304.256C258.174 304.256 258.894 304.459 259.502 304.864C260.12 305.269 260.6 305.808 260.942 306.48C261.283 307.141 261.454 307.872 261.454 308.672V308.96C261.454 309.76 261.278 310.496 260.926 311.168C260.574 311.829 260.083 312.363 259.454 312.768C258.835 313.173 258.12 313.376 257.31 313.376C256.723 313.376 256.158 313.253 255.614 313.008C255.07 312.763 254.622 312.363 254.27 311.808V316.288H252.734ZM257.07 312.032C257.646 312.032 258.147 311.899 258.574 311.632C259 311.355 259.331 310.976 259.566 310.496C259.8 310.005 259.918 309.445 259.918 308.816C259.918 308.176 259.8 307.616 259.566 307.136C259.331 306.656 259 306.283 258.574 306.016C258.147 305.739 257.646 305.6 257.07 305.6C256.558 305.6 256.083 305.717 255.646 305.952C255.208 306.176 254.856 306.507 254.59 306.944C254.334 307.371 254.206 307.888 254.206 308.496V309.232C254.206 309.819 254.339 310.32 254.606 310.736C254.872 311.152 255.224 311.472 255.662 311.696C256.099 311.92 256.568 312.032 257.07 312.032ZM267.093 313.184C266.453 313.184 265.898 313.093 265.429 312.912C264.97 312.731 264.613 312.421 264.357 311.984C264.112 311.536 263.989 310.933 263.989 310.176V305.696H262.517V304.544H263.989V301.952H265.461V304.544H268.405V305.696H265.461V310.368C265.461 310.827 265.584 311.184 265.829 311.44C266.085 311.685 266.442 311.808 266.901 311.808H268.405V313.184H267.093ZM273.315 313.344C272.195 313.344 271.326 313.104 270.707 312.624C270.099 312.144 269.784 311.488 269.763 310.656H271.203C271.224 310.987 271.39 311.301 271.699 311.6C272.019 311.888 272.558 312.032 273.315 312.032C273.998 312.032 274.52 311.899 274.883 311.632C275.246 311.355 275.427 311.019 275.427 310.624C275.427 310.272 275.294 310 275.027 309.808C274.76 309.605 274.328 309.472 273.731 309.408L272.803 309.312C271.992 309.227 271.331 308.987 270.819 308.592C270.307 308.187 270.051 307.621 270.051 306.896C270.051 306.075 270.355 305.435 270.963 304.976C271.571 304.517 272.355 304.288 273.315 304.288C274.275 304.288 275.054 304.501 275.651 304.928C276.248 305.355 276.558 305.989 276.579 306.832H275.139C275.128 306.491 274.968 306.203 274.659 305.968C274.36 305.723 273.912 305.6 273.315 305.6C272.718 305.6 272.264 305.723 271.955 305.968C271.646 306.213 271.491 306.523 271.491 306.896C271.491 307.216 271.598 307.472 271.811 307.664C272.035 307.856 272.398 307.979 272.899 308.032L273.827 308.128C274.744 308.224 275.48 308.48 276.035 308.896C276.59 309.301 276.867 309.877 276.867 310.624C276.867 311.157 276.712 311.632 276.403 312.048C276.104 312.453 275.688 312.773 275.155 313.008C274.622 313.232 274.008 313.344 273.315 313.344Z" fill="#B3B3B3"/>
<defs>
<filter id="filter0_f_3666_26478" x="0.179688" y="0.106445" width="487.828" height="435.481" filterUnits="userSpaceOnUse" color-interpolation-filters="sRGB">
<feFlood flood-opacity="0" result="BackgroundImageFix"/>
<feBlend mode="normal" in="SourceGraphic" in2="BackgroundImageFix" result="shape"/>
<feGaussianBlur stdDeviation="25" result="effect1_foregroundBlur_3666_26478"/>
</filter>
<linearGradient id="paint0_linear_3666_26478" x1="244.096" y1="42.2988" x2="244.096" y2="393.396" gradientUnits="userSpaceOnUse">
<stop stop-color="#095CFF"/>
<stop offset="1" stop-color="#002D87"/>
</linearGradient>
<linearGradient id="paint1_linear_3666_26478" x1="256.796" y1="385.588" x2="252.545" y2="66.4162" gradientUnits="userSpaceOnUse">
<stop stop-color="#000E29"/>
<stop offset="0.853292" stop-color="#00308F"/>
</linearGradient>
<linearGradient id="paint2_linear_3666_26478" x1="244.094" y1="50.1064" x2="244.094" y2="385.588" gradientUnits="userSpaceOnUse">
<stop stop-color="#095CFF"/>
<stop offset="1" stop-color="#002D87"/>
</linearGradient>
</defs>
</svg>
