<svg width="415" height="436" viewBox="0 0 415 436" fill="none" xmlns="http://www.w3.org/2000/svg">
<path d="M30.7969 42.9297H100.298C101.925 42.9297 103.508 43.4585 104.808 44.4365L119.877 55.7744C121.35 56.8827 123.144 57.4824 124.987 57.4824H279.212C281.055 57.4824 282.849 56.8828 284.322 55.7744L299.392 44.4365C300.691 43.4586 302.274 42.9298 303.9 42.9297H384.133C388.275 42.9297 391.633 46.2876 391.633 50.4297V136.981C391.633 137.463 391.586 137.944 391.494 138.417L383.088 181.537C382.983 182.073 382.931 182.618 382.931 183.164V385.526C382.931 389.668 379.573 393.026 375.431 393.026H39.4062C35.2641 393.026 31.9062 389.668 31.9062 385.526V172.761C31.9062 172.058 31.819 171.357 31.6465 170.675L23.5264 138.598C23.3741 137.996 23.2969 137.377 23.2969 136.757V50.4297C23.2969 46.2876 26.6547 42.9297 30.7969 42.9297Z" fill="#000E29" stroke="url(#paint0_linear_3670_26570)"/>
<g filter="url(#filter0_f_3670_26570)">
<path d="M31.0078 50.2373H107.617L126.099 64.1426H278.573L297.055 50.2373H383.918V141.322L375.603 183.974V385.719H39.2343V173.819L31.0078 141.322V50.2373Z" fill="url(#paint1_linear_3670_26570)" fill-opacity="0.7"/>
<path d="M39.7344 173.757L39.7188 173.696L31.5078 141.261V50.7373H107.45L125.798 64.542L125.932 64.6426H278.74L278.874 64.542L297.222 50.7373H383.418V141.271L375.111 183.879L375.103 183.926V385.219H39.7344V173.757Z" stroke="#001E5B"/>
</g>
<rect x="68.6953" y="92.4785" width="277.539" height="295" rx="24" fill="#000E29"/>
<g clip-path="url(#clip0_3670_26570)">
<path fill-rule="evenodd" clip-rule="evenodd" d="M207.473 128.836C205.128 128.836 203.232 128.906 201.271 129.042C200.265 129.109 199.318 129.54 198.607 130.255C197.896 130.969 197.469 131.918 197.407 132.925C197.26 135.273 197.187 137.626 197.188 139.979C197.188 142.396 197.263 144.755 197.407 147.033C197.469 148.039 197.896 148.988 198.607 149.703C199.318 150.418 200.265 150.849 201.271 150.916C203.232 151.051 205.128 151.122 207.473 151.122C209.82 151.122 211.716 151.051 213.677 150.916C214.683 150.849 215.63 150.418 216.341 149.703C217.052 148.988 217.479 148.039 217.541 147.033C217.748 143.717 217.809 140.394 217.723 137.073C217.705 136.229 217.427 135.411 216.928 134.73C215.38 132.619 214.123 131.282 212.073 129.7C211.382 129.171 210.539 128.876 209.669 128.86C208.938 128.844 208.205 128.836 207.473 128.836Z" fill="#6B4EFF"/>
<path fill-rule="evenodd" clip-rule="evenodd" d="M217.748 138.728C216.277 136.682 213.845 136.346 211.867 136.36C210.445 136.37 209.297 135.323 209.297 133.904V128.852L209.665 128.86C210.529 128.877 211.375 129.165 212.069 129.7C214.119 131.282 215.376 132.62 216.924 134.73C217.426 135.414 217.699 136.233 217.719 137.072C217.733 137.62 217.741 138.172 217.748 138.728Z" fill="#19005C"/>
</g>
<path d="M125.237 179.267C124.17 179.267 123.258 179.08 122.501 178.707C121.754 178.333 121.151 177.848 120.693 177.251C120.234 176.653 119.898 176.008 119.685 175.315C119.471 174.611 119.365 173.933 119.365 173.283V172.931C119.365 172.227 119.471 171.523 119.685 170.819C119.909 170.115 120.25 169.475 120.709 168.899C121.167 168.323 121.765 167.859 122.501 167.507C123.237 167.155 124.117 166.979 125.141 166.979C126.698 166.979 127.925 167.379 128.821 168.179C129.727 168.968 130.255 170.024 130.405 171.347H128.805C128.666 170.355 128.255 169.619 127.573 169.139C126.901 168.659 126.09 168.419 125.141 168.419C124.223 168.419 123.45 168.632 122.821 169.059C122.202 169.475 121.738 170.04 121.429 170.755C121.119 171.459 120.965 172.248 120.965 173.123C120.965 173.955 121.119 174.728 121.429 175.443C121.749 176.157 122.223 176.733 122.853 177.171C123.493 177.608 124.287 177.827 125.237 177.827C126.239 177.827 127.082 177.576 127.765 177.075C128.447 176.573 128.863 175.848 129.013 174.899H130.613C130.506 175.699 130.234 176.429 129.797 177.091C129.37 177.752 128.773 178.28 128.005 178.675C127.247 179.069 126.325 179.267 125.237 179.267ZM135.028 179.203C134.057 179.203 133.294 178.963 132.74 178.483C132.196 177.992 131.924 177.304 131.924 176.419C131.924 175.512 132.228 174.829 132.836 174.371C133.444 173.901 134.302 173.667 135.411 173.667H137.572V173.459C137.572 172.275 136.974 171.683 135.78 171.683C135.289 171.683 134.777 171.693 134.244 171.715C133.71 171.736 133.268 171.757 132.916 171.779V170.435C133.257 170.403 133.636 170.381 134.052 170.371C134.478 170.349 134.884 170.339 135.268 170.339C136.58 170.339 137.534 170.579 138.132 171.059C138.74 171.539 139.044 172.376 139.044 173.571V178.979H137.828V177.283C137.444 178.563 136.51 179.203 135.028 179.203ZM135.348 177.987C135.71 177.987 136.057 177.923 136.388 177.795C136.718 177.656 136.99 177.432 137.204 177.123C137.428 176.803 137.55 176.365 137.572 175.811V174.819H135.348C134.729 174.819 134.254 174.968 133.924 175.267C133.593 175.565 133.428 175.949 133.428 176.419C133.428 176.888 133.593 177.267 133.924 177.555C134.254 177.843 134.729 177.987 135.348 177.987ZM141.863 178.979V170.435H143.079V172.403C143.26 171.688 143.58 171.139 144.039 170.755C144.508 170.371 145.116 170.179 145.863 170.179H145.927C146.652 170.179 147.244 170.36 147.703 170.723C148.161 171.085 148.487 171.608 148.679 172.291C148.881 171.608 149.212 171.085 149.671 170.723C150.14 170.36 150.737 170.179 151.463 170.179H151.527C152.54 170.179 153.292 170.525 153.783 171.219C154.284 171.901 154.535 172.861 154.535 174.099V178.979H152.999V173.763C152.999 173.069 152.828 172.536 152.487 172.163C152.145 171.779 151.671 171.587 151.063 171.587C150.433 171.587 149.927 171.789 149.543 172.195C149.159 172.589 148.967 173.144 148.967 173.859V178.979H147.431V173.763C147.431 173.069 147.26 172.536 146.919 172.163C146.577 171.779 146.103 171.587 145.495 171.587C144.865 171.587 144.359 171.789 143.975 172.195C143.591 172.589 143.399 173.144 143.399 173.859V178.979H141.863ZM157.347 182.179V170.435H158.563V172.531C158.851 171.709 159.299 171.107 159.907 170.723C160.515 170.339 161.198 170.147 161.955 170.147C162.787 170.147 163.507 170.349 164.115 170.755C164.734 171.16 165.214 171.699 165.555 172.371C165.896 173.032 166.067 173.763 166.067 174.563V174.851C166.067 175.651 165.891 176.387 165.539 177.059C165.187 177.72 164.696 178.253 164.067 178.659C163.448 179.064 162.734 179.267 161.923 179.267C161.336 179.267 160.771 179.144 160.227 178.899C159.683 178.653 159.235 178.253 158.883 177.699V182.179H157.347ZM161.683 177.923C162.259 177.923 162.76 177.789 163.187 177.523C163.614 177.245 163.944 176.867 164.179 176.387C164.414 175.896 164.531 175.336 164.531 174.707C164.531 174.067 164.414 173.507 164.179 173.027C163.944 172.547 163.614 172.173 163.187 171.907C162.76 171.629 162.259 171.491 161.683 171.491C161.171 171.491 160.696 171.608 160.259 171.843C159.822 172.067 159.47 172.397 159.203 172.835C158.947 173.261 158.819 173.779 158.819 174.387V175.123C158.819 175.709 158.952 176.211 159.219 176.627C159.486 177.043 159.838 177.363 160.275 177.587C160.712 177.811 161.182 177.923 161.683 177.923ZM170.746 179.203C169.776 179.203 169.013 178.963 168.458 178.483C167.914 177.992 167.642 177.304 167.642 176.419C167.642 175.512 167.946 174.829 168.554 174.371C169.162 173.901 170.021 173.667 171.13 173.667H173.29V173.459C173.29 172.275 172.693 171.683 171.498 171.683C171.008 171.683 170.496 171.693 169.962 171.715C169.429 171.736 168.986 171.757 168.634 171.779V170.435C168.976 170.403 169.354 170.381 169.77 170.371C170.197 170.349 170.602 170.339 170.986 170.339C172.298 170.339 173.253 170.579 173.85 171.059C174.458 171.539 174.762 172.376 174.762 173.571V178.979H173.546V177.283C173.162 178.563 172.229 179.203 170.746 179.203ZM171.066 177.987C171.429 177.987 171.776 177.923 172.106 177.795C172.437 177.656 172.709 177.432 172.922 177.123C173.146 176.803 173.269 176.365 173.29 175.811V174.819H171.066C170.448 174.819 169.973 174.968 169.642 175.267C169.312 175.565 169.146 175.949 169.146 176.419C169.146 176.888 169.312 177.267 169.642 177.555C169.973 177.843 170.448 177.987 171.066 177.987ZM178.429 169.059C178.088 169.059 177.832 168.968 177.661 168.787C177.501 168.605 177.421 168.376 177.421 168.099C177.421 167.821 177.501 167.592 177.661 167.411C177.832 167.229 178.088 167.139 178.429 167.139C178.771 167.139 179.021 167.229 179.181 167.411C179.352 167.592 179.437 167.821 179.437 168.099C179.437 168.376 179.352 168.605 179.181 168.787C179.021 168.968 178.771 169.059 178.429 169.059ZM177.997 178.979V171.651H176.685V170.435H179.533V178.979H177.997ZM185.735 182.307C184.935 182.307 184.157 182.248 183.399 182.131V180.835C183.783 180.888 184.183 180.931 184.599 180.963C185.026 181.005 185.426 181.027 185.799 181.027C186.973 181.027 187.794 180.787 188.263 180.307C188.743 179.837 188.983 179.08 188.983 178.035V177.267C188.663 177.864 188.231 178.312 187.687 178.611C187.154 178.899 186.562 179.043 185.911 179.043C185.111 179.043 184.407 178.845 183.799 178.451C183.191 178.045 182.717 177.512 182.375 176.851C182.034 176.189 181.863 175.464 181.863 174.675V174.387C181.863 173.587 182.039 172.867 182.391 172.227C182.743 171.587 183.229 171.08 183.847 170.707C184.466 170.333 185.181 170.147 185.991 170.147C186.738 170.147 187.389 170.312 187.943 170.643C188.509 170.973 188.941 171.453 189.239 172.083V170.435H190.455V177.971C190.455 178.995 190.295 179.821 189.975 180.451C189.666 181.091 189.165 181.56 188.471 181.859C187.789 182.157 186.877 182.307 185.735 182.307ZM186.199 177.635C186.711 177.635 187.175 177.523 187.591 177.299C188.018 177.075 188.354 176.755 188.599 176.339C188.855 175.912 188.983 175.405 188.983 174.819V174.083C188.983 173.507 188.85 173.021 188.583 172.627C188.327 172.232 187.991 171.933 187.575 171.731C187.159 171.528 186.706 171.427 186.215 171.427C185.373 171.427 184.69 171.709 184.167 172.275C183.655 172.84 183.399 173.592 183.399 174.531C183.399 175.48 183.661 176.237 184.183 176.803C184.717 177.357 185.389 177.635 186.199 177.635ZM193.3 178.979V170.435H194.516V172.419C194.708 171.693 195.049 171.139 195.54 170.755C196.041 170.371 196.692 170.179 197.492 170.179H197.556C198.633 170.179 199.428 170.515 199.94 171.187C200.463 171.859 200.724 172.829 200.724 174.099V178.979H199.188V173.779C199.188 173.117 199.001 172.589 198.628 172.195C198.255 171.789 197.743 171.587 197.092 171.587C196.42 171.587 195.876 171.795 195.46 172.211C195.044 172.627 194.836 173.181 194.836 173.875V178.979H193.3ZM212.471 179.267C211.404 179.267 210.492 179.08 209.735 178.707C208.988 178.333 208.386 177.848 207.927 177.251C207.468 176.653 207.132 176.008 206.919 175.315C206.706 174.611 206.599 173.933 206.599 173.283V172.931C206.599 172.227 206.706 171.523 206.919 170.819C207.143 170.115 207.484 169.475 207.943 168.899C208.402 168.323 208.999 167.859 209.735 167.507C210.471 167.155 211.351 166.979 212.375 166.979C213.932 166.979 215.159 167.379 216.055 168.179C216.962 168.968 217.49 170.024 217.639 171.347H216.039C215.9 170.355 215.49 169.619 214.807 169.139C214.135 168.659 213.324 168.419 212.375 168.419C211.458 168.419 210.684 168.632 210.055 169.059C209.436 169.475 208.972 170.04 208.663 170.755C208.354 171.459 208.199 172.248 208.199 173.123C208.199 173.955 208.354 174.728 208.663 175.443C208.983 176.157 209.458 176.733 210.087 177.171C210.727 177.608 211.522 177.827 212.471 177.827C213.474 177.827 214.316 177.576 214.999 177.075C215.682 176.573 216.098 175.848 216.247 174.899H217.847C217.74 175.699 217.468 176.429 217.031 177.091C216.604 177.752 216.007 178.28 215.239 178.675C214.482 179.069 213.559 179.267 212.471 179.267ZM222.262 179.203C221.291 179.203 220.529 178.963 219.974 178.483C219.43 177.992 219.158 177.304 219.158 176.419C219.158 175.512 219.462 174.829 220.07 174.371C220.678 173.901 221.537 173.667 222.646 173.667H224.806V173.459C224.806 172.275 224.209 171.683 223.014 171.683C222.523 171.683 222.011 171.693 221.478 171.715C220.945 171.736 220.502 171.757 220.15 171.779V170.435C220.491 170.403 220.87 170.381 221.286 170.371C221.713 170.349 222.118 170.339 222.502 170.339C223.814 170.339 224.769 170.579 225.366 171.059C225.974 171.539 226.278 172.376 226.278 173.571V178.979H225.062V177.283C224.678 178.563 223.745 179.203 222.262 179.203ZM222.582 177.987C222.945 177.987 223.291 177.923 223.622 177.795C223.953 177.656 224.225 177.432 224.438 177.123C224.662 176.803 224.785 176.365 224.806 175.811V174.819H222.582C221.963 174.819 221.489 174.968 221.158 175.267C220.827 175.565 220.662 175.949 220.662 176.419C220.662 176.888 220.827 177.267 221.158 177.555C221.489 177.843 221.963 177.987 222.582 177.987ZM232.425 179.075C231.785 179.075 231.23 178.984 230.761 178.803C230.302 178.621 229.945 178.312 229.689 177.875C229.444 177.427 229.321 176.824 229.321 176.067V171.587H227.849V170.435H229.321V167.843H230.793V170.435H233.737V171.587H230.793V176.259C230.793 176.717 230.916 177.075 231.161 177.331C231.417 177.576 231.774 177.699 232.233 177.699H233.737V179.075H232.425ZM239.479 179.267C238.732 179.267 238.087 179.139 237.543 178.883C236.999 178.627 236.556 178.291 236.215 177.875C235.874 177.448 235.618 176.973 235.447 176.451C235.287 175.928 235.207 175.395 235.207 174.851V174.563C235.207 174.008 235.287 173.469 235.447 172.947C235.618 172.424 235.874 171.955 236.215 171.539C236.556 171.112 236.988 170.776 237.511 170.531C238.044 170.275 238.668 170.147 239.383 170.147C240.311 170.147 241.074 170.349 241.671 170.755C242.279 171.149 242.727 171.661 243.015 172.291C243.314 172.92 243.463 173.592 243.463 174.307V174.995H236.679C236.732 175.837 236.983 176.536 237.431 177.091C237.879 177.645 238.562 177.923 239.479 177.923C240.151 177.923 240.695 177.773 241.111 177.475C241.538 177.176 241.794 176.829 241.879 176.435H243.319C243.138 177.32 242.706 178.013 242.023 178.515C241.34 179.016 240.492 179.267 239.479 179.267ZM239.383 171.491C238.615 171.491 238.012 171.709 237.575 172.147C237.138 172.573 236.86 173.139 236.743 173.843H241.959C241.863 173.117 241.602 172.547 241.175 172.131C240.748 171.704 240.151 171.491 239.383 171.491ZM248.876 182.307C248.076 182.307 247.297 182.248 246.54 182.131V180.835C246.924 180.888 247.324 180.931 247.74 180.963C248.167 181.005 248.567 181.027 248.94 181.027C250.113 181.027 250.935 180.787 251.404 180.307C251.884 179.837 252.124 179.08 252.124 178.035V177.267C251.804 177.864 251.372 178.312 250.828 178.611C250.295 178.899 249.703 179.043 249.052 179.043C248.252 179.043 247.548 178.845 246.94 178.451C246.332 178.045 245.857 177.512 245.516 176.851C245.175 176.189 245.004 175.464 245.004 174.675V174.387C245.004 173.587 245.18 172.867 245.532 172.227C245.884 171.587 246.369 171.08 246.988 170.707C247.607 170.333 248.321 170.147 249.132 170.147C249.879 170.147 250.529 170.312 251.084 170.643C251.649 170.973 252.081 171.453 252.38 172.083V170.435H253.596V177.971C253.596 178.995 253.436 179.821 253.116 180.451C252.807 181.091 252.305 181.56 251.612 181.859C250.929 182.157 250.017 182.307 248.876 182.307ZM249.34 177.635C249.852 177.635 250.316 177.523 250.732 177.299C251.159 177.075 251.495 176.755 251.74 176.339C251.996 175.912 252.124 175.405 252.124 174.819V174.083C252.124 173.507 251.991 173.021 251.724 172.627C251.468 172.232 251.132 171.933 250.716 171.731C250.3 171.528 249.847 171.427 249.356 171.427C248.513 171.427 247.831 171.709 247.308 172.275C246.796 172.84 246.54 173.592 246.54 174.531C246.54 175.48 246.801 176.237 247.324 176.803C247.857 177.357 248.529 177.635 249.34 177.635ZM260.377 179.267C259.63 179.267 258.974 179.139 258.409 178.883C257.843 178.627 257.363 178.291 256.969 177.875C256.585 177.448 256.291 176.973 256.089 176.451C255.897 175.928 255.801 175.395 255.801 174.851V174.563C255.801 174.019 255.902 173.485 256.105 172.963C256.307 172.429 256.606 171.955 257.001 171.539C257.395 171.112 257.875 170.776 258.441 170.531C259.006 170.275 259.651 170.147 260.377 170.147C261.102 170.147 261.747 170.275 262.313 170.531C262.878 170.776 263.358 171.112 263.753 171.539C264.147 171.955 264.446 172.429 264.649 172.963C264.851 173.485 264.953 174.019 264.953 174.563V174.851C264.953 175.395 264.851 175.928 264.649 176.451C264.457 176.973 264.163 177.448 263.769 177.875C263.385 178.291 262.91 178.627 262.345 178.883C261.779 179.139 261.123 179.267 260.377 179.267ZM260.377 177.891C261.017 177.891 261.561 177.752 262.009 177.475C262.467 177.187 262.814 176.803 263.049 176.323C263.294 175.843 263.417 175.304 263.417 174.707C263.417 174.099 263.294 173.555 263.049 173.075C262.803 172.595 262.451 172.216 261.993 171.939C261.545 171.661 261.006 171.523 260.377 171.523C259.758 171.523 259.219 171.661 258.761 171.939C258.302 172.216 257.95 172.595 257.705 173.075C257.459 173.555 257.337 174.099 257.337 174.707C257.337 175.304 257.454 175.843 257.689 176.323C257.934 176.803 258.281 177.187 258.729 177.475C259.187 177.752 259.737 177.891 260.377 177.891ZM267.253 178.979V170.435H268.469V172.995C268.597 172.077 268.933 171.405 269.477 170.979C270.021 170.552 270.763 170.339 271.701 170.339H271.989V171.715H271.445C270.592 171.715 269.936 171.944 269.477 172.403C269.019 172.851 268.789 173.501 268.789 174.355V178.979H267.253ZM274.664 169.059C274.322 169.059 274.066 168.968 273.896 168.787C273.736 168.605 273.656 168.376 273.656 168.099C273.656 167.821 273.736 167.592 273.896 167.411C274.066 167.229 274.322 167.139 274.664 167.139C275.005 167.139 275.256 167.229 275.416 167.411C275.586 167.592 275.672 167.821 275.672 168.099C275.672 168.376 275.586 168.605 275.416 168.787C275.256 168.968 275.005 169.059 274.664 169.059ZM274.232 178.979V171.651H272.92V170.435H275.768V178.979H274.232ZM282.37 179.267C281.623 179.267 280.978 179.139 280.434 178.883C279.89 178.627 279.447 178.291 279.106 177.875C278.764 177.448 278.508 176.973 278.338 176.451C278.178 175.928 278.098 175.395 278.098 174.851V174.563C278.098 174.008 278.178 173.469 278.338 172.947C278.508 172.424 278.764 171.955 279.106 171.539C279.447 171.112 279.879 170.776 280.402 170.531C280.935 170.275 281.559 170.147 282.274 170.147C283.202 170.147 283.964 170.349 284.562 170.755C285.17 171.149 285.618 171.661 285.906 172.291C286.204 172.92 286.354 173.592 286.354 174.307V174.995H279.57C279.623 175.837 279.874 176.536 280.322 177.091C280.77 177.645 281.452 177.923 282.37 177.923C283.042 177.923 283.586 177.773 284.002 177.475C284.428 177.176 284.684 176.829 284.77 176.435H286.21C286.028 177.32 285.596 178.013 284.914 178.515C284.231 179.016 283.383 179.267 282.37 179.267ZM282.274 171.491C281.506 171.491 280.903 171.709 280.466 172.147C280.028 172.573 279.751 173.139 279.634 173.843H284.85C284.754 173.117 284.492 172.547 284.066 172.131C283.639 171.704 283.042 171.491 282.274 171.491ZM291.335 179.235C290.215 179.235 289.345 178.995 288.727 178.515C288.119 178.035 287.804 177.379 287.783 176.547H289.223C289.244 176.877 289.409 177.192 289.719 177.491C290.039 177.779 290.577 177.923 291.335 177.923C292.017 177.923 292.54 177.789 292.903 177.523C293.265 177.245 293.447 176.909 293.447 176.515C293.447 176.163 293.313 175.891 293.047 175.699C292.78 175.496 292.348 175.363 291.751 175.299L290.823 175.203C290.012 175.117 289.351 174.877 288.839 174.483C288.327 174.077 288.071 173.512 288.071 172.787C288.071 171.965 288.375 171.325 288.983 170.867C289.591 170.408 290.375 170.179 291.335 170.179C292.295 170.179 293.073 170.392 293.671 170.819C294.268 171.245 294.577 171.88 294.599 172.723H293.159C293.148 172.381 292.988 172.093 292.679 171.859C292.38 171.613 291.932 171.491 291.335 171.491C290.737 171.491 290.284 171.613 289.975 171.859C289.665 172.104 289.511 172.413 289.511 172.787C289.511 173.107 289.617 173.363 289.831 173.555C290.055 173.747 290.417 173.869 290.919 173.923L291.847 174.019C292.764 174.115 293.5 174.371 294.055 174.787C294.609 175.192 294.887 175.768 294.887 176.515C294.887 177.048 294.732 177.523 294.423 177.939C294.124 178.344 293.708 178.664 293.175 178.899C292.641 179.123 292.028 179.235 291.335 179.235Z" fill="white"/>
<path d="M163.737 219.267C162.67 219.267 161.758 219.08 161.001 218.707C160.254 218.333 159.651 217.848 159.193 217.251C158.734 216.653 158.398 216.008 158.185 215.315C157.971 214.611 157.865 213.933 157.865 213.283V212.931C157.865 212.227 157.971 211.523 158.185 210.819C158.409 210.115 158.75 209.475 159.209 208.899C159.667 208.323 160.265 207.859 161.001 207.507C161.737 207.155 162.617 206.979 163.641 206.979C165.198 206.979 166.425 207.379 167.321 208.179C168.227 208.968 168.755 210.024 168.905 211.347H167.305C167.166 210.355 166.755 209.619 166.073 209.139C165.401 208.659 164.59 208.419 163.641 208.419C162.723 208.419 161.95 208.632 161.321 209.059C160.702 209.475 160.238 210.04 159.929 210.755C159.619 211.459 159.465 212.248 159.465 213.123C159.465 213.955 159.619 214.728 159.929 215.443C160.249 216.157 160.723 216.733 161.353 217.171C161.993 217.608 162.787 217.827 163.737 217.827C164.739 217.827 165.582 217.576 166.265 217.075C166.947 216.573 167.363 215.848 167.513 214.899H169.113C169.006 215.699 168.734 216.429 168.297 217.091C167.87 217.752 167.273 218.28 166.505 218.675C165.747 219.069 164.825 219.267 163.737 219.267ZM171.16 218.979V210.435H172.376V212.995C172.504 212.077 172.84 211.405 173.384 210.979C173.928 210.552 174.669 210.339 175.608 210.339H175.896V211.715H175.352C174.498 211.715 173.842 211.944 173.384 212.403C172.925 212.851 172.696 213.501 172.696 214.355V218.979H171.16ZM178.57 209.059C178.229 209.059 177.973 208.968 177.802 208.787C177.642 208.605 177.562 208.376 177.562 208.099C177.562 207.821 177.642 207.592 177.802 207.411C177.973 207.229 178.229 207.139 178.57 207.139C178.911 207.139 179.162 207.229 179.322 207.411C179.493 207.592 179.578 207.821 179.578 208.099C179.578 208.376 179.493 208.605 179.322 208.787C179.162 208.968 178.911 209.059 178.57 209.059ZM178.138 218.979V211.651H176.826V210.435H179.674V218.979H178.138ZM185.444 219.235C184.324 219.235 183.455 218.995 182.836 218.515C182.228 218.035 181.913 217.379 181.892 216.547H183.332C183.353 216.877 183.519 217.192 183.828 217.491C184.148 217.779 184.687 217.923 185.444 217.923C186.127 217.923 186.649 217.789 187.012 217.523C187.375 217.245 187.556 216.909 187.556 216.515C187.556 216.163 187.423 215.891 187.156 215.699C186.889 215.496 186.457 215.363 185.86 215.299L184.932 215.203C184.121 215.117 183.46 214.877 182.948 214.483C182.436 214.077 182.18 213.512 182.18 212.787C182.18 211.965 182.484 211.325 183.092 210.867C183.7 210.408 184.484 210.179 185.444 210.179C186.404 210.179 187.183 210.392 187.78 210.819C188.377 211.245 188.687 211.88 188.708 212.723H187.268C187.257 212.381 187.097 212.093 186.788 211.859C186.489 211.613 186.041 211.491 185.444 211.491C184.847 211.491 184.393 211.613 184.084 211.859C183.775 212.104 183.62 212.413 183.62 212.787C183.62 213.107 183.727 213.363 183.94 213.555C184.164 213.747 184.527 213.869 185.028 213.923L185.956 214.019C186.873 214.115 187.609 214.371 188.164 214.787C188.719 215.192 188.996 215.768 188.996 216.515C188.996 217.048 188.841 217.523 188.532 217.939C188.233 218.344 187.817 218.664 187.284 218.899C186.751 219.123 186.137 219.235 185.444 219.235ZM194.854 219.267C194.107 219.267 193.462 219.139 192.918 218.883C192.374 218.627 191.931 218.291 191.59 217.875C191.249 217.448 190.993 216.973 190.822 216.451C190.662 215.928 190.582 215.395 190.582 214.851V214.563C190.582 214.008 190.662 213.469 190.822 212.947C190.993 212.424 191.249 211.955 191.59 211.539C191.931 211.112 192.363 210.776 192.886 210.531C193.419 210.275 194.043 210.147 194.758 210.147C195.686 210.147 196.449 210.349 197.046 210.755C197.654 211.149 198.102 211.661 198.39 212.291C198.689 212.92 198.838 213.592 198.838 214.307V214.995H192.054C192.107 215.837 192.358 216.536 192.806 217.091C193.254 217.645 193.937 217.923 194.854 217.923C195.526 217.923 196.07 217.773 196.486 217.475C196.913 217.176 197.169 216.829 197.254 216.435H198.694C198.513 217.32 198.081 218.013 197.398 218.515C196.715 219.016 195.867 219.267 194.854 219.267ZM194.758 211.491C193.99 211.491 193.387 211.709 192.95 212.147C192.513 212.573 192.235 213.139 192.118 213.843H197.334C197.238 213.117 196.977 212.547 196.55 212.131C196.123 211.704 195.526 211.491 194.758 211.491ZM203.819 219.235C202.699 219.235 201.83 218.995 201.211 218.515C200.603 218.035 200.288 217.379 200.267 216.547H201.707C201.728 216.877 201.894 217.192 202.203 217.491C202.523 217.779 203.062 217.923 203.819 217.923C204.502 217.923 205.024 217.789 205.387 217.523C205.75 217.245 205.931 216.909 205.931 216.515C205.931 216.163 205.798 215.891 205.531 215.699C205.264 215.496 204.832 215.363 204.235 215.299L203.307 215.203C202.496 215.117 201.835 214.877 201.323 214.483C200.811 214.077 200.555 213.512 200.555 212.787C200.555 211.965 200.859 211.325 201.467 210.867C202.075 210.408 202.859 210.179 203.819 210.179C204.779 210.179 205.558 210.392 206.155 210.819C206.752 211.245 207.062 211.88 207.083 212.723H205.643C205.632 212.381 205.472 212.093 205.163 211.859C204.864 211.613 204.416 211.491 203.819 211.491C203.222 211.491 202.768 211.613 202.459 211.859C202.15 212.104 201.995 212.413 201.995 212.787C201.995 213.107 202.102 213.363 202.315 213.555C202.539 213.747 202.902 213.869 203.403 213.923L204.331 214.019C205.248 214.115 205.984 214.371 206.539 214.787C207.094 215.192 207.371 215.768 207.371 216.515C207.371 217.048 207.216 217.523 206.907 217.939C206.608 218.344 206.192 218.664 205.659 218.899C205.126 219.123 204.512 219.235 203.819 219.235ZM213.462 218.979V207.235H217.286C218.139 207.235 218.886 207.363 219.526 207.619C220.166 207.875 220.662 208.269 221.014 208.803C221.366 209.336 221.542 210.024 221.542 210.867V211.123C221.542 212.04 221.328 212.776 220.902 213.331C220.486 213.875 219.915 214.264 219.19 214.499L222.582 218.979H220.678L217.526 214.755C217.451 214.755 217.371 214.755 217.286 214.755H215.03V218.979H213.462ZM217.574 208.611H215.03V213.363H217.574C218.299 213.363 218.875 213.139 219.302 212.691C219.728 212.243 219.942 211.677 219.942 210.995C219.942 210.301 219.728 209.731 219.302 209.283C218.875 208.835 218.299 208.611 217.574 208.611ZM227.917 219.267C227.17 219.267 226.525 219.139 225.981 218.883C225.437 218.627 224.994 218.291 224.653 217.875C224.311 217.448 224.055 216.973 223.885 216.451C223.725 215.928 223.645 215.395 223.645 214.851V214.563C223.645 214.008 223.725 213.469 223.885 212.947C224.055 212.424 224.311 211.955 224.653 211.539C224.994 211.112 225.426 210.776 225.949 210.531C226.482 210.275 227.106 210.147 227.821 210.147C228.749 210.147 229.511 210.349 230.109 210.755C230.717 211.149 231.165 211.661 231.453 212.291C231.751 212.92 231.901 213.592 231.901 214.307V214.995H225.117C225.17 215.837 225.421 216.536 225.869 217.091C226.317 217.645 226.999 217.923 227.917 217.923C228.589 217.923 229.133 217.773 229.549 217.475C229.975 217.176 230.231 216.829 230.317 216.435H231.757C231.575 217.32 231.143 218.013 230.461 218.515C229.778 219.016 228.93 219.267 227.917 219.267ZM227.821 211.491C227.053 211.491 226.45 211.709 226.013 212.147C225.575 212.573 225.298 213.139 225.181 213.843H230.397C230.301 213.117 230.039 212.547 229.613 212.131C229.186 211.704 228.589 211.491 227.821 211.491ZM234.177 218.979V208.515H232.993V207.299H235.713V218.979H234.177ZM239.508 209.059C239.166 209.059 238.91 208.968 238.74 208.787C238.58 208.605 238.5 208.376 238.5 208.099C238.5 207.821 238.58 207.592 238.74 207.411C238.91 207.229 239.166 207.139 239.508 207.139C239.849 207.139 240.1 207.229 240.26 207.411C240.43 207.592 240.516 207.821 240.516 208.099C240.516 208.376 240.43 208.605 240.26 208.787C240.1 208.968 239.849 209.059 239.508 209.059ZM239.076 218.979V211.651H237.764V210.435H240.612V218.979H239.076ZM247.213 219.267C246.467 219.267 245.821 219.139 245.277 218.883C244.733 218.627 244.291 218.291 243.949 217.875C243.608 217.448 243.352 216.973 243.181 216.451C243.021 215.928 242.941 215.395 242.941 214.851V214.563C242.941 214.008 243.021 213.469 243.181 212.947C243.352 212.424 243.608 211.955 243.949 211.539C244.291 211.112 244.723 210.776 245.245 210.531C245.779 210.275 246.403 210.147 247.117 210.147C248.045 210.147 248.808 210.349 249.405 210.755C250.013 211.149 250.461 211.661 250.749 212.291C251.048 212.92 251.197 213.592 251.197 214.307V214.995H244.413C244.467 215.837 244.717 216.536 245.165 217.091C245.613 217.645 246.296 217.923 247.213 217.923C247.885 217.923 248.429 217.773 248.845 217.475C249.272 217.176 249.528 216.829 249.613 216.435H251.053C250.872 217.32 250.44 218.013 249.757 218.515C249.075 219.016 248.227 219.267 247.213 219.267ZM247.117 211.491C246.349 211.491 245.747 211.709 245.309 212.147C244.872 212.573 244.595 213.139 244.477 213.843H249.693C249.597 213.117 249.336 212.547 248.909 212.131C248.483 211.704 247.885 211.491 247.117 211.491ZM253.602 218.979V211.683H252.418V210.531H253.602V210.003C253.602 209.053 253.853 208.355 254.354 207.907C254.856 207.459 255.592 207.235 256.562 207.235H257.618V208.515H256.306C255.912 208.515 255.608 208.627 255.394 208.851C255.181 209.064 255.074 209.363 255.074 209.747V210.531H257.778V211.683H255.074V218.979H253.602Z" fill="#B3B3B3"/>
<path d="M162.706 250.979L166.914 239.299H169.57L173.906 250.979H172.29L171.01 247.491H165.522L164.274 250.979H162.706ZM166.018 246.083H170.482L168.514 240.707H167.922L166.018 246.083ZM179.394 251.267C178.658 251.267 178.018 251.139 177.474 250.883C176.94 250.627 176.498 250.285 176.146 249.859C175.794 249.421 175.527 248.941 175.346 248.419C175.175 247.896 175.09 247.373 175.09 246.851V246.563C175.09 246.019 175.175 245.485 175.346 244.963C175.527 244.44 175.794 243.971 176.146 243.555C176.508 243.128 176.956 242.787 177.49 242.531C178.023 242.275 178.647 242.147 179.362 242.147C180.076 242.147 180.716 242.28 181.282 242.547C181.858 242.813 182.316 243.192 182.658 243.683C183.01 244.163 183.207 244.733 183.25 245.395H181.778C181.703 244.861 181.458 244.419 181.042 244.067C180.626 243.704 180.066 243.523 179.362 243.523C178.754 243.523 178.247 243.661 177.842 243.939C177.436 244.216 177.132 244.595 176.93 245.075C176.727 245.555 176.626 246.099 176.626 246.707C176.626 247.293 176.727 247.832 176.93 248.323C177.132 248.803 177.436 249.187 177.842 249.475C178.258 249.752 178.775 249.891 179.394 249.891C180.108 249.891 180.684 249.709 181.122 249.347C181.559 248.973 181.81 248.515 181.874 247.971H183.346C183.314 248.643 183.116 249.224 182.754 249.715C182.402 250.205 181.932 250.589 181.346 250.867C180.77 251.133 180.119 251.267 179.394 251.267ZM187.801 251.203C186.83 251.203 186.068 250.963 185.513 250.483C184.969 249.992 184.697 249.304 184.697 248.419C184.697 247.512 185.001 246.829 185.609 246.371C186.217 245.901 187.076 245.667 188.185 245.667H190.345V245.459C190.345 244.275 189.748 243.683 188.553 243.683C188.062 243.683 187.55 243.693 187.017 243.715C186.484 243.736 186.041 243.757 185.689 243.779V242.435C186.03 242.403 186.409 242.381 186.825 242.371C187.252 242.349 187.657 242.339 188.041 242.339C189.353 242.339 190.308 242.579 190.905 243.059C191.513 243.539 191.817 244.376 191.817 245.571V250.979H190.601V249.283C190.217 250.563 189.284 251.203 187.801 251.203ZM188.121 249.987C188.484 249.987 188.83 249.923 189.161 249.795C189.492 249.656 189.764 249.432 189.977 249.123C190.201 248.803 190.324 248.365 190.345 247.811V246.819H188.121C187.502 246.819 187.028 246.968 186.697 247.267C186.366 247.565 186.201 247.949 186.201 248.419C186.201 248.888 186.366 249.267 186.697 249.555C187.028 249.843 187.502 249.987 188.121 249.987ZM198.204 251.267C197.393 251.267 196.668 251.069 196.028 250.675C195.399 250.28 194.903 249.752 194.54 249.091C194.177 248.419 193.996 247.672 193.996 246.851V246.563C193.996 245.752 194.172 245.016 194.524 244.355C194.876 243.683 195.361 243.149 195.98 242.755C196.609 242.349 197.335 242.147 198.156 242.147C198.785 242.147 199.361 242.275 199.884 242.531C200.417 242.787 200.849 243.187 201.18 243.731V239.299H202.716V250.979H201.5V249.219C201.169 249.944 200.705 250.467 200.108 250.787C199.521 251.107 198.887 251.267 198.204 251.267ZM198.412 249.923C198.935 249.923 199.409 249.805 199.836 249.571C200.263 249.336 200.604 249 200.86 248.563C201.116 248.115 201.244 247.592 201.244 246.995V246.259C201.244 245.672 201.111 245.176 200.844 244.771C200.588 244.355 200.241 244.04 199.804 243.827C199.377 243.603 198.908 243.491 198.396 243.491C197.543 243.491 196.849 243.784 196.316 244.371C195.793 244.957 195.532 245.736 195.532 246.707C195.532 247.357 195.655 247.928 195.9 248.419C196.145 248.899 196.487 249.272 196.924 249.539C197.361 249.795 197.857 249.923 198.412 249.923ZM209.299 251.267C208.553 251.267 207.907 251.139 207.363 250.883C206.819 250.627 206.377 250.291 206.035 249.875C205.694 249.448 205.438 248.973 205.267 248.451C205.107 247.928 205.027 247.395 205.027 246.851V246.563C205.027 246.008 205.107 245.469 205.267 244.947C205.438 244.424 205.694 243.955 206.035 243.539C206.377 243.112 206.809 242.776 207.331 242.531C207.865 242.275 208.489 242.147 209.203 242.147C210.131 242.147 210.894 242.349 211.491 242.755C212.099 243.149 212.547 243.661 212.835 244.291C213.134 244.92 213.283 245.592 213.283 246.307V246.995H206.499C206.553 247.837 206.803 248.536 207.251 249.091C207.699 249.645 208.382 249.923 209.299 249.923C209.971 249.923 210.515 249.773 210.931 249.475C211.358 249.176 211.614 248.829 211.699 248.435H213.139C212.958 249.32 212.526 250.013 211.843 250.515C211.161 251.016 210.313 251.267 209.299 251.267ZM209.203 243.491C208.435 243.491 207.833 243.709 207.395 244.147C206.958 244.573 206.681 245.139 206.563 245.843H211.779C211.683 245.117 211.422 244.547 210.995 244.131C210.569 243.704 209.971 243.491 209.203 243.491ZM215.464 250.979V242.435H216.68V244.403C216.862 243.688 217.182 243.139 217.64 242.755C218.11 242.371 218.718 242.179 219.464 242.179H219.528C220.254 242.179 220.846 242.36 221.304 242.723C221.763 243.085 222.088 243.608 222.28 244.291C222.483 243.608 222.814 243.085 223.272 242.723C223.742 242.36 224.339 242.179 225.064 242.179H225.128C226.142 242.179 226.894 242.525 227.384 243.219C227.886 243.901 228.136 244.861 228.136 246.099V250.979H226.6V245.763C226.6 245.069 226.43 244.536 226.088 244.163C225.747 243.779 225.272 243.587 224.664 243.587C224.035 243.587 223.528 243.789 223.144 244.195C222.76 244.589 222.568 245.144 222.568 245.859V250.979H221.032V245.763C221.032 245.069 220.862 244.536 220.52 244.163C220.179 243.779 219.704 243.587 219.096 243.587C218.467 243.587 217.96 243.789 217.576 244.195C217.192 244.589 217 245.144 217 245.859V250.979H215.464ZM231.797 241.059C231.455 241.059 231.199 240.968 231.029 240.787C230.869 240.605 230.789 240.376 230.789 240.099C230.789 239.821 230.869 239.592 231.029 239.411C231.199 239.229 231.455 239.139 231.797 239.139C232.138 239.139 232.389 239.229 232.549 239.411C232.719 239.592 232.805 239.821 232.805 240.099C232.805 240.376 232.719 240.605 232.549 240.787C232.389 240.968 232.138 241.059 231.797 241.059ZM231.365 250.979V243.651H230.053V242.435H232.901V250.979H231.365ZM239.534 251.267C238.798 251.267 238.158 251.139 237.614 250.883C237.081 250.627 236.638 250.285 236.286 249.859C235.934 249.421 235.668 248.941 235.486 248.419C235.316 247.896 235.23 247.373 235.23 246.851V246.563C235.23 246.019 235.316 245.485 235.486 244.963C235.668 244.44 235.934 243.971 236.286 243.555C236.649 243.128 237.097 242.787 237.63 242.531C238.164 242.275 238.788 242.147 239.502 242.147C240.217 242.147 240.857 242.28 241.422 242.547C241.998 242.813 242.457 243.192 242.798 243.683C243.15 244.163 243.348 244.733 243.39 245.395H241.918C241.844 244.861 241.598 244.419 241.182 244.067C240.766 243.704 240.206 243.523 239.502 243.523C238.894 243.523 238.388 243.661 237.982 243.939C237.577 244.216 237.273 244.595 237.07 245.075C236.868 245.555 236.766 246.099 236.766 246.707C236.766 247.293 236.868 247.832 237.07 248.323C237.273 248.803 237.577 249.187 237.982 249.475C238.398 249.752 238.916 249.891 239.534 249.891C240.249 249.891 240.825 249.709 241.262 249.347C241.7 248.973 241.95 248.515 242.014 247.971H243.486C243.454 248.643 243.257 249.224 242.894 249.715C242.542 250.205 242.073 250.589 241.486 250.867C240.91 251.133 240.26 251.267 239.534 251.267ZM248.374 251.235C247.254 251.235 246.384 250.995 245.766 250.515C245.158 250.035 244.843 249.379 244.822 248.547H246.262C246.283 248.877 246.448 249.192 246.758 249.491C247.078 249.779 247.616 249.923 248.374 249.923C249.056 249.923 249.579 249.789 249.942 249.523C250.304 249.245 250.486 248.909 250.486 248.515C250.486 248.163 250.352 247.891 250.086 247.699C249.819 247.496 249.387 247.363 248.79 247.299L247.862 247.203C247.051 247.117 246.39 246.877 245.878 246.483C245.366 246.077 245.11 245.512 245.11 244.787C245.11 243.965 245.414 243.325 246.022 242.867C246.63 242.408 247.414 242.179 248.374 242.179C249.334 242.179 250.112 242.392 250.71 242.819C251.307 243.245 251.616 243.88 251.638 244.723H250.198C250.187 244.381 250.027 244.093 249.718 243.859C249.419 243.613 248.971 243.491 248.374 243.491C247.776 243.491 247.323 243.613 247.014 243.859C246.704 244.104 246.55 244.413 246.55 244.787C246.55 245.107 246.656 245.363 246.87 245.555C247.094 245.747 247.456 245.869 247.958 245.923L248.886 246.019C249.803 246.115 250.539 246.371 251.094 246.787C251.648 247.192 251.926 247.768 251.926 248.515C251.926 249.048 251.771 249.523 251.462 249.939C251.163 250.344 250.747 250.664 250.214 250.899C249.68 251.123 249.067 251.235 248.374 251.235Z" fill="#B3B3B3"/>
<path d="M187.499 282.979V272.707H183.947V271.299H192.619V272.707H189.067V282.979H187.499ZM194.019 282.979V274.435H195.235V276.995C195.363 276.077 195.699 275.405 196.243 274.979C196.787 274.552 197.528 274.339 198.467 274.339H198.755V275.715H198.211C197.358 275.715 196.702 275.944 196.243 276.403C195.784 276.851 195.555 277.501 195.555 278.355V282.979H194.019ZM202.918 283.203C201.947 283.203 201.185 282.963 200.63 282.483C200.086 281.992 199.814 281.304 199.814 280.419C199.814 279.512 200.118 278.829 200.726 278.371C201.334 277.901 202.193 277.667 203.302 277.667H205.462V277.459C205.462 276.275 204.865 275.683 203.67 275.683C203.179 275.683 202.667 275.693 202.134 275.715C201.601 275.736 201.158 275.757 200.806 275.779V274.435C201.147 274.403 201.526 274.381 201.942 274.371C202.369 274.349 202.774 274.339 203.158 274.339C204.47 274.339 205.425 274.579 206.022 275.059C206.63 275.539 206.934 276.376 206.934 277.571V282.979H205.718V281.283C205.334 282.563 204.401 283.203 202.918 283.203ZM203.238 281.987C203.601 281.987 203.947 281.923 204.278 281.795C204.609 281.656 204.881 281.432 205.094 281.123C205.318 280.803 205.441 280.365 205.462 279.811V278.819H203.238C202.619 278.819 202.145 278.968 201.814 279.267C201.483 279.565 201.318 279.949 201.318 280.419C201.318 280.888 201.483 281.267 201.814 281.555C202.145 281.843 202.619 281.987 203.238 281.987ZM211.546 282.979L208.634 274.435H210.234L212.682 281.763H213.018L215.146 274.435H216.65L214.122 282.979H211.546ZM222.135 283.267C221.389 283.267 220.743 283.139 220.199 282.883C219.655 282.627 219.213 282.291 218.871 281.875C218.53 281.448 218.274 280.973 218.103 280.451C217.943 279.928 217.863 279.395 217.863 278.851V278.563C217.863 278.008 217.943 277.469 218.103 276.947C218.274 276.424 218.53 275.955 218.871 275.539C219.213 275.112 219.645 274.776 220.167 274.531C220.701 274.275 221.325 274.147 222.039 274.147C222.967 274.147 223.73 274.349 224.327 274.755C224.935 275.149 225.383 275.661 225.671 276.291C225.97 276.92 226.119 277.592 226.119 278.307V278.995H219.335C219.389 279.837 219.639 280.536 220.087 281.091C220.535 281.645 221.218 281.923 222.135 281.923C222.807 281.923 223.351 281.773 223.767 281.475C224.194 281.176 224.45 280.829 224.535 280.435H225.975C225.794 281.32 225.362 282.013 224.679 282.515C223.997 283.016 223.149 283.267 222.135 283.267ZM222.039 275.491C221.271 275.491 220.669 275.709 220.231 276.147C219.794 276.573 219.517 277.139 219.399 277.843H224.615C224.519 277.117 224.258 276.547 223.831 276.131C223.405 275.704 222.807 275.491 222.039 275.491ZM228.396 282.979V272.515H227.212V271.299H229.932V282.979H228.396Z" fill="#B3B3B3"/>
<path d="M182.423 314.979V303.299H183.991V308.467H190.327V303.299H191.895V314.979H190.327V309.875H183.991V314.979H182.423ZM198.69 315.267C197.943 315.267 197.298 315.139 196.754 314.883C196.21 314.627 195.767 314.291 195.426 313.875C195.085 313.448 194.829 312.973 194.658 312.451C194.498 311.928 194.418 311.395 194.418 310.851V310.563C194.418 310.008 194.498 309.469 194.658 308.947C194.829 308.424 195.085 307.955 195.426 307.539C195.767 307.112 196.199 306.776 196.722 306.531C197.255 306.275 197.879 306.147 198.594 306.147C199.522 306.147 200.285 306.349 200.882 306.755C201.49 307.149 201.938 307.661 202.226 308.291C202.525 308.92 202.674 309.592 202.674 310.307V310.995H195.89C195.943 311.837 196.194 312.536 196.642 313.091C197.09 313.645 197.773 313.923 198.69 313.923C199.362 313.923 199.906 313.773 200.322 313.475C200.749 313.176 201.005 312.829 201.09 312.435H202.53C202.349 313.32 201.917 314.013 201.234 314.515C200.551 315.016 199.703 315.267 198.69 315.267ZM198.594 307.491C197.826 307.491 197.223 307.709 196.786 308.147C196.349 308.573 196.071 309.139 195.954 309.843H201.17C201.074 309.117 200.813 308.547 200.386 308.131C199.959 307.704 199.362 307.491 198.594 307.491ZM207.223 315.203C206.252 315.203 205.489 314.963 204.935 314.483C204.391 313.992 204.119 313.304 204.119 312.419C204.119 311.512 204.423 310.829 205.031 310.371C205.639 309.901 206.497 309.667 207.607 309.667H209.767V309.459C209.767 308.275 209.169 307.683 207.975 307.683C207.484 307.683 206.972 307.693 206.439 307.715C205.905 307.736 205.463 307.757 205.111 307.779V306.435C205.452 306.403 205.831 306.381 206.247 306.371C206.673 306.349 207.079 306.339 207.463 306.339C208.775 306.339 209.729 306.579 210.327 307.059C210.935 307.539 211.239 308.376 211.239 309.571V314.979H210.023V313.283C209.639 314.563 208.705 315.203 207.223 315.203ZM207.543 313.987C207.905 313.987 208.252 313.923 208.583 313.795C208.913 313.656 209.185 313.432 209.399 313.123C209.623 312.803 209.745 312.365 209.767 311.811V310.819H207.543C206.924 310.819 206.449 310.968 206.119 311.267C205.788 311.565 205.623 311.949 205.623 312.419C205.623 312.888 205.788 313.267 206.119 313.555C206.449 313.843 206.924 313.987 207.543 313.987ZM214.154 314.979V304.515H212.97V303.299H215.69V314.979H214.154ZM221.964 315.075C221.324 315.075 220.769 314.984 220.3 314.803C219.841 314.621 219.484 314.312 219.228 313.875C218.983 313.427 218.86 312.824 218.86 312.067V307.587H217.388V306.435H218.86V303.843H220.332V306.435H223.276V307.587H220.332V312.259C220.332 312.717 220.455 313.075 220.7 313.331C220.956 313.576 221.313 313.699 221.772 313.699H223.276V315.075H221.964ZM225.449 314.979V303.299H226.985V307.939C227.219 307.373 227.555 306.941 227.993 306.643C228.441 306.333 229.011 306.179 229.705 306.179H229.769C230.793 306.179 231.566 306.52 232.089 307.203C232.611 307.875 232.873 308.84 232.873 310.099V314.979H231.337V309.779C231.337 309.085 231.139 308.547 230.745 308.163C230.361 307.779 229.859 307.587 229.241 307.587C228.558 307.587 228.009 307.816 227.593 308.275C227.187 308.723 226.985 309.315 226.985 310.051V314.979H225.449Z" fill="#B3B3B3"/>
<defs>
<filter id="filter0_f_3670_26570" x="-18.9922" y="0.237305" width="452.906" height="435.481" filterUnits="userSpaceOnUse" color-interpolation-filters="sRGB">
<feFlood flood-opacity="0" result="BackgroundImageFix"/>
<feBlend mode="normal" in="SourceGraphic" in2="BackgroundImageFix" result="shape"/>
<feGaussianBlur stdDeviation="25" result="effect1_foregroundBlur_3670_26570"/>
</filter>
<linearGradient id="paint0_linear_3670_26570" x1="22.7969" y1="53.6708" x2="396.85" y2="335.541" gradientUnits="userSpaceOnUse">
<stop stop-color="#1256E2"/>
<stop offset="1" stop-color="#06286C"/>
</linearGradient>
<linearGradient id="paint1_linear_3670_26570" x1="287.172" y1="364.665" x2="6.9061" y2="109.593" gradientUnits="userSpaceOnUse">
<stop stop-color="#000E29"/>
<stop offset="0.853292" stop-color="#00308F"/>
</linearGradient>
<clipPath id="clip0_3670_26570">
<rect width="24" height="24" fill="white" transform="translate(195.469 127.979)"/>
</clipPath>
</defs>
</svg>
