<svg width="489" height="437" viewBox="0 0 489 437" fill="none" xmlns="http://www.w3.org/2000/svg">
<path d="M49.3125 43.3965H126.944C128.456 43.3966 129.933 43.8538 131.181 44.708L148.351 56.4629C149.765 57.431 151.439 57.9492 153.152 57.9492H323.56C325.273 57.9492 326.948 57.4311 328.362 56.4629L345.531 44.708C346.701 43.9071 348.072 43.4547 349.485 43.4014L349.769 43.3965H439.192C443.334 43.3966 446.692 46.7544 446.692 50.8965V137.374C446.692 137.902 446.636 138.428 446.525 138.944L437.317 181.925C437.192 182.51 437.129 183.107 437.129 183.705V385.993C437.129 390.135 433.771 393.493 429.629 393.493H58.7734C54.6314 393.493 51.2734 390.135 51.2734 385.993V173.322C51.2734 172.552 51.1693 171.786 50.9629 171.044L42.0869 139.139C41.9049 138.484 41.8125 137.808 41.8125 137.129V50.8965C41.8125 46.7543 45.1704 43.3965 49.3125 43.3965Z" fill="#EFF3F4" stroke="url(#paint0_linear_3800_26028)"/>
<g filter="url(#filter0_f_3800_26028)">
<path d="M50.3359 50.7031H134.525L154.835 64.6084H322.397L342.707 50.7031H438.164V141.788L429.026 184.44V386.185H59.3764V174.285L50.3359 141.788V50.7031Z" fill="url(#paint1_linear_3800_26028)"/>
<path d="M59.876 174.217L59.8584 174.15L50.8359 141.721V51.2031H134.37L154.553 65.0205L154.681 65.1084H322.552L322.679 65.0205L342.861 51.2031H437.664V141.733L428.537 184.335L428.526 184.387V385.685H59.876V174.217Z" stroke="#001E5B"/>
</g>
<rect x="91.7578" y="91.9922" width="305" height="295" rx="24" fill="#EFF3F4"/>
<path d="M249.258 132.492L253.258 136.492" stroke="#E63946" stroke-width="2" stroke-linecap="round" stroke-linejoin="round"/>
<path d="M253.258 132.492L249.258 136.492" stroke="#E63946" stroke-width="2" stroke-linecap="round" stroke-linejoin="round"/>
<path d="M254.258 142.492L250.758 146.492L248.758 144.492" stroke="#10A274" stroke-width="2" stroke-linecap="round" stroke-linejoin="round"/>
<path d="M245.258 132.492H234.258V136.492H245.258V132.492Z" fill="#F4B400"/>
<path d="M245.258 142.492H234.258V146.492H245.258V142.492Z" fill="#F4B400"/>
<path d="M188.977 178.492V166.748H192.801C193.655 166.748 194.401 166.876 195.041 167.132C195.681 167.388 196.177 167.783 196.529 168.316C196.881 168.85 197.057 169.538 197.057 170.38V170.636C197.057 171.554 196.844 172.29 196.417 172.844C196.001 173.388 195.431 173.778 194.705 174.012L198.097 178.492H196.193L193.041 174.268C192.967 174.268 192.887 174.268 192.801 174.268H190.545V178.492H188.977ZM193.089 168.124H190.545V172.876H193.089C193.815 172.876 194.391 172.652 194.817 172.204C195.244 171.756 195.457 171.191 195.457 170.508C195.457 169.815 195.244 169.244 194.817 168.796C194.391 168.348 193.815 168.124 193.089 168.124ZM203.432 178.78C202.685 178.78 202.04 178.652 201.496 178.396C200.952 178.14 200.509 177.804 200.168 177.388C199.827 176.962 199.571 176.487 199.4 175.964C199.24 175.442 199.16 174.908 199.16 174.364V174.076C199.16 173.522 199.24 172.983 199.4 172.46C199.571 171.938 199.827 171.468 200.168 171.052C200.509 170.626 200.941 170.29 201.464 170.044C201.997 169.788 202.621 169.66 203.336 169.66C204.264 169.66 205.027 169.863 205.624 170.268C206.232 170.663 206.68 171.175 206.968 171.804C207.267 172.434 207.416 173.106 207.416 173.82V174.508H200.632C200.685 175.351 200.936 176.05 201.384 176.604C201.832 177.159 202.515 177.436 203.432 177.436C204.104 177.436 204.648 177.287 205.064 176.988C205.491 176.69 205.747 176.343 205.832 175.948H207.272C207.091 176.834 206.659 177.527 205.976 178.028C205.293 178.53 204.445 178.78 203.432 178.78ZM203.336 171.004C202.568 171.004 201.965 171.223 201.528 171.66C201.091 172.087 200.813 172.652 200.696 173.356H205.912C205.816 172.631 205.555 172.06 205.128 171.644C204.701 171.218 204.104 171.004 203.336 171.004ZM216.141 181.692V177.084C215.81 177.66 215.378 178.087 214.845 178.364C214.312 178.642 213.73 178.78 213.101 178.78C212.29 178.78 211.57 178.578 210.941 178.172C210.322 177.756 209.837 177.212 209.485 176.54C209.133 175.858 208.957 175.111 208.957 174.3V174.012C208.957 173.202 209.133 172.471 209.485 171.82C209.837 171.159 210.328 170.636 210.957 170.252C211.597 169.858 212.333 169.66 213.165 169.66C213.922 169.66 214.584 169.831 215.149 170.172C215.714 170.503 216.152 170.988 216.461 171.628V169.948H217.677V181.692H216.141ZM213.373 177.372C213.896 177.372 214.37 177.255 214.797 177.02C215.224 176.786 215.565 176.45 215.821 176.012C216.077 175.564 216.205 175.042 216.205 174.444V173.708C216.205 173.122 216.072 172.626 215.805 172.22C215.549 171.804 215.202 171.49 214.765 171.276C214.338 171.052 213.874 170.94 213.373 170.94C212.797 170.94 212.29 171.074 211.853 171.34C211.426 171.607 211.09 171.986 210.845 172.476C210.61 172.956 210.493 173.516 210.493 174.156C210.493 174.796 210.616 175.362 210.861 175.852C211.106 176.332 211.448 176.706 211.885 176.972C212.322 177.239 212.818 177.372 213.373 177.372ZM223.588 178.748C222.575 178.748 221.796 178.418 221.252 177.756C220.708 177.095 220.436 176.14 220.436 174.892V169.932H221.972V175.196C221.972 175.868 222.154 176.396 222.516 176.78C222.879 177.154 223.37 177.34 223.988 177.34C224.628 177.34 225.151 177.138 225.556 176.732C225.962 176.316 226.164 175.751 226.164 175.036V169.932H227.7V178.492H226.484V176.524C226.292 177.25 225.962 177.804 225.492 178.188C225.023 178.562 224.41 178.748 223.652 178.748H223.588ZM231.523 168.572C231.182 168.572 230.926 168.482 230.755 168.3C230.595 168.119 230.515 167.89 230.515 167.612C230.515 167.335 230.595 167.106 230.755 166.924C230.926 166.743 231.182 166.652 231.523 166.652C231.864 166.652 232.115 166.743 232.275 166.924C232.446 167.106 232.531 167.335 232.531 167.612C232.531 167.89 232.446 168.119 232.275 168.3C232.115 168.482 231.864 168.572 231.523 168.572ZM231.091 178.492V171.164H229.779V169.948H232.627V178.492H231.091ZM235.597 178.492V169.948H236.813V172.508C236.941 171.591 237.277 170.919 237.821 170.492C238.365 170.066 239.106 169.852 240.045 169.852H240.333V171.228H239.789C238.936 171.228 238.28 171.458 237.821 171.916C237.362 172.364 237.133 173.015 237.133 173.868V178.492H235.597ZM245.698 178.78C244.951 178.78 244.306 178.652 243.762 178.396C243.218 178.14 242.775 177.804 242.434 177.388C242.092 176.962 241.836 176.487 241.666 175.964C241.506 175.442 241.426 174.908 241.426 174.364V174.076C241.426 173.522 241.506 172.983 241.666 172.46C241.836 171.938 242.092 171.468 242.434 171.052C242.775 170.626 243.207 170.29 243.73 170.044C244.263 169.788 244.887 169.66 245.602 169.66C246.53 169.66 247.292 169.863 247.89 170.268C248.498 170.663 248.946 171.175 249.234 171.804C249.532 172.434 249.682 173.106 249.682 173.82V174.508H242.898C242.951 175.351 243.202 176.05 243.65 176.604C244.098 177.159 244.78 177.436 245.698 177.436C246.37 177.436 246.914 177.287 247.33 176.988C247.756 176.69 248.012 176.343 248.098 175.948H249.538C249.356 176.834 248.924 177.527 248.242 178.028C247.559 178.53 246.711 178.78 245.698 178.78ZM245.602 171.004C244.834 171.004 244.231 171.223 243.794 171.66C243.356 172.087 243.079 172.652 242.962 173.356H248.178C248.082 172.631 247.82 172.06 247.394 171.644C246.967 171.218 246.37 171.004 245.602 171.004ZM251.863 178.492V169.948H253.079V171.916C253.26 171.202 253.58 170.652 254.039 170.268C254.508 169.884 255.116 169.692 255.863 169.692H255.927C256.652 169.692 257.244 169.874 257.703 170.236C258.161 170.599 258.487 171.122 258.679 171.804C258.881 171.122 259.212 170.599 259.671 170.236C260.14 169.874 260.737 169.692 261.463 169.692H261.527C262.54 169.692 263.292 170.039 263.783 170.732C264.284 171.415 264.535 172.375 264.535 173.612V178.492H262.999V173.276C262.999 172.583 262.828 172.05 262.487 171.676C262.145 171.292 261.671 171.1 261.063 171.1C260.433 171.1 259.927 171.303 259.543 171.708C259.159 172.103 258.967 172.658 258.967 173.372V178.492H257.431V173.276C257.431 172.583 257.26 172.05 256.919 171.676C256.577 171.292 256.103 171.1 255.495 171.1C254.865 171.1 254.359 171.303 253.975 171.708C253.591 172.103 253.399 172.658 253.399 173.372V178.492H251.863ZM270.979 178.78C270.232 178.78 269.587 178.652 269.043 178.396C268.499 178.14 268.056 177.804 267.715 177.388C267.374 176.962 267.118 176.487 266.947 175.964C266.787 175.442 266.707 174.908 266.707 174.364V174.076C266.707 173.522 266.787 172.983 266.947 172.46C267.118 171.938 267.374 171.468 267.715 171.052C268.056 170.626 268.488 170.29 269.011 170.044C269.544 169.788 270.168 169.66 270.883 169.66C271.811 169.66 272.574 169.863 273.171 170.268C273.779 170.663 274.227 171.175 274.515 171.804C274.814 172.434 274.963 173.106 274.963 173.82V174.508H268.179C268.232 175.351 268.483 176.05 268.931 176.604C269.379 177.159 270.062 177.436 270.979 177.436C271.651 177.436 272.195 177.287 272.611 176.988C273.038 176.69 273.294 176.343 273.379 175.948H274.819C274.638 176.834 274.206 177.527 273.523 178.028C272.84 178.53 271.992 178.78 270.979 178.78ZM270.883 171.004C270.115 171.004 269.512 171.223 269.075 171.66C268.638 172.087 268.36 172.652 268.243 173.356H273.459C273.363 172.631 273.102 172.06 272.675 171.644C272.248 171.218 271.651 171.004 270.883 171.004ZM277.144 178.492V169.948H278.36V171.932C278.552 171.207 278.893 170.652 279.384 170.268C279.885 169.884 280.536 169.692 281.336 169.692H281.4C282.477 169.692 283.272 170.028 283.784 170.7C284.307 171.372 284.568 172.343 284.568 173.612V178.492H283.032V173.292C283.032 172.631 282.845 172.103 282.472 171.708C282.099 171.303 281.587 171.1 280.936 171.1C280.264 171.1 279.72 171.308 279.304 171.724C278.888 172.14 278.68 172.695 278.68 173.388V178.492H277.144ZM290.706 178.588C290.066 178.588 289.512 178.498 289.042 178.316C288.584 178.135 288.226 177.826 287.97 177.388C287.725 176.94 287.602 176.338 287.602 175.58V171.1H286.13V169.948H287.602V167.356H289.074V169.948H292.018V171.1H289.074V175.772C289.074 176.231 289.197 176.588 289.442 176.844C289.698 177.09 290.056 177.212 290.514 177.212H292.018V178.588H290.706ZM296.928 178.748C295.808 178.748 294.939 178.508 294.32 178.028C293.712 177.548 293.398 176.892 293.376 176.06H294.816C294.838 176.391 295.003 176.706 295.312 177.004C295.632 177.292 296.171 177.436 296.928 177.436C297.611 177.436 298.134 177.303 298.496 177.036C298.859 176.759 299.04 176.423 299.04 176.028C299.04 175.676 298.907 175.404 298.64 175.212C298.374 175.01 297.942 174.876 297.344 174.812L296.416 174.716C295.606 174.631 294.944 174.391 294.432 173.996C293.92 173.591 293.664 173.026 293.664 172.3C293.664 171.479 293.968 170.839 294.576 170.38C295.184 169.922 295.968 169.692 296.928 169.692C297.888 169.692 298.667 169.906 299.264 170.332C299.862 170.759 300.171 171.394 300.192 172.236H298.752C298.742 171.895 298.582 171.607 298.272 171.372C297.974 171.127 297.526 171.004 296.928 171.004C296.331 171.004 295.878 171.127 295.568 171.372C295.259 171.618 295.104 171.927 295.104 172.3C295.104 172.62 295.211 172.876 295.424 173.068C295.648 173.26 296.011 173.383 296.512 173.436L297.44 173.532C298.358 173.628 299.094 173.884 299.648 174.3C300.203 174.706 300.48 175.282 300.48 176.028C300.48 176.562 300.326 177.036 300.016 177.452C299.718 177.858 299.302 178.178 298.768 178.412C298.235 178.636 297.622 178.748 296.928 178.748Z" fill="#2A2A2A"/>
<path d="M178.309 218.556V206.748H182.117C183.397 206.748 184.352 207.02 184.981 207.564C185.611 208.098 185.925 208.871 185.925 209.884V210.108C185.925 210.716 185.808 211.218 185.573 211.612C185.339 211.996 185.013 212.295 184.597 212.508C185.152 212.7 185.589 213.01 185.909 213.436C186.24 213.852 186.405 214.418 186.405 215.132V215.356C186.405 216.38 186.091 217.17 185.461 217.724C184.832 218.279 183.877 218.556 182.597 218.556H178.309ZM182.389 208.124H179.877V211.948H182.389C183.051 211.948 183.536 211.772 183.845 211.42C184.165 211.058 184.325 210.599 184.325 210.044C184.325 209.479 184.165 209.02 183.845 208.668C183.536 208.306 183.051 208.124 182.389 208.124ZM182.821 213.26H179.877V217.18H182.821C183.451 217.18 183.936 217.004 184.277 216.652C184.629 216.29 184.805 215.81 184.805 215.212C184.805 214.604 184.635 214.13 184.293 213.788C183.952 213.436 183.461 213.26 182.821 213.26ZM192.53 218.78C191.783 218.78 191.138 218.652 190.594 218.396C190.05 218.14 189.607 217.804 189.266 217.388C188.924 216.962 188.668 216.487 188.498 215.964C188.338 215.442 188.258 214.908 188.258 214.364V214.076C188.258 213.522 188.338 212.983 188.498 212.46C188.668 211.938 188.924 211.468 189.266 211.052C189.607 210.626 190.039 210.29 190.562 210.044C191.095 209.788 191.719 209.66 192.434 209.66C193.362 209.66 194.124 209.863 194.722 210.268C195.33 210.663 195.778 211.175 196.066 211.804C196.364 212.434 196.514 213.106 196.514 213.82V214.508H189.73C189.783 215.351 190.034 216.05 190.482 216.604C190.93 217.159 191.612 217.436 192.53 217.436C193.202 217.436 193.746 217.287 194.162 216.988C194.588 216.69 194.844 216.343 194.93 215.948H196.37C196.188 216.834 195.756 217.527 195.074 218.028C194.391 218.53 193.543 218.78 192.53 218.78ZM192.434 211.004C191.666 211.004 191.063 211.223 190.626 211.66C190.188 212.087 189.911 212.652 189.794 213.356H195.01C194.914 212.631 194.652 212.06 194.226 211.644C193.799 211.218 193.202 211.004 192.434 211.004ZM202.335 218.492V206.812H203.871V211.452C204.106 210.887 204.442 210.455 204.879 210.156C205.327 209.847 205.898 209.692 206.591 209.692H206.655C207.679 209.692 208.453 210.034 208.975 210.716C209.498 211.388 209.759 212.354 209.759 213.612V218.492H208.223V213.292C208.223 212.599 208.026 212.06 207.631 211.676C207.247 211.292 206.746 211.1 206.127 211.1C205.445 211.1 204.895 211.33 204.479 211.788C204.074 212.236 203.871 212.828 203.871 213.564V218.492H202.335ZM216.506 218.78C215.759 218.78 215.103 218.652 214.538 218.396C213.972 218.14 213.492 217.804 213.098 217.388C212.714 216.962 212.42 216.487 212.218 215.964C212.026 215.442 211.93 214.908 211.93 214.364V214.076C211.93 213.532 212.031 212.999 212.234 212.476C212.436 211.943 212.735 211.468 213.13 211.052C213.524 210.626 214.004 210.29 214.57 210.044C215.135 209.788 215.78 209.66 216.506 209.66C217.231 209.66 217.876 209.788 218.442 210.044C219.007 210.29 219.487 210.626 219.882 211.052C220.276 211.468 220.575 211.943 220.778 212.476C220.98 212.999 221.082 213.532 221.082 214.076V214.364C221.082 214.908 220.98 215.442 220.778 215.964C220.586 216.487 220.292 216.962 219.898 217.388C219.514 217.804 219.039 218.14 218.474 218.396C217.908 218.652 217.252 218.78 216.506 218.78ZM216.506 217.404C217.146 217.404 217.69 217.266 218.138 216.988C218.596 216.7 218.943 216.316 219.178 215.836C219.423 215.356 219.546 214.818 219.546 214.22C219.546 213.612 219.423 213.068 219.178 212.588C218.932 212.108 218.58 211.73 218.122 211.452C217.674 211.175 217.135 211.036 216.506 211.036C215.887 211.036 215.348 211.175 214.89 211.452C214.431 211.73 214.079 212.108 213.834 212.588C213.588 213.068 213.466 213.612 213.466 214.22C213.466 214.818 213.583 215.356 213.818 215.836C214.063 216.316 214.41 216.7 214.858 216.988C215.316 217.266 215.866 217.404 216.506 217.404ZM223.382 218.492V209.948H224.598V211.932C224.79 211.207 225.131 210.652 225.622 210.268C226.123 209.884 226.774 209.692 227.574 209.692H227.638C228.715 209.692 229.51 210.028 230.022 210.7C230.545 211.372 230.806 212.343 230.806 213.612V218.492H229.27V213.292C229.27 212.631 229.083 212.103 228.71 211.708C228.337 211.303 227.825 211.1 227.174 211.1C226.502 211.1 225.958 211.308 225.542 211.724C225.126 212.14 224.918 212.695 224.918 213.388V218.492H223.382ZM237.249 218.78C236.502 218.78 235.857 218.652 235.313 218.396C234.769 218.14 234.326 217.804 233.985 217.388C233.643 216.962 233.387 216.487 233.217 215.964C233.057 215.442 232.977 214.908 232.977 214.364V214.076C232.977 213.522 233.057 212.983 233.217 212.46C233.387 211.938 233.643 211.468 233.985 211.052C234.326 210.626 234.758 210.29 235.281 210.044C235.814 209.788 236.438 209.66 237.153 209.66C238.081 209.66 238.843 209.863 239.441 210.268C240.049 210.663 240.497 211.175 240.785 211.804C241.083 212.434 241.233 213.106 241.233 213.82V214.508H234.449C234.502 215.351 234.753 216.05 235.201 216.604C235.649 217.159 236.331 217.436 237.249 217.436C237.921 217.436 238.465 217.287 238.881 216.988C239.307 216.69 239.563 216.343 239.649 215.948H241.089C240.907 216.834 240.475 217.527 239.793 218.028C239.11 218.53 238.262 218.78 237.249 218.78ZM237.153 211.004C236.385 211.004 235.782 211.223 235.345 211.66C234.907 212.087 234.63 212.652 234.513 213.356H239.729C239.633 212.631 239.371 212.06 238.945 211.644C238.518 211.218 237.921 211.004 237.153 211.004ZM246.213 218.748C245.093 218.748 244.224 218.508 243.605 218.028C242.997 217.548 242.683 216.892 242.661 216.06H244.101C244.123 216.391 244.288 216.706 244.597 217.004C244.917 217.292 245.456 217.436 246.213 217.436C246.896 217.436 247.419 217.303 247.781 217.036C248.144 216.759 248.325 216.423 248.325 216.028C248.325 215.676 248.192 215.404 247.925 215.212C247.659 215.01 247.227 214.876 246.629 214.812L245.701 214.716C244.891 214.631 244.229 214.391 243.717 213.996C243.205 213.591 242.949 213.026 242.949 212.3C242.949 211.479 243.253 210.839 243.861 210.38C244.469 209.922 245.253 209.692 246.213 209.692C247.173 209.692 247.952 209.906 248.549 210.332C249.147 210.759 249.456 211.394 249.477 212.236H248.037C248.027 211.895 247.867 211.607 247.557 211.372C247.259 211.127 246.811 211.004 246.213 211.004C245.616 211.004 245.163 211.127 244.853 211.372C244.544 211.618 244.389 211.927 244.389 212.3C244.389 212.62 244.496 212.876 244.709 213.068C244.933 213.26 245.296 213.383 245.797 213.436L246.725 213.532C247.643 213.628 248.379 213.884 248.933 214.3C249.488 214.706 249.765 215.282 249.765 216.028C249.765 216.562 249.611 217.036 249.301 217.452C249.003 217.858 248.587 218.178 248.053 218.412C247.52 218.636 246.907 218.748 246.213 218.748ZM255.32 218.588C254.68 218.588 254.125 218.498 253.656 218.316C253.197 218.135 252.84 217.826 252.584 217.388C252.338 216.94 252.216 216.338 252.216 215.58V211.1H250.744V209.948H252.216V207.356H253.688V209.948H256.632V211.1H253.688V215.772C253.688 216.231 253.81 216.588 254.056 216.844C254.312 217.09 254.669 217.212 255.128 217.212H256.632V218.588H255.32ZM258.5 218.492V216.54H260.356V218.492H258.5ZM270.648 218.78C269.677 218.78 268.851 218.62 268.168 218.3C267.485 217.98 266.963 217.538 266.6 216.972C266.237 216.407 266.056 215.767 266.056 215.052H267.624C267.624 215.404 267.715 215.756 267.896 216.108C268.088 216.46 268.403 216.754 268.84 216.988C269.288 217.223 269.891 217.34 270.648 217.34C271.352 217.34 271.928 217.239 272.376 217.036C272.824 216.823 273.155 216.551 273.368 216.22C273.581 215.879 273.688 215.511 273.688 215.116C273.688 214.636 273.48 214.242 273.064 213.932C272.648 213.612 272.04 213.415 271.24 213.34L269.944 213.228C268.909 213.143 268.083 212.823 267.464 212.268C266.845 211.714 266.536 210.983 266.536 210.076C266.536 209.362 266.707 208.738 267.048 208.204C267.4 207.671 267.885 207.255 268.504 206.956C269.123 206.647 269.843 206.492 270.664 206.492C271.475 206.492 272.189 206.642 272.808 206.94C273.427 207.239 273.907 207.66 274.248 208.204C274.6 208.738 274.776 209.378 274.776 210.124H273.208C273.208 209.751 273.117 209.399 272.936 209.068C272.765 208.738 272.493 208.466 272.12 208.252C271.747 208.039 271.261 207.932 270.664 207.932C270.088 207.932 269.608 208.034 269.224 208.236C268.851 208.439 268.568 208.706 268.376 209.036C268.195 209.356 268.104 209.703 268.104 210.076C268.104 210.503 268.269 210.882 268.6 211.212C268.931 211.543 269.421 211.735 270.072 211.788L271.368 211.9C272.563 212.007 273.507 212.338 274.2 212.892C274.904 213.436 275.256 214.178 275.256 215.116C275.256 215.831 275.064 216.466 274.68 217.02C274.296 217.575 273.757 218.007 273.064 218.316C272.371 218.626 271.565 218.78 270.648 218.78ZM277.663 218.492V206.812H279.199V211.452C279.434 210.887 279.77 210.455 280.207 210.156C280.655 209.847 281.226 209.692 281.919 209.692H281.983C283.007 209.692 283.781 210.034 284.303 210.716C284.826 211.388 285.087 212.354 285.087 213.612V218.492H283.551V213.292C283.551 212.599 283.354 212.06 282.959 211.676C282.575 211.292 282.074 211.1 281.455 211.1C280.773 211.1 280.223 211.33 279.807 211.788C279.402 212.236 279.199 212.828 279.199 213.564V218.492H277.663ZM290.266 218.716C289.295 218.716 288.532 218.476 287.978 217.996C287.434 217.506 287.162 216.818 287.162 215.932C287.162 215.026 287.466 214.343 288.074 213.884C288.682 213.415 289.54 213.18 290.65 213.18H292.81V212.972C292.81 211.788 292.212 211.196 291.018 211.196C290.527 211.196 290.015 211.207 289.482 211.228C288.948 211.25 288.506 211.271 288.154 211.292V209.948C288.495 209.916 288.874 209.895 289.29 209.884C289.716 209.863 290.122 209.852 290.506 209.852C291.818 209.852 292.772 210.092 293.37 210.572C293.978 211.052 294.282 211.89 294.282 213.084V218.492H293.066V216.796C292.682 218.076 291.748 218.716 290.266 218.716ZM290.586 217.5C290.948 217.5 291.295 217.436 291.626 217.308C291.956 217.17 292.228 216.946 292.442 216.636C292.666 216.316 292.788 215.879 292.81 215.324V214.332H290.586C289.967 214.332 289.492 214.482 289.162 214.78C288.831 215.079 288.666 215.463 288.666 215.932C288.666 216.402 288.831 216.78 289.162 217.068C289.492 217.356 289.967 217.5 290.586 217.5ZM297.101 218.492V209.948H298.317V212.508C298.445 211.591 298.781 210.919 299.325 210.492C299.869 210.066 300.61 209.852 301.549 209.852H301.837V211.228H301.293C300.44 211.228 299.784 211.458 299.325 211.916C298.866 212.364 298.637 213.015 298.637 213.868V218.492H297.101ZM307.202 218.78C306.455 218.78 305.81 218.652 305.266 218.396C304.722 218.14 304.279 217.804 303.938 217.388C303.596 216.962 303.34 216.487 303.17 215.964C303.01 215.442 302.93 214.908 302.93 214.364V214.076C302.93 213.522 303.01 212.983 303.17 212.46C303.34 211.938 303.596 211.468 303.938 211.052C304.279 210.626 304.711 210.29 305.234 210.044C305.767 209.788 306.391 209.66 307.106 209.66C308.034 209.66 308.796 209.863 309.394 210.268C310.002 210.663 310.45 211.175 310.738 211.804C311.036 212.434 311.186 213.106 311.186 213.82V214.508H304.402C304.455 215.351 304.706 216.05 305.154 216.604C305.602 217.159 306.284 217.436 307.202 217.436C307.874 217.436 308.418 217.287 308.834 216.988C309.26 216.69 309.516 216.343 309.602 215.948H311.042C310.86 216.834 310.428 217.527 309.746 218.028C309.063 218.53 308.215 218.78 307.202 218.78ZM307.106 211.004C306.338 211.004 305.735 211.223 305.298 211.66C304.86 212.087 304.583 212.652 304.466 213.356H309.682C309.586 212.631 309.324 212.06 308.898 211.644C308.471 211.218 307.874 211.004 307.106 211.004ZM189.848 238.3L186.792 229.948H188.36L190.84 237.02H191.176L193.272 229.948H194.776L191.928 239.404C191.672 240.247 191.261 240.86 190.696 241.244C190.131 241.628 189.411 241.82 188.536 241.82H187.4V240.444H188.632C189.165 240.444 189.581 240.338 189.88 240.124C190.189 239.911 190.424 239.538 190.584 239.004L190.792 238.3H189.848ZM200.506 238.78C199.759 238.78 199.103 238.652 198.538 238.396C197.972 238.14 197.492 237.804 197.098 237.388C196.714 236.962 196.42 236.487 196.218 235.964C196.026 235.442 195.93 234.908 195.93 234.364V234.076C195.93 233.532 196.031 232.999 196.234 232.476C196.436 231.943 196.735 231.468 197.13 231.052C197.524 230.626 198.004 230.29 198.57 230.044C199.135 229.788 199.78 229.66 200.506 229.66C201.231 229.66 201.876 229.788 202.442 230.044C203.007 230.29 203.487 230.626 203.882 231.052C204.276 231.468 204.575 231.943 204.778 232.476C204.98 232.999 205.082 233.532 205.082 234.076V234.364C205.082 234.908 204.98 235.442 204.778 235.964C204.586 236.487 204.292 236.962 203.898 237.388C203.514 237.804 203.039 238.14 202.474 238.396C201.908 238.652 201.252 238.78 200.506 238.78ZM200.506 237.404C201.146 237.404 201.69 237.266 202.138 236.988C202.596 236.7 202.943 236.316 203.178 235.836C203.423 235.356 203.546 234.818 203.546 234.22C203.546 233.612 203.423 233.068 203.178 232.588C202.932 232.108 202.58 231.73 202.122 231.452C201.674 231.175 201.135 231.036 200.506 231.036C199.887 231.036 199.348 231.175 198.89 231.452C198.431 231.73 198.079 232.108 197.834 232.588C197.588 233.068 197.466 233.612 197.466 234.22C197.466 234.818 197.583 235.356 197.818 235.836C198.063 236.316 198.41 236.7 198.858 236.988C199.316 237.266 199.866 237.404 200.506 237.404ZM210.342 238.748C209.329 238.748 208.55 238.418 208.006 237.756C207.462 237.095 207.19 236.14 207.19 234.892V229.932H208.726V235.196C208.726 235.868 208.907 236.396 209.27 236.78C209.633 237.154 210.123 237.34 210.742 237.34C211.382 237.34 211.905 237.138 212.31 236.732C212.715 236.316 212.918 235.751 212.918 235.036V229.932H214.454V238.492H213.238V236.524C213.046 237.25 212.715 237.804 212.246 238.188C211.777 238.562 211.163 238.748 210.406 238.748H210.342ZM217.429 238.492V229.948H218.645V232.508C218.773 231.591 219.109 230.919 219.653 230.492C220.197 230.066 220.938 229.852 221.877 229.852H222.165V231.228H221.621C220.768 231.228 220.112 231.458 219.653 231.916C219.194 232.364 218.965 233.015 218.965 233.868V238.492H217.429ZM230.432 238.748C229.312 238.748 228.443 238.508 227.824 238.028C227.216 237.548 226.901 236.892 226.88 236.06H228.32C228.341 236.391 228.507 236.706 228.816 237.004C229.136 237.292 229.675 237.436 230.432 237.436C231.115 237.436 231.637 237.303 232 237.036C232.363 236.759 232.544 236.423 232.544 236.028C232.544 235.676 232.411 235.404 232.144 235.212C231.877 235.01 231.445 234.876 230.848 234.812L229.92 234.716C229.109 234.631 228.448 234.391 227.936 233.996C227.424 233.591 227.168 233.026 227.168 232.3C227.168 231.479 227.472 230.839 228.08 230.38C228.688 229.922 229.472 229.692 230.432 229.692C231.392 229.692 232.171 229.906 232.768 230.332C233.365 230.759 233.675 231.394 233.696 232.236H232.256C232.245 231.895 232.085 231.607 231.776 231.372C231.477 231.127 231.029 231.004 230.432 231.004C229.835 231.004 229.381 231.127 229.072 231.372C228.763 231.618 228.608 231.927 228.608 232.3C228.608 232.62 228.715 232.876 228.928 233.068C229.152 233.26 229.515 233.383 230.016 233.436L230.944 233.532C231.861 233.628 232.597 233.884 233.152 234.3C233.707 234.706 233.984 235.282 233.984 236.028C233.984 236.562 233.829 237.036 233.52 237.452C233.221 237.858 232.805 238.178 232.272 238.412C231.739 238.636 231.125 238.748 230.432 238.748ZM239.538 238.588C238.898 238.588 238.344 238.498 237.874 238.316C237.416 238.135 237.058 237.826 236.802 237.388C236.557 236.94 236.434 236.338 236.434 235.58V231.1H234.962V229.948H236.434V227.356H237.906V229.948H240.85V231.1H237.906V235.772C237.906 236.231 238.029 236.588 238.274 236.844C238.53 237.09 238.888 237.212 239.346 237.212H240.85V238.588H239.538ZM246.896 238.78C246.15 238.78 245.494 238.652 244.928 238.396C244.363 238.14 243.883 237.804 243.488 237.388C243.104 236.962 242.811 236.487 242.608 235.964C242.416 235.442 242.32 234.908 242.32 234.364V234.076C242.32 233.532 242.422 232.999 242.624 232.476C242.827 231.943 243.126 231.468 243.52 231.052C243.915 230.626 244.395 230.29 244.96 230.044C245.526 229.788 246.171 229.66 246.896 229.66C247.622 229.66 248.267 229.788 248.832 230.044C249.398 230.29 249.878 230.626 250.272 231.052C250.667 231.468 250.966 231.943 251.168 232.476C251.371 232.999 251.472 233.532 251.472 234.076V234.364C251.472 234.908 251.371 235.442 251.168 235.964C250.976 236.487 250.683 236.962 250.288 237.388C249.904 237.804 249.43 238.14 248.864 238.396C248.299 238.652 247.643 238.78 246.896 238.78ZM246.896 237.404C247.536 237.404 248.08 237.266 248.528 236.988C248.987 236.7 249.334 236.316 249.568 235.836C249.814 235.356 249.936 234.818 249.936 234.22C249.936 233.612 249.814 233.068 249.568 232.588C249.323 232.108 248.971 231.73 248.512 231.452C248.064 231.175 247.526 231.036 246.896 231.036C246.278 231.036 245.739 231.175 245.28 231.452C244.822 231.73 244.47 232.108 244.224 232.588C243.979 233.068 243.856 233.612 243.856 234.22C243.856 234.818 243.974 235.356 244.208 235.836C244.454 236.316 244.8 236.7 245.248 236.988C245.707 237.266 246.256 237.404 246.896 237.404ZM253.773 238.492V229.948H254.989V232.508C255.117 231.591 255.453 230.919 255.997 230.492C256.541 230.066 257.282 229.852 258.221 229.852H258.509V231.228H257.965C257.111 231.228 256.455 231.458 255.997 231.916C255.538 232.364 255.309 233.015 255.309 233.868V238.492H253.773ZM262.489 238.3L259.433 229.948H261.001L263.481 237.02H263.817L265.913 229.948H267.417L264.569 239.404C264.313 240.247 263.902 240.86 263.337 241.244C262.771 241.628 262.051 241.82 261.177 241.82H260.041V240.444H261.273C261.806 240.444 262.222 240.338 262.521 240.124C262.83 239.911 263.065 239.538 263.225 239.004L263.433 238.3H262.489ZM275.375 238.716C274.404 238.716 273.642 238.476 273.087 237.996C272.543 237.506 272.271 236.818 272.271 235.932C272.271 235.026 272.575 234.343 273.183 233.884C273.791 233.415 274.65 233.18 275.759 233.18H277.919V232.972C277.919 231.788 277.322 231.196 276.127 231.196C275.636 231.196 275.124 231.207 274.591 231.228C274.058 231.25 273.615 231.271 273.263 231.292V229.948C273.604 229.916 273.983 229.895 274.399 229.884C274.826 229.863 275.231 229.852 275.615 229.852C276.927 229.852 277.882 230.092 278.479 230.572C279.087 231.052 279.391 231.89 279.391 233.084V238.492H278.175V236.796C277.791 238.076 276.858 238.716 275.375 238.716ZM275.695 237.5C276.058 237.5 276.404 237.436 276.735 237.308C277.066 237.17 277.338 236.946 277.551 236.636C277.775 236.316 277.898 235.879 277.919 235.324V234.332H275.695C275.076 234.332 274.602 234.482 274.271 234.78C273.94 235.079 273.775 235.463 273.775 235.932C273.775 236.402 273.94 236.78 274.271 237.068C274.602 237.356 275.076 237.5 275.695 237.5ZM282.21 238.492V229.948H283.426V231.932C283.618 231.207 283.96 230.652 284.45 230.268C284.952 229.884 285.602 229.692 286.402 229.692H286.466C287.544 229.692 288.338 230.028 288.85 230.7C289.373 231.372 289.634 232.343 289.634 233.612V238.492H288.098V233.292C288.098 232.631 287.912 232.103 287.538 231.708C287.165 231.303 286.653 231.1 286.002 231.1C285.33 231.1 284.786 231.308 284.37 231.724C283.954 232.14 283.746 232.695 283.746 233.388V238.492H282.21ZM296.013 238.78C295.202 238.78 294.477 238.583 293.837 238.188C293.207 237.794 292.711 237.266 292.349 236.604C291.986 235.932 291.805 235.186 291.805 234.364V234.076C291.805 233.266 291.981 232.53 292.333 231.868C292.685 231.196 293.17 230.663 293.789 230.268C294.418 229.863 295.143 229.66 295.965 229.66C296.594 229.66 297.17 229.788 297.693 230.044C298.226 230.3 298.658 230.7 298.989 231.244V226.812H300.525V238.492H299.309V236.732C298.978 237.458 298.514 237.98 297.917 238.3C297.33 238.62 296.695 238.78 296.013 238.78ZM296.221 237.436C296.743 237.436 297.218 237.319 297.645 237.084C298.071 236.85 298.413 236.514 298.669 236.076C298.925 235.628 299.053 235.106 299.053 234.508V233.772C299.053 233.186 298.919 232.69 298.653 232.284C298.397 231.868 298.05 231.554 297.613 231.34C297.186 231.116 296.717 231.004 296.205 231.004C295.351 231.004 294.658 231.298 294.125 231.884C293.602 232.471 293.341 233.25 293.341 234.22C293.341 234.871 293.463 235.442 293.709 235.932C293.954 236.412 294.295 236.786 294.733 237.052C295.17 237.308 295.666 237.436 296.221 237.436ZM173.929 261.692V249.948H175.145V252.044C175.433 251.223 175.881 250.62 176.489 250.236C177.097 249.852 177.78 249.66 178.537 249.66C179.369 249.66 180.089 249.863 180.697 250.268C181.316 250.674 181.796 251.212 182.137 251.884C182.478 252.546 182.649 253.276 182.649 254.076V254.364C182.649 255.164 182.473 255.9 182.121 256.572C181.769 257.234 181.278 257.767 180.649 258.172C180.03 258.578 179.316 258.78 178.505 258.78C177.918 258.78 177.353 258.658 176.809 258.412C176.265 258.167 175.817 257.767 175.465 257.212V261.692H173.929ZM178.265 257.436C178.841 257.436 179.342 257.303 179.769 257.036C180.196 256.759 180.526 256.38 180.761 255.9C180.996 255.41 181.113 254.85 181.113 254.22C181.113 253.58 180.996 253.02 180.761 252.54C180.526 252.06 180.196 251.687 179.769 251.42C179.342 251.143 178.841 251.004 178.265 251.004C177.753 251.004 177.278 251.122 176.841 251.356C176.404 251.58 176.052 251.911 175.785 252.348C175.529 252.775 175.401 253.292 175.401 253.9V254.636C175.401 255.223 175.534 255.724 175.801 256.14C176.068 256.556 176.42 256.876 176.857 257.1C177.294 257.324 177.764 257.436 178.265 257.436ZM184.96 258.492V249.948H186.176V252.508C186.304 251.591 186.64 250.919 187.184 250.492C187.728 250.066 188.47 249.852 189.408 249.852H189.696V251.228H189.152C188.299 251.228 187.643 251.458 187.184 251.916C186.726 252.364 186.496 253.015 186.496 253.868V258.492H184.96ZM195.365 258.78C194.618 258.78 193.962 258.652 193.397 258.396C192.832 258.14 192.352 257.804 191.957 257.388C191.573 256.962 191.28 256.487 191.077 255.964C190.885 255.442 190.789 254.908 190.789 254.364V254.076C190.789 253.532 190.89 252.999 191.093 252.476C191.296 251.943 191.594 251.468 191.989 251.052C192.384 250.626 192.864 250.29 193.429 250.044C193.994 249.788 194.64 249.66 195.365 249.66C196.09 249.66 196.736 249.788 197.301 250.044C197.866 250.29 198.346 250.626 198.741 251.052C199.136 251.468 199.434 251.943 199.637 252.476C199.84 252.999 199.941 253.532 199.941 254.076V254.364C199.941 254.908 199.84 255.442 199.637 255.964C199.445 256.487 199.152 256.962 198.757 257.388C198.373 257.804 197.898 258.14 197.333 258.396C196.768 258.652 196.112 258.78 195.365 258.78ZM195.365 257.404C196.005 257.404 196.549 257.266 196.997 256.988C197.456 256.7 197.802 256.316 198.037 255.836C198.282 255.356 198.405 254.818 198.405 254.22C198.405 253.612 198.282 253.068 198.037 252.588C197.792 252.108 197.44 251.73 196.981 251.452C196.533 251.175 195.994 251.036 195.365 251.036C194.746 251.036 194.208 251.175 193.749 251.452C193.29 251.73 192.938 252.108 192.693 252.588C192.448 253.068 192.325 253.612 192.325 254.22C192.325 254.818 192.442 255.356 192.677 255.836C192.922 256.316 193.269 256.7 193.717 256.988C194.176 257.266 194.725 257.404 195.365 257.404ZM203.909 258.492L200.997 249.948H202.597L205.045 257.276H205.381L207.509 249.948H209.013L206.485 258.492H203.909ZM211.871 248.572C211.529 248.572 211.273 248.482 211.103 248.3C210.943 248.119 210.863 247.89 210.863 247.612C210.863 247.335 210.943 247.106 211.103 246.924C211.273 246.743 211.529 246.652 211.871 246.652C212.212 246.652 212.463 246.743 212.623 246.924C212.793 247.106 212.879 247.335 212.879 247.612C212.879 247.89 212.793 248.119 212.623 248.3C212.463 248.482 212.212 248.572 211.871 248.572ZM211.439 258.492V251.164H210.127V249.948H212.975V258.492H211.439ZM219.513 258.78C218.702 258.78 217.977 258.583 217.337 258.188C216.707 257.794 216.211 257.266 215.849 256.604C215.486 255.932 215.305 255.186 215.305 254.364V254.076C215.305 253.266 215.481 252.53 215.833 251.868C216.185 251.196 216.67 250.663 217.289 250.268C217.918 249.863 218.643 249.66 219.465 249.66C220.094 249.66 220.67 249.788 221.193 250.044C221.726 250.3 222.158 250.7 222.489 251.244V246.812H224.025V258.492H222.809V256.732C222.478 257.458 222.014 257.98 221.417 258.3C220.83 258.62 220.195 258.78 219.513 258.78ZM219.721 257.436C220.243 257.436 220.718 257.319 221.145 257.084C221.571 256.85 221.913 256.514 222.169 256.076C222.425 255.628 222.553 255.106 222.553 254.508V253.772C222.553 253.186 222.419 252.69 222.153 252.284C221.897 251.868 221.55 251.554 221.113 251.34C220.686 251.116 220.217 251.004 219.705 251.004C218.851 251.004 218.158 251.298 217.625 251.884C217.102 252.471 216.841 253.25 216.841 254.22C216.841 254.871 216.963 255.442 217.209 255.932C217.454 256.412 217.795 256.786 218.233 257.052C218.67 257.308 219.166 257.436 219.721 257.436ZM230.608 258.78C229.861 258.78 229.216 258.652 228.672 258.396C228.128 258.14 227.685 257.804 227.344 257.388C227.003 256.962 226.747 256.487 226.576 255.964C226.416 255.442 226.336 254.908 226.336 254.364V254.076C226.336 253.522 226.416 252.983 226.576 252.46C226.747 251.938 227.003 251.468 227.344 251.052C227.685 250.626 228.117 250.29 228.64 250.044C229.173 249.788 229.797 249.66 230.512 249.66C231.44 249.66 232.203 249.863 232.8 250.268C233.408 250.663 233.856 251.175 234.144 251.804C234.443 252.434 234.592 253.106 234.592 253.82V254.508H227.808C227.861 255.351 228.112 256.05 228.56 256.604C229.008 257.159 229.691 257.436 230.608 257.436C231.28 257.436 231.824 257.287 232.24 256.988C232.667 256.69 232.923 256.343 233.008 255.948H234.448C234.267 256.834 233.835 257.527 233.152 258.028C232.469 258.53 231.621 258.78 230.608 258.78ZM230.512 251.004C229.744 251.004 229.141 251.223 228.704 251.66C228.267 252.087 227.989 252.652 227.872 253.356H233.088C232.992 252.631 232.731 252.06 232.304 251.644C231.877 251.218 231.28 251.004 230.512 251.004ZM240.413 261.692V249.948H241.629V252.044C241.917 251.223 242.365 250.62 242.973 250.236C243.581 249.852 244.264 249.66 245.021 249.66C245.853 249.66 246.573 249.863 247.181 250.268C247.8 250.674 248.28 251.212 248.621 251.884C248.963 252.546 249.133 253.276 249.133 254.076V254.364C249.133 255.164 248.957 255.9 248.605 256.572C248.253 257.234 247.763 257.767 247.133 258.172C246.515 258.578 245.8 258.78 244.989 258.78C244.403 258.78 243.837 258.658 243.293 258.412C242.749 258.167 242.301 257.767 241.949 257.212V261.692H240.413ZM244.749 257.436C245.325 257.436 245.827 257.303 246.253 257.036C246.68 256.759 247.011 256.38 247.245 255.9C247.48 255.41 247.597 254.85 247.597 254.22C247.597 253.58 247.48 253.02 247.245 252.54C247.011 252.06 246.68 251.687 246.253 251.42C245.827 251.143 245.325 251.004 244.749 251.004C244.237 251.004 243.763 251.122 243.325 251.356C242.888 251.58 242.536 251.911 242.269 252.348C242.013 252.775 241.885 253.292 241.885 253.9V254.636C241.885 255.223 242.019 255.724 242.285 256.14C242.552 256.556 242.904 256.876 243.341 257.1C243.779 257.324 244.248 257.436 244.749 257.436ZM251.445 258.492V249.948H252.661V252.508C252.789 251.591 253.125 250.919 253.669 250.492C254.213 250.066 254.954 249.852 255.893 249.852H256.181V251.228H255.637C254.783 251.228 254.127 251.458 253.669 251.916C253.21 252.364 252.981 253.015 252.981 253.868V258.492H251.445ZM261.849 258.78C261.103 258.78 260.447 258.652 259.881 258.396C259.316 258.14 258.836 257.804 258.441 257.388C258.057 256.962 257.764 256.487 257.561 255.964C257.369 255.442 257.273 254.908 257.273 254.364V254.076C257.273 253.532 257.375 252.999 257.577 252.476C257.78 251.943 258.079 251.468 258.473 251.052C258.868 250.626 259.348 250.29 259.913 250.044C260.479 249.788 261.124 249.66 261.849 249.66C262.575 249.66 263.22 249.788 263.785 250.044C264.351 250.29 264.831 250.626 265.225 251.052C265.62 251.468 265.919 251.943 266.121 252.476C266.324 252.999 266.425 253.532 266.425 254.076V254.364C266.425 254.908 266.324 255.442 266.121 255.964C265.929 256.487 265.636 256.962 265.241 257.388C264.857 257.804 264.383 258.14 263.817 258.396C263.252 258.652 262.596 258.78 261.849 258.78ZM261.849 257.404C262.489 257.404 263.033 257.266 263.481 256.988C263.94 256.7 264.287 256.316 264.521 255.836C264.767 255.356 264.889 254.818 264.889 254.22C264.889 253.612 264.767 253.068 264.521 252.588C264.276 252.108 263.924 251.73 263.465 251.452C263.017 251.175 262.479 251.036 261.849 251.036C261.231 251.036 260.692 251.175 260.233 251.452C259.775 251.73 259.423 252.108 259.177 252.588C258.932 253.068 258.809 253.612 258.809 254.22C258.809 254.818 258.927 255.356 259.161 255.836C259.407 256.316 259.753 256.7 260.201 256.988C260.66 257.266 261.209 257.404 261.849 257.404ZM272.662 258.78C271.915 258.78 271.259 258.652 270.694 258.396C270.129 258.14 269.649 257.804 269.254 257.388C268.87 256.962 268.577 256.487 268.374 255.964C268.182 255.442 268.086 254.908 268.086 254.364V254.076C268.086 253.532 268.187 252.999 268.39 252.476C268.593 251.943 268.891 251.468 269.286 251.052C269.681 250.626 270.161 250.29 270.726 250.044C271.291 249.788 271.937 249.66 272.662 249.66C273.387 249.66 274.033 249.788 274.598 250.044C275.163 250.29 275.643 250.626 276.038 251.052C276.433 251.468 276.731 251.943 276.934 252.476C277.137 252.999 277.238 253.532 277.238 254.076V254.364C277.238 254.908 277.137 255.442 276.934 255.964C276.742 256.487 276.449 256.962 276.054 257.388C275.67 257.804 275.195 258.14 274.63 258.396C274.065 258.652 273.409 258.78 272.662 258.78ZM272.662 257.404C273.302 257.404 273.846 257.266 274.294 256.988C274.753 256.7 275.099 256.316 275.334 255.836C275.579 255.356 275.702 254.818 275.702 254.22C275.702 253.612 275.579 253.068 275.334 252.588C275.089 252.108 274.737 251.73 274.278 251.452C273.83 251.175 273.291 251.036 272.662 251.036C272.043 251.036 271.505 251.175 271.046 251.452C270.587 251.73 270.235 252.108 269.99 252.588C269.745 253.068 269.622 253.612 269.622 254.22C269.622 254.818 269.739 255.356 269.974 255.836C270.219 256.316 270.566 256.7 271.014 256.988C271.473 257.266 272.022 257.404 272.662 257.404ZM279.762 258.492V251.196H278.578V250.044H279.762V249.516C279.762 248.567 280.013 247.868 280.514 247.42C281.016 246.972 281.752 246.748 282.722 246.748H283.778V248.028H282.466C282.072 248.028 281.768 248.14 281.554 248.364C281.341 248.578 281.234 248.876 281.234 249.26V250.044H283.938V251.196H281.234V258.492H279.762ZM289.338 258.492V248.028H288.154V246.812H290.874V258.492H289.338ZM294.668 248.572C294.326 248.572 294.07 248.482 293.9 248.3C293.74 248.119 293.66 247.89 293.66 247.612C293.66 247.335 293.74 247.106 293.9 246.924C294.07 246.743 294.326 246.652 294.668 246.652C295.009 246.652 295.26 246.743 295.42 246.924C295.59 247.106 295.676 247.335 295.676 247.612C295.676 247.89 295.59 248.119 295.42 248.3C295.26 248.482 295.009 248.572 294.668 248.572ZM294.236 258.492V251.164H292.924V249.948H295.772V258.492H294.236ZM298.742 258.492V246.812H300.278V254.188L303.926 249.948H305.542L302.39 253.596L306.406 258.492H304.63L301.414 254.508H300.278V258.492H298.742ZM311.358 258.78C310.611 258.78 309.966 258.652 309.422 258.396C308.878 258.14 308.435 257.804 308.094 257.388C307.753 256.962 307.497 256.487 307.326 255.964C307.166 255.442 307.086 254.908 307.086 254.364V254.076C307.086 253.522 307.166 252.983 307.326 252.46C307.497 251.938 307.753 251.468 308.094 251.052C308.435 250.626 308.867 250.29 309.39 250.044C309.923 249.788 310.547 249.66 311.262 249.66C312.19 249.66 312.953 249.863 313.55 250.268C314.158 250.663 314.606 251.175 314.894 251.804C315.193 252.434 315.342 253.106 315.342 253.82V254.508H308.558C308.611 255.351 308.862 256.05 309.31 256.604C309.758 257.159 310.441 257.436 311.358 257.436C312.03 257.436 312.574 257.287 312.99 256.988C313.417 256.69 313.673 256.343 313.758 255.948H315.198C315.017 256.834 314.585 257.527 313.902 258.028C313.219 258.53 312.371 258.78 311.358 258.78ZM311.262 251.004C310.494 251.004 309.891 251.223 309.454 251.66C309.017 252.087 308.739 252.652 308.622 253.356H313.838C313.742 252.631 313.481 252.06 313.054 251.644C312.627 251.218 312.03 251.004 311.262 251.004ZM180.117 278.492V269.948H181.333V271.916C181.514 271.202 181.834 270.652 182.293 270.268C182.762 269.884 183.37 269.692 184.117 269.692H184.181C184.906 269.692 185.498 269.874 185.957 270.236C186.415 270.599 186.741 271.122 186.933 271.804C187.135 271.122 187.466 270.599 187.925 270.236C188.394 269.874 188.991 269.692 189.717 269.692H189.781C190.794 269.692 191.546 270.039 192.037 270.732C192.538 271.415 192.789 272.375 192.789 273.612V278.492H191.253V273.276C191.253 272.583 191.082 272.05 190.741 271.676C190.399 271.292 189.925 271.1 189.317 271.1C188.687 271.1 188.181 271.303 187.797 271.708C187.413 272.103 187.221 272.658 187.221 273.372V278.492H185.685V273.276C185.685 272.583 185.514 272.05 185.173 271.676C184.831 271.292 184.357 271.1 183.749 271.1C183.119 271.1 182.613 271.303 182.229 271.708C181.845 272.103 181.653 272.658 181.653 273.372V278.492H180.117ZM199.233 278.78C198.486 278.78 197.841 278.652 197.297 278.396C196.753 278.14 196.31 277.804 195.969 277.388C195.628 276.962 195.372 276.487 195.201 275.964C195.041 275.442 194.961 274.908 194.961 274.364V274.076C194.961 273.522 195.041 272.983 195.201 272.46C195.372 271.938 195.628 271.468 195.969 271.052C196.31 270.626 196.742 270.29 197.265 270.044C197.798 269.788 198.422 269.66 199.137 269.66C200.065 269.66 200.828 269.863 201.425 270.268C202.033 270.663 202.481 271.175 202.769 271.804C203.068 272.434 203.217 273.106 203.217 273.82V274.508H196.433C196.486 275.351 196.737 276.05 197.185 276.604C197.633 277.159 198.316 277.436 199.233 277.436C199.905 277.436 200.449 277.287 200.865 276.988C201.292 276.69 201.548 276.343 201.633 275.948H203.073C202.892 276.834 202.46 277.527 201.777 278.028C201.094 278.53 200.246 278.78 199.233 278.78ZM199.137 271.004C198.369 271.004 197.766 271.223 197.329 271.66C196.892 272.087 196.614 272.652 196.497 273.356H201.713C201.617 272.631 201.356 272.06 200.929 271.644C200.502 271.218 199.905 271.004 199.137 271.004ZM208.966 278.78C208.155 278.78 207.43 278.583 206.79 278.188C206.16 277.794 205.664 277.266 205.302 276.604C204.939 275.932 204.758 275.186 204.758 274.364V274.076C204.758 273.266 204.934 272.53 205.286 271.868C205.638 271.196 206.123 270.663 206.742 270.268C207.371 269.863 208.096 269.66 208.918 269.66C209.547 269.66 210.123 269.788 210.646 270.044C211.179 270.3 211.611 270.7 211.942 271.244V266.812H213.478V278.492H212.262V276.732C211.931 277.458 211.467 277.98 210.87 278.3C210.283 278.62 209.648 278.78 208.966 278.78ZM209.174 277.436C209.696 277.436 210.171 277.319 210.598 277.084C211.024 276.85 211.366 276.514 211.622 276.076C211.878 275.628 212.006 275.106 212.006 274.508V273.772C212.006 273.186 211.872 272.69 211.606 272.284C211.35 271.868 211.003 271.554 210.566 271.34C210.139 271.116 209.67 271.004 209.158 271.004C208.304 271.004 207.611 271.298 207.078 271.884C206.555 272.471 206.294 273.25 206.294 274.22C206.294 274.871 206.416 275.442 206.662 275.932C206.907 276.412 207.248 276.786 207.686 277.052C208.123 277.308 208.619 277.436 209.174 277.436ZM217.277 268.572C216.936 268.572 216.68 268.482 216.509 268.3C216.349 268.119 216.269 267.89 216.269 267.612C216.269 267.335 216.349 267.106 216.509 266.924C216.68 266.743 216.936 266.652 217.277 266.652C217.618 266.652 217.869 266.743 218.029 266.924C218.2 267.106 218.285 267.335 218.285 267.612C218.285 267.89 218.2 268.119 218.029 268.3C217.869 268.482 217.618 268.572 217.277 268.572ZM216.845 278.492V271.164H215.533V269.948H218.381V278.492H216.845ZM225.015 278.78C224.279 278.78 223.639 278.652 223.095 278.396C222.562 278.14 222.119 277.799 221.767 277.372C221.415 276.935 221.148 276.455 220.967 275.932C220.796 275.41 220.711 274.887 220.711 274.364V274.076C220.711 273.532 220.796 272.999 220.967 272.476C221.148 271.954 221.415 271.484 221.767 271.068C222.13 270.642 222.578 270.3 223.111 270.044C223.644 269.788 224.268 269.66 224.983 269.66C225.698 269.66 226.338 269.794 226.903 270.06C227.479 270.327 227.938 270.706 228.279 271.196C228.631 271.676 228.828 272.247 228.871 272.908H227.399C227.324 272.375 227.079 271.932 226.663 271.58C226.247 271.218 225.687 271.036 224.983 271.036C224.375 271.036 223.868 271.175 223.463 271.452C223.058 271.73 222.754 272.108 222.551 272.588C222.348 273.068 222.247 273.612 222.247 274.22C222.247 274.807 222.348 275.346 222.551 275.836C222.754 276.316 223.058 276.7 223.463 276.988C223.879 277.266 224.396 277.404 225.015 277.404C225.73 277.404 226.306 277.223 226.743 276.86C227.18 276.487 227.431 276.028 227.495 275.484H228.967C228.935 276.156 228.738 276.738 228.375 277.228C228.023 277.719 227.554 278.103 226.967 278.38C226.391 278.647 225.74 278.78 225.015 278.78ZM233.422 278.716C232.451 278.716 231.689 278.476 231.134 277.996C230.59 277.506 230.318 276.818 230.318 275.932C230.318 275.026 230.622 274.343 231.23 273.884C231.838 273.415 232.697 273.18 233.806 273.18H235.966V272.972C235.966 271.788 235.369 271.196 234.174 271.196C233.683 271.196 233.171 271.207 232.638 271.228C232.105 271.25 231.662 271.271 231.31 271.292V269.948C231.651 269.916 232.03 269.895 232.446 269.884C232.873 269.863 233.278 269.852 233.662 269.852C234.974 269.852 235.929 270.092 236.526 270.572C237.134 271.052 237.438 271.89 237.438 273.084V278.492H236.222V276.796C235.838 278.076 234.905 278.716 233.422 278.716ZM233.742 277.5C234.105 277.5 234.451 277.436 234.782 277.308C235.113 277.17 235.385 276.946 235.598 276.636C235.822 276.316 235.945 275.879 235.966 275.324V274.332H233.742C233.123 274.332 232.649 274.482 232.318 274.78C231.987 275.079 231.822 275.463 231.822 275.932C231.822 276.402 231.987 276.78 232.318 277.068C232.649 277.356 233.123 277.5 233.742 277.5ZM240.353 278.492V268.028H239.169V266.812H241.889V278.492H240.353ZM248.476 278.492V269.948H249.692V272.508C249.82 271.591 250.156 270.919 250.7 270.492C251.244 270.066 251.985 269.852 252.924 269.852H253.212V271.228H252.668C251.815 271.228 251.159 271.458 250.7 271.916C250.241 272.364 250.012 273.015 250.012 273.868V278.492H248.476ZM258.577 278.78C257.83 278.78 257.185 278.652 256.641 278.396C256.097 278.14 255.654 277.804 255.313 277.388C254.971 276.962 254.715 276.487 254.545 275.964C254.385 275.442 254.305 274.908 254.305 274.364V274.076C254.305 273.522 254.385 272.983 254.545 272.46C254.715 271.938 254.971 271.468 255.313 271.052C255.654 270.626 256.086 270.29 256.609 270.044C257.142 269.788 257.766 269.66 258.481 269.66C259.409 269.66 260.171 269.863 260.769 270.268C261.377 270.663 261.825 271.175 262.113 271.804C262.411 272.434 262.561 273.106 262.561 273.82V274.508H255.777C255.83 275.351 256.081 276.05 256.529 276.604C256.977 277.159 257.659 277.436 258.577 277.436C259.249 277.436 259.793 277.287 260.209 276.988C260.635 276.69 260.891 276.343 260.977 275.948H262.417C262.235 276.834 261.803 277.527 261.121 278.028C260.438 278.53 259.59 278.78 258.577 278.78ZM258.481 271.004C257.713 271.004 257.11 271.223 256.673 271.66C256.235 272.087 255.958 272.652 255.841 273.356H261.057C260.961 272.631 260.699 272.06 260.273 271.644C259.846 271.218 259.249 271.004 258.481 271.004ZM268.406 278.78C267.67 278.78 267.03 278.652 266.486 278.396C265.952 278.14 265.51 277.799 265.158 277.372C264.806 276.935 264.539 276.455 264.358 275.932C264.187 275.41 264.102 274.887 264.102 274.364V274.076C264.102 273.532 264.187 272.999 264.358 272.476C264.539 271.954 264.806 271.484 265.158 271.068C265.52 270.642 265.968 270.3 266.502 270.044C267.035 269.788 267.659 269.66 268.374 269.66C269.088 269.66 269.728 269.794 270.294 270.06C270.87 270.327 271.328 270.706 271.67 271.196C272.022 271.676 272.219 272.247 272.262 272.908H270.79C270.715 272.375 270.47 271.932 270.054 271.58C269.638 271.218 269.078 271.036 268.374 271.036C267.766 271.036 267.259 271.175 266.854 271.452C266.448 271.73 266.144 272.108 265.942 272.588C265.739 273.068 265.638 273.612 265.638 274.22C265.638 274.807 265.739 275.346 265.942 275.836C266.144 276.316 266.448 276.7 266.854 276.988C267.27 277.266 267.787 277.404 268.406 277.404C269.12 277.404 269.696 277.223 270.134 276.86C270.571 276.487 270.822 276.028 270.886 275.484H272.358C272.326 276.156 272.128 276.738 271.766 277.228C271.414 277.719 270.944 278.103 270.358 278.38C269.782 278.647 269.131 278.78 268.406 278.78ZM278.381 278.78C277.634 278.78 276.978 278.652 276.413 278.396C275.847 278.14 275.367 277.804 274.973 277.388C274.589 276.962 274.295 276.487 274.093 275.964C273.901 275.442 273.805 274.908 273.805 274.364V274.076C273.805 273.532 273.906 272.999 274.109 272.476C274.311 271.943 274.61 271.468 275.005 271.052C275.399 270.626 275.879 270.29 276.445 270.044C277.01 269.788 277.655 269.66 278.381 269.66C279.106 269.66 279.751 269.788 280.317 270.044C280.882 270.29 281.362 270.626 281.757 271.052C282.151 271.468 282.45 271.943 282.653 272.476C282.855 272.999 282.957 273.532 282.957 274.076V274.364C282.957 274.908 282.855 275.442 282.653 275.964C282.461 276.487 282.167 276.962 281.773 277.388C281.389 277.804 280.914 278.14 280.349 278.396C279.783 278.652 279.127 278.78 278.381 278.78ZM278.381 277.404C279.021 277.404 279.565 277.266 280.013 276.988C280.471 276.7 280.818 276.316 281.053 275.836C281.298 275.356 281.421 274.818 281.421 274.22C281.421 273.612 281.298 273.068 281.053 272.588C280.807 272.108 280.455 271.73 279.997 271.452C279.549 271.175 279.01 271.036 278.381 271.036C277.762 271.036 277.223 271.175 276.765 271.452C276.306 271.73 275.954 272.108 275.709 272.588C275.463 273.068 275.341 273.612 275.341 274.22C275.341 274.818 275.458 275.356 275.693 275.836C275.938 276.316 276.285 276.7 276.733 276.988C277.191 277.266 277.741 277.404 278.381 277.404ZM285.257 278.492V269.948H286.473V272.508C286.601 271.591 286.937 270.919 287.481 270.492C288.025 270.066 288.766 269.852 289.705 269.852H289.993V271.228H289.449C288.596 271.228 287.94 271.458 287.481 271.916C287.022 272.364 286.793 273.015 286.793 273.868V278.492H285.257ZM295.294 278.78C294.483 278.78 293.758 278.583 293.118 278.188C292.489 277.794 291.993 277.266 291.63 276.604C291.267 275.932 291.086 275.186 291.086 274.364V274.076C291.086 273.266 291.262 272.53 291.614 271.868C291.966 271.196 292.451 270.663 293.07 270.268C293.699 269.863 294.425 269.66 295.246 269.66C295.875 269.66 296.451 269.788 296.974 270.044C297.507 270.3 297.939 270.7 298.27 271.244V266.812H299.806V278.492H298.59V276.732C298.259 277.458 297.795 277.98 297.198 278.3C296.611 278.62 295.977 278.78 295.294 278.78ZM295.502 277.436C296.025 277.436 296.499 277.319 296.926 277.084C297.353 276.85 297.694 276.514 297.95 276.076C298.206 275.628 298.334 275.106 298.334 274.508V273.772C298.334 273.186 298.201 272.69 297.934 272.284C297.678 271.868 297.331 271.554 296.894 271.34C296.467 271.116 295.998 271.004 295.486 271.004C294.633 271.004 293.939 271.298 293.406 271.884C292.883 272.471 292.622 273.25 292.622 274.22C292.622 274.871 292.745 275.442 292.99 275.932C293.235 276.412 293.577 276.786 294.014 277.052C294.451 277.308 294.947 277.436 295.502 277.436ZM305.557 278.748C304.437 278.748 303.568 278.508 302.949 278.028C302.341 277.548 302.026 276.892 302.005 276.06H303.445C303.466 276.391 303.632 276.706 303.941 277.004C304.261 277.292 304.8 277.436 305.557 277.436C306.24 277.436 306.762 277.303 307.125 277.036C307.488 276.759 307.669 276.423 307.669 276.028C307.669 275.676 307.536 275.404 307.269 275.212C307.002 275.01 306.57 274.876 305.973 274.812L305.045 274.716C304.234 274.631 303.573 274.391 303.061 273.996C302.549 273.591 302.293 273.026 302.293 272.3C302.293 271.479 302.597 270.839 303.205 270.38C303.813 269.922 304.597 269.692 305.557 269.692C306.517 269.692 307.296 269.906 307.893 270.332C308.49 270.759 308.8 271.394 308.821 272.236H307.381C307.37 271.895 307.21 271.607 306.901 271.372C306.602 271.127 306.154 271.004 305.557 271.004C304.96 271.004 304.506 271.127 304.197 271.372C303.888 271.618 303.733 271.927 303.733 272.3C303.733 272.62 303.84 272.876 304.053 273.068C304.277 273.26 304.64 273.383 305.141 273.436L306.069 273.532C306.986 273.628 307.722 273.884 308.277 274.3C308.832 274.706 309.109 275.282 309.109 276.028C309.109 276.562 308.954 277.036 308.645 277.452C308.346 277.858 307.93 278.178 307.397 278.412C306.864 278.636 306.25 278.748 305.557 278.748ZM197.969 298.716C196.998 298.716 196.236 298.476 195.681 297.996C195.137 297.506 194.865 296.818 194.865 295.932C194.865 295.026 195.169 294.343 195.777 293.884C196.385 293.415 197.244 293.18 198.353 293.18H200.513V292.972C200.513 291.788 199.916 291.196 198.721 291.196C198.23 291.196 197.718 291.207 197.185 291.228C196.652 291.25 196.209 291.271 195.857 291.292V289.948C196.198 289.916 196.577 289.895 196.993 289.884C197.42 289.863 197.825 289.852 198.209 289.852C199.521 289.852 200.476 290.092 201.073 290.572C201.681 291.052 201.985 291.89 201.985 293.084V298.492H200.769V296.796C200.385 298.076 199.452 298.716 197.969 298.716ZM198.289 297.5C198.652 297.5 198.998 297.436 199.329 297.308C199.66 297.17 199.932 296.946 200.145 296.636C200.369 296.316 200.492 295.879 200.513 295.324V294.332H198.289C197.67 294.332 197.196 294.482 196.865 294.78C196.534 295.079 196.369 295.463 196.369 295.932C196.369 296.402 196.534 296.78 196.865 297.068C197.196 297.356 197.67 297.5 198.289 297.5ZM204.804 298.492V289.948H206.02V291.932C206.212 291.207 206.553 290.652 207.044 290.268C207.545 289.884 208.196 289.692 208.996 289.692H209.06C210.137 289.692 210.932 290.028 211.444 290.7C211.967 291.372 212.228 292.343 212.228 293.612V298.492H210.692V293.292C210.692 292.631 210.505 292.103 210.132 291.708C209.759 291.303 209.247 291.1 208.596 291.1C207.924 291.1 207.38 291.308 206.964 291.724C206.548 292.14 206.34 292.695 206.34 293.388V298.492H204.804ZM218.606 298.78C217.796 298.78 217.07 298.583 216.43 298.188C215.801 297.794 215.305 297.266 214.942 296.604C214.58 295.932 214.398 295.186 214.398 294.364V294.076C214.398 293.266 214.574 292.53 214.926 291.868C215.278 291.196 215.764 290.663 216.382 290.268C217.012 289.863 217.737 289.66 218.558 289.66C219.188 289.66 219.764 289.788 220.286 290.044C220.82 290.3 221.252 290.7 221.582 291.244V286.812H223.118V298.492H221.902V296.732C221.572 297.458 221.108 297.98 220.51 298.3C219.924 298.62 219.289 298.78 218.606 298.78ZM218.814 297.436C219.337 297.436 219.812 297.319 220.238 297.084C220.665 296.85 221.006 296.514 221.262 296.076C221.518 295.628 221.646 295.106 221.646 294.508V293.772C221.646 293.186 221.513 292.69 221.246 292.284C220.99 291.868 220.644 291.554 220.206 291.34C219.78 291.116 219.31 291.004 218.798 291.004C217.945 291.004 217.252 291.298 216.718 291.884C216.196 292.471 215.934 293.25 215.934 294.22C215.934 294.871 216.057 295.442 216.302 295.932C216.548 296.412 216.889 296.786 217.326 297.052C217.764 297.308 218.26 297.436 218.814 297.436ZM229.71 298.492V286.812H231.246V291.452C231.481 290.887 231.817 290.455 232.254 290.156C232.702 289.847 233.273 289.692 233.966 289.692H234.03C235.054 289.692 235.828 290.034 236.35 290.716C236.873 291.388 237.134 292.354 237.134 293.612V298.492H235.598V293.292C235.598 292.599 235.401 292.06 235.006 291.676C234.622 291.292 234.121 291.1 233.502 291.1C232.82 291.1 232.27 291.33 231.854 291.788C231.449 292.236 231.246 292.828 231.246 293.564V298.492H229.71ZM243.881 298.78C243.134 298.78 242.478 298.652 241.913 298.396C241.347 298.14 240.867 297.804 240.473 297.388C240.089 296.962 239.795 296.487 239.593 295.964C239.401 295.442 239.305 294.908 239.305 294.364V294.076C239.305 293.532 239.406 292.999 239.609 292.476C239.811 291.943 240.11 291.468 240.505 291.052C240.899 290.626 241.379 290.29 241.945 290.044C242.51 289.788 243.155 289.66 243.881 289.66C244.606 289.66 245.251 289.788 245.817 290.044C246.382 290.29 246.862 290.626 247.257 291.052C247.651 291.468 247.95 291.943 248.153 292.476C248.355 292.999 248.457 293.532 248.457 294.076V294.364C248.457 294.908 248.355 295.442 248.153 295.964C247.961 296.487 247.667 296.962 247.273 297.388C246.889 297.804 246.414 298.14 245.849 298.396C245.283 298.652 244.627 298.78 243.881 298.78ZM243.881 297.404C244.521 297.404 245.065 297.266 245.513 296.988C245.971 296.7 246.318 296.316 246.553 295.836C246.798 295.356 246.921 294.818 246.921 294.22C246.921 293.612 246.798 293.068 246.553 292.588C246.307 292.108 245.955 291.73 245.497 291.452C245.049 291.175 244.51 291.036 243.881 291.036C243.262 291.036 242.723 291.175 242.265 291.452C241.806 291.73 241.454 292.108 241.209 292.588C240.963 293.068 240.841 293.612 240.841 294.22C240.841 294.818 240.958 295.356 241.193 295.836C241.438 296.316 241.785 296.7 242.233 296.988C242.691 297.266 243.241 297.404 243.881 297.404ZM253.557 298.748C252.437 298.748 251.568 298.508 250.949 298.028C250.341 297.548 250.026 296.892 250.005 296.06H251.445C251.466 296.391 251.632 296.706 251.941 297.004C252.261 297.292 252.8 297.436 253.557 297.436C254.24 297.436 254.762 297.303 255.125 297.036C255.488 296.759 255.669 296.423 255.669 296.028C255.669 295.676 255.536 295.404 255.269 295.212C255.002 295.01 254.57 294.876 253.973 294.812L253.045 294.716C252.234 294.631 251.573 294.391 251.061 293.996C250.549 293.591 250.293 293.026 250.293 292.3C250.293 291.479 250.597 290.839 251.205 290.38C251.813 289.922 252.597 289.692 253.557 289.692C254.517 289.692 255.296 289.906 255.893 290.332C256.49 290.759 256.8 291.394 256.821 292.236H255.381C255.37 291.895 255.21 291.607 254.901 291.372C254.602 291.127 254.154 291.004 253.557 291.004C252.96 291.004 252.506 291.127 252.197 291.372C251.888 291.618 251.733 291.927 251.733 292.3C251.733 292.62 251.84 292.876 252.053 293.068C252.277 293.26 252.64 293.383 253.141 293.436L254.069 293.532C254.986 293.628 255.722 293.884 256.277 294.3C256.832 294.706 257.109 295.282 257.109 296.028C257.109 296.562 256.954 297.036 256.645 297.452C256.346 297.858 255.93 298.178 255.397 298.412C254.864 298.636 254.25 298.748 253.557 298.748ZM259.335 301.692V289.948H260.551V292.044C260.839 291.223 261.287 290.62 261.895 290.236C262.503 289.852 263.186 289.66 263.943 289.66C264.775 289.66 265.495 289.863 266.103 290.268C266.722 290.674 267.202 291.212 267.543 291.884C267.885 292.546 268.055 293.276 268.055 294.076V294.364C268.055 295.164 267.879 295.9 267.527 296.572C267.175 297.234 266.685 297.767 266.055 298.172C265.437 298.578 264.722 298.78 263.911 298.78C263.325 298.78 262.759 298.658 262.215 298.412C261.671 298.167 261.223 297.767 260.871 297.212V301.692H259.335ZM263.671 297.436C264.247 297.436 264.749 297.303 265.175 297.036C265.602 296.759 265.933 296.38 266.167 295.9C266.402 295.41 266.519 294.85 266.519 294.22C266.519 293.58 266.402 293.02 266.167 292.54C265.933 292.06 265.602 291.687 265.175 291.42C264.749 291.143 264.247 291.004 263.671 291.004C263.159 291.004 262.685 291.122 262.247 291.356C261.81 291.58 261.458 291.911 261.191 292.348C260.935 292.775 260.807 293.292 260.807 293.9V294.636C260.807 295.223 260.941 295.724 261.207 296.14C261.474 296.556 261.826 296.876 262.263 297.1C262.701 297.324 263.17 297.436 263.671 297.436ZM271.215 288.572C270.873 288.572 270.617 288.482 270.447 288.3C270.287 288.119 270.207 287.89 270.207 287.612C270.207 287.335 270.287 287.106 270.447 286.924C270.617 286.743 270.873 286.652 271.215 286.652C271.556 286.652 271.807 286.743 271.967 286.924C272.137 287.106 272.223 287.335 272.223 287.612C272.223 287.89 272.137 288.119 271.967 288.3C271.807 288.482 271.556 288.572 271.215 288.572ZM270.783 298.492V291.164H269.471V289.948H272.319V298.492H270.783ZM278.616 298.588C277.976 298.588 277.422 298.498 276.952 298.316C276.494 298.135 276.136 297.826 275.88 297.388C275.635 296.94 275.512 296.338 275.512 295.58V291.1H274.04V289.948H275.512V287.356H276.984V289.948H279.928V291.1H276.984V295.772C276.984 296.231 277.107 296.588 277.352 296.844C277.608 297.09 277.966 297.212 278.424 297.212H279.928V298.588H278.616ZM284.438 298.716C283.467 298.716 282.704 298.476 282.15 297.996C281.606 297.506 281.334 296.818 281.334 295.932C281.334 295.026 281.638 294.343 282.246 293.884C282.854 293.415 283.712 293.18 284.822 293.18H286.982V292.972C286.982 291.788 286.384 291.196 285.19 291.196C284.699 291.196 284.187 291.207 283.654 291.228C283.12 291.25 282.678 291.271 282.326 291.292V289.948C282.667 289.916 283.046 289.895 283.462 289.884C283.888 289.863 284.294 289.852 284.678 289.852C285.99 289.852 286.944 290.092 287.542 290.572C288.15 291.052 288.454 291.89 288.454 293.084V298.492H287.238V296.796C286.854 298.076 285.92 298.716 284.438 298.716ZM284.758 297.5C285.12 297.5 285.467 297.436 285.798 297.308C286.128 297.17 286.4 296.946 286.614 296.636C286.838 296.316 286.96 295.879 286.982 295.324V294.332H284.758C284.139 294.332 283.664 294.482 283.334 294.78C283.003 295.079 282.838 295.463 282.838 295.932C282.838 296.402 283.003 296.78 283.334 297.068C283.664 297.356 284.139 297.5 284.758 297.5ZM291.369 298.492V288.028H290.185V286.812H292.905V298.492H291.369ZM212.202 318.492V309.948H213.418V312.508C213.546 311.591 213.882 310.919 214.426 310.492C214.97 310.066 215.712 309.852 216.65 309.852H216.938V311.228H216.394C215.541 311.228 214.885 311.458 214.426 311.916C213.968 312.364 213.738 313.015 213.738 313.868V318.492H212.202ZM222.303 318.78C221.557 318.78 220.911 318.652 220.367 318.396C219.823 318.14 219.381 317.804 219.039 317.388C218.698 316.962 218.442 316.487 218.271 315.964C218.111 315.442 218.031 314.908 218.031 314.364V314.076C218.031 313.522 218.111 312.983 218.271 312.46C218.442 311.938 218.698 311.468 219.039 311.052C219.381 310.626 219.813 310.29 220.335 310.044C220.869 309.788 221.493 309.66 222.207 309.66C223.135 309.66 223.898 309.863 224.495 310.268C225.103 310.663 225.551 311.175 225.839 311.804C226.138 312.434 226.287 313.106 226.287 313.82V314.508H219.503C219.557 315.351 219.807 316.05 220.255 316.604C220.703 317.159 221.386 317.436 222.303 317.436C222.975 317.436 223.519 317.287 223.935 316.988C224.362 316.69 224.618 316.343 224.703 315.948H226.143C225.962 316.834 225.53 317.527 224.847 318.028C224.165 318.53 223.317 318.78 222.303 318.78ZM222.207 311.004C221.439 311.004 220.837 311.223 220.399 311.66C219.962 312.087 219.685 312.652 219.567 313.356H224.783C224.687 312.631 224.426 312.06 223.999 311.644C223.573 311.218 222.975 311.004 222.207 311.004ZM232.132 318.78C231.396 318.78 230.756 318.652 230.212 318.396C229.679 318.14 229.236 317.799 228.884 317.372C228.532 316.935 228.265 316.455 228.084 315.932C227.913 315.41 227.828 314.887 227.828 314.364V314.076C227.828 313.532 227.913 312.999 228.084 312.476C228.265 311.954 228.532 311.484 228.884 311.068C229.247 310.642 229.695 310.3 230.228 310.044C230.761 309.788 231.385 309.66 232.1 309.66C232.815 309.66 233.455 309.794 234.02 310.06C234.596 310.327 235.055 310.706 235.396 311.196C235.748 311.676 235.945 312.247 235.988 312.908H234.516C234.441 312.375 234.196 311.932 233.78 311.58C233.364 311.218 232.804 311.036 232.1 311.036C231.492 311.036 230.985 311.175 230.58 311.452C230.175 311.73 229.871 312.108 229.668 312.588C229.465 313.068 229.364 313.612 229.364 314.22C229.364 314.807 229.465 315.346 229.668 315.836C229.871 316.316 230.175 316.7 230.58 316.988C230.996 317.266 231.513 317.404 232.132 317.404C232.847 317.404 233.423 317.223 233.86 316.86C234.297 316.487 234.548 316.028 234.612 315.484H236.084C236.052 316.156 235.855 316.738 235.492 317.228C235.14 317.719 234.671 318.103 234.084 318.38C233.508 318.647 232.857 318.78 232.132 318.78ZM241.803 318.78C241.057 318.78 240.411 318.652 239.867 318.396C239.323 318.14 238.881 317.804 238.539 317.388C238.198 316.962 237.942 316.487 237.771 315.964C237.611 315.442 237.531 314.908 237.531 314.364V314.076C237.531 313.522 237.611 312.983 237.771 312.46C237.942 311.938 238.198 311.468 238.539 311.052C238.881 310.626 239.313 310.29 239.835 310.044C240.369 309.788 240.993 309.66 241.707 309.66C242.635 309.66 243.398 309.863 243.995 310.268C244.603 310.663 245.051 311.175 245.339 311.804C245.638 312.434 245.787 313.106 245.787 313.82V314.508H239.003C239.057 315.351 239.307 316.05 239.755 316.604C240.203 317.159 240.886 317.436 241.803 317.436C242.475 317.436 243.019 317.287 243.435 316.988C243.862 316.69 244.118 316.343 244.203 315.948H245.643C245.462 316.834 245.03 317.527 244.347 318.028C243.665 318.53 242.817 318.78 241.803 318.78ZM241.707 311.004C240.939 311.004 240.337 311.223 239.899 311.66C239.462 312.087 239.185 312.652 239.067 313.356H244.283C244.187 312.631 243.926 312.06 243.499 311.644C243.073 311.218 242.475 311.004 241.707 311.004ZM248.816 308.572C248.475 308.572 248.219 308.482 248.048 308.3C247.888 308.119 247.808 307.89 247.808 307.612C247.808 307.335 247.888 307.106 248.048 306.924C248.219 306.743 248.475 306.652 248.816 306.652C249.157 306.652 249.408 306.743 249.568 306.924C249.739 307.106 249.824 307.335 249.824 307.612C249.824 307.89 249.739 308.119 249.568 308.3C249.408 308.482 249.157 308.572 248.816 308.572ZM248.384 318.492V311.164H247.072V309.948H249.92V318.492H248.384ZM252.89 321.692V309.948H254.106V312.044C254.394 311.223 254.842 310.62 255.45 310.236C256.058 309.852 256.741 309.66 257.498 309.66C258.33 309.66 259.05 309.863 259.658 310.268C260.277 310.674 260.757 311.212 261.098 311.884C261.439 312.546 261.61 313.276 261.61 314.076V314.364C261.61 315.164 261.434 315.9 261.082 316.572C260.73 317.234 260.239 317.767 259.61 318.172C258.991 318.578 258.277 318.78 257.466 318.78C256.879 318.78 256.314 318.658 255.77 318.412C255.226 318.167 254.778 317.767 254.426 317.212V321.692H252.89ZM257.226 317.436C257.802 317.436 258.303 317.303 258.73 317.036C259.157 316.759 259.487 316.38 259.722 315.9C259.957 315.41 260.074 314.85 260.074 314.22C260.074 313.58 259.957 313.02 259.722 312.54C259.487 312.06 259.157 311.687 258.73 311.42C258.303 311.143 257.802 311.004 257.226 311.004C256.714 311.004 256.239 311.122 255.802 311.356C255.365 311.58 255.013 311.911 254.746 312.348C254.49 312.775 254.362 313.292 254.362 313.9V314.636C254.362 315.223 254.495 315.724 254.762 316.14C255.029 316.556 255.381 316.876 255.818 317.1C256.255 317.324 256.725 317.436 257.226 317.436ZM267.249 318.588C266.609 318.588 266.055 318.498 265.585 318.316C265.127 318.135 264.769 317.826 264.513 317.388C264.268 316.94 264.145 316.338 264.145 315.58V311.1H262.673V309.948H264.145V307.356H265.617V309.948H268.561V311.1H265.617V315.772C265.617 316.231 265.74 316.588 265.985 316.844C266.241 317.09 266.599 317.212 267.057 317.212H268.561V318.588H267.249ZM273.471 318.748C272.351 318.748 271.482 318.508 270.863 318.028C270.255 317.548 269.941 316.892 269.919 316.06H271.359C271.381 316.391 271.546 316.706 271.855 317.004C272.175 317.292 272.714 317.436 273.471 317.436C274.154 317.436 274.677 317.303 275.039 317.036C275.402 316.759 275.583 316.423 275.583 316.028C275.583 315.676 275.45 315.404 275.183 315.212C274.917 315.01 274.485 314.876 273.887 314.812L272.959 314.716C272.149 314.631 271.487 314.391 270.975 313.996C270.463 313.591 270.207 313.026 270.207 312.3C270.207 311.479 270.511 310.839 271.119 310.38C271.727 309.922 272.511 309.692 273.471 309.692C274.431 309.692 275.21 309.906 275.807 310.332C276.405 310.759 276.714 311.394 276.735 312.236H275.295C275.285 311.895 275.125 311.607 274.815 311.372C274.517 311.127 274.069 311.004 273.471 311.004C272.874 311.004 272.421 311.127 272.111 311.372C271.802 311.618 271.647 311.927 271.647 312.3C271.647 312.62 271.754 312.876 271.967 313.068C272.191 313.26 272.554 313.383 273.055 313.436L273.983 313.532C274.901 313.628 275.637 313.884 276.191 314.3C276.746 314.706 277.023 315.282 277.023 316.028C277.023 316.562 276.869 317.036 276.559 317.452C276.261 317.858 275.845 318.178 275.311 318.412C274.778 318.636 274.165 318.748 273.471 318.748Z" fill="#2A2A2A"/>
<defs>
<filter id="filter0_f_3800_26028" x="0.335938" y="0.703125" width="487.828" height="435.482" filterUnits="userSpaceOnUse" color-interpolation-filters="sRGB">
<feFlood flood-opacity="0" result="BackgroundImageFix"/>
<feBlend mode="normal" in="SourceGraphic" in2="BackgroundImageFix" result="shape"/>
<feGaussianBlur stdDeviation="25" result="effect1_foregroundBlur_3800_26028"/>
</filter>
<linearGradient id="paint0_linear_3800_26028" x1="315.497" y1="393.993" x2="50.0096" y2="42.8965" gradientUnits="userSpaceOnUse">
<stop stop-color="#D7D7D7"/>
<stop offset="1" stop-color="#A3A3A3"/>
</linearGradient>
<linearGradient id="paint1_linear_3800_26028" x1="244.25" y1="50.7031" x2="244.25" y2="386.185" gradientUnits="userSpaceOnUse">
<stop stop-color="white"/>
<stop offset="1" stop-color="#EFF3F4"/>
</linearGradient>
</defs>
</svg>
