<svg width="274" height="80" viewBox="0 0 274 80" fill="none" xmlns="http://www.w3.org/2000/svg">
<path d="M55.5509 37.9355C56.3791 40.8937 56.1877 44.0445 55.0076 46.8807C53.8275 49.7169 51.7273 52.0735 49.0451 53.5711C46.3629 55.0686 43.2547 55.62 40.2211 55.1365C37.1874 54.6529 34.4047 53.1626 32.321 50.9054C30.2373 48.6482 28.9737 45.7555 28.7339 42.6929C28.494 39.6304 29.2917 36.5762 30.9985 34.0221C32.7053 31.468 35.222 29.5625 38.1434 28.6125C41.0648 27.6625 44.2209 27.7233 47.1035 28.7849C46.3201 30.9122 43.911 31.9026 41.6505 32.074C40.8944 32.1314 40.1432 32.2786 39.4128 32.5161C37.3679 33.1811 35.6062 34.5149 34.4114 36.3028C33.2166 38.0907 32.6582 40.2286 32.8261 42.3724C32.9941 44.5162 33.8785 46.5411 35.3371 48.1211C36.7957 49.7011 38.7436 50.7444 40.8672 51.0829C42.9908 51.4213 45.1664 51.0354 47.044 49.9871C48.9215 48.9388 50.3917 47.2892 51.2178 45.3038C51.5128 44.5948 51.7195 43.8577 51.837 43.1087C52.1883 40.8691 53.3678 38.5467 55.5509 37.9355Z" fill="url(#paint0_linear_3810_6001)"/>
<ellipse cx="42.3785" cy="41.6245" rx="4.37847" ry="4.37844" fill="#6B4EFF"/>
<path d="M48.9202 34.4016C47.9432 33.8496 47.212 32.4848 48.1664 31.8946C48.3147 31.8029 48.4611 31.7442 48.5992 31.7346C49.4555 31.6756 51.164 32.2181 51.709 32.7986C52.2539 33.3791 52.7729 34.8886 52.6559 35.8998C52.6232 36.1817 52.4745 36.4368 52.2771 36.6581C51.69 37.316 50.7044 36.8463 50.3091 36.0581C50.1246 35.6901 49.9043 35.3137 49.6559 35.0031C49.4607 34.7591 49.2032 34.5615 48.9202 34.4016Z" fill="url(#paint1_linear_3810_6001)"/>
<path d="M53.5432 28.8948C52.4937 28.4978 51.8492 27.2121 52.6412 26.4173C53.0567 26.0004 53.5025 25.6748 53.8986 25.6475C55.0586 25.5675 57.3729 26.3024 58.1112 27.0888C58.8494 27.8752 59.5524 29.92 59.3938 31.2897C59.3283 31.8557 58.9178 32.3417 58.4585 32.7172C57.7758 33.2753 56.8249 32.8348 56.4641 32.0302C56.1735 31.382 55.7869 30.6463 55.33 30.0751C54.8911 29.5265 54.22 29.1508 53.5432 28.8948Z" fill="url(#paint2_linear_3810_6001)"/>
<path d="M73.5133 55.9858C71.543 55.9858 69.8555 55.5571 68.4507 54.6997C67.046 53.8331 65.965 52.629 65.2079 51.0875C64.4599 49.5459 64.0859 47.758 64.0859 45.7239C64.0859 43.6897 64.4599 41.9019 65.2079 40.3603C65.965 38.8187 67.046 37.6192 68.4507 36.7618C69.8555 35.8952 71.543 35.4619 73.5133 35.4619C75.7847 35.4619 77.6775 36.032 79.1917 37.1722C80.2477 37.9611 81.0842 38.943 81.701 40.1179C82.1515 40.976 81.6027 41.9702 80.6683 42.2278C79.7719 42.4749 78.8702 41.9382 78.3933 41.1399C78.0461 40.5587 77.6144 40.0662 77.0982 39.6625C76.1769 38.9327 74.982 38.5679 73.5133 38.5679C72.1907 38.5679 71.0869 38.8643 70.2021 39.4572C69.3264 40.0501 68.6651 40.8848 68.2181 41.9612C67.7803 43.0284 67.5568 44.2826 67.5477 45.7239C67.5477 47.1651 67.7666 48.4239 68.2044 49.5003C68.6514 50.5675 69.3173 51.3976 70.2021 51.9905C71.0869 52.5834 72.1907 52.8799 73.5133 52.8799C74.982 52.8799 76.1769 52.515 77.0982 51.7853C77.6132 51.3774 78.0441 50.8839 78.3909 50.305C78.8686 49.5077 79.7707 48.9725 80.6667 49.2195C81.602 49.4774 82.1512 50.4724 81.7008 51.3316C81.084 52.5082 80.2476 53.4941 79.1917 54.2892C77.6775 55.4203 75.7847 55.9858 73.5133 55.9858Z" fill="url(#paint3_linear_3810_6001)"/>
<path d="M97.2743 55.5754C96.3523 55.5754 95.605 54.828 95.605 53.9061V48.4604C95.605 47.9952 95.573 47.4798 95.5092 46.9143C95.4453 46.3487 95.2948 45.806 95.0577 45.286C94.8296 44.757 94.483 44.3237 94.0178 43.9862C93.5617 43.6487 92.9414 43.4799 92.1569 43.4799C91.7373 43.4799 91.3223 43.5483 90.9118 43.6852C90.5013 43.822 90.1273 44.0592 89.7898 44.3967C89.4614 44.725 89.1969 45.1811 88.9962 45.7649C88.9185 45.9875 88.8558 46.2348 88.8082 46.5066C88.6871 47.1977 87.9784 47.6757 87.333 47.4004C86.9725 47.2467 86.7335 46.892 86.7605 46.501C86.8299 45.4951 87.0643 44.5702 87.4637 43.7262C87.9563 42.7046 88.6769 41.8927 89.6256 41.2907C90.5743 40.6796 91.7419 40.374 93.1284 40.374C94.223 40.374 95.1261 40.5564 95.8376 40.9213C96.5491 41.2861 97.1146 41.7514 97.5342 42.3169C97.9538 42.8825 98.264 43.4845 98.4647 44.123C98.6653 44.7615 98.793 45.3681 98.8478 45.9428C98.9116 46.5083 98.9435 46.969 98.9435 47.3247V53.9061C98.9435 54.828 98.1962 55.5754 97.2743 55.5754ZM87.0259 55.5754C86.104 55.5754 85.3566 54.828 85.3566 53.9061V37.3433C85.3566 36.5309 86.0151 35.8724 86.8275 35.8724C87.6398 35.8724 88.2984 36.5309 88.2984 37.3433V46.0454C88.2984 46.155 88.3872 46.2438 88.4968 46.2438C88.6064 46.2438 88.6952 46.3326 88.6952 46.4422V53.9061C88.6952 54.828 87.9478 55.5754 87.0259 55.5754Z" fill="url(#paint4_linear_3810_6001)"/>
<path d="M106.646 55.9858C105.579 55.9858 104.676 55.7852 103.937 55.3838C103.198 54.9733 102.637 54.4306 102.254 53.7556C101.88 53.0806 101.693 52.3371 101.693 51.5253C101.693 50.8138 101.812 50.1753 102.049 49.6097C102.286 49.0351 102.651 48.5425 103.144 48.132C103.636 47.7124 104.275 47.3703 105.059 47.1058C105.652 46.9143 106.345 46.7409 107.139 46.5859C107.942 46.4308 108.808 46.2894 109.739 46.1617C110.364 46.0707 111.007 45.9756 111.668 45.8766C111.876 45.8453 111.974 46.1263 111.791 46.2307C111.663 46.3033 111.505 46.2102 111.498 46.0637C111.459 45.2087 111.233 44.5664 110.82 44.1367C110.354 43.6532 109.57 43.4115 108.466 43.4115C107.8 43.4115 107.157 43.5666 106.537 43.8767C106.374 43.958 106.225 44.0546 106.088 44.1666C105.408 44.7225 104.563 45.2661 103.725 45.0034C102.893 44.7424 102.399 43.8432 102.854 43.0992C103.227 42.4901 103.711 41.9648 104.307 41.5233C105.337 40.7662 106.724 40.3877 108.466 40.3877C109.78 40.3877 110.934 40.602 111.928 41.0307C112.931 41.4595 113.675 42.1618 114.158 43.1379C114.423 43.6578 114.582 44.1914 114.637 44.7387C114.692 45.2769 114.719 45.8653 114.719 46.5038V54.1318C114.719 54.9291 114.073 55.5754 113.276 55.5754H112.731C112.235 55.5754 111.832 55.1729 111.832 54.6764V52.9185C111.832 52.7247 112.07 52.6319 112.201 52.7744C112.266 52.8448 112.276 52.9501 112.224 53.0304C111.577 54.0281 110.826 54.767 109.971 55.247C109.086 55.7395 107.978 55.9858 106.646 55.9858ZM107.303 53.3588C108.051 53.3588 108.69 53.2265 109.219 52.962C109.748 52.6974 110.167 52.3736 110.477 51.9905C110.797 51.6074 111.011 51.2471 111.121 50.9096C111.294 50.49 111.39 50.0111 111.408 49.4729C111.429 49.0494 111.442 48.6887 111.447 48.3909C111.449 48.2685 111.567 48.1807 111.684 48.2156C111.871 48.2712 111.853 48.5421 111.66 48.5726C111.001 48.6769 110.415 48.7718 109.903 48.8572C109.191 48.9758 108.58 49.0898 108.069 49.1993C107.558 49.2996 107.107 49.4136 106.715 49.5413C106.332 49.6781 106.008 49.8378 105.743 50.0202C105.479 50.2026 105.273 50.4124 105.128 50.6496C104.991 50.8868 104.922 51.165 104.922 51.4843C104.922 51.8491 105.013 52.1729 105.196 52.4557C105.378 52.7294 105.643 52.9483 105.99 53.1125C106.345 53.2767 106.783 53.3588 107.303 53.3588Z" fill="url(#paint5_linear_3810_6001)"/>
<path d="M120.067 38.5542C119.232 38.5542 118.555 37.8773 118.555 37.0423C118.555 36.2072 119.232 35.5303 120.067 35.5303H120.341C121.176 35.5303 121.853 36.2072 121.853 37.0423C121.853 37.8773 121.176 38.5542 120.341 38.5542H120.067ZM120.204 55.5754C119.293 55.5754 118.555 54.8372 118.555 53.9266V42.4469C118.555 41.5363 119.293 40.7981 120.204 40.7981C121.114 40.7981 121.853 41.5363 121.853 42.4469V53.9266C121.853 54.8372 121.114 55.5754 120.204 55.5754Z" fill="url(#paint6_linear_3810_6001)"/>
<path d="M137.841 55.5754C136.919 55.5754 136.172 54.828 136.172 53.9061V48.4604C136.172 47.9952 136.14 47.4798 136.076 46.9143C136.012 46.3487 135.862 45.806 135.625 45.286C135.397 44.757 135.05 44.3237 134.585 43.9862C134.129 43.6487 133.509 43.4799 132.724 43.4799C132.304 43.4799 131.889 43.5483 131.479 43.6852C131.068 43.822 130.694 44.0592 130.357 44.3967C130.029 44.725 129.764 45.1811 129.563 45.7649C129.486 45.9875 129.423 46.2348 129.375 46.5066C129.254 47.1977 128.546 47.6757 127.9 47.4004C127.54 47.2467 127.301 46.892 127.328 46.501C127.397 45.4951 127.632 44.5702 128.031 43.7262C128.523 42.7046 129.244 41.8927 130.193 41.2907C131.141 40.6796 132.309 40.374 133.696 40.374C134.79 40.374 135.693 40.5564 136.405 40.9213C137.116 41.2861 137.682 41.7514 138.101 42.3169C138.521 42.8825 138.831 43.4845 139.032 44.123C139.232 44.7615 139.36 45.3681 139.415 45.9428C139.479 46.5083 139.511 46.969 139.511 47.3247V53.9061C139.511 54.828 138.763 55.5754 137.841 55.5754ZM127.593 55.5754C126.671 55.5754 125.924 54.828 125.924 53.9061V42.269C125.924 41.4567 126.582 40.7981 127.395 40.7981C128.207 40.7981 128.866 41.4567 128.866 42.269V45.1834C128.866 45.293 128.954 45.3818 129.064 45.3818C129.174 45.3818 129.262 45.4706 129.262 45.5802V53.9061C129.262 54.828 128.515 55.5754 127.593 55.5754Z" fill="url(#paint7_linear_3810_6001)"/>
<path d="M144.73 55.5754C143.819 55.5754 143.081 54.8372 143.081 53.9266V41.8039C143.081 38.528 145.737 35.8724 149.013 35.8724H153.295C154.206 35.8724 154.944 36.6106 154.944 37.5211C154.944 38.4317 154.206 39.1699 153.295 39.1699H148.835C147.478 39.1699 146.379 40.2695 146.379 41.6259C146.379 42.9824 147.478 44.082 148.835 44.082H151.66C152.567 44.082 153.302 44.8171 153.302 45.7239C153.302 46.6307 152.567 47.3658 151.66 47.3658H149.841C147.929 47.3658 146.379 48.9157 146.379 50.8275V53.9266C146.379 54.8372 145.641 55.5754 144.73 55.5754Z" fill="#6B4EFF"/>
<path d="M162.947 55.9995C161.852 55.9995 160.949 55.8171 160.238 55.4522C159.526 55.0873 158.961 54.6221 158.541 54.0566C158.121 53.491 157.811 52.889 157.611 52.2505C157.41 51.612 157.278 51.0099 157.214 50.4444C157.159 49.8697 157.132 49.4045 157.132 49.0487V42.4674C157.132 41.5455 157.879 40.7981 158.801 40.7981C159.723 40.7981 160.47 41.5455 160.47 42.4674V47.9131C160.47 48.3692 160.502 48.8846 160.566 49.4592C160.63 50.0248 160.776 50.5721 161.004 51.1011C161.241 51.6211 161.588 52.0498 162.044 52.3873C162.509 52.7248 163.134 52.8936 163.918 52.8936C164.338 52.8936 164.753 52.8251 165.163 52.6883C165.574 52.5515 165.943 52.3189 166.272 51.9905C166.609 51.653 166.878 51.1924 167.079 50.6086C167.156 50.3842 167.218 50.1369 167.266 49.8668C167.387 49.1757 168.097 48.6977 168.742 48.973C169.103 49.1268 169.342 49.4815 169.314 49.8725C169.244 50.8783 169.005 51.8033 168.598 52.6473C168.114 53.6689 167.398 54.4853 166.45 55.0965C165.501 55.6985 164.333 55.9995 162.947 55.9995ZM169.234 55.5754C168.429 55.5754 167.777 54.9229 167.777 54.1181V51.1901C167.777 51.0805 167.688 50.9917 167.578 50.9917C167.469 50.9917 167.38 50.9029 167.38 50.7933V42.4537C167.38 41.5394 168.121 40.7981 169.036 40.7981C169.95 40.7981 170.691 41.5394 170.691 42.4537V54.1181C170.691 54.9229 170.039 55.5754 169.234 55.5754Z" fill="#6B4EFF"/>
<path d="M186.426 55.5754C185.504 55.5754 184.757 54.828 184.757 53.9061V48.4604C184.757 47.9952 184.725 47.4798 184.661 46.9143C184.597 46.3487 184.446 45.806 184.209 45.286C183.981 44.757 183.635 44.3237 183.169 43.9862C182.713 43.6487 182.093 43.4799 181.308 43.4799C180.889 43.4799 180.474 43.5483 180.063 43.6852C179.653 43.822 179.279 44.0592 178.941 44.3967C178.613 44.725 178.348 45.1811 178.148 45.7649C178.07 45.9875 178.007 46.2347 177.96 46.5066C177.839 47.1977 177.13 47.6757 176.485 47.4004C176.124 47.2467 175.885 46.892 175.912 46.501C175.981 45.4951 176.216 44.5702 176.615 43.7262C177.108 42.7046 177.828 41.8927 178.777 41.2907C179.726 40.6796 180.893 40.374 182.28 40.374C183.375 40.374 184.278 40.5564 184.989 40.9213C185.701 41.2861 186.266 41.7514 186.686 42.3169C187.105 42.8825 187.416 43.4845 187.616 44.123C187.817 44.7615 187.945 45.3681 187.999 45.9428C188.063 46.5083 188.095 46.969 188.095 47.3247V53.9061C188.095 54.828 187.348 55.5754 186.426 55.5754ZM176.177 55.5754C175.256 55.5754 174.508 54.828 174.508 53.9061V42.269C174.508 41.4567 175.167 40.7981 175.979 40.7981C176.791 40.7981 177.45 41.4567 177.45 42.269V45.1834C177.45 45.293 177.539 45.3818 177.648 45.3818C177.758 45.3818 177.847 45.4706 177.847 45.5802V53.9061C177.847 54.828 177.099 55.5754 176.177 55.5754Z" fill="#6B4EFF"/>
<path d="M197.35 55.9858C195.991 55.9858 194.805 55.6438 193.792 54.9596C192.78 54.2755 191.995 53.3451 191.439 52.1684C190.882 50.9917 190.604 49.6645 190.604 48.1867C190.604 46.6908 190.882 45.359 191.439 44.1914C192.004 43.0147 192.803 42.0889 193.833 41.4138C194.864 40.7297 196.077 40.3877 197.473 40.3877C198.878 40.3877 200.054 40.7297 201.003 41.4138C201.961 42.0889 202.686 43.0147 203.179 44.1914C203.671 45.3681 203.917 46.6999 203.917 48.1867C203.917 49.6553 203.671 50.9826 203.179 52.1684C202.686 53.3451 201.952 54.2755 200.976 54.9596C200 55.6438 198.791 55.9858 197.35 55.9858ZM197.856 53.0304C198.741 53.0304 199.452 52.8297 199.991 52.4284C200.538 52.0179 200.935 51.4478 201.181 50.718C201.436 49.9883 201.564 49.1445 201.564 48.1867C201.564 47.2198 201.436 46.3761 201.181 45.6555C200.935 44.9257 200.547 44.3602 200.018 43.9588C199.489 43.5483 198.805 43.3431 197.965 43.3431C197.081 43.3431 196.351 43.562 195.776 43.9999C195.202 44.4286 194.777 45.0124 194.504 45.7512C194.23 46.481 194.093 47.2928 194.093 48.1867C194.093 49.0898 194.226 49.9108 194.49 50.6496C194.764 51.3794 195.179 51.9586 195.735 52.3873C196.292 52.816 196.999 53.0304 197.856 53.0304ZM203.021 55.5754C202.216 55.5754 201.564 54.9229 201.564 54.1181V45.4092C201.564 45.2958 201.472 45.2039 201.359 45.2039C201.245 45.2039 201.154 45.112 201.154 44.9987V37.5348C201.154 36.6167 201.898 35.8724 202.816 35.8724C203.734 35.8724 204.478 36.6167 204.478 37.5348V54.1181C204.478 54.9229 203.826 55.5754 203.021 55.5754Z" fill="#6B4EFF"/>
<path d="M209.861 55.5754C209.007 55.5754 208.315 54.8831 208.315 54.0292V37.7C208.315 36.6907 209.133 35.8724 210.142 35.8724C210.841 35.8724 211.478 36.2705 211.785 36.8982L212.876 39.1338C214.999 43.4823 221.196 43.4823 223.32 39.1338L224.411 36.8982C224.718 36.2705 225.355 35.8724 226.053 35.8724C227.063 35.8724 227.881 36.6907 227.881 37.7V54.036C227.881 54.8862 227.192 55.5754 226.342 55.5754C225.492 55.5754 224.802 54.8862 224.802 54.036V53.2382C224.802 50.7502 221.432 49.9848 220.357 52.2287L219.038 54.9833C218.865 55.3451 218.499 55.5754 218.098 55.5754C217.697 55.5754 217.331 55.3447 217.158 54.9825L215.846 52.2361C214.774 49.994 211.407 50.7572 211.407 53.2421V54.0292C211.407 54.8831 210.715 55.5754 209.861 55.5754Z" fill="url(#paint8_linear_3810_6001)"/>
<path d="M238.443 55.9858C236.947 55.9858 235.634 55.662 234.503 55.0144C233.372 54.3667 232.487 53.4682 231.848 52.3189C231.219 51.1696 230.904 49.8469 230.904 48.3509C230.904 46.7364 231.214 45.3362 231.835 44.1504C232.455 42.9554 233.317 42.0296 234.421 41.3728C235.524 40.716 236.801 40.3877 238.252 40.3877C239.784 40.3877 241.084 40.748 242.151 41.4686C243.228 42.1801 244.026 43.188 244.546 44.4924C244.905 45.3934 245.11 46.4054 245.16 47.5283C245.199 48.4157 244.446 49.1035 243.558 49.1035H243.068C242.403 49.1035 241.864 48.5644 241.864 47.8994C241.855 46.294 241.572 45.1218 241.016 44.383C240.459 43.6441 239.583 43.2747 238.389 43.2747C237.039 43.2747 236.035 43.6943 235.378 44.5335C234.722 45.3636 234.393 46.5813 234.393 48.1867C234.393 49.6827 234.722 50.8412 235.378 51.6621C236.035 52.4831 236.993 52.8936 238.252 52.8936C239.064 52.8936 239.761 52.7157 240.345 52.3599C240.525 52.2493 240.692 52.1241 240.847 51.9842C241.48 51.4109 242.32 50.9701 243.138 51.2174C244.116 51.5133 244.637 52.6161 243.999 53.4137C243.538 53.9889 242.986 54.4768 242.343 54.8775C241.166 55.6164 239.866 55.9858 238.443 55.9858ZM234.598 49.1035C233.911 49.1035 233.353 48.546 233.353 47.8584C233.353 47.1707 233.911 46.6132 234.598 46.6132H242.274C242.962 46.6132 243.52 47.1707 243.52 47.8584C243.52 48.546 242.962 49.1035 242.274 49.1035H234.598Z" fill="url(#paint9_linear_3810_6001)"/>
<defs>
<linearGradient id="paint0_linear_3810_6001" x1="36.4619" y1="58.3615" x2="23.9039" y2="57.6974" gradientUnits="userSpaceOnUse">
<stop stop-color="#EBEBEB"/>
<stop offset="1" stop-color="white"/>
</linearGradient>
<linearGradient id="paint1_linear_3810_6001" x1="52.2455" y1="37.7613" x2="50.7728" y2="39.141" gradientUnits="userSpaceOnUse">
<stop stop-color="#EBEBEB"/>
<stop offset="1" stop-color="white"/>
</linearGradient>
<linearGradient id="paint2_linear_3810_6001" x1="58.8379" y1="33.8115" x2="56.843" y2="35.6804" gradientUnits="userSpaceOnUse">
<stop stop-color="#EBEBEB"/>
<stop offset="1" stop-color="white"/>
</linearGradient>
<linearGradient id="paint3_linear_3810_6001" x1="121.312" y1="58.5056" x2="38.0996" y2="57.8993" gradientUnits="userSpaceOnUse">
<stop stop-color="#EBEBEB"/>
<stop offset="1" stop-color="white"/>
</linearGradient>
<linearGradient id="paint4_linear_3810_6001" x1="121.312" y1="58.5056" x2="38.0996" y2="57.8993" gradientUnits="userSpaceOnUse">
<stop stop-color="#EBEBEB"/>
<stop offset="1" stop-color="white"/>
</linearGradient>
<linearGradient id="paint5_linear_3810_6001" x1="121.312" y1="58.5056" x2="38.0996" y2="57.8993" gradientUnits="userSpaceOnUse">
<stop stop-color="#EBEBEB"/>
<stop offset="1" stop-color="white"/>
</linearGradient>
<linearGradient id="paint6_linear_3810_6001" x1="121.312" y1="58.5056" x2="38.0996" y2="57.8993" gradientUnits="userSpaceOnUse">
<stop stop-color="#EBEBEB"/>
<stop offset="1" stop-color="white"/>
</linearGradient>
<linearGradient id="paint7_linear_3810_6001" x1="121.312" y1="58.5056" x2="38.0996" y2="57.8993" gradientUnits="userSpaceOnUse">
<stop stop-color="#EBEBEB"/>
<stop offset="1" stop-color="white"/>
</linearGradient>
<linearGradient id="paint8_linear_3810_6001" x1="121.312" y1="58.5056" x2="38.0996" y2="57.8993" gradientUnits="userSpaceOnUse">
<stop stop-color="#EBEBEB"/>
<stop offset="1" stop-color="white"/>
</linearGradient>
<linearGradient id="paint9_linear_3810_6001" x1="121.312" y1="58.5056" x2="38.0996" y2="57.8993" gradientUnits="userSpaceOnUse">
<stop stop-color="#EBEBEB"/>
<stop offset="1" stop-color="white"/>
</linearGradient>
</defs>
</svg>
