<svg width="389" height="45" viewBox="0 0 389 45" fill="none" xmlns="http://www.w3.org/2000/svg">
<path d="M20.4239 44.4004C16.2027 44.4004 12.5873 43.4819 9.57772 41.6449C6.56815 39.7883 4.25235 37.2087 2.63031 33.906C1.02781 30.6033 0.226562 26.773 0.226562 22.415C0.226562 18.057 1.02781 14.2267 2.63031 10.924C4.25235 7.62134 6.56815 5.05149 9.57772 3.21449C12.5873 1.35796 16.2027 0.429688 20.4239 0.429688C25.29 0.429688 29.3451 1.6511 32.5892 4.09391C34.8517 5.784 36.6438 7.88759 37.9652 10.4047C38.9304 12.2432 37.7546 14.373 35.7528 14.925C33.8324 15.4545 31.9004 14.3045 30.8788 12.5943C30.1348 11.3491 29.21 10.294 28.1042 9.42902C26.1304 7.86562 23.5703 7.08392 20.4239 7.08392C17.5902 7.08392 15.2256 7.71905 13.3299 8.98931C11.4538 10.2596 10.037 12.0477 9.07939 14.3537C8.14134 16.6402 7.66254 19.3273 7.643 22.415C7.643 25.5027 8.11202 28.1996 9.05007 30.5056C10.0077 32.7921 11.4343 34.5705 13.3299 35.8407C15.2256 37.111 17.5902 37.7461 20.4239 37.7461C23.5703 37.7461 26.1304 36.9644 28.1042 35.401C29.2075 34.5271 30.1307 33.47 30.8737 32.2297C31.8971 30.5216 33.8298 29.3749 35.7493 29.9041C37.753 30.4566 38.9297 32.5882 37.9647 34.4291C36.6433 36.9498 34.8514 39.062 32.5892 40.7655C29.3451 43.1887 25.29 44.4004 20.4239 44.4004Z" fill="url(#paint0_linear_3656_26250)"/>
<path d="M71.3295 43.521C69.3543 43.521 67.7532 41.9198 67.7532 39.9447V28.2778C67.7532 27.2811 67.6848 26.177 67.548 24.9653C67.4112 23.7537 67.0887 22.5909 66.5806 21.477C66.092 20.3435 65.3494 19.4153 64.3527 18.6922C63.3756 17.9691 62.0467 17.6076 60.366 17.6076C59.4671 17.6076 58.5779 17.7541 57.6985 18.0473C56.819 18.3404 56.0178 18.8485 55.2947 19.5716C54.5912 20.2751 54.0244 21.2522 53.5945 22.503C53.428 22.9799 53.2937 23.5095 53.1917 24.092C52.9323 25.5726 51.4139 26.5967 50.0313 26.0069C49.2589 25.6775 48.7468 24.9177 48.8047 24.08C48.9534 21.925 49.4557 19.9434 50.3113 18.1352C51.3666 15.9465 52.9105 14.2072 54.9429 12.9174C56.9754 11.608 59.4768 10.9533 62.4473 10.9533C64.7924 10.9533 66.7272 11.3442 68.2515 12.1259C69.7758 12.9076 70.9875 13.9043 71.8864 15.1159C72.7854 16.3275 73.4498 17.6173 73.8798 18.9853C74.3097 20.3533 74.5833 21.6529 74.7006 22.884C74.8374 24.0957 74.9058 25.0826 74.9058 25.8447V39.9447C74.9058 41.9198 73.3046 43.521 71.3295 43.521ZM49.3733 43.521C47.3981 43.521 45.797 41.9198 45.797 39.9446V4.46035C45.797 2.71996 47.2078 1.3091 48.9482 1.3091C50.6886 1.3091 52.0995 2.71997 52.0995 4.46036V23.1039C52.0995 23.3386 52.2898 23.529 52.5245 23.529C52.7593 23.529 52.9496 23.7193 52.9496 23.954V39.9446C52.9496 41.9198 51.3484 43.521 49.3733 43.521Z" fill="url(#paint1_linear_3656_26250)"/>
<path d="M91.4082 44.4004C89.1217 44.4004 87.187 43.9704 85.604 43.1106C84.021 42.2312 82.8192 41.0684 81.9984 39.6222C81.1971 38.1761 80.7965 36.5834 80.7965 34.8441C80.7965 33.3198 81.0506 31.9518 81.5587 30.7401C82.0668 29.509 82.8485 28.4537 83.9038 27.5743C84.9591 26.6753 86.3271 25.9425 88.0077 25.3757C89.278 24.9653 90.7633 24.594 92.4635 24.2618C94.1832 23.9296 96.0398 23.6267 98.0331 23.3531C99.3721 23.1581 100.75 22.9544 102.167 22.7421C102.613 22.6752 102.822 23.2773 102.43 23.5008C102.157 23.6564 101.817 23.4569 101.802 23.143C101.719 21.3114 101.235 19.9353 100.349 19.0146C99.3522 17.9789 97.6716 17.461 95.3069 17.461C93.8803 17.461 92.5026 17.7932 91.1737 18.4577C90.8254 18.6318 90.5046 18.8388 90.2114 19.0787C88.7557 20.2696 86.944 21.4342 85.1494 20.8714C83.3665 20.3122 82.3092 18.3859 83.2839 16.7919C84.0818 15.487 85.119 14.3616 86.3955 13.4157C88.6038 11.7937 91.5743 10.9827 95.3069 10.9827C98.1211 10.9827 100.593 11.4419 102.723 12.3604C104.873 13.2789 106.466 14.7837 107.502 16.8747C108.068 17.9886 108.41 19.1319 108.528 20.3044C108.645 21.4574 108.703 22.7179 108.703 24.0859V40.4283C108.703 42.1363 107.319 43.521 105.611 43.521H104.444C103.38 43.521 102.518 42.6587 102.518 41.5951V37.8288C102.518 37.4138 103.028 37.2148 103.309 37.5201C103.448 37.6709 103.469 37.8965 103.358 38.0686C101.973 40.2061 100.364 41.7891 98.5315 42.8174C96.6358 43.8727 94.2614 44.4004 91.4082 44.4004ZM92.8152 38.7721C94.4177 38.7721 95.7857 38.4888 96.9192 37.922C98.0527 37.3553 98.9516 36.6615 99.6161 35.8407C100.3 35.02 100.759 34.248 100.994 33.525C101.365 32.626 101.57 31.6 101.609 30.447C101.655 29.5397 101.683 28.767 101.693 28.1288C101.697 27.8667 101.95 27.6786 102.201 27.7533C102.602 27.8724 102.563 28.4528 102.15 28.5181C100.738 28.7417 99.4828 28.9449 98.3849 29.1279C96.8606 29.3819 95.5512 29.6262 94.4568 29.8607C93.3624 30.0757 92.3951 30.32 91.5547 30.5936C90.7339 30.8867 90.0402 31.2287 89.4734 31.6196C88.9067 32.0104 88.467 32.4599 88.1543 32.968C87.8612 33.4761 87.7146 34.0721 87.7146 34.7561C87.7146 35.5378 87.91 36.2316 88.3009 36.8374C88.6917 37.4237 89.2585 37.8927 90.0011 38.2445C90.7633 38.5962 91.7013 38.7721 92.8152 38.7721Z" fill="url(#paint2_linear_3656_26250)"/>
<path d="M120.161 7.0546C118.372 7.0546 116.921 5.60438 116.921 3.81543C116.921 2.02648 118.372 0.576256 120.161 0.576256H120.747C122.536 0.576256 123.986 2.02648 123.986 3.81543C123.986 5.60438 122.536 7.0546 120.747 7.0546H120.161ZM120.454 43.521C118.503 43.521 116.921 41.9395 116.921 39.9886V15.3944C116.921 13.4435 118.503 11.8621 120.454 11.8621C122.405 11.8621 123.986 13.4435 123.986 15.3944V39.9886C123.986 41.9395 122.405 43.521 120.454 43.521Z" fill="url(#paint3_linear_3656_26250)"/>
<path d="M158.241 43.521C156.266 43.521 154.665 41.9198 154.665 39.9446V28.2778C154.665 27.2811 154.596 26.177 154.459 24.9653C154.323 23.7537 154 22.5909 153.492 21.477C153.003 20.3435 152.261 19.4153 151.264 18.6922C150.287 17.9691 148.958 17.6076 147.277 17.6076C146.378 17.6076 145.489 17.7541 144.61 18.0473C143.73 18.3404 142.929 18.8485 142.206 19.5716C141.503 20.2751 140.936 21.2522 140.506 22.503C140.339 22.9799 140.205 23.5095 140.103 24.092C139.844 25.5726 138.325 26.5967 136.943 26.0069C136.17 25.6775 135.658 24.9177 135.716 24.08C135.865 21.925 136.367 19.9434 137.223 18.1352C138.278 15.9465 139.822 14.2072 141.854 12.9174C143.887 11.608 146.388 10.9533 149.359 10.9533C151.704 10.9533 153.639 11.3442 155.163 12.1259C156.687 12.9076 157.899 13.9043 158.798 15.1159C159.697 16.3275 160.361 17.6173 160.791 18.9853C161.221 20.3533 161.495 21.6529 161.612 22.884C161.749 24.0957 161.817 25.0826 161.817 25.8447V39.9446C161.817 41.9198 160.216 43.521 158.241 43.521ZM136.285 43.521C134.31 43.521 132.708 41.9198 132.708 39.9447V15.0133C132.708 13.2729 134.119 11.8621 135.86 11.8621C137.6 11.8621 139.011 13.2729 139.011 15.0133V21.2571C139.011 21.4919 139.201 21.6822 139.436 21.6822C139.671 21.6822 139.861 21.8725 139.861 22.1072V39.9446C139.861 41.9198 138.26 43.521 136.285 43.521Z" fill="url(#paint4_linear_3656_26250)"/>
<path d="M172.999 43.521C171.048 43.521 169.467 41.9395 169.467 39.9886V9.30909C169.467 4.89081 173.048 1.3091 177.467 1.3091H191.35C193.3 1.3091 194.882 2.89057 194.882 4.84141C194.882 6.79225 193.3 8.37373 191.35 8.37373H181.793C178.887 8.37373 176.531 10.7295 176.531 13.6355C176.531 16.5416 178.887 18.8974 181.793 18.8974H187.847C189.789 18.8974 191.364 20.4723 191.364 22.415C191.364 24.3578 189.789 25.9327 187.847 25.9327H183.948C179.852 25.9327 176.531 29.2531 176.531 33.3491V39.9886C176.531 41.9395 174.95 43.521 172.999 43.521Z" fill="#6B4EFF"/>
<path d="M212.027 44.4297C209.682 44.4297 207.747 44.0388 206.223 43.2571C204.698 42.4754 203.487 41.4788 202.588 40.2671C201.689 39.0555 201.024 37.7657 200.595 36.3977C200.165 35.0297 199.881 33.7399 199.744 32.5283C199.627 31.2971 199.569 30.3004 199.569 29.5383V15.4384C199.569 13.4632 201.17 11.8621 203.145 11.8621C205.12 11.8621 206.721 13.4632 206.721 15.4384V27.1052C206.721 28.0824 206.79 29.1865 206.926 30.4177C207.063 31.6293 207.376 32.8019 207.864 33.9353C208.372 35.0493 209.115 35.9678 210.092 36.6908C211.089 37.4139 212.428 37.7755 214.108 37.7755C215.007 37.7755 215.896 37.6289 216.776 37.3357C217.655 37.0426 218.447 36.5443 219.15 35.8407C219.873 35.1177 220.45 34.1308 220.88 32.8801C221.045 32.3994 221.179 31.8696 221.28 31.2908C221.54 29.8103 223.06 28.7863 224.443 29.3761C225.215 29.7056 225.728 30.4654 225.669 31.303C225.517 33.458 225.005 35.4396 224.134 37.2478C223.098 39.4366 221.564 41.1856 219.531 42.495C217.499 43.7848 214.997 44.4297 212.027 44.4297ZM225.497 43.521C223.773 43.521 222.375 42.1232 222.375 40.399V34.1259C222.375 33.8911 222.184 33.7008 221.95 33.7008C221.715 33.7008 221.525 33.5105 221.525 33.2758V15.4091C221.525 13.4501 223.113 11.8621 225.072 11.8621C227.031 11.8621 228.619 13.4501 228.619 15.4091V40.399C228.619 42.1232 227.221 43.521 225.497 43.521Z" fill="#6B4EFF"/>
<path d="M262.328 43.521C260.353 43.521 258.752 41.9198 258.752 39.9447V28.2778C258.752 27.2811 258.684 26.177 258.547 24.9653C258.41 23.7537 258.088 22.5909 257.58 21.477C257.091 20.3435 256.348 19.4153 255.352 18.6922C254.375 17.9691 253.046 17.6076 251.365 17.6076C250.466 17.6076 249.577 17.7541 248.697 18.0473C247.818 18.3404 247.017 18.8485 246.294 19.5716C245.59 20.2751 245.023 21.2522 244.593 22.503C244.427 22.9799 244.293 23.5095 244.191 24.092C243.931 25.5726 242.413 26.5967 241.03 26.0069C240.258 25.6775 239.746 24.9177 239.804 24.08C239.952 21.925 240.455 19.9434 241.31 18.1352C242.366 15.9465 243.909 14.2072 245.942 12.9174C247.974 11.608 250.476 10.9533 253.446 10.9533C255.791 10.9533 257.726 11.3442 259.25 12.1259C260.775 12.9076 261.986 13.9043 262.885 15.1159C263.784 16.3275 264.449 17.6173 264.879 18.9853C265.309 20.3533 265.582 21.6529 265.699 22.884C265.836 24.0957 265.905 25.0826 265.905 25.8447V39.9447C265.905 41.9198 264.304 43.521 262.328 43.521ZM240.372 43.521C238.397 43.521 236.796 41.9198 236.796 39.9446V15.0133C236.796 13.2729 238.207 11.8621 239.947 11.8621C241.688 11.8621 243.098 13.2729 243.098 15.0133V21.2571C243.098 21.4919 243.289 21.6822 243.523 21.6822C243.758 21.6822 243.949 21.8725 243.949 22.1072V39.9446C243.949 41.9198 242.347 43.521 240.372 43.521Z" fill="#6B4EFF"/>
<path d="M285.732 44.4004C282.82 44.4004 280.28 43.6675 278.11 42.2018C275.941 40.7361 274.26 38.7428 273.068 36.2218C271.876 33.7008 271.28 30.8574 271.28 27.6915C271.28 24.4865 271.876 21.6333 273.068 19.1319C274.28 16.6109 275.99 14.6273 278.198 13.1812C280.407 11.7155 283.006 10.9827 285.996 10.9827C289.005 10.9827 291.526 11.7155 293.559 13.1812C295.611 14.6273 297.164 16.6109 298.22 19.1319C299.275 21.6529 299.803 24.5061 299.803 27.6915C299.803 30.8379 299.275 33.6813 298.22 36.2218C297.164 38.7428 295.591 40.7361 293.5 42.2018C291.409 43.6675 288.82 44.4004 285.732 44.4004ZM286.817 38.0686C288.712 38.0686 290.237 37.6387 291.39 36.7788C292.562 35.8994 293.412 34.678 293.94 33.1146C294.487 31.5512 294.761 29.7435 294.761 27.6915C294.761 25.62 294.487 23.8123 293.94 22.2685C293.412 20.7051 292.582 19.4934 291.448 18.6336C290.315 17.7541 288.849 17.3144 287.051 17.3144C285.155 17.3144 283.592 17.7834 282.361 18.7215C281.13 19.64 280.221 20.8907 279.635 22.4737C279.048 24.0371 278.755 25.7763 278.755 27.6915C278.755 29.6262 279.039 31.385 279.605 32.968C280.192 34.5314 281.081 35.7723 282.273 36.6908C283.465 37.6093 284.98 38.0686 286.817 38.0686ZM297.883 43.521C296.158 43.521 294.761 42.1232 294.761 40.399V21.7408C294.761 21.498 294.564 21.3011 294.321 21.3011C294.078 21.3011 293.881 21.1042 293.881 20.8614V4.87075C293.881 2.9037 295.476 1.3091 297.443 1.3091C299.41 1.3091 301.005 2.9037 301.005 4.87075V40.399C301.005 42.1232 299.607 43.521 297.883 43.521Z" fill="#6B4EFF"/>
<path d="M312.536 43.521C310.706 43.521 309.223 42.0379 309.223 40.2085V5.22465C309.223 3.06215 310.976 1.3091 313.139 1.3091C314.635 1.3091 316.001 2.16202 316.658 3.50675L322.994 16.485C325.917 22.4718 334.449 22.4718 337.372 16.485L343.708 3.50675C344.365 2.16202 345.73 1.3091 347.227 1.3091C349.389 1.3091 351.142 3.06215 351.142 5.22465V40.2231C351.142 42.0445 349.666 43.521 347.845 43.521C346.023 43.521 344.547 42.0445 344.547 40.2231V38.5137C344.547 33.1836 337.326 31.5437 335.023 36.3511L332.197 42.2525C331.826 43.0277 331.043 43.521 330.184 43.521C329.323 43.521 328.54 43.0269 328.169 42.2507L325.358 36.367C323.063 31.5635 315.848 33.1984 315.848 38.5221V40.2085C315.848 42.0379 314.365 43.521 312.536 43.521Z" fill="url(#paint5_linear_3656_26250)"/>
<path d="M373.771 44.4004C370.566 44.4004 367.752 43.7066 365.329 42.3191C362.905 40.9316 361.01 39.0066 359.642 36.5443C358.293 34.0819 357.619 31.2483 357.619 28.0433C357.619 24.5842 358.283 21.5845 359.612 19.0439C360.941 16.4839 362.788 14.5003 365.153 13.0932C367.517 11.6862 370.253 10.9827 373.361 10.9827C376.644 10.9827 379.429 11.7546 381.715 13.2984C384.021 14.8228 385.731 16.9822 386.845 19.7768C387.614 21.7071 388.053 23.8751 388.16 26.281C388.245 28.1821 386.632 29.6555 384.729 29.6555H383.679C382.254 29.6555 381.099 28.5006 381.099 27.0759C381.08 23.6364 380.474 21.1252 379.282 19.5423C378.09 17.9593 376.214 17.1679 373.654 17.1679C370.761 17.1679 368.612 18.0668 367.205 19.8647C365.798 21.6431 365.094 24.252 365.094 27.6915C365.094 30.8965 365.798 33.3784 367.205 35.1372C368.612 36.896 370.664 37.7755 373.361 37.7755C375.1 37.7755 376.595 37.3944 377.846 36.6322C378.231 36.3953 378.589 36.1269 378.92 35.8271C380.277 34.5989 382.077 33.6545 383.829 34.1845C385.925 34.8184 387.042 37.181 385.673 38.8898C384.686 40.122 383.503 41.1674 382.125 42.026C379.604 43.6089 376.82 44.4004 373.771 44.4004ZM365.534 29.6555C364.06 29.6555 362.866 28.4612 362.866 26.988C362.866 25.5147 364.06 24.3204 365.534 24.3204H381.979C383.452 24.3204 384.646 25.5147 384.646 26.988C384.646 28.4612 383.452 29.6555 381.979 29.6555H365.534Z" fill="url(#paint6_linear_3656_26250)"/>
<defs>
<linearGradient id="paint0_linear_3656_26250" x1="122.828" y1="49.7987" x2="-55.4467" y2="48.4999" gradientUnits="userSpaceOnUse">
<stop stop-color="#EBEBEB"/>
<stop offset="1" stop-color="white"/>
</linearGradient>
<linearGradient id="paint1_linear_3656_26250" x1="122.828" y1="49.7987" x2="-55.4467" y2="48.4999" gradientUnits="userSpaceOnUse">
<stop stop-color="#EBEBEB"/>
<stop offset="1" stop-color="white"/>
</linearGradient>
<linearGradient id="paint2_linear_3656_26250" x1="122.828" y1="49.7987" x2="-55.4467" y2="48.4999" gradientUnits="userSpaceOnUse">
<stop stop-color="#EBEBEB"/>
<stop offset="1" stop-color="white"/>
</linearGradient>
<linearGradient id="paint3_linear_3656_26250" x1="122.828" y1="49.7987" x2="-55.4467" y2="48.4999" gradientUnits="userSpaceOnUse">
<stop stop-color="#EBEBEB"/>
<stop offset="1" stop-color="white"/>
</linearGradient>
<linearGradient id="paint4_linear_3656_26250" x1="122.828" y1="49.7987" x2="-55.4467" y2="48.4999" gradientUnits="userSpaceOnUse">
<stop stop-color="#EBEBEB"/>
<stop offset="1" stop-color="white"/>
</linearGradient>
<linearGradient id="paint5_linear_3656_26250" x1="122.828" y1="49.7987" x2="-55.4467" y2="48.4999" gradientUnits="userSpaceOnUse">
<stop stop-color="#EBEBEB"/>
<stop offset="1" stop-color="white"/>
</linearGradient>
<linearGradient id="paint6_linear_3656_26250" x1="122.828" y1="49.7987" x2="-55.4467" y2="48.4999" gradientUnits="userSpaceOnUse">
<stop stop-color="#EBEBEB"/>
<stop offset="1" stop-color="white"/>
</linearGradient>
</defs>
</svg>
