<svg width="389" height="45" viewBox="0 0 389 45" fill="none" xmlns="http://www.w3.org/2000/svg">
<path d="M20.5801 44.1211C16.3589 44.1211 12.7435 43.2026 9.73397 41.3656C6.7244 39.509 4.4086 36.9294 2.78656 33.6267C1.18406 30.3241 0.382812 26.4937 0.382812 22.1357C0.382812 17.7777 1.18406 13.9474 2.78656 10.6447C4.4086 7.34204 6.7244 4.7722 9.73397 2.9352C12.7435 1.07866 16.3589 0.150391 20.5801 0.150391C25.4463 0.150391 29.5014 1.3718 32.7454 3.81461C35.008 5.5047 36.8 7.60829 38.1215 10.1254C39.0867 11.9639 37.9108 14.0937 35.9091 14.6457C33.9886 15.1752 32.0567 14.0252 31.035 12.315C30.2911 11.0698 29.3662 10.0147 28.2604 9.14972C26.2866 7.58632 23.7265 6.80462 20.5801 6.80462C17.7465 6.80462 15.3818 7.43975 13.4862 8.71002C11.6101 9.98028 10.1932 11.7684 9.23564 14.0744C8.29759 16.3609 7.81879 19.048 7.79925 22.1357C7.79925 25.2235 8.26827 27.9203 9.20632 30.2263C10.1639 32.5128 11.5905 34.2912 13.4862 35.5614C15.3818 36.8317 17.7465 37.4668 20.5801 37.4668C23.7265 37.4668 26.2866 36.6851 28.2604 35.1217C29.3637 34.2478 30.2869 33.1907 31.03 31.9504C32.0533 30.2423 33.986 29.0956 35.9056 29.6248C37.9093 30.1773 39.0859 32.3089 38.1209 34.1498C36.7995 36.6706 35.0077 38.7827 32.7454 40.4862C29.5014 42.9094 25.4463 44.1211 20.5801 44.1211Z" fill="white"/>
<path d="M71.4857 43.2417C69.5106 43.2417 67.9094 41.6405 67.9094 39.6654V27.9985C67.9094 27.0018 67.841 25.8977 67.7042 24.686C67.5674 23.4744 67.245 22.3116 66.7368 21.1977C66.2483 20.0642 65.5057 19.136 64.509 18.4129C63.5318 17.6898 62.2029 17.3283 60.5223 17.3283C59.6233 17.3283 58.7341 17.4748 57.8547 17.768C56.9753 18.0611 56.174 18.5692 55.451 19.2923C54.7474 19.9958 54.1807 20.973 53.7508 22.2237C53.5842 22.7006 53.4499 23.2302 53.3479 23.8127C53.0885 25.2933 51.5702 26.3174 50.1875 25.7276C49.4151 25.3982 48.9031 24.6384 48.9609 23.8007C49.1097 21.6457 49.6119 19.6641 50.4676 17.8559C51.5229 15.6672 53.0668 13.9279 55.0992 12.6381C57.1316 11.3287 59.6331 10.674 62.6036 10.674C64.9487 10.674 66.8834 11.0649 68.4077 11.8466C69.9321 12.6283 71.1437 13.625 72.0427 14.8366C72.9416 16.0482 73.6061 17.338 74.036 18.706C74.466 20.074 74.7396 21.3736 74.8568 22.6048C74.9936 23.8164 75.062 24.8033 75.062 25.5654V39.6654C75.062 41.6405 73.4608 43.2417 71.4857 43.2417ZM49.5295 43.2417C47.5544 43.2417 45.9532 41.6405 45.9532 39.6654V4.18105C45.9532 2.44066 47.3641 1.0298 49.1045 1.0298C50.8449 1.0298 52.2557 2.44067 52.2557 4.18106V22.8246C52.2557 23.0594 52.446 23.2497 52.6808 23.2497C52.9155 23.2497 53.1058 23.44 53.1058 23.6747V39.6654C53.1058 41.6405 51.5047 43.2417 49.5295 43.2417Z" fill="white"/>
<path d="M91.5644 44.1211C89.2779 44.1211 87.3432 43.6911 85.7602 42.8313C84.1773 41.9519 82.9754 40.7891 82.1546 39.3429C81.3534 37.8968 80.9528 36.3041 80.9528 34.5648C80.9528 33.0405 81.2068 31.6725 81.7149 30.4608C82.223 29.2297 83.0047 28.1744 84.06 27.295C85.1153 26.396 86.4833 25.6632 88.164 25.0964C89.4343 24.686 90.9195 24.3147 92.6197 23.9825C94.3395 23.6503 96.196 23.3474 98.1894 23.0738C99.5284 22.8788 100.906 22.6751 102.323 22.4628C102.77 22.3959 102.979 22.998 102.586 23.2215C102.313 23.3771 101.973 23.1776 101.959 22.8637C101.876 21.0321 101.391 19.656 100.505 18.7353C99.5085 17.6996 97.8278 17.1817 95.4632 17.1817C94.0366 17.1817 92.6588 17.5139 91.3299 18.1784C90.9816 18.3525 90.6609 18.5595 90.3677 18.7994C88.9119 19.9904 87.1002 21.1549 85.3056 20.5921C83.5228 20.0329 82.4654 18.1066 83.4402 16.5126C84.2381 15.2077 85.2753 14.0823 86.5517 13.1364C88.76 11.5144 91.7305 10.7034 95.4632 10.7034C98.2773 10.7034 100.749 11.1626 102.88 12.0811C105.029 12.9996 106.622 14.5044 107.658 16.5954C108.225 17.7094 108.567 18.8526 108.684 20.0251C108.801 21.1781 108.86 22.4386 108.86 23.8066V40.149C108.86 41.857 107.475 43.2417 105.767 43.2417H104.6C103.537 43.2417 102.674 42.3794 102.674 41.3158V37.5495C102.674 37.1345 103.184 36.9355 103.465 37.2408C103.604 37.3916 103.626 37.6172 103.514 37.7893C102.129 39.9268 100.52 41.5098 98.6877 42.5381C96.7921 43.5934 94.4176 44.1211 91.5644 44.1211ZM92.9715 38.4928C94.574 38.4928 95.942 38.2095 97.0754 37.6427C98.2089 37.076 99.1079 36.3822 99.7723 35.5614C100.456 34.7407 100.916 33.9687 101.15 33.2457C101.521 32.3467 101.727 31.3207 101.766 30.1677C101.811 29.2604 101.839 28.4877 101.849 27.8495C101.853 27.5874 102.106 27.3993 102.357 27.474C102.758 27.5931 102.719 28.1735 102.306 28.2388C100.894 28.4624 99.639 28.6656 98.5411 28.8486C97.0168 29.1026 95.7075 29.3469 94.6131 29.5814C93.5187 29.7964 92.5513 30.0407 91.711 30.3143C90.8902 30.6074 90.1964 30.9494 89.6297 31.3403C89.063 31.7311 88.6232 32.1806 88.3106 32.6887C88.0174 33.1968 87.8708 33.7928 87.8708 34.4768C87.8708 35.2585 88.0663 35.9523 88.4571 36.5581C88.848 37.1444 89.4147 37.6134 90.1573 37.9652C90.9195 38.3169 91.8576 38.4928 92.9715 38.4928Z" fill="white"/>
<path d="M120.317 6.77531C118.528 6.77531 117.078 5.32508 117.078 3.53613C117.078 1.74719 118.528 0.296959 120.317 0.296959H120.903C122.692 0.296959 124.142 1.74719 124.142 3.53613C124.142 5.32508 122.692 6.77531 120.903 6.77531H120.317ZM120.61 43.2417C118.659 43.2417 117.078 41.6602 117.078 39.7093V15.1151C117.078 13.1643 118.659 11.5828 120.61 11.5828C122.561 11.5828 124.142 13.1642 124.142 15.1151V39.7093C124.142 41.6602 122.561 43.2417 120.61 43.2417Z" fill="white"/>
<path d="M158.397 43.2417C156.422 43.2417 154.821 41.6405 154.821 39.6654V27.9985C154.821 27.0018 154.752 25.8977 154.616 24.686C154.479 23.4744 154.156 22.3116 153.648 21.1977C153.16 20.0642 152.417 19.136 151.42 18.4129C150.443 17.6898 149.114 17.3283 147.434 17.3283C146.535 17.3283 145.646 17.4748 144.766 17.768C143.887 18.0611 143.085 18.5692 142.362 19.2923C141.659 19.9958 141.092 20.973 140.662 22.2237C140.496 22.7006 140.361 23.2302 140.259 23.8127C140 25.2933 138.482 26.3174 137.099 25.7276C136.327 25.3982 135.814 24.6384 135.872 23.8007C136.021 21.6457 136.523 19.6641 137.379 17.8559C138.434 15.6672 139.978 13.9279 142.011 12.6381C144.043 11.3287 146.544 10.674 149.515 10.674C151.86 10.674 153.795 11.0649 155.319 11.8466C156.843 12.6283 158.055 13.625 158.954 14.8366C159.853 16.0482 160.517 17.338 160.947 18.706C161.377 20.074 161.651 21.3736 161.768 22.6048C161.905 23.8164 161.973 24.8033 161.973 25.5654V39.6653C161.973 41.6405 160.372 43.2417 158.397 43.2417ZM136.441 43.2417C134.466 43.2417 132.865 41.6405 132.865 39.6654V14.734C132.865 12.9936 134.275 11.5828 136.016 11.5828C137.756 11.5828 139.167 12.9936 139.167 14.734V20.9778C139.167 21.2126 139.357 21.4029 139.592 21.4029C139.827 21.4029 140.017 21.5932 140.017 21.8279V39.6654C140.017 41.6405 138.416 43.2417 136.441 43.2417Z" fill="white"/>
<path d="M173.155 43.2417C171.204 43.2417 169.623 41.6602 169.623 39.7093V9.02979C169.623 4.61151 173.205 1.0298 177.623 1.0298H191.506C193.457 1.0298 195.038 2.61127 195.038 4.56212C195.038 6.51296 193.457 8.09443 191.506 8.09443H181.949C179.043 8.09443 176.688 10.4502 176.688 13.3563C176.688 16.2623 179.043 18.6181 181.949 18.6181H188.003C189.946 18.6181 191.521 20.193 191.521 22.1357C191.521 24.0785 189.946 25.6534 188.003 25.6534H184.104C180.008 25.6534 176.688 28.9738 176.688 33.0698V39.7093C176.688 41.6602 175.106 43.2417 173.155 43.2417Z" fill="#00B875"/>
<path d="M212.183 44.1504C209.838 44.1504 207.903 43.7595 206.379 42.9778C204.855 42.1961 203.643 41.1995 202.744 39.9878C201.845 38.7762 201.181 37.4864 200.751 36.1184C200.321 34.7504 200.037 33.4606 199.901 32.249C199.783 31.0178 199.725 30.0211 199.725 29.259V15.1591C199.725 13.1839 201.326 11.5828 203.301 11.5828C205.276 11.5828 206.877 13.1839 206.877 15.1591V26.8259C206.877 27.8031 206.946 28.9072 207.083 30.1384C207.219 31.35 207.532 32.5226 208.021 33.6561C208.529 34.77 209.271 35.6885 210.248 36.4115C211.245 37.1346 212.584 37.4962 214.265 37.4962C215.163 37.4962 216.053 37.3496 216.932 37.0564C217.812 36.7633 218.603 36.265 219.307 35.5614C220.03 34.8384 220.606 33.8515 221.036 32.6008C221.201 32.1201 221.335 31.5903 221.436 31.0115C221.697 29.531 223.217 28.507 224.599 29.0968C225.372 29.4263 225.884 30.1861 225.825 31.0237C225.673 33.1787 225.162 35.1603 224.29 36.9685C223.254 39.1573 221.72 40.9063 219.688 42.2157C217.655 43.5055 215.154 44.1504 212.183 44.1504ZM225.653 43.2417C223.929 43.2417 222.531 41.8439 222.531 40.1197V33.8466C222.531 33.6118 222.341 33.4215 222.106 33.4215C221.871 33.4215 221.681 33.2312 221.681 32.9965V15.1298C221.681 13.1708 223.269 11.5828 225.228 11.5828C227.187 11.5828 228.775 13.1708 228.775 15.1298V40.1197C228.775 41.8439 227.377 43.2417 225.653 43.2417Z" fill="#00B875"/>
<path d="M262.485 43.2417C260.509 43.2417 258.908 41.6405 258.908 39.6654V27.9985C258.908 27.0018 258.84 25.8977 258.703 24.686C258.566 23.4744 258.244 22.3116 257.736 21.1977C257.247 20.0642 256.505 19.136 255.508 18.4129C254.531 17.6898 253.202 17.3283 251.521 17.3283C250.622 17.3283 249.733 17.4748 248.854 17.768C247.974 18.0611 247.173 18.5692 246.45 19.2923C245.746 19.9958 245.18 20.973 244.75 22.2237C244.583 22.7006 244.449 23.2302 244.347 23.8127C244.087 25.2933 242.569 26.3174 241.186 25.7276C240.414 25.3982 239.902 24.6384 239.96 23.8007C240.109 21.6457 240.611 19.6641 241.467 17.8559C242.522 15.6672 244.066 13.9279 246.098 12.6381C248.131 11.3287 250.632 10.674 253.602 10.674C255.948 10.674 257.882 11.0649 259.407 11.8466C260.931 12.6283 262.143 13.625 263.042 14.8366C263.941 16.0482 264.605 17.338 265.035 18.706C265.465 20.074 265.738 21.3736 265.856 22.6048C265.993 23.8164 266.061 24.8033 266.061 25.5654V39.6654C266.061 41.6405 264.46 43.2417 262.485 43.2417ZM240.528 43.2417C238.553 43.2417 236.952 41.6405 236.952 39.6653V14.734C236.952 12.9936 238.363 11.5828 240.103 11.5828C241.844 11.5828 243.255 12.9936 243.255 14.734V20.9778C243.255 21.2126 243.445 21.4029 243.68 21.4029C243.914 21.4029 244.105 21.5932 244.105 21.8279V39.6653C244.105 41.6405 242.504 43.2417 240.528 43.2417Z" fill="#00B875"/>
<path d="M285.888 44.1211C282.976 44.1211 280.436 43.3882 278.267 41.9225C276.097 40.4568 274.417 38.4635 273.225 35.9425C272.032 33.4215 271.436 30.5781 271.436 27.4122C271.436 24.2072 272.032 21.354 273.225 18.8526C274.436 16.3316 276.146 14.348 278.354 12.9019C280.563 11.4362 283.162 10.7034 286.152 10.7034C289.162 10.7034 291.683 11.4362 293.715 12.9019C295.767 14.348 297.321 16.3316 298.376 18.8526C299.431 21.3736 299.959 24.2268 299.959 27.4122C299.959 30.5586 299.431 33.402 298.376 35.9425C297.321 38.4635 295.747 40.4568 293.656 41.9225C291.565 43.3882 288.976 44.1211 285.888 44.1211ZM286.973 37.7893C288.868 37.7893 290.393 37.3594 291.546 36.4995C292.718 35.6201 293.568 34.3987 294.096 32.8353C294.643 31.2719 294.917 29.4642 294.917 27.4122C294.917 25.3407 294.643 23.533 294.096 21.9892C293.568 20.4258 292.738 19.2141 291.604 18.3543C290.471 17.4748 289.005 17.0351 287.207 17.0351C285.312 17.0351 283.748 17.5042 282.517 18.4422C281.286 19.3607 280.377 20.6114 279.791 22.1944C279.205 23.7578 278.911 25.497 278.911 27.4122C278.911 29.3469 279.195 31.1058 279.762 32.6887C280.348 34.2521 281.237 35.493 282.429 36.4115C283.621 37.33 285.136 37.7893 286.973 37.7893ZM298.039 43.2417C296.315 43.2417 294.917 41.8439 294.917 40.1197V21.4615C294.917 21.2187 294.72 21.0218 294.477 21.0218C294.234 21.0218 294.037 20.8249 294.037 20.5821V4.59145C294.037 2.62441 295.632 1.0298 297.599 1.0298C299.566 1.0298 301.161 2.62441 301.161 4.59145V40.1197C301.161 41.8439 299.763 43.2417 298.039 43.2417Z" fill="#00B875"/>
<path d="M312.692 43.2417C310.863 43.2417 309.38 41.7586 309.38 39.9292V4.94535C309.38 2.78285 311.133 1.0298 313.295 1.0298C314.792 1.0298 316.157 1.88272 316.814 3.22745L323.15 16.2057C326.073 22.1925 334.605 22.1925 337.528 16.2057L343.865 3.22745C344.521 1.88272 345.887 1.0298 347.383 1.0298C349.546 1.0298 351.299 2.78285 351.299 4.94535V39.9438C351.299 41.7652 349.822 43.2417 348.001 43.2417C346.18 43.2417 344.703 41.7652 344.703 39.9438V38.2344C344.703 32.9043 337.482 31.2645 335.18 36.0718L332.354 41.9732C331.982 42.7484 331.199 43.2417 330.34 43.2417C329.48 43.2417 328.696 42.7476 328.325 41.9715L325.514 36.0877C323.219 31.2842 316.005 32.9191 316.005 38.2428V39.9292C316.005 41.7586 314.522 43.2417 312.692 43.2417Z" fill="white"/>
<path d="M373.927 44.1211C370.722 44.1211 367.908 43.4273 365.485 42.0398C363.061 40.6523 361.166 38.7273 359.798 36.265C358.449 33.8026 357.775 30.969 357.775 27.764C357.775 24.305 358.44 21.3052 359.769 18.7646C361.097 16.2046 362.944 14.221 365.309 12.8139C367.674 11.4069 370.41 10.7034 373.517 10.7034C376.8 10.7034 379.585 11.4753 381.871 13.0191C384.177 14.5435 385.887 16.7029 387.001 19.4975C387.771 21.4278 388.209 23.5958 388.317 26.0017C388.401 27.9028 386.788 29.3762 384.885 29.3762H383.835C382.411 29.3762 381.256 28.2213 381.256 26.7966C381.236 23.3571 380.63 20.8459 379.438 19.263C378.246 17.68 376.37 16.8886 373.81 16.8886C370.918 16.8886 368.768 17.7875 367.361 19.5854C365.954 21.3638 365.25 23.9727 365.25 27.4122C365.25 30.6172 365.954 33.0991 367.361 34.8579C368.768 36.6167 370.82 37.4962 373.517 37.4962C375.256 37.4962 376.751 37.1151 378.002 36.3529C378.387 36.116 378.745 35.8476 379.076 35.5478C380.433 34.3196 382.234 33.3752 383.985 33.9052C386.081 34.5391 387.198 36.9017 385.829 38.6105C384.842 39.8427 383.66 40.8881 382.282 41.7467C379.761 43.3296 376.976 44.1211 373.927 44.1211ZM365.69 29.3762C364.217 29.3762 363.022 28.1819 363.022 26.7087C363.022 25.2354 364.217 24.0411 365.69 24.0411H382.135C383.608 24.0411 384.803 25.2354 384.803 26.7087C384.803 28.1819 383.608 29.3762 382.135 29.3762H365.69Z" fill="white"/>
</svg>
